<svg xmlns="http://www.w3.org/2000/svg" xml:space="preserve" style="fill-rule:evenodd;clip-rule:evenodd;stroke-linejoin:round;stroke-miterlimit:2" viewBox="0 0 405 405">
  <path d="M0-5.071c0-6.846-5.446-12.439-12.23-12.687-1.745-4.928-6.452-8.469-11.971-8.469-5.518 0-10.224 3.541-11.971 8.469-6.784.248-12.228 5.842-12.228 12.687 0 4.062 1.92 7.683 4.899 10.009a12.7 12.7 0 0 0-.501 3.524c0 6.998 5.695 12.694 12.697 12.694 2.657 0 5.124-.822 7.166-2.223a12.6 12.6 0 0 0 7.044 2.139c7 0 12.696-5.696 12.696-12.695 0-1.198-.17-2.356-.481-3.454C-1.913 2.596 0-1.018 0-5.071m-14.06-8.459c0 5.082-3.762 9.29-8.645 10.017a10 10 0 0 1-.132-1.558c0-5.083 3.761-9.292 8.644-10.018.079.509.133 1.027.133 1.559m-10.094 29.17a10.11 10.11 0 0 1-.093-14.444 10.1 10.1 0 0 1 3.082 7.266 10.1 10.1 0 0 1-2.989 7.178m-10.054-30.729c4.883.726 8.645 4.935 8.645 10.018 0 .53-.054 1.049-.133 1.558-4.883-.727-8.645-4.935-8.645-10.017 0-.532.054-1.05.133-1.559m7.56 14.553c-1.668 3.318-5.096 5.605-9.056 5.605-1.679 0-3.262-.418-4.658-1.144 1.668-3.317 5.097-5.604 9.057-5.604 1.68 0 3.261.417 4.657 1.143m4.862-.068a10.06 10.06 0 0 1 4.691-1.159c3.986 0 7.433 2.319 9.09 5.672a10.1 10.1 0 0 1-4.691 1.16c-3.988 0-7.435-2.319-9.09-5.673m-2.415-23.066c4.155 0 7.729 2.513 9.295 6.097-4.125.728-7.568 3.45-9.295 7.135-1.725-3.685-5.169-6.408-9.294-7.135 1.565-3.584 5.14-6.097 9.294-6.097M-45.844-5.071c0-5.225 3.971-9.537 9.053-10.082a12.67 12.67 0 0 0 4.042 11.002c-4.212.48-7.804 3.025-9.735 6.598-2.057-1.857-3.36-4.535-3.36-7.518m4.399 13.533q.002-1.083.221-2.101a12.6 12.6 0 0 0 5.52 1.264c2.224 0 4.312-.576 6.131-1.583a12.65 12.65 0 0 0 3.369 11.166 10.06 10.06 0 0 1-5.101 1.392c-5.592 0-10.14-4.549-10.14-10.138m34.49-.085c0 5.59-4.549 10.139-10.14 10.139a10.06 10.06 0 0 1-5-1.33 12.65 12.65 0 0 0 3.25-11.154 12.6 12.6 0 0 0 6.149 1.593c1.983 0 3.863-.458 5.536-1.274q.204.985.205 2.026m-8.619-12.602a12.66 12.66 0 0 0 3.964-10.928c5.081.545 9.054 4.857 9.054 10.082 0 2.968-1.29 5.635-3.332 7.491-1.911-3.58-5.486-6.141-9.686-6.645" style="fill:#14496b;fill-rule:nonzero" transform="matrix(4.16666 0 0 4.16667 302.99 266.544)"/>
</svg>
