<!DOCTYPE svg PUBLIC "-//W3C//DTD SVG 1.1//EN" "http://www.w3.org/Graphics/SVG/1.1/DTD/svg11.dtd">
<svg xmlns="http://www.w3.org/2000/svg" xml:space="preserve" style="fill-rule:evenodd;clip-rule:evenodd;stroke-linejoin:round;stroke-miterlimit:2" viewBox="0 0 405 405">
  <defs>
    <path id="a" d="M.065-.81h.146V0H.065z"/>
    <path id="b" d="M.061 0v-.81h.103l.197.462V-.81h.122V0H.385L.187-.484V0z"/>
    <path id="c" d="M.061 0v-.81h.191q.099 0 .154.027A.16.16 0 0 1 .485-.7a.4.4 0 0 1 .024.142v.296a.4.4 0 0 1-.024.147.16.16 0 0 1-.078.087A.3.3 0 0 1 .258 0zm.148-.103h.045q.05 0 .073-.018a.08.08 0 0 0 .027-.052l.005-.085v-.31a.3.3 0 0 0-.007-.079Q.345-.677.323-.691a.14.14 0 0 0-.071-.014H.209z"/>
    <path id="d" d="M.283.011a.25.25 0 0 1-.14-.033.17.17 0 0 1-.069-.094.5.5 0 0 1-.019-.146V-.81h.144v.565q0 .037.005.072.005.033.023.054.019.02.056.02.04 0 .056-.02a.1.1 0 0 0 .023-.054.4.4 0 0 0 .006-.072V-.81h.143v.548a.5.5 0 0 1-.019.146.17.17 0 0 1-.069.094.25.25 0 0 1-.14.033"/>
    <path id="e" d="M.265.011a.24.24 0 0 1-.122-.028.2.2 0 0 1-.074-.084.4.4 0 0 1-.028-.135l.127-.025a.4.4 0 0 0 .011.083.13.13 0 0 0 .029.056.07.07 0 0 0 .052.019q.036 0 .051-.021a.1.1 0 0 0 .015-.055.15.15 0 0 0-.024-.087.4.4 0 0 0-.064-.068l-.102-.09a.3.3 0 0 1-.069-.082.23.23 0 0 1-.025-.113q0-.096.056-.148a.2.2 0 0 1 .153-.052.2.2 0 0 1 .095.018.14.14 0 0 1 .06.048.2.2 0 0 1 .034.071.4.4 0 0 1 .014.083l-.126.022a.3.3 0 0 0-.009-.068.1.1 0 0 0-.023-.047.07.07 0 0 0-.048-.017q-.033 0-.051.022a.1.1 0 0 0-.017.053q0 .04.017.068a.3.3 0 0 0 .049.054l.101.089a.4.4 0 0 1 .085.099.25.25 0 0 1 .036.136.2.2 0 0 1-.026.103.2.2 0 0 1-.071.071.2.2 0 0 1-.106.025"/>
    <path id="f" d="M.142 0v-.701H.013V-.81h.404v.109H.29V0z"/>
    <path id="g" d="M.061 0v-.81h.194a.4.4 0 0 1 .138.02.16.16 0 0 1 .086.066q.03.047.03.128A.4.4 0 0 1 .5-.508a.2.2 0 0 1-.031.067.14.14 0 0 1-.059.042L.523 0H.375L.277-.371H.209V0zm.148-.464h.046a.2.2 0 0 0 .068-.012.1.1 0 0 0 .037-.04.2.2 0 0 0 .011-.071.15.15 0 0 0-.023-.091Q.326-.709.263-.709H.209z"/>
    <path id="h" d="M.281.011a.26.26 0 0 1-.137-.032.18.18 0 0 1-.073-.092.4.4 0 0 1-.022-.142v-.303q0-.082.022-.14a.18.18 0 0 1 .073-.09.26.26 0 0 1 .137-.031q.088 0 .138.031a.18.18 0 0 1 .073.09.4.4 0 0 1 .023.14v.304a.4.4 0 0 1-.023.141.2.2 0 0 1-.073.092.26.26 0 0 1-.138.032m0-.109q.037 0 .054-.016a.1.1 0 0 0 .024-.044.3.3 0 0 0 .006-.061v-.373a.3.3 0 0 0-.006-.061.07.07 0 0 0-.024-.042Q.318-.711.281-.711q-.035 0-.053.016a.07.07 0 0 0-.024.042.3.3 0 0 0-.006.061v.373q0 .033.005.061a.1.1 0 0 0 .024.044q.018.016.054.016"/>
    <path id="i" d="m.02 0 .162-.81H.34L.502 0H.365L.333-.187H.192L.159 0zm.187-.281h.11l-.055-.34z"/>
  </defs>
  <path d="M301.361 257.482h97.036v97.036h-97.036z" style="fill:#f36d24" transform="matrix(-4.16666 0 0 4.16667 1659.995 -1072.841)"/>
  <path d="M0 16.63q-1.085-1.176-1.108-3.552v-.274h3.335q0 1.256.263 1.781.263.526 1.085.526.57 0 .857-.343.285-.342.399-1.13t.114-2.274V9.492q-.297.502-.936.788-.64.285-1.485.285-2.055 0-2.992-1.508-.937-1.507-.937-3.997 0-6.236 4.98-6.236 2.558 0 3.769 1.576 1.21 1.577 1.211 4.34v6.739q0 2.992-1.108 4.66-1.108 1.667-3.895 1.667-2.468 0-3.552-1.176m4.945-9.606V4.078q0-1.21-.296-1.919-.298-.708-1.074-.708-.823 0-1.096.765t-.274 2.433q0 1.188.068 1.816t.377 1.016q.307.39.948.389.844 0 1.347-.846" style="fill:#fff;fill-rule:nonzero" transform="matrix(4.16666 0 0 4.16667 37.517 39.113)"/>
  <path d="m0 5.581-11.588-6.688v-13.379a.8.8 0 0 0-.395-.685l-11.981-6.917a.79.79 0 0 0-.79 0l-11.982 6.917a.79.79 0 0 0-.395.685v13.379l-11.587 6.688a.79.79 0 0 0-.395.685v13.837c0 .282.15.543.395.685l11.982 6.916a.8.8 0 0 0 .79 0l11.587-6.688 11.585 6.688a.8.8 0 0 0 .791 0L0 20.788a.79.79 0 0 0 .395-.685V6.266A.79.79 0 0 0 0 5.581m-25.149 13.153-9.611-5.549 9.611-5.55zM-13.96-.65l-9.609 5.547V-6.2zm-11.189 5.547L-34.76-.65l9.611-5.55zm2.371 1.369L-12.379.263l10.403 6.003-10.403 6.006zm9.609-8.285-9.609-5.55 9.609-5.548zm-12.771-5.55-9.611 5.55v-11.098zM-37.131 25.65l-10.401-6.003V7.635l10.401 6.006zm1.58 0V14.554l9.611 5.549zm34.365-6.003-10.402 6.003V13.641l10.402-6.006z" style="fill:#fff;fill-rule:nonzero" transform="matrix(4.16666 0 0 4.16667 303.663 242.787)"/>
  <use href="#a" style="fill:#fff;fill-rule:nonzero" transform="matrix(36.37334 0 0 36.37353 87.881 64.05)"/>
  <use href="#b" style="fill:#fff;fill-rule:nonzero" transform="matrix(36.37334 0 0 36.37353 96.105 64.05)"/>
  <use href="#c" style="fill:#fff;fill-rule:nonzero" transform="matrix(36.37334 0 0 36.37353 114.15 64.05)"/>
  <use href="#d" style="fill:#fff;fill-rule:nonzero" transform="matrix(36.37334 0 0 36.37353 132.631 64.05)"/>
  <use href="#e" style="fill:#fff;fill-rule:nonzero" transform="matrix(36.37334 0 0 36.37353 151.44 64.05)"/>
  <use href="#f" style="fill:#fff;fill-rule:nonzero" transform="matrix(36.37334 0 0 36.37353 167.63 64.05)"/>
  <use href="#g" style="fill:#fff;fill-rule:nonzero" transform="matrix(36.37334 0 0 36.37353 181.491 64.05)"/>
  <path d="M.174 0v-.309L.01-.81h.138l.1.321.094-.321h.135l-.162.501V0z" style="fill:#fff;fill-rule:nonzero" transform="matrix(36.37334 0 0 36.37353 199.573 64.05)"/>
  <path d="M.063.136.049.086A.1.1 0 0 0 .095.057Q.115.037.114 0H.042v-.135h.133v.123a.16.16 0 0 1-.028.1.13.13 0 0 1-.084.048" style="fill:#fff;fill-rule:nonzero" transform="matrix(36.37334 0 0 36.37353 213.107 64.05)"/>
  <use href="#a" style="fill:#fff;fill-rule:nonzero" transform="matrix(36.37334 0 0 36.37353 226.136 64.05)"/>
  <use href="#b" style="fill:#fff;fill-rule:nonzero" transform="matrix(36.37334 0 0 36.37353 234.36 64.05)"/>
  <use href="#b" style="fill:#fff;fill-rule:nonzero" transform="matrix(36.37334 0 0 36.37353 252.405 64.05)"/>
  <use href="#h" style="fill:#fff;fill-rule:nonzero" transform="matrix(36.37334 0 0 36.37353 270.45 64.05)"/>
  <path d="M.185 0 .022-.81h.131l.107.573.1-.573h.134L.331 0z" style="fill:#fff;fill-rule:nonzero" transform="matrix(36.37334 0 0 36.37353 289.04 64.05)"/>
  <use href="#i" style="fill:#fff;fill-rule:nonzero" transform="matrix(36.37334 0 0 36.37353 304.611 64.05)"/>
  <use href="#f" style="fill:#fff;fill-rule:nonzero" transform="matrix(36.37334 0 0 36.37353 320.328 64.05)"/>
  <use href="#a" style="fill:#fff;fill-rule:nonzero" transform="matrix(36.37334 0 0 36.37353 334.19 64.05)"/>
  <use href="#h" style="fill:#fff;fill-rule:nonzero" transform="matrix(36.37334 0 0 36.37353 342.414 64.05)"/>
  <use href="#b" style="fill:#fff;fill-rule:nonzero" transform="matrix(36.37334 0 0 36.37353 361.114 64.05)"/>
  <use href="#i" style="fill:#fff;fill-rule:nonzero" transform="matrix(36.37334 0 0 36.37353 87.881 112.199)"/>
  <use href="#b" style="fill:#fff;fill-rule:nonzero" transform="matrix(36.37334 0 0 36.37353 105.348 112.199)"/>
  <use href="#c" style="fill:#fff;fill-rule:nonzero" transform="matrix(36.37334 0 0 36.37353 123.652 112.199)"/>
  <use href="#a" style="fill:#fff;fill-rule:nonzero" transform="matrix(36.37334 0 0 36.37353 149.711 112.199)"/>
  <use href="#b" style="fill:#fff;fill-rule:nonzero" transform="matrix(36.37334 0 0 36.37353 158.195 112.199)"/>
  <path d="M.061 0v-.81h.333v.102H.209v.236H.36v.103H.209V0z" style="fill:#fff;fill-rule:nonzero" transform="matrix(36.37334 0 0 36.37353 176.498 112.199)"/>
  <use href="#g" style="fill:#fff;fill-rule:nonzero" transform="matrix(36.37334 0 0 36.37353 190 112.199)"/>
  <use href="#i" style="fill:#fff;fill-rule:nonzero" transform="matrix(36.37334 0 0 36.37353 208.886 112.199)"/>
  <use href="#e" style="fill:#fff;fill-rule:nonzero" transform="matrix(36.37334 0 0 36.37353 226.244 112.199)"/>
  <use href="#f" style="fill:#fff;fill-rule:nonzero" transform="matrix(36.37334 0 0 36.37353 242.693 112.199)"/>
  <use href="#g" style="fill:#fff;fill-rule:nonzero" transform="matrix(36.37334 0 0 36.37353 256.814 112.199)"/>
  <use href="#d" style="fill:#fff;fill-rule:nonzero" transform="matrix(36.37334 0 0 36.37353 275.627 112.199)"/>
  <path d="M.279.011a.25.25 0 0 1-.14-.035.2.2 0 0 1-.07-.095.5.5 0 0 1-.02-.14v-.289q0-.083.02-.144a.17.17 0 0 1 .07-.094.26.26 0 0 1 .14-.033q.084 0 .131.029a.16.16 0 0 1 .068.081q.02.052.02.123v.068H.356v-.07A.4.4 0 0 0 .352-.65a.07.07 0 0 0-.019-.044Q.318-.711.28-.711t-.056.018a.1.1 0 0 0-.022.047.4.4 0 0 0-.005.066v.352a.3.3 0 0 0 .007.073.1.1 0 0 0 .025.043q.02.014.051.014.037 0 .052-.017a.1.1 0 0 0 .02-.047.4.4 0 0 0 .004-.065V-.3h.142v.065a.4.4 0 0 1-.019.128.17.17 0 0 1-.067.087.24.24 0 0 1-.133.031" style="fill:#fff;fill-rule:nonzero" transform="matrix(36.37334 0 0 36.37353 294.695 112.199)"/>
  <use href="#f" style="fill:#fff;fill-rule:nonzero" transform="matrix(36.37334 0 0 36.37353 312.816 112.199)"/>
  <use href="#d" style="fill:#fff;fill-rule:nonzero" transform="matrix(36.37334 0 0 36.37353 326.937 112.199)"/>
  <use href="#g" style="fill:#fff;fill-rule:nonzero" transform="matrix(36.37334 0 0 36.37353 346.005 112.199)"/>
  <path d="M.061 0v-.81h.34v.104H.209v.233H.36v.103H.209v.268h.194V0z" style="fill:#fff;fill-rule:nonzero" transform="matrix(36.37334 0 0 36.37353 364.89 112.199)"/>
</svg>
