<svg xmlns="http://www.w3.org/2000/svg" xml:space="preserve" style="fill-rule:evenodd;clip-rule:evenodd;stroke-linejoin:round;stroke-miterlimit:2" viewBox="0 0 405 405">
  <path d="M0-.467q.05.062.085.114a.3.3 0 0 1 .026.121.4.4 0 0 1-.026.122L0 .003c-1.227 1.654-9.152 11.758-20.262 11.758-9.648 0-19.969-8.752-19.969-8.752s-3.891 7.96-11.847 8.701q-.043.01-.083.008l-.086.007a.316.316 0 0 1-.293-.312c0-.066.02-.117.05-.168l.068-.107c1.013-1.689 3.637-6.531 3.637-11.37 0-4.824-2.608-9.652-3.631-11.349 0 0-.101-.152-.124-.291-.018-.143.137-.304.303-.313h.049c.053 0 .102.01.149.01 7.931.762 11.808 8.698 11.808 8.698s10.321-8.751 19.969-8.751C-9.152-12.228-1.227-2.124 0-.467m-14.084 1.512A3.245 3.245 0 0 0-10.838-2.2c0-1.79-1.451-3.24-3.246-3.24a3.24 3.24 0 0 0-3.243 3.24 3.245 3.245 0 0 0 3.243 3.245m-26.875-22.329c-1.175 1.155-6.254 5.523-11.617.859a.3.3 0 0 1-.093-.224v-2.218c0-.176.144-.317.32-.317.02 0 .036.009.061.013l.162.081c1.651.827 6.764 2.787 11.408-1.6q.071-.062.138-.128a.26.26 0 0 1 .233-.008.27.27 0 0 1 .157.119c1.382 1.054 7.741 5.356 13.396.078l.087-.083a.33.33 0 0 1 .451 0l.083.083c5.658 5.278 12.011.976 13.394-.078a.27.27 0 0 1 .162-.119.2.2 0 0 1 .095-.024c.053 0 .093.008.136.032l.135.128c4.642 4.387 9.761 2.427 11.409 1.6l.161-.081c.024-.004.045-.013.068-.013.175 0 .317.141.317.317v2.218a.32.32 0 0 1-.094.224c-5.369 4.664-10.441.296-11.615-.859a.3.3 0 0 0-.09-.088.33.33 0 0 0-.176-.059.3.3 0 0 0-.214.088l-.012.014c-6.059 5.774-12.41 1.094-13.731 0l-.13-.124a.4.4 0 0 0-.128-.02.3.3 0 0 0-.12.02l-.129.124c-1.322 1.094-7.676 5.774-13.733 0q-.008-.005-.014-.014a.3.3 0 0 0-.217-.088.32.32 0 0 0-.26.147m-11.33-9.935q.075.041.163.083c1.651.827 6.765 2.792 11.408-1.602.046-.04.095-.081.136-.128a.4.4 0 0 1 .133-.03c.036 0 .069.01.101.015a.35.35 0 0 1 .158.126c1.382 1.055 7.741 5.355 13.395.078l.088-.081a.34.34 0 0 1 .222-.095c.09 0 .17.043.229.095l.083.081c5.657 5.277 12.009.977 13.394-.078a.35.35 0 0 1 .161-.126c.029-.005.064-.015.096-.015.052 0 .093.012.136.03q.069.07.134.128c4.644 4.394 9.76 2.429 11.409 1.602q.089-.041.161-.083c.025-.005.046-.013.069-.013.176 0 .315.143.315.322v2.211a.32.32 0 0 1-.093.229c-5.367 4.66-10.44.293-11.614-.86-.028-.035-.053-.069-.09-.09a.3.3 0 0 0-.175-.058.3.3 0 0 0-.216.085c-.003.006-.01.011-.012.014-6.057 5.782-12.41 1.099-13.731 0l-.13-.119a.3.3 0 0 0-.126-.024.3.3 0 0 0-.121.024l-.13.119c-1.322 1.099-7.674 5.782-13.732 0l-.016-.014a.3.3 0 0 0-.216-.085.32.32 0 0 0-.259.148c-1.176 1.153-6.254 5.52-11.617.86a.3.3 0 0 1-.093-.229v-2.211a.32.32 0 0 1 .319-.322c.02 0 .037.008.061.013" style="fill:#2097d4" transform="matrix(4.16666 0 0 4.16667 311.657 297.377)"/>
</svg>
