<!DOCTYPE svg PUBLIC "-//W3C//DTD SVG 1.1//EN" "http://www.w3.org/Graphics/SVG/1.1/DTD/svg11.dtd">
<svg xmlns="http://www.w3.org/2000/svg" xml:space="preserve" style="fill-rule:evenodd;clip-rule:evenodd;stroke-linejoin:round;stroke-miterlimit:2" viewBox="0 0 404 404">
  <defs>
    <path id="a" d="M.279.011a.25.25 0 0 1-.14-.035.2.2 0 0 1-.07-.095.5.5 0 0 1-.02-.14v-.289q0-.083.02-.144a.17.17 0 0 1 .07-.094.26.26 0 0 1 .14-.033q.084 0 .131.029a.16.16 0 0 1 .068.081q.02.052.02.123v.068H.356v-.07A.4.4 0 0 0 .352-.65a.07.07 0 0 0-.019-.044Q.318-.711.28-.711t-.056.018a.1.1 0 0 0-.022.047.4.4 0 0 0-.005.066v.352a.3.3 0 0 0 .007.073.1.1 0 0 0 .025.043q.02.014.051.014.037 0 .052-.017a.1.1 0 0 0 .02-.047.4.4 0 0 0 .004-.065V-.3h.142v.065a.4.4 0 0 1-.019.128.17.17 0 0 1-.067.087.24.24 0 0 1-.133.031"/>
    <path id="b" d="M.065-.81h.146V0H.065z"/>
    <path id="c" d="m.02 0 .162-.81H.34L.502 0H.365L.333-.187H.192L.159 0zm.187-.281h.11l-.055-.34z"/>
    <path id="d" d="M.142 0v-.701H.013V-.81h.404v.109H.29V0z"/>
  </defs>
  <path d="M-96.838.066H.066V96.97h-96.904z" style="fill:#48773d" transform="matrix(-4.16666 0 0 4.16667 .274 -.279)"/>
  <path d="M0-11.193q-.252.137-1.462.571-.959.32-1.211.434v-2.627q.777-.297 1.885-.913 1.107-.618 1.565-1.12h2.764V3.655H0z" style="fill:#fff;fill-rule:nonzero" transform="matrix(4.16666 0 0 4.16667 35.245 97.03)"/>
  <path d="M0 16.15q-1.165-1.462-1.165-4.134v-.64h3.518v.617q.023 1.416.342 2.033.32.616 1.165.616.846 0 1.131-.628t.286-2.044q0-1.485-.434-2.204-.435-.72-1.599-.743Q3.175 9 2.604 9V6.419h.571q1.188 0 1.645-.639.457-.64.457-2.102 0-1.188-.332-1.759-.33-.57-1.176-.571-.8 0-1.096.617-.298.617-.32 1.827v.822h-3.518V3.61q0-2.422 1.291-3.747t3.643-1.325q2.399 0 3.701 1.28 1.302 1.279 1.302 3.677 0 1.6-.663 2.684-.663 1.086-1.69 1.36 2.353.867 2.353 4.362 0 2.673-1.188 4.192t-3.769 1.519q-2.65 0-3.815-1.462" style="fill:#fff;fill-rule:nonzero" transform="matrix(4.16666 0 0 4.16667 62.46 40.203)"/>
  <path d="M0-.707q.167.231.278.401a9 9 0 0 1-.279.404c-2.573 3.597-14.21 17.965-35.805 17.935C-57.404 18.004-68.998 3.605-71.565.001c-.109-.157-.203-.289-.28-.406q.116-.17.281-.4c2.577-3.598 14.21-17.965 35.809-17.936C-14.161-18.711-2.563-4.313 0-.707m-35.776 15.481c3.43.005 6.59-1.141 9.123-3.068-.347-.131-.339-.304-1.371-.345-1.514-.059-2.547 1.281-3.059 1.574-.51.293-3.714-1.533-6.154-1.298-1.094.104-2.481.577-2.948 1.79a.62.62 0 0 0 .181.736c1.341.393 2.758.609 4.228.611m10.616-4.365a15.1 15.1 0 0 0 3.456-5.302 2.4 2.4 0 0 0-.231-.98q-.082-.165-.176-.348c-.327-.653-.71.418-2.518.867-.613.151-1.425.246-2.732.717-.951.345-2.092 1.872-1.562 3.213.525 1.34.198 2.252 1.407 1.463 1.214-.791.351.145.757.296.403.148.306-.52 1.127-.101a2.5 2.5 0 0 0 .472.175m-12.649-5.444c.994-1.595-.292-1.651-.887-.561-.111.2-.65 2.838-.268 3.134.379.295.948-2.234 1.155-2.573m12.788-2.943c.166.065.773.095.773-.151s-.399-.707-.708-.864c-.303-.149-.614.061-.492.431.122.369.265.523.427.584m-6.64-.035c.296-.268-.464-.976-.97-.931-.226.018-.845.505-.467.8.38.297 1.14.395 1.437.131m-8.868 6.475c.297-1.145.635-.469.782-1.25s.393-.834.345-1.774c-.049-.936.082-1.154.766-1.832.683-.673.488-.318.687-.946.198-.625-.484-.801-1.092-1.187-.714-.455-1.448-1.672-1.377-2.499.05-.573.356-.051 1.056.678.699.732 1.013 1.304 1.725 1.134.715-.171 1.693-.811 1.438-1.538-.171-.49-2.576-2.402-2.467-2.765.124-.414.533-.102 1.266.47.73.576 1.605.48 1.784 1.496.332 1.872 2.467 1.045 3.933 2.73.564.647.841-.051 1.225-.833.386-.783-.298-1.15.238-1.516.538-.367 1.172-.206 1.416.419.242.627.583 1.441.895 2.273.296.79 2.092 2.02 2.33 2.038 1.017.066-.352-1.504-.458-2.079-.106-.574.326-1.648.769-1.804.445-.157.621-.006 1.582-.63.963-.625-.029-.733-.049-1.776-.02-1.042.624-.432.776-.212.596.874 1.625.409 1.762-.133a2.5 2.5 0 0 0 .074-.696c-1.576-6.614-7.515-11.539-14.612-11.548a14.97 14.97 0 0 0-8.105 2.36c1.745-.129 5.245-.717 4.869.816-.332 1.356 2.216 1.58.921 2.245-.55.286-2.157 1.402-2.512 1.206-.997-.54 2.04-1.227 1.456-1.621-.586-.4-1.752.056-2.664.255-.449.101-2.203.094-2.844.399-.641.31-1.397.72-1.186 1.268.214.549 1.95.985 2.242.985.292.001.609-.07 1.232-.833.622-.767 1.376-.062 1.157.04-.217.105-.707.452-1.092.908-.307.36-.879.615-1.501.301-.623-.313-2.015-.146-2.285.009-.268.157-.939.625-1.142.678-.201.054-.494.206-.396.416.097.207.151.457-.004.611-.152.158-.432.484-.82.224-.355-.237-1.387-.134-1.675.183q-.058.182-.111.366c-.02.533.211 1.409 1.093.752.289-.217 1.73-.164 2.619-1.005.42-.396.888.124.989.332.103.21.707 1.504 1.009 1.453s-.49-1.243-.136-1.295c.354-.053.805 1.006 1.018.857.575-.406 1.05-.262 1.114.341.054.481-.398.796-.976 1.034-.799.324-2.172-.417-3.043-.746-1.059-.4-2.464-.618-2.464-.618l-.881.303s.018.221-.779 1.161a1 1 0 0 0-.093.14q-.074.74-.077 1.501a15 15 0 0 0 1.174 5.857c.021.008.031.014.053.021.829.262.589.125 1.173-.133.587-.263 1.112-.833 1.53-.312.422.521.823.355.88 1.188.055.835.86-.546 1.011.706.237 1.955.698.993.697 1.318-.001.939.092 2.765.776 2.817.683.051 1.761-.415 2.052-.782.292-.362.634-.776.927-1.926m16.147-5.977c-.227.018-.845.505-.467.8.38.298 1.138.397 1.434.13.298-.268-.461-.97-.967-.93m3.353.335a15.2 15.2 0 0 0 .294-3.943c-.19-.654-.579-1.108-1.309-1.052-.184.015.486.759.263 1.011-1.337 1.535.349 3.873.752 3.984M-48.588-8.129a15 15 0 0 0-1.124 2.236.57.57 0 0 0 .388.041c.476-.104 1.291-1.078 1.811-1.556.184-.17 1.187-.622 1.123-.87-.06-.249-.559-.438-.933-.375-.374.058-.915.124-1.187.433-.013.017-.044.05-.078.091m.773-1.533c-.067.103.071.375.422.43.454.073 1.28-.39 1.597-.718.113-.115.242-.783.203-.956-.037-.172-.342-.302-.571-.257-.232.04-.563.084-.729.298-.079.102-.727.917-.922 1.203" style="fill:#fff" transform="matrix(4.16666 0 0 4.16667 350.705 256.504)"/>
  <use href="#a" style="fill:#fff;fill-rule:nonzero" transform="matrix(36.37334 0 0 36.37353 127.523 64.575)"/>
  <path d="M.061 0v-.81h.148v.708h.196V0z" style="fill:#fff;fill-rule:nonzero" transform="matrix(36.37334 0 0 36.37353 146.074 64.575)"/>
  <use href="#b" style="fill:#fff;fill-rule:nonzero" transform="matrix(36.37334 0 0 36.37353 160.296 64.575)"/>
  <path d="m.059 0 .014-.81h.153l.115.561.12-.561h.148L.624 0h-.11L.502-.563.387 0H.298L.181-.565.17 0z" style="fill:#fff;fill-rule:nonzero" transform="matrix(36.37334 0 0 36.37353 169.207 64.575)"/>
  <use href="#c" style="fill:#fff;fill-rule:nonzero" transform="matrix(36.37334 0 0 36.37353 192.958 64.575)"/>
  <use href="#d" style="fill:#fff;fill-rule:nonzero" transform="matrix(36.37334 0 0 36.37353 209.363 64.575)"/>
  <path d="M.061 0v-.81h.34v.104H.209v.233H.36v.103H.209v.268h.194V0z" style="fill:#fff;fill-rule:nonzero" transform="matrix(36.37334 0 0 36.37353 223.913 64.575)"/>
  <use href="#c" style="fill:#fff;fill-rule:nonzero" transform="matrix(36.37334 0 0 36.37353 127.523 112.724)"/>
  <use href="#a" style="fill:#fff;fill-rule:nonzero" transform="matrix(36.37334 0 0 36.37353 145.2 112.724)"/>
  <use href="#d" style="fill:#fff;fill-rule:nonzero" transform="matrix(36.37334 0 0 36.37353 163.715 112.724)"/>
  <use href="#b" style="fill:#fff;fill-rule:nonzero" transform="matrix(36.37334 0 0 36.37353 178.227 112.724)"/>
  <path d="M.281.011a.26.26 0 0 1-.137-.032.18.18 0 0 1-.073-.092.4.4 0 0 1-.022-.142v-.303q0-.082.022-.14a.18.18 0 0 1 .073-.09.26.26 0 0 1 .137-.031q.088 0 .138.031a.18.18 0 0 1 .073.09.4.4 0 0 1 .023.14v.304a.4.4 0 0 1-.023.141.2.2 0 0 1-.073.092.26.26 0 0 1-.138.032m0-.109q.037 0 .054-.016a.1.1 0 0 0 .024-.044.3.3 0 0 0 .006-.061v-.373a.3.3 0 0 0-.006-.061.07.07 0 0 0-.024-.042Q.318-.711.281-.711q-.035 0-.053.016a.07.07 0 0 0-.024.042.3.3 0 0 0-.006.061v.373q0 .033.005.061a.1.1 0 0 0 .024.044q.018.016.054.016" style="fill:#fff;fill-rule:nonzero" transform="matrix(36.37334 0 0 36.37353 187.103 112.724)"/>
  <path d="M.061 0v-.81h.103l.197.462V-.81h.122V0H.385L.187-.484V0z" style="fill:#fff;fill-rule:nonzero" transform="matrix(36.37334 0 0 36.37353 206.453 112.724)"/>
</svg>
