<!DOCTYPE svg PUBLIC "-//W3C//DTD SVG 1.1//EN" "http://www.w3.org/Graphics/SVG/1.1/DTD/svg11.dtd">
<svg xmlns="http://www.w3.org/2000/svg" xml:space="preserve" style="fill-rule:evenodd;clip-rule:evenodd;stroke-linejoin:round;stroke-miterlimit:2" viewBox="0 0 405 405">
  <defs>
    <path id="a" d="M.283.011a.25.25 0 0 1-.14-.033.17.17 0 0 1-.069-.094.5.5 0 0 1-.019-.146V-.81h.144v.565q0 .037.005.072.005.033.023.054.019.02.056.02.04 0 .056-.02a.1.1 0 0 0 .023-.054.4.4 0 0 0 .006-.072V-.81h.143v.548a.5.5 0 0 1-.019.146.17.17 0 0 1-.069.094.25.25 0 0 1-.14.033"/>
    <path id="b" d="m.02 0 .162-.81H.34L.502 0H.365L.333-.187H.192L.159 0zm.187-.281h.11l-.055-.34z"/>
    <path id="c" d="M.065-.81h.146V0H.065z"/>
    <path id="d" d="M.142 0v-.701H.013V-.81h.404v.109H.29V0z"/>
  </defs>
  <path d="M410.103 366.224h97.036v97.036h-97.036z" style="fill:#c21f33" transform="matrix(-4.16666 0 0 4.16667 2113.082 -1525.933)"/>
  <path d="M0 9.731h-5.574V6.944l4.82-11.33h3.952V7.058h1.85v2.673h-1.85v4.386H0zm0-2.673V-.8l-2.81 7.858z" style="fill:#fff;fill-rule:nonzero" transform="matrix(4.16666 0 0 4.16667 54.114 53.44)"/>
  <path d="M9404.08 801.762v115.992l-72.85-21.983V759.7zm8.01.279 73.32-42.337v136.05l-73.32 22.046zm130.5 91.319-8.61 30.125-8.62-30.125h-.01V772.293h17.24zm-41.53-127.816v139.512l-7.18 2.113-81.21 25.783h-8.97l-88.02-24.367V765.544l7.82-6.171v143.733l80.58 22.513h8.23l80.94-26.159V759.373zm41.53-9.288v9.287h-17.23v-9.287a8.61 8.61 0 0 1 8.62-8.621c4.76 0 8.61 3.854 8.61 8.621" style="fill:#fff" transform="translate(-9226.975 -584.906)"/>
  <path d="M.456.161A.3.3 0 0 1 .402.125.6.6 0 0 1 .299.01L.29.011H.281a.26.26 0 0 1-.137-.032.18.18 0 0 1-.073-.092.4.4 0 0 1-.022-.142v-.303q0-.082.022-.14a.18.18 0 0 1 .073-.09.26.26 0 0 1 .137-.031q.088 0 .139.031a.18.18 0 0 1 .073.09.4.4 0 0 1 .022.14v.304a.5.5 0 0 1-.011.105.2.2 0 0 1-.036.082.2.2 0 0 1-.066.053l.027.029.028.028a.1.1 0 0 0 .027.021zM.281-.098q.037 0 .055-.016A.1.1 0 0 0 .36-.158a.3.3 0 0 0 .006-.061v-.373A.3.3 0 0 0 .36-.653a.07.07 0 0 0-.024-.042Q.318-.711.281-.711q-.036 0-.054.016a.07.07 0 0 0-.024.042.4.4 0 0 0-.005.061v.373q0 .033.005.061a.1.1 0 0 0 .024.044q.018.016.054.016" style="fill:#fff;fill-rule:nonzero" transform="matrix(36.37334 0 0 36.37353 104.113 64.587)"/>
  <use href="#a" style="fill:#fff;fill-rule:nonzero" transform="matrix(36.37334 0 0 36.37353 124.409 64.587)"/>
  <use href="#b" style="fill:#fff;fill-rule:nonzero" transform="matrix(36.37334 0 0 36.37353 144.669 64.587)"/>
  <path d="M.061 0v-.81h.148v.708h.196V0z" style="fill:#fff;fill-rule:nonzero" transform="matrix(36.37334 0 0 36.37353 163.438 64.587)"/>
  <use href="#c" style="fill:#fff;fill-rule:nonzero" transform="matrix(36.37334 0 0 36.37353 178.533 64.587)"/>
  <use href="#d" style="fill:#fff;fill-rule:nonzero" transform="matrix(36.37334 0 0 36.37353 188.317 64.587)"/>
  <path d="M.174 0v-.309L.01-.81h.138l.1.321.094-.321h.135l-.162.501V0z" style="fill:#fff;fill-rule:nonzero" transform="matrix(36.37334 0 0 36.37353 203.74 64.587)"/>
  <path d="M.061 0v-.81h.34v.104H.209v.233H.36v.103H.209v.268h.194V0z" style="fill:#fff;fill-rule:nonzero" transform="matrix(36.37334 0 0 36.37353 104.113 112.736)"/>
  <path d="M.061 0v-.81h.191q.099 0 .154.027A.16.16 0 0 1 .485-.7a.4.4 0 0 1 .024.142v.296a.4.4 0 0 1-.024.147.16.16 0 0 1-.078.087A.3.3 0 0 1 .258 0zm.148-.103h.045q.05 0 .073-.018a.08.08 0 0 0 .027-.052l.005-.085v-.31a.3.3 0 0 0-.007-.079Q.345-.677.323-.691a.14.14 0 0 0-.071-.014H.209z" style="fill:#fff;fill-rule:nonzero" transform="matrix(36.37334 0 0 36.37353 119.462 112.736)"/>
  <use href="#a" style="fill:#fff;fill-rule:nonzero" transform="matrix(36.37334 0 0 36.37353 139.505 112.736)"/>
  <path d="M.279.011a.25.25 0 0 1-.14-.035.2.2 0 0 1-.07-.095.5.5 0 0 1-.02-.14v-.289q0-.083.02-.144a.17.17 0 0 1 .07-.094.26.26 0 0 1 .14-.033q.084 0 .131.029a.16.16 0 0 1 .068.081q.02.052.02.123v.068H.356v-.07A.4.4 0 0 0 .352-.65a.07.07 0 0 0-.019-.044Q.318-.711.28-.711t-.056.018a.1.1 0 0 0-.022.047.4.4 0 0 0-.005.066v.352a.3.3 0 0 0 .007.073.1.1 0 0 0 .025.043q.02.014.051.014.037 0 .052-.017a.1.1 0 0 0 .02-.047.4.4 0 0 0 .004-.065V-.3h.142v.065a.4.4 0 0 1-.019.128.17.17 0 0 1-.067.087.24.24 0 0 1-.133.031" style="fill:#fff;fill-rule:nonzero" transform="matrix(36.37334 0 0 36.37353 159.874 112.736)"/>
  <use href="#b" style="fill:#fff;fill-rule:nonzero" transform="matrix(36.37334 0 0 36.37353 179.296 112.736)"/>
  <use href="#d" style="fill:#fff;fill-rule:nonzero" transform="matrix(36.37334 0 0 36.37353 196.574 112.736)"/>
  <use href="#c" style="fill:#fff;fill-rule:nonzero" transform="matrix(36.37334 0 0 36.37353 211.996 112.736)"/>
  <path d="M.281.011a.26.26 0 0 1-.137-.032.18.18 0 0 1-.073-.092.4.4 0 0 1-.022-.142v-.303q0-.082.022-.14a.18.18 0 0 1 .073-.09.26.26 0 0 1 .137-.031q.088 0 .138.031a.18.18 0 0 1 .073.09.4.4 0 0 1 .023.14v.304a.4.4 0 0 1-.023.141.2.2 0 0 1-.073.092.26.26 0 0 1-.138.032m0-.109q.037 0 .054-.016a.1.1 0 0 0 .024-.044.3.3 0 0 0 .006-.061v-.373a.3.3 0 0 0-.006-.061.07.07 0 0 0-.024-.042Q.318-.711.281-.711q-.035 0-.053.016a.07.07 0 0 0-.024.042.3.3 0 0 0-.006.061v.373q0 .033.005.061a.1.1 0 0 0 .024.044q.018.016.054.016" style="fill:#fff;fill-rule:nonzero" transform="matrix(36.37334 0 0 36.37353 221.78 112.736)"/>
  <path d="M.061 0v-.81h.103l.197.462V-.81h.122V0H.385L.187-.484V0z" style="fill:#fff;fill-rule:nonzero" transform="matrix(36.37334 0 0 36.37353 242.04 112.736)"/>
</svg>
