<!DOCTYPE svg PUBLIC "-//W3C//DTD SVG 1.1//EN" "http://www.w3.org/Graphics/SVG/1.1/DTD/svg11.dtd">
<svg xmlns="http://www.w3.org/2000/svg" xml:space="preserve" style="fill-rule:evenodd;clip-rule:evenodd;stroke-linejoin:round;stroke-miterlimit:2" viewBox="0 0 405 405">
  <defs>
    <path id="a" d="M.061 0v-.81h.148v.708h.196V0z"/>
    <path id="b" d="M.061 0v-.81h.34v.104H.209v.233H.36v.103H.209v.268h.194V0z"/>
    <path id="c" d="M.146 0 .031-.81h.124l.067.525.084-.523h.101l.086.523.066-.525h.122L.568 0h-.12l-.09-.543L.269 0z"/>
  </defs>
  <path d="M192.619 148.74h97.036v97.036h-97.036z" style="fill:#007dbb" transform="matrix(-4.16666 0 0 4.16667 1206.897 -619.746)"/>
  <path d="M0-11.193q-.252.137-1.462.571-.959.32-1.211.434v-2.627q.777-.297 1.885-.913 1.107-.618 1.565-1.12h2.764V3.655H0z" style="fill:#fff;fill-rule:nonzero" transform="matrix(4.16666 0 0 4.16667 34.675 97.04)"/>
  <path d="M0 9.731h-5.574V6.944l4.82-11.33h3.952V7.058h1.85v2.673h-1.85v4.386H0zm0-2.673V-.8l-2.81 7.858z" style="fill:#fff;fill-rule:nonzero" transform="matrix(4.16666 0 0 4.16667 79.126 53.45)"/>
  <path d="M0-.467q.05.062.085.114a.3.3 0 0 1 .026.121.4.4 0 0 1-.026.122L0 .003c-1.227 1.654-9.152 11.758-20.262 11.758-9.648 0-19.969-8.752-19.969-8.752s-3.891 7.96-11.847 8.701q-.043.01-.083.008l-.086.007a.316.316 0 0 1-.293-.312c0-.066.02-.117.05-.168l.068-.107c1.013-1.689 3.637-6.531 3.637-11.37 0-4.824-2.608-9.652-3.631-11.349 0 0-.101-.152-.124-.291-.018-.143.137-.304.303-.313h.049c.053 0 .102.01.149.01 7.931.762 11.808 8.698 11.808 8.698s10.321-8.751 19.969-8.751C-9.152-12.228-1.227-2.124 0-.467m-14.084 1.512A3.245 3.245 0 0 0-10.838-2.2c0-1.79-1.451-3.24-3.246-3.24a3.24 3.24 0 0 0-3.243 3.24 3.245 3.245 0 0 0 3.243 3.245m-26.875-22.329c-1.175 1.155-6.254 5.523-11.617.859a.3.3 0 0 1-.093-.224v-2.218c0-.176.144-.317.32-.317.02 0 .036.009.061.013l.162.081c1.651.827 6.764 2.787 11.408-1.6q.071-.062.138-.128a.26.26 0 0 1 .233-.008.27.27 0 0 1 .157.119c1.382 1.054 7.741 5.356 13.396.078l.087-.083a.33.33 0 0 1 .451 0l.083.083c5.658 5.278 12.011.976 13.394-.078a.27.27 0 0 1 .162-.119.2.2 0 0 1 .095-.024c.053 0 .093.008.136.032l.135.128c4.642 4.387 9.761 2.427 11.409 1.6l.161-.081c.024-.004.045-.013.068-.013.175 0 .317.141.317.317v2.218a.32.32 0 0 1-.094.224c-5.369 4.664-10.441.296-11.615-.859a.3.3 0 0 0-.09-.088.33.33 0 0 0-.176-.059.3.3 0 0 0-.214.088l-.012.014c-6.059 5.774-12.41 1.094-13.731 0l-.13-.124a.4.4 0 0 0-.128-.02.3.3 0 0 0-.12.02l-.129.124c-1.322 1.094-7.676 5.774-13.733 0q-.008-.005-.014-.014a.3.3 0 0 0-.217-.088.32.32 0 0 0-.26.147m-11.33-9.935q.075.041.163.083c1.651.827 6.765 2.792 11.408-1.602.046-.04.095-.081.136-.128a.4.4 0 0 1 .133-.03c.036 0 .069.01.101.015a.35.35 0 0 1 .158.126c1.382 1.055 7.741 5.355 13.395.078l.088-.081a.34.34 0 0 1 .222-.095c.09 0 .17.043.229.095l.083.081c5.657 5.277 12.009.977 13.394-.078a.35.35 0 0 1 .161-.126c.029-.005.064-.015.096-.015.052 0 .093.012.136.03q.069.07.134.128c4.644 4.394 9.76 2.429 11.409 1.602q.089-.041.161-.083c.025-.005.046-.013.069-.013.176 0 .315.143.315.322v2.211a.32.32 0 0 1-.093.229c-5.367 4.66-10.44.293-11.614-.86-.028-.035-.053-.069-.09-.09a.3.3 0 0 0-.175-.058.3.3 0 0 0-.216.085c-.003.006-.01.011-.012.014-6.057 5.782-12.41 1.099-13.731 0l-.13-.119a.3.3 0 0 0-.126-.024.3.3 0 0 0-.121.024l-.13.119c-1.322 1.099-7.674 5.782-13.732 0l-.016-.014a.3.3 0 0 0-.216-.085.32.32 0 0 0-.259.148c-1.176 1.153-6.254 5.52-11.617.86a.3.3 0 0 1-.093-.229v-2.211a.32.32 0 0 1 .319-.322c.02 0 .037.008.061.013" style="fill:#fff" transform="matrix(4.16666 0 0 4.16667 311.657 297.377)"/>
  <use href="#a" style="fill:#fff;fill-rule:nonzero" transform="matrix(36.37334 0 0 36.37353 126.995 64.585)"/>
  <path d="M.065-.81h.146V0H.065z" style="fill:#fff;fill-rule:nonzero" transform="matrix(36.37334 0 0 36.37353 141.231 64.585)"/>
  <path d="M.061 0v-.81h.333v.102H.209v.236H.36v.103H.209V0z" style="fill:#fff;fill-rule:nonzero" transform="matrix(36.37334 0 0 36.37353 150.157 64.585)"/>
  <use href="#b" style="fill:#fff;fill-rule:nonzero" transform="matrix(36.37334 0 0 36.37353 164.103 64.585)"/>
  <path d="M.061 0v-.81H.26q.054 0 .097.01a.2.2 0 0 1 .075.034.14.14 0 0 1 .049.063q.017.04.017.101a.2.2 0 0 1-.014.084.14.14 0 0 1-.039.056.2.2 0 0 1-.065.027.16.16 0 0 1 .079.034.15.15 0 0 1 .047.066q.016.04.016.099a.3.3 0 0 1-.015.103.2.2 0 0 1-.043.074.2.2 0 0 1-.071.044A.3.3 0 0 1 .294 0zm.148-.104h.056q.067 0 .091-.032A.17.17 0 0 0 .38-.237a.2.2 0 0 0-.012-.079.08.08 0 0 0-.038-.046.14.14 0 0 0-.07-.015H.209zm0-.375h.05a.14.14 0 0 0 .068-.013.07.07 0 0 0 .033-.04A.2.2 0 0 0 .37-.6a.12.12 0 0 0-.015-.066.07.07 0 0 0-.043-.032.3.3 0 0 0-.074-.009H.209z" style="fill:#fff;fill-rule:nonzero" transform="matrix(36.37334 0 0 36.37353 126.995 112.734)"/>
  <use href="#b" style="fill:#fff;fill-rule:nonzero" transform="matrix(36.37334 0 0 36.37353 146.178 112.734)"/>
  <use href="#a" style="fill:#fff;fill-rule:nonzero" transform="matrix(36.37334 0 0 36.37353 160.67 112.734)"/>
  <path d="M.281.011a.26.26 0 0 1-.137-.032.18.18 0 0 1-.073-.092.4.4 0 0 1-.022-.142v-.303q0-.082.022-.14a.18.18 0 0 1 .073-.09.26.26 0 0 1 .137-.031q.088 0 .138.031a.18.18 0 0 1 .073.09.4.4 0 0 1 .023.14v.304a.4.4 0 0 1-.023.141.2.2 0 0 1-.073.092.26.26 0 0 1-.138.032m0-.109q.037 0 .054-.016a.1.1 0 0 0 .024-.044.3.3 0 0 0 .006-.061v-.373a.3.3 0 0 0-.006-.061.07.07 0 0 0-.024-.042Q.318-.711.281-.711q-.035 0-.053.016a.07.07 0 0 0-.024.042.3.3 0 0 0-.006.061v.373q0 .033.005.061a.1.1 0 0 0 .024.044q.018.016.054.016" style="fill:#fff;fill-rule:nonzero" transform="matrix(36.37334 0 0 36.37353 174.688 112.734)"/>
  <use href="#c" style="fill:#fff;fill-rule:nonzero" transform="matrix(36.37334 0 0 36.37353 194.089 112.734)"/>
  <use href="#c" style="fill:#fff;fill-rule:nonzero" transform="matrix(36.37334 0 0 36.37353 226.672 112.734)"/>
  <path d="m.02 0 .162-.81H.34L.502 0H.365L.333-.187H.192L.159 0zm.187-.281h.11l-.055-.34z" style="fill:#fff;fill-rule:nonzero" transform="matrix(36.37334 0 0 36.37353 250.511 112.734)"/>
  <path d="M.142 0v-.701H.013V-.81h.404v.109H.29V0z" style="fill:#fff;fill-rule:nonzero" transform="matrix(36.37334 0 0 36.37353 266.93 112.734)"/>
  <use href="#b" style="fill:#fff;fill-rule:nonzero" transform="matrix(36.37334 0 0 36.37353 281.494 112.734)"/>
  <path d="M.061 0v-.81h.194a.4.4 0 0 1 .138.02.16.16 0 0 1 .086.066q.03.047.03.128A.4.4 0 0 1 .5-.508a.2.2 0 0 1-.031.067.14.14 0 0 1-.059.042L.523 0H.375L.277-.371H.209V0zm.148-.464h.046a.2.2 0 0 0 .068-.012.1.1 0 0 0 .037-.04.2.2 0 0 0 .011-.071.15.15 0 0 0-.023-.091Q.326-.709.263-.709H.209z" style="fill:#fff;fill-rule:nonzero" transform="matrix(36.37334 0 0 36.37353 295.985 112.734)"/>
</svg>
