<svg xmlns="http://www.w3.org/2000/svg" xml:space="preserve" style="fill-rule:evenodd;clip-rule:evenodd;stroke-linejoin:round;stroke-miterlimit:2" viewBox="0 0 405 405">
  <path d="M9404.08 801.762v115.992l-72.85-21.983V759.7zm8.01.279 73.32-42.337v136.05l-73.32 22.046zm130.5 91.319-8.61 30.125-8.62-30.125h-.01V772.293h17.24zm-41.53-127.816v139.512l-7.18 2.113-81.21 25.783h-8.97l-88.02-24.367V765.544l7.82-6.171v143.733l80.58 22.513h8.23l80.94-26.159V759.373zm41.53-9.288v9.287h-17.23v-9.287a8.61 8.61 0 0 1 8.62-8.621c4.76 0 8.61 3.854 8.61 8.621" style="fill:#c7212e" transform="translate(-9226.975 -584.906)"/>
</svg>
