<!DOCTYPE svg PUBLIC "-//W3C//DTD SVG 1.1//EN" "http://www.w3.org/Graphics/SVG/1.1/DTD/svg11.dtd">
<svg xmlns="http://www.w3.org/2000/svg" xml:space="preserve" style="fill-rule:evenodd;clip-rule:evenodd;stroke-linejoin:round;stroke-miterlimit:2" viewBox="0 0 404 405">
  <defs>
    <path id="a" d="M.281.011a.26.26 0 0 1-.137-.032.18.18 0 0 1-.073-.092.4.4 0 0 1-.022-.142v-.303q0-.082.022-.14a.18.18 0 0 1 .073-.09.26.26 0 0 1 .137-.031q.088 0 .138.031a.18.18 0 0 1 .073.09.4.4 0 0 1 .023.14v.304a.4.4 0 0 1-.023.141.2.2 0 0 1-.073.092.26.26 0 0 1-.138.032m0-.109q.037 0 .054-.016a.1.1 0 0 0 .024-.044.3.3 0 0 0 .006-.061v-.373a.3.3 0 0 0-.006-.061.07.07 0 0 0-.024-.042Q.318-.711.281-.711q-.035 0-.053.016a.07.07 0 0 0-.024.042.3.3 0 0 0-.006.061v.373q0 .033.005.061a.1.1 0 0 0 .024.044q.018.016.054.016"/>
  </defs>
  <path d="M84.007 366.224h96.775v97.036H84.007z" style="fill:#eb1c2c" transform="matrix(-4.16666 0 0 4.16667 753.26 -1525.933)"/>
  <path d="M0-11.193q-.252.137-1.462.571-.959.32-1.21.434v-2.627q.776-.297 1.884-.913 1.107-.618 1.565-1.12h2.764V3.655H0z" style="fill:#fff;fill-rule:nonzero" transform="matrix(4.16666 0 0 4.16667 35.17 97.031)"/>
  <path d="M18.458-63.764a.6.6 0 0 0 .238.005l12.703-2.396a.574.574 0 1 0-.212-1.128l-12.703 2.396a.6.6 0 0 0-.157.054 1.04 1.04 0 0 0-.824-.403h-7.481a3.6 3.6 0 0 0-3.584 3.267 2 2 0 0 0-.016.206v5.898c0 .072.008.137.016.198a3.6 3.6 0 0 0 3.584 3.27h7.233a.774.774 0 0 0 .049 1.28l-.004.006c.053.064 1.821 1.052 2.148 1.384.35.345.311.658.311.658v2.577s.039.31-.311.657c-.327.327-2.095 1.32-2.148 1.382l.004.009a.774.774 0 0 0-.077 1.259c-.234.011-.407.063-.407.063l-6.916 2.123s-1.999.762-1.999 2.442v5.415c0 1.682 1.999 2.439 1.999 2.439l6.916 2.125s1.267.38 1.584-.697c.317-1.069-.921-1.395-.921-1.395l-5.772-1.712s-.444-.094-.348-.427.571-.206.571-.206l10.817 2.978v-2.772h7.747a1.33 1.33 0 0 0 1.329-1.332c0-.739-.596-1.331-1.329-1.331h-7.747v-.757h7.747a1.33 1.33 0 0 0 1.329-1.33c0-.734-.596-1.333-1.329-1.333h-7.747v-2.772l-10.817 2.98s-.475.127-.571-.208c-.096-.333.348-.426.348-.426l5.772-1.714s1.238-.324.921-1.394c-.098-.335-.289-.528-.504-.637.194-.07.452-.192.452-.192l3.583-1.982s.267-.13.511-.13h.74l4.178 1.135v-1.135h3.415c.582 0 1.049-.471 1.049-1.05s-.467-1.049-1.049-1.049h-3.288s-.055.007-.127.001v-.634a.6.6 0 0 1 .127 0h3.288a1.047 1.047 0 1 0 0-2.094v-.004h-3.415v-1.13l-4.155 1.13h-.763c-.244 0-.511-.131-.511-.131l-3.881-2.145-.095-.029a1.048 1.048 0 0 0-.456-1.988h-6.425c-.241 0-.567-.066-.567-.509 0-.302.323-.371.528-.379h19.258a1.503 1.503 0 0 0 0-3.006H19.199c-.122-.003-.44-.05-.44-.433v-.001c0-.383.318-.423.44-.429h11.098a1.504 1.504 0 0 0 0-3.005H11.039c-.205-.013-.528-.076-.528-.38 0-.441.326-.511.567-.511h6.425c.425 0 .792-.255.955-.621M2.698-1.941a2.696 2.696 0 1 0 0 5.395A2.696 2.696 0 0 0 5.397.76a2.7 2.7 0 0 0-2.699-2.701m3.74 5.851a3.597 3.597 0 0 0 3.584 3.266h7.481a1.047 1.047 0 0 0 0-2.092h-6.425c-.241 0-.567-.07-.567-.51 0-.305.323-.368.528-.38h19.258c.828 0 1.503-.67 1.503-1.502s-.675-1.506-1.503-1.506H19.199c-.122-.004-.44-.045-.44-.426V.758c0-.383.318-.43.44-.434h11.098a1.502 1.502 0 1 0 0-3.005H11.039c-.205-.01-.528-.076-.528-.378 0-.443.326-.51.567-.51h6.425a1.045 1.045 0 1 0 0-2.092h-7.481a3.6 3.6 0 0 0-3.584 3.27 2 2 0 0 0-.016.198v5.898c0 .077.008.14.016.205M4.115-17.989a2.556 2.556 0 1 0-2.558-2.553 2.555 2.555 0 0 0 2.558 2.553m5.789-7.703s-1.999.761-1.999 2.441v5.416c0 1.681 1.999 2.44 1.999 2.44l6.916 2.124s1.267.381 1.584-.697c.317-1.069-.921-1.394-.921-1.394l-5.772-1.713s-.444-.093-.348-.427.571-.208.571-.208l10.817 2.979v-2.771h7.747a1.331 1.331 0 0 0 0-2.664h-7.747v-.757h7.747a1.332 1.332 0 0 0 0-2.662h-7.747v-2.772l-10.817 2.981s-.475.125-.571-.209.348-.426.348-.426l5.772-1.713s1.238-.325.921-1.395c-.317-1.076-1.584-.697-1.584-.697zm-5.789-7.603a2.554 2.554 0 1 0 0-5.11 2.557 2.557 0 0 0-2.558 2.556 2.557 2.557 0 0 0 2.558 2.554M18.418-9.407a2.126 2.126 0 0 0-2.129-2.127c-1.176 0-2.126.95-2.126 2.127s.95 2.126 2.126 2.126a2.125 2.125 0 0 0 2.129-2.126m6.608-5.1-.002-.008c-.088.008-1.553.598-2.007.773-3.145 1.223-3.714 1.573-3.748 2.681-.033 1.11-.012 1.648-.012 1.648s-.019.502 0 1.343c.024.841.012 1.714 1.412 2.194.457.156 3.716 1.485 3.797 1.511l.008-.008a.807.807 0 0 0 1.212-.968c-.049-.121-1.178-.514-1.178-.514l-2.525-.907s-.182-.134.073-.134h8.681a1.093 1.093 0 0 0 0-2.187h-3.426s-.484.06-.484-.33c0-.391.484-.328.484-.328h3.426a1.09 1.09 0 0 0 1.091-1.091c0-.605-.487-1.091-1.091-1.091v-.005h-8.681c-.255 0-.008-.201-.008-.201l3.687-1.156s.566-.326.297-.912c-.23-.499-.757-.414-1.006-.31M2.698-56.118a2.7 2.7 0 0 0 2.699-2.701 2.696 2.696 0 0 0-2.699-2.695 2.697 2.697 0 0 0-2.7 2.695 2.7 2.7 0 0 0 2.7 2.701m15.72 8.336a2.126 2.126 0 0 0-2.129-2.126c-1.176 0-2.126.95-2.126 2.126 0 1.177.95 2.126 2.126 2.126a2.125 2.125 0 0 0 2.129-2.126" style="fill:#fff" transform="matrix(0 4.16667 4.16666 0 322.574 181.61)"/>
  <path d="M.061 0v-.81h.103l.197.462V-.81h.122V0H.385L.187-.484V0z" style="fill:#fff;fill-rule:nonzero" transform="matrix(36.37334 0 0 36.37353 80.01 64.587)"/>
  <use href="#a" style="fill:#fff;fill-rule:nonzero" transform="matrix(36.37334 0 0 36.37353 99.623 64.587)"/>
  <path d="M.061 0v-.81h.238q.073 0 .118.027a.15.15 0 0 1 .067.079.3.3 0 0 1 .022.124.26.26 0 0 1-.027.128.16.16 0 0 1-.076.07.3.3 0 0 1-.114.022h-.08V0zm.148-.464h.056a.2.2 0 0 0 .062-.011.06.06 0 0 0 .031-.037.2.2 0 0 0 .009-.069.3.3 0 0 0-.007-.071.06.06 0 0 0-.028-.041Q.312-.706.265-.706H.209z" style="fill:#fff;fill-rule:nonzero" transform="matrix(36.37334 0 0 36.37353 80.01 112.736)"/>
  <use href="#a" style="fill:#fff;fill-rule:nonzero" transform="matrix(36.37334 0 0 36.37353 98.968 112.736)"/>
  <path d="M.185 0 .022-.81h.131l.107.573.1-.573h.134L.331 0z" style="fill:#fff;fill-rule:nonzero" transform="matrix(36.37334 0 0 36.37353 119.126 112.736)"/>
  <path d="M.061 0v-.81h.34v.104H.209v.233H.36v.103H.209v.268h.194V0z" style="fill:#fff;fill-rule:nonzero" transform="matrix(36.37334 0 0 36.37353 137.684 112.736)"/>
  <path d="M.061 0v-.81h.194a.4.4 0 0 1 .138.02.16.16 0 0 1 .086.066q.03.047.03.128A.4.4 0 0 1 .5-.508a.2.2 0 0 1-.031.067.14.14 0 0 1-.059.042L.523 0H.375L.277-.371H.209V0zm.148-.464h.046a.2.2 0 0 0 .068-.012.1.1 0 0 0 .037-.04.2.2 0 0 0 .011-.071.15.15 0 0 0-.023-.091Q.326-.709.263-.709H.209z" style="fill:#fff;fill-rule:nonzero" transform="matrix(36.37334 0 0 36.37353 153.04 112.736)"/>
  <path d="M.142 0v-.701H.013V-.81h.404v.109H.29V0z" style="fill:#fff;fill-rule:nonzero" transform="matrix(36.37334 0 0 36.37353 172.726 112.736)"/>
  <path d="M.174 0v-.309L.01-.81h.138l.1.321.094-.321h.135l-.162.501V0z" style="fill:#fff;fill-rule:nonzero" transform="matrix(36.37334 0 0 36.37353 188.155 112.736)"/>
</svg>
