<svg xmlns="http://www.w3.org/2000/svg" xml:space="preserve" style="fill-rule:evenodd;clip-rule:evenodd;stroke-linejoin:round;stroke-miterlimit:2" viewBox="0 0 405 405">
  <path d="M-.682 18.462c.377 0 .684.306.684.682v7.793a.685.685 0 0 1-.684.684h-7.855a.683.683 0 0 1-.682-.684v-2.376l-5.128-.565-25.851.574v-3.056l14.209.306v-4.38a19 19 0 0 1-4.669-.958c-2.56-.881-5.42-3.414-7.834-4.167 1.315.299 4.559.802 6.866-.789 2.953-2.04 3.429-2.295 5.266-2.592-3.963-.337-6.859-2.779-8.008-8.176-1.096-5.143-1.854-7.166-4.019-8.089 3.165-.307 7.781-.338 13.073 5.08 4.011 4.103 8.118 3.999 11.384.961 3.264-3.039 5.553-4.503 7.331-2.51.429.481.847.894 1.235 1.243.407-1.975 1.609-3.22 2.799-4.438.654-.669 1.332-1.36 1.849-2.164l.426.275c-.547.846-1.24 1.556-1.911 2.243-1.222 1.249-2.406 2.471-2.73 4.46.952.797 1.627 1.159 1.627 1.159s-.712-.066-1.71.052c.011 1.025.219 2.228.707 3.69q-.255.028-.512.043c-.461-1.43-.67-2.629-.692-3.661a8.7 8.7 0 0 0-1.601.424c-1.932.726-3.276 2.357-3.119 6.558.157 4.125-1.416 8.616-8.627 10.651-.989.279-1.985.477-2.98.605v4.575l7.491.172 5.128-.564v-2.379c0-.376.305-.682.682-.682zm-24.072-.958v4.344l1.681.039v-4.429q-.843.058-1.681.046m21.429-30.077s1.397.728 1.673 1.953-.671 2.482-.671 2.482-1.396-.729-1.673-1.954c-.275-1.224.671-2.481.671-2.481m-1.542 7.178s-1.397-.729-1.674-1.954c-.275-1.225.672-2.48.672-2.48s1.396.726 1.673 1.951c.276 1.225-.671 2.483-.671 2.483m3.89-1.346s.844-1.171 1.982-1.273c1.139-.101 2.137.907 2.137.907s-.843 1.172-1.981 1.273-2.138-.907-2.138-.907M.66-12.125c.927-.938 2.56-.796 2.56-.796s.131 1.663-.795 2.601c-.928.939-2.56.797-2.56.797s-.131-1.662.795-2.602m-2.043 9.12c-1.134-.134-1.906-1.324-1.906-1.324s1.066-.974 2.201-.84C.045-5.035.817-3.844.817-3.844s-1.066.973-2.2.839M-.37 15.227a1.2 1.2 0 0 1 0 2.398h-8.477a1.199 1.199 0 1 1 0-2.398zm0 13.218a1.199 1.199 0 1 1 0 2.398h-8.477a1.2 1.2 0 1 1 0-2.398zm-38.123-16.13c-.371-.084-.589-.151-.589-.151.192.035.39.089.589.151m-2.439 11.75c0 .644-.45 1.167-1.004 1.167h-.603c-.554 0-1.005-.523-1.005-1.167v-2.112c0-.646.451-1.167 1.005-1.167h.603c.554 0 1.004.521 1.004 1.167z" style="fill:#146a9f" transform="matrix(4.16666 0 0 4.16667 291.143 231.752)"/>
</svg>
