<!DOCTYPE svg PUBLIC "-//W3C//DTD SVG 1.1//EN" "http://www.w3.org/Graphics/SVG/1.1/DTD/svg11.dtd">
<svg xmlns="http://www.w3.org/2000/svg" xml:space="preserve" style="fill-rule:evenodd;clip-rule:evenodd;stroke-linejoin:round;stroke-miterlimit:2" viewBox="0 0 405 405">
  <defs>
    <path id="a" d="M.061 0v-.81h.34v.104H.209v.233H.36v.103H.209v.268h.194V0z"/>
  </defs>
  <path d="M518.845 366.224h97.036v97.036h-97.036z" style="fill:#ef402a" transform="matrix(-4.16666 0 0 4.16667 2566.17 -1525.933)"/>
  <path d="M0 17.452q-1.051-.674-1.439-1.908t-.388-3.083h3.426q0 1.6.297 2.318.297.72 1.165.72.685 0 1.005-.457.32-.456.4-1.245.08-.787.08-2.273 0-1.69-.309-2.524-.308-.833-1.268-.834-1.233 0-1.575 1.668h-3.039l.252-10.508h8.52v3.038H1.508l-.206 4.089q.32-.388 1.096-.651a5.2 5.2 0 0 1 1.668-.263q1.896 0 2.855 1.531t.96 4.294q0 2.193-.388 3.644-.39 1.45-1.474 2.284t-3.095.834q-1.874 0-2.924-.674" style="fill:#fff;fill-rule:nonzero" transform="matrix(4.16666 0 0 4.16667 40.51 37.973)"/>
  <path d="M-.096-51.885c.086 0 .157.069.157.155v12.116a.156.156 0 0 1-.157.154h-4.025a.156.156 0 0 1-.156-.154v-4.506l-5.281 5.281a15.77 15.77 0 0 1 2.899 9.127c0 7.873-5.764 14.421-13.293 15.656v4.715h4.778c.085 0 .154.068.154.153v4.315a.153.153 0 0 1-.154.154h-4.778v4.566a.155.155 0 0 1-.156.153h-4.313a.153.153 0 0 1-.154-.153v-4.566h-4.779a.153.153 0 0 1-.156-.154v-4.315c0-.085.067-.153.156-.153h4.779v-4.639c-7.785-1.009-13.821-7.676-13.821-15.732 0-8.75 7.12-15.868 15.869-15.868a15.78 15.78 0 0 1 9.783 3.388l5.357-5.357h-4.824a.156.156 0 0 1-.154-.155v-4.026c0-.086.071-.155.154-.155zm-22.431 33.853c6.441 0 11.68-5.24 11.68-11.68s-5.239-11.68-11.68-11.68-11.679 5.24-11.679 11.68 5.238 11.68 11.679 11.68m7.135-10.35c.088 0 .157.065.157.143v3.43c0 .077-.069.138-.157.138h-14.167c-.085 0-.154-.061-.154-.138v-3.43c0-.078.069-.143.154-.143zm0-6.124c.088 0 .157.063.157.138v3.43c0 .08-.069.14-.157.14h-14.167c-.085 0-.154-.06-.154-.14v-3.43c0-.075.069-.138.154-.138z" style="fill:#fff" transform="matrix(4.16666 0 0 4.16667 294.92 368.942)"/>
  <path d="M.264.011a.2.2 0 0 1-.127-.034.2.2 0 0 1-.068-.096.5.5 0 0 1-.02-.148v-.272a.5.5 0 0 1 .02-.15.17.17 0 0 1 .07-.096.25.25 0 0 1 .14-.034q.082 0 .132.028a.16.16 0 0 1 .07.081.3.3 0 0 1 .022.127v.042H.362v-.046a.3.3 0 0 0-.006-.067.07.07 0 0 0-.022-.042Q.318-.711.281-.711q-.039 0-.057.019a.1.1 0 0 0-.022.05l-.004.068v.339q0 .042.007.073a.1.1 0 0 0 .026.048.08.08 0 0 0 .054.016q.036 0 .055-.018a.1.1 0 0 0 .026-.05.3.3 0 0 0 .008-.076v-.076H.287v-.093h.22V0H.412L.401-.08a.16.16 0 0 1-.049.066.14.14 0 0 1-.088.025" style="fill:#fff;fill-rule:nonzero" transform="matrix(36.37334 0 0 36.37353 104.121 64.587)"/>
  <use href="#a" style="fill:#fff;fill-rule:nonzero" transform="matrix(36.37334 0 0 36.37353 124.235 64.587)"/>
  <path d="M.061 0v-.81h.103l.197.462V-.81h.122V0H.385L.187-.484V0z" style="fill:#fff;fill-rule:nonzero" transform="matrix(36.37334 0 0 36.37353 139.585 64.587)"/>
  <path d="M.061 0v-.81h.191q.099 0 .154.027A.16.16 0 0 1 .485-.7a.4.4 0 0 1 .024.142v.296a.4.4 0 0 1-.024.147.16.16 0 0 1-.078.087A.3.3 0 0 1 .258 0zm.148-.103h.045q.05 0 .073-.018a.08.08 0 0 0 .027-.052l.005-.085v-.31a.3.3 0 0 0-.007-.079Q.345-.677.323-.691a.14.14 0 0 0-.071-.014H.209z" style="fill:#fff;fill-rule:nonzero" transform="matrix(36.37334 0 0 36.37353 159.19 64.587)"/>
  <use href="#a" style="fill:#fff;fill-rule:nonzero" transform="matrix(36.37334 0 0 36.37353 179.232 64.587)"/>
  <path d="M.061 0v-.81h.194a.4.4 0 0 1 .138.02.16.16 0 0 1 .086.066q.03.047.03.128A.4.4 0 0 1 .5-.508a.2.2 0 0 1-.031.067.14.14 0 0 1-.059.042L.523 0H.375L.277-.371H.209V0zm.148-.464h.046a.2.2 0 0 0 .068-.012.1.1 0 0 0 .037-.04.2.2 0 0 0 .011-.071.15.15 0 0 0-.023-.091Q.326-.709.263-.709H.209z" style="fill:#fff;fill-rule:nonzero" transform="matrix(36.37334 0 0 36.37353 194.581 64.587)"/>
  <use href="#a" style="fill:#fff;fill-rule:nonzero" transform="matrix(36.37334 0 0 36.37353 104.121 112.736)"/>
  <path d="M.456.161A.3.3 0 0 1 .402.125.6.6 0 0 1 .299.01L.29.011H.281a.26.26 0 0 1-.137-.032.18.18 0 0 1-.073-.092.4.4 0 0 1-.022-.142v-.303q0-.082.022-.14a.18.18 0 0 1 .073-.09.26.26 0 0 1 .137-.031q.088 0 .139.031a.18.18 0 0 1 .073.09.4.4 0 0 1 .022.14v.304a.5.5 0 0 1-.011.105.2.2 0 0 1-.036.082.2.2 0 0 1-.066.053l.027.029.028.028a.1.1 0 0 0 .027.021zM.281-.098q.037 0 .055-.016A.1.1 0 0 0 .36-.158a.3.3 0 0 0 .006-.061v-.373A.3.3 0 0 0 .36-.653a.07.07 0 0 0-.024-.042Q.318-.711.281-.711q-.036 0-.054.016a.07.07 0 0 0-.024.042.4.4 0 0 0-.005.061v.373q0 .033.005.061a.1.1 0 0 0 .024.044q.018.016.054.016" style="fill:#fff;fill-rule:nonzero" transform="matrix(36.37334 0 0 36.37353 119.47 112.736)"/>
  <path d="M.283.011a.25.25 0 0 1-.14-.033.17.17 0 0 1-.069-.094.5.5 0 0 1-.019-.146V-.81h.144v.565q0 .037.005.072.005.033.023.054.019.02.056.02.04 0 .056-.02a.1.1 0 0 0 .023-.054.4.4 0 0 0 .006-.072V-.81h.143v.548a.5.5 0 0 1-.019.146.17.17 0 0 1-.069.094.25.25 0 0 1-.14.033" style="fill:#fff;fill-rule:nonzero" transform="matrix(36.37334 0 0 36.37353 139.767 112.736)"/>
  <path d="m.02 0 .162-.81H.34L.502 0H.365L.333-.187H.192L.159 0zm.187-.281h.11l-.055-.34z" style="fill:#fff;fill-rule:nonzero" transform="matrix(36.37334 0 0 36.37353 160.027 112.736)"/>
  <path d="M.061 0v-.81h.148v.708h.196V0z" style="fill:#fff;fill-rule:nonzero" transform="matrix(36.37334 0 0 36.37353 178.795 112.736)"/>
  <path d="M.065-.81h.146V0H.065z" style="fill:#fff;fill-rule:nonzero" transform="matrix(36.37334 0 0 36.37353 193.89 112.736)"/>
  <path d="M.142 0v-.701H.013V-.81h.404v.109H.29V0z" style="fill:#fff;fill-rule:nonzero" transform="matrix(36.37334 0 0 36.37353 203.675 112.736)"/>
  <path d="M.174 0v-.309L.01-.81h.138l.1.321.094-.321h.135l-.162.501V0z" style="fill:#fff;fill-rule:nonzero" transform="matrix(36.37334 0 0 36.37353 219.097 112.736)"/>
</svg>
