<svg xmlns="http://www.w3.org/2000/svg" xml:space="preserve" style="fill-rule:evenodd;clip-rule:evenodd;stroke-linejoin:round;stroke-miterlimit:2" viewBox="0 0 405 405">
  <path d="M0-49.473a.43.43 0 0 0-.32-.14h-35.365a.43.43 0 0 0-.318.14.43.43 0 0 0-.089.335l5.942 35.935a.416.416 0 0 0 .408.347h7.292l.499 5.852L-25.02-7l7.14 7.14 7.158-7.156-3.068.003.498-5.843h7.421a.41.41 0 0 0 .406-.353L.094-49.138A.42.42 0 0 0 0-49.473m-13.668 28.769s-1.607 1.651-4.22 1.472c-2.62.179-4.225-1.472-4.225-1.472-2.649-2.647-1.704-5.94-.782-7.642.57-1.066 4.64-7.179 4.99-7.699v-.041l.017.019.014-.019v.041c.34.52 4.418 6.633 4.987 7.699.924 1.702 1.866 4.995-.781 7.642M-2.45-41.912c-.958-.422-2.173-.27-3.34.202-4.388 1.779-7.374 2.419-11.99.973-2.906-.909-5.626-2.815-8.84-1.654-2.133.767-4.121 1.499-6.533 1.48l-1.393-7.142h33.098z" style="fill:#27bfe6;fill-rule:nonzero" transform="matrix(4.16666 0 0 4.16667 277.145 369.444)"/>
</svg>
