<svg xmlns="http://www.w3.org/2000/svg" xml:space="preserve" style="fill-rule:evenodd;clip-rule:evenodd;stroke-linejoin:round;stroke-miterlimit:2" viewBox="0 0 405 405">
  <path d="M0 10.255a.36.36 0 0 1-.299-.562l.11-.134L6.928.22l.068-.077.044-.051A.37.37 0 0 1 7.276 0c.106 0 .2.045.266.117l.071.078 7.295 9.439.02.021a.36.36 0 0 1 .095.239.36.36 0 0 1-.36.361zm14.619 1.331a.36.36 0 0 1 .359.36v11.498a.36.36 0 0 1-.359.36H9.765v-7.233a.36.36 0 0 0-.36-.36h-4.39a.36.36 0 0 0-.359.36v7.233H-.073a.36.36 0 0 1-.36-.36V11.946a.36.36 0 0 1 .36-.36zm50.779-3.01c.198 0 .356.152.356.345v14.684a.35.35 0 0 1-.356.346H50.856a.35.35 0 0 1-.355-.346V8.921c0-.193.159-.345.355-.345zm-1.317 4.706V10.64a.35.35 0 0 0-.356-.345h-4.343a.35.35 0 0 0-.356.345v2.642a.35.35 0 0 0 .356.347h4.343a.35.35 0 0 0 .356-.347m-6.64 0V10.64a.35.35 0 0 0-.355-.345h-4.344a.35.35 0 0 0-.357.345v2.642c0 .192.159.347.357.347h4.344a.35.35 0 0 0 .355-.347m6.64 4.88v-2.64a.35.35 0 0 0-.356-.347h-4.343a.35.35 0 0 0-.356.347v2.64a.35.35 0 0 0 .356.347h4.343a.35.35 0 0 0 .356-.347m-6.64 0v-2.64a.35.35 0 0 0-.355-.347h-4.344a.35.35 0 0 0-.357.347v2.64a.35.35 0 0 0 .357.347h4.344a.35.35 0 0 0 .355-.347m-25.847-43.67a.35.35 0 0 1 .35.349v48.635a.35.35 0 0 1-.35.348H17.363a.35.35 0 0 1-.348-.348v-48.635a.35.35 0 0 1 .348-.349zM23.129 1.606v-3.633a.187.187 0 0 0-.187-.187h-3.259a.187.187 0 0 0-.187.187v3.633c0 .102.084.186.187.186h3.259a.187.187 0 0 0 .187-.186m6.39-16.678v-3.632a.187.187 0 0 0-.188-.187h-3.258a.186.186 0 0 0-.187.187v3.632c0 .102.083.186.187.186h3.258a.187.187 0 0 0 .188-.186m-6.39 33.355v-3.631a.187.187 0 0 0-.187-.186h-3.259a.187.187 0 0 0-.187.186v3.631c0 .103.084.187.187.187h3.259a.187.187 0 0 0 .187-.187m6.39-16.677v-3.633a.19.19 0 0 0-.188-.187h-3.258a.187.187 0 0 0-.187.187v3.633c0 .102.083.186.187.186h3.258a.187.187 0 0 0 .188-.186m0-8.341v-3.632a.185.185 0 0 0-.188-.184h-3.258a.184.184 0 0 0-.187.184v3.632c0 .104.083.187.187.187h3.258a.187.187 0 0 0 .188-.187m-6.39 16.678v-3.63a.186.186 0 0 0-.187-.187h-3.259a.186.186 0 0 0-.187.187v3.63c0 .105.084.187.187.187h3.259a.186.186 0 0 0 .187-.187m6.39 0v-3.63a.186.186 0 0 0-.188-.187h-3.258a.185.185 0 0 0-.187.187v3.63c0 .105.083.187.187.187h3.258a.186.186 0 0 0 .188-.187m-6.39-25.015v-3.632a.187.187 0 0 0-.187-.187h-3.259a.187.187 0 0 0-.187.187v3.632c0 .102.084.186.187.186h3.259a.187.187 0 0 0 .187-.186m6.39 33.355v-3.631a.187.187 0 0 0-.188-.186h-3.258a.186.186 0 0 0-.187.186v3.631c0 .103.083.187.187.187h3.258a.19.19 0 0 0 .188-.187m-6.39-25.018v-3.632a.185.185 0 0 0-.187-.184h-3.259a.185.185 0 0 0-.187.184v3.632c0 .104.084.187.187.187h3.259a.187.187 0 0 0 .187-.187M65.737 7.098c0 .163-.13.293-.292.293H50.808a.29.29 0 0 1-.292-.293V4.171c0-.161.131-.292.292-.292h14.637c.162 0 .292.131.292.292zM48.783-16.324q.032.067.034.146v39.727a.347.347 0 0 1-.348.347H34.252a.35.35 0 0 1-.349-.347V1.746a.4.4 0 0 1 .121-.277l.065-.086 13.986-17.742.121-.152q.012-.01.026-.018a.37.37 0 0 1 .204-.067c.171 0 .31.116.357.272m-1.618 29.579V10.6a.35.35 0 0 0-.348-.348h-4.24a.347.347 0 0 0-.35.348v2.655c0 .193.156.348.35.348h4.24a.35.35 0 0 0 .348-.348m0-4.906V5.693a.35.35 0 0 0-.348-.348h-4.24a.35.35 0 0 0-.35.348v2.656c0 .191.156.347.35.347h4.24a.35.35 0 0 0 .348-.347m-6.472-4.901v-6.006a.4.4 0 0 0-.701-.177l-.103.124c-1.027 1.26-3.474 4.273-4.016 5.049l-.039.057a.3.3 0 0 0-.031.046c-.013.02-.015.026-.021.041a.4.4 0 0 0-.027.13v.736c0 .192.156.348.35.348h4.24a.35.35 0 0 0 .348-.348m6.472-4.912v-2.654a.35.35 0 0 0-.348-.35h-4.24a.35.35 0 0 0-.35.35v2.654c0 .193.156.348.35.348h4.24a.35.35 0 0 0 .348-.348M40.681 18.16v-2.655a.347.347 0 0 0-.347-.347h-4.242a.347.347 0 0 0-.348.347v2.655c0 .193.155.348.348.348h4.242a.347.347 0 0 0 .347-.348m0-9.811V5.693a.347.347 0 0 0-.347-.348h-4.242a.347.347 0 0 0-.348.348v2.656c0 .191.155.347.348.347h4.242a.347.347 0 0 0 .347-.347m2.213-15.037a.402.402 0 0 0 .308.64l.018.003.018-.003h3.495l.017.003.018-.003a.4.4 0 0 0 .386-.4v-4.489a.397.397 0 0 0-.701-.178l-.102.124c-.787.964-2.399 2.949-3.357 4.177zm-2.213 19.943V10.6a.346.346 0 0 0-.347-.348h-4.242a.346.346 0 0 0-.348.348v2.655c0 .193.155.348.348.348h4.242a.347.347 0 0 0 .347-.348m6.484-9.812V.788a.35.35 0 0 0-.348-.348h-4.24a.35.35 0 0 0-.35.348v2.655c0 .191.156.347.35.347h4.24a.35.35 0 0 0 .348-.347m0 14.717v-2.655a.35.35 0 0 0-.348-.347h-4.24a.35.35 0 0 0-.35.347v2.655c0 .193.156.348.35.348h4.24a.35.35 0 0 0 .348-.348" style="fill:#f89d2a" transform="matrix(4.16666 0 0 4.16667 66.07 265.565)"/>
</svg>
