<!DOCTYPE svg PUBLIC "-//W3C//DTD SVG 1.1//EN" "http://www.w3.org/Graphics/SVG/1.1/DTD/svg11.dtd">
<svg xmlns="http://www.w3.org/2000/svg" xml:space="preserve" style="fill-rule:evenodd;clip-rule:evenodd;stroke-linejoin:round;stroke-miterlimit:2" viewBox="0 0 405 405">
  <defs>
    <path id="a" d="M.061 0v-.81h.194a.4.4 0 0 1 .138.02.16.16 0 0 1 .086.066q.03.047.03.128A.4.4 0 0 1 .5-.508a.2.2 0 0 1-.031.067.14.14 0 0 1-.059.042L.523 0H.375L.277-.371H.209V0zm.148-.464h.046a.2.2 0 0 0 .068-.012.1.1 0 0 0 .037-.04.2.2 0 0 0 .011-.071.15.15 0 0 0-.023-.091Q.326-.709.263-.709H.209z"/>
    <path id="b" d="M.061 0v-.81h.34v.104H.209v.233H.36v.103H.209v.268h.194V0z"/>
    <path id="c" d="M.265.011a.24.24 0 0 1-.122-.028.2.2 0 0 1-.074-.084.4.4 0 0 1-.028-.135l.127-.025a.4.4 0 0 0 .011.083.13.13 0 0 0 .029.056.07.07 0 0 0 .052.019q.036 0 .051-.021a.1.1 0 0 0 .015-.055.15.15 0 0 0-.024-.087.4.4 0 0 0-.064-.068l-.102-.09a.3.3 0 0 1-.069-.082.23.23 0 0 1-.025-.113q0-.096.056-.148a.2.2 0 0 1 .153-.052.2.2 0 0 1 .095.018.14.14 0 0 1 .06.048.2.2 0 0 1 .034.071.4.4 0 0 1 .014.083l-.126.022a.3.3 0 0 0-.009-.068.1.1 0 0 0-.023-.047.07.07 0 0 0-.048-.017q-.033 0-.051.022a.1.1 0 0 0-.017.053q0 .04.017.068a.3.3 0 0 0 .049.054l.101.089a.4.4 0 0 1 .085.099.25.25 0 0 1 .036.136.2.2 0 0 1-.026.103.2.2 0 0 1-.071.071.2.2 0 0 1-.106.025"/>
    <path id="d" d="M.061 0v-.81h.238q.073 0 .118.027a.15.15 0 0 1 .067.079.3.3 0 0 1 .022.124.26.26 0 0 1-.027.128.16.16 0 0 1-.076.07.3.3 0 0 1-.114.022h-.08V0zm.148-.464h.056a.2.2 0 0 0 .062-.011.06.06 0 0 0 .031-.037.2.2 0 0 0 .009-.069.3.3 0 0 0-.007-.071.06.06 0 0 0-.028-.041Q.312-.706.265-.706H.209z"/>
    <path id="e" d="M.281.011a.26.26 0 0 1-.137-.032.18.18 0 0 1-.073-.092.4.4 0 0 1-.022-.142v-.303q0-.082.022-.14a.18.18 0 0 1 .073-.09.26.26 0 0 1 .137-.031q.088 0 .138.031a.18.18 0 0 1 .073.09.4.4 0 0 1 .023.14v.304a.4.4 0 0 1-.023.141.2.2 0 0 1-.073.092.26.26 0 0 1-.138.032m0-.109q.037 0 .054-.016a.1.1 0 0 0 .024-.044.3.3 0 0 0 .006-.061v-.373a.3.3 0 0 0-.006-.061.07.07 0 0 0-.024-.042Q.318-.711.281-.711q-.035 0-.053.016a.07.07 0 0 0-.024.042.3.3 0 0 0-.006.061v.373q0 .033.005.061a.1.1 0 0 0 .024.044q.018.016.054.016"/>
    <path id="f" d="M.061 0v-.81h.103l.197.462V-.81h.122V0H.385L.187-.484V0z"/>
    <path id="g" d="M.065-.81h.146V0H.065z"/>
    <path id="h" d="M.279.011a.25.25 0 0 1-.14-.035.2.2 0 0 1-.07-.095.5.5 0 0 1-.02-.14v-.289q0-.083.02-.144a.17.17 0 0 1 .07-.094.26.26 0 0 1 .14-.033q.084 0 .131.029a.16.16 0 0 1 .068.081q.02.052.02.123v.068H.356v-.07A.4.4 0 0 0 .352-.65a.07.07 0 0 0-.019-.044Q.318-.711.28-.711t-.056.018a.1.1 0 0 0-.022.047.4.4 0 0 0-.005.066v.352a.3.3 0 0 0 .007.073.1.1 0 0 0 .025.043q.02.014.051.014.037 0 .052-.017a.1.1 0 0 0 .02-.047.4.4 0 0 0 .004-.065V-.3h.142v.065a.4.4 0 0 1-.019.128.17.17 0 0 1-.067.087.24.24 0 0 1-.133.031"/>
    <path id="i" d="M.283.011a.25.25 0 0 1-.14-.033.17.17 0 0 1-.069-.094.5.5 0 0 1-.019-.146V-.81h.144v.565q0 .037.005.072.005.033.023.054.019.02.056.02.04 0 .056-.02a.1.1 0 0 0 .023-.054.4.4 0 0 0 .006-.072V-.81h.143v.548a.5.5 0 0 1-.019.146.17.17 0 0 1-.069.094.25.25 0 0 1-.14.033"/>
    <path id="j" d="M.142 0v-.701H.013V-.81h.404v.109H.29V0z"/>
    <path id="k" d="M.061 0v-.81h.191q.099 0 .154.027A.16.16 0 0 1 .485-.7a.4.4 0 0 1 .024.142v.296a.4.4 0 0 1-.024.147.16.16 0 0 1-.078.087A.3.3 0 0 1 .258 0zm.148-.103h.045q.05 0 .073-.018a.08.08 0 0 0 .027-.052l.005-.085v-.31a.3.3 0 0 0-.007-.079Q.345-.677.323-.691a.14.14 0 0 0-.071-.014H.209z"/>
  </defs>
  <path d="M627.588 257.482h97.036v97.036h-97.036z" style="fill:#cf8d2a" transform="matrix(-4.16666 0 0 4.16667 3019.214 -1072.841)"/>
  <path d="M0-11.193q-.252.137-1.462.571-.96.32-1.21.434v-2.627q.776-.297 1.884-.913 1.107-.618 1.565-1.12h2.764V3.655H0z" style="fill:#fff;fill-rule:nonzero" transform="matrix(4.16666 0 0 4.16667 34.66 97.033)"/>
  <path d="M0 13.751 4.477 6.83l.274-.412q.868-1.301 1.28-2.181a4.5 4.5 0 0 0 .411-1.93q0-.891-.343-1.359T5.117.48q-.96 0-1.325.73-.366.732-.366 2.01v.846H0v-.914Q0 .548 1.222-.971T5.048-2.49q2.399 0 3.644 1.268t1.245 3.597q0 1.052-.32 1.988a9 9 0 0 1-.754 1.667 45 45 0 0 1-1.348 2.079l-3.563 5.345h5.505v2.787H0z" style="fill:#fff;fill-rule:nonzero" transform="matrix(4.16666 0 0 4.16667 57.597 44.592)"/>
  <path d="M0-25.214c-4.305-3.4-10.009-3.47-12.098-2.973l-.242.056c-2.413.57-6.245 1.513-10.73 7.079q-.038.046-.075.094l-.056.069a.36.36 0 0 0-.026.403l.104.171a86 86 0 0 1 1.873 3.271l.016.035c.064.123.192.21.342.21a.37.37 0 0 0 .265-.108 2 2 0 0 0 .082-.114c3.981-5.505 7.112-6.266 9.229-6.764l.254-.059c1.099-.264 5.278-.248 8.295 2.133 2.354 1.859 3.549 4.817 3.549 8.79 0 6.666-3.242 9.274-5.963 10.287-4.214 1.576-8.256-.53-8.286-.546l-.181-.088c-2.315-1.006-5.77-3.097-9.026-9.637-6.563-13.18-12.052-14.422-15.685-15.244l-.194-.044c-1.654-.375-7.398-.64-11.913 2.964-2.359 1.882-5.169 5.541-5.169 12.282 0 4.107.844 6.819 3.012 9.672.476.65 5.336 6.894 14.733 5.093 1.504-.288 3.541-1.006 5.782-2.685L-30.04.998c.135.123.35.113.474-.023a.3.3 0 0 0 .083-.224V.723l1.492-9.178.001-.102a.33.33 0 0 0-.111-.244.3.3 0 0 0-.219-.083l-.064.006-.097.01-8.79 2.461-.16.026a.333.333 0 0 0-.143.575l.103.096 1.97 1.778c-1.272.824-2.381 1.202-3.227 1.366-6.798 1.296-10.155-3.156-10.282-3.331l-.048-.065c-1.579-2.074-2.113-3.836-2.113-6.985 0-3.986 1.174-6.945 3.489-8.794 2.94-2.346 6.995-2.36 8.14-2.099l.198.045c2.977.673 7.055 1.596 12.672 12.88C-23.754-5.057-20.099-1.226-15.5.794c.585.298 3.378 1.623 7.001 1.623a14 14 0 0 0 4.879-.865C-.955.557 5.246-2.842 5.246-12.921c0-6.736-2.853-10.403-5.246-12.293" style="fill:#fff;fill-rule:nonzero" transform="matrix(4.16666 0 0 4.16667 307.119 314.877)"/>
  <use href="#a" style="fill:#fff;fill-rule:nonzero" transform="matrix(36.37334 0 0 36.37353 126.377 64.58)"/>
  <use href="#b" style="fill:#fff;fill-rule:nonzero" transform="matrix(36.37334 0 0 36.37353 145.6 64.58)"/>
  <use href="#c" style="fill:#fff;fill-rule:nonzero" transform="matrix(36.37334 0 0 36.37353 159.986 64.58)"/>
  <use href="#d" style="fill:#fff;fill-rule:nonzero" transform="matrix(36.37334 0 0 36.37353 176.772 64.58)"/>
  <use href="#e" style="fill:#fff;fill-rule:nonzero" transform="matrix(36.37334 0 0 36.37353 194.758 64.58)"/>
  <use href="#f" style="fill:#fff;fill-rule:nonzero" transform="matrix(36.37334 0 0 36.37353 214.054 64.58)"/>
  <use href="#c" style="fill:#fff;fill-rule:nonzero" transform="matrix(36.37334 0 0 36.37353 232.696 64.58)"/>
  <use href="#g" style="fill:#fff;fill-rule:nonzero" transform="matrix(36.37334 0 0 36.37353 249.483 64.58)"/>
  <path d="M.061 0v-.81H.26q.054 0 .097.01a.2.2 0 0 1 .075.034.14.14 0 0 1 .049.063q.017.04.017.101a.2.2 0 0 1-.014.084.14.14 0 0 1-.039.056.2.2 0 0 1-.065.027.16.16 0 0 1 .079.034.15.15 0 0 1 .047.066q.016.04.016.099a.3.3 0 0 1-.015.103.2.2 0 0 1-.043.074.2.2 0 0 1-.071.044A.3.3 0 0 1 .294 0zm.148-.104h.056q.067 0 .091-.032A.17.17 0 0 0 .38-.237a.2.2 0 0 0-.012-.079.08.08 0 0 0-.038-.046.14.14 0 0 0-.07-.015H.209zm0-.375h.05a.14.14 0 0 0 .068-.013.07.07 0 0 0 .033-.04A.2.2 0 0 0 .37-.6a.12.12 0 0 0-.015-.066.07.07 0 0 0-.043-.032.3.3 0 0 0-.074-.009H.209z" style="fill:#fff;fill-rule:nonzero" transform="matrix(36.37334 0 0 36.37353 258.303 64.58)"/>
  <path d="M.061 0v-.81h.148v.708h.196V0z" style="fill:#fff;fill-rule:nonzero" transform="matrix(36.37334 0 0 36.37353 277.38 64.58)"/>
  <use href="#b" style="fill:#fff;fill-rule:nonzero" transform="matrix(36.37334 0 0 36.37353 291.511 64.58)"/>
  <use href="#h" style="fill:#fff;fill-rule:nonzero" transform="matrix(36.37334 0 0 36.37353 126.377 112.729)"/>
  <use href="#e" style="fill:#fff;fill-rule:nonzero" transform="matrix(36.37334 0 0 36.37353 144.836 112.729)"/>
  <use href="#f" style="fill:#fff;fill-rule:nonzero" transform="matrix(36.37334 0 0 36.37353 164.132 112.729)"/>
  <use href="#c" style="fill:#fff;fill-rule:nonzero" transform="matrix(36.37334 0 0 36.37353 182.773 112.729)"/>
  <use href="#i" style="fill:#fff;fill-rule:nonzero" transform="matrix(36.37334 0 0 36.37353 199.56 112.729)"/>
  <path d="m.059 0 .014-.81h.153l.115.561.12-.561h.148L.624 0h-.11L.502-.563.387 0H.298L.181-.565.17 0z" style="fill:#fff;fill-rule:nonzero" transform="matrix(36.37334 0 0 36.37353 218.965 112.729)"/>
  <use href="#d" style="fill:#fff;fill-rule:nonzero" transform="matrix(36.37334 0 0 36.37353 242.626 112.729)"/>
  <use href="#j" style="fill:#fff;fill-rule:nonzero" transform="matrix(36.37334 0 0 36.37353 260.612 112.729)"/>
  <use href="#g" style="fill:#fff;fill-rule:nonzero" transform="matrix(36.37334 0 0 36.37353 275.071 112.729)"/>
  <use href="#e" style="fill:#fff;fill-rule:nonzero" transform="matrix(36.37334 0 0 36.37353 283.891 112.729)"/>
  <use href="#f" style="fill:#fff;fill-rule:nonzero" transform="matrix(36.37334 0 0 36.37353 303.187 112.729)"/>
  <path d="m.02 0 .162-.81H.34L.502 0H.365L.333-.187H.192L.159 0zm.187-.281h.11l-.055-.34z" style="fill:#fff;fill-rule:nonzero" transform="matrix(36.37334 0 0 36.37353 126.377 160.879)"/>
  <use href="#f" style="fill:#fff;fill-rule:nonzero" transform="matrix(36.37334 0 0 36.37353 144.181 160.879)"/>
  <use href="#k" style="fill:#fff;fill-rule:nonzero" transform="matrix(36.37334 0 0 36.37353 162.822 160.879)"/>
  <use href="#d" style="fill:#fff;fill-rule:nonzero" transform="matrix(36.37334 0 0 36.37353 189.557 160.879)"/>
  <use href="#a" style="fill:#fff;fill-rule:nonzero" transform="matrix(36.37334 0 0 36.37353 207.544 160.879)"/>
  <use href="#e" style="fill:#fff;fill-rule:nonzero" transform="matrix(36.37334 0 0 36.37353 226.658 160.879)"/>
  <use href="#k" style="fill:#fff;fill-rule:nonzero" transform="matrix(36.37334 0 0 36.37353 245.954 160.879)"/>
  <use href="#i" style="fill:#fff;fill-rule:nonzero" transform="matrix(36.37334 0 0 36.37353 265.032 160.879)"/>
  <use href="#h" style="fill:#fff;fill-rule:nonzero" transform="matrix(36.37334 0 0 36.37353 284.437 160.879)"/>
  <use href="#j" style="fill:#fff;fill-rule:nonzero" transform="matrix(36.37334 0 0 36.37353 302.896 160.879)"/>
  <use href="#g" style="fill:#fff;fill-rule:nonzero" transform="matrix(36.37334 0 0 36.37353 317.355 160.879)"/>
  <use href="#e" style="fill:#fff;fill-rule:nonzero" transform="matrix(36.37334 0 0 36.37353 326.175 160.879)"/>
  <use href="#f" style="fill:#fff;fill-rule:nonzero" transform="matrix(36.37334 0 0 36.37353 345.472 160.879)"/>
</svg>
