<svg xmlns="http://www.w3.org/2000/svg" xml:space="preserve" style="fill-rule:evenodd;clip-rule:evenodd;stroke-linejoin:round;stroke-miterlimit:2" viewBox="0 0 405 405">
  <path d="M0-25.214c-4.305-3.4-10.009-3.47-12.098-2.973l-.242.056c-2.413.57-6.245 1.513-10.73 7.079q-.038.046-.075.094l-.056.069a.36.36 0 0 0-.026.403l.104.171a86 86 0 0 1 1.873 3.271l.016.035c.064.123.192.21.342.21a.37.37 0 0 0 .265-.108 2 2 0 0 0 .082-.114c3.981-5.505 7.112-6.266 9.229-6.764l.254-.059c1.099-.264 5.278-.248 8.295 2.133 2.354 1.859 3.549 4.817 3.549 8.79 0 6.666-3.242 9.274-5.963 10.287-4.214 1.576-8.256-.53-8.286-.546l-.181-.088c-2.315-1.006-5.77-3.097-9.026-9.637-6.563-13.18-12.052-14.422-15.685-15.244l-.194-.044c-1.654-.375-7.398-.64-11.913 2.964-2.359 1.882-5.169 5.541-5.169 12.282 0 4.107.844 6.819 3.012 9.672.476.65 5.336 6.894 14.733 5.093 1.504-.288 3.541-1.006 5.782-2.685L-30.04.998c.135.123.35.113.474-.023a.3.3 0 0 0 .083-.224V.723l1.492-9.178.001-.102a.33.33 0 0 0-.111-.244.3.3 0 0 0-.219-.083l-.064.006-.097.01-8.79 2.461-.16.026a.333.333 0 0 0-.143.575l.103.096 1.97 1.778c-1.272.824-2.381 1.202-3.227 1.366-6.798 1.296-10.155-3.156-10.282-3.331l-.048-.065c-1.579-2.074-2.113-3.836-2.113-6.985 0-3.986 1.174-6.945 3.489-8.794 2.94-2.346 6.995-2.36 8.14-2.099l.198.045c2.977.673 7.055 1.596 12.672 12.88C-23.754-5.057-20.099-1.226-15.5.794c.585.298 3.378 1.623 7.001 1.623a14 14 0 0 0 4.879-.865C-.955.557 5.246-2.842 5.246-12.921c0-6.736-2.853-10.403-5.246-12.293" style="fill:#bf8d2c;fill-rule:nonzero" transform="matrix(4.16666 0 0 4.16667 307.119 314.877)"/>
</svg>
