<svg xmlns="http://www.w3.org/2000/svg" xml:space="preserve" style="fill-rule:evenodd;clip-rule:evenodd;stroke-linejoin:round;stroke-miterlimit:2" viewBox="0 0 405 405">
  <path d="M0 18.141c-9.239-2.847-16.206-10.224-17.773-19.25l-.033-.293c0-.359.29-.65.652-.65h51.249c.361 0 .65.291.65.65a.5.5 0 0 1-.009.09l-.008.054c-1.492 8.941-8.273 16.277-17.325 19.245v1.551l.002.004-.002.005a.647.647 0 0 1-.634.644l-.014.002-.014-.002H.661l-.016.002-.013-.002A.645.645 0 0 1 0 19.575l-.005-.033.005-.03zm17.388-42.066c.466-.651 1.46-.86 2.227-.468.765.394 1.013 1.238.549 1.893-.059.088-3.994 5.83-.109 10.077 2.747 3.001 3.029 5.92 2.344 8.248h-3.382c.69-1.577.9-3.911-1.518-6.557-5.274-5.764-.322-12.892-.111-13.193M8.822-4.175c.689-1.575.899-3.91-1.519-6.557-5.278-5.764-.323-12.893-.11-13.193.464-.651 1.46-.859 2.224-.468.767.395 1.012 1.238.55 1.89-.062.094-3.994 5.832-.107 10.08 2.746 3.001 3.03 5.92 2.346 8.248zm-11.827-19.75c.464-.652 1.459-.862 2.224-.468.767.394 1.012 1.238.552 1.89-.062.091-3.997 5.833-.11 10.08 2.748 3.002 3.031 5.921 2.347 8.248h-3.383c.689-1.575.898-3.91-1.521-6.557-5.275-5.764-.323-12.892-.109-13.193" style="fill:#dea739" transform="matrix(4.16666 0 0 4.16667 166.873 268.62)"/>
</svg>
