<svg xmlns="http://www.w3.org/2000/svg" xml:space="preserve" style="fill-rule:evenodd;clip-rule:evenodd;stroke-linejoin:round;stroke-miterlimit:2" viewBox="0 0 405 405">
  <path d="M0-5.806c.11 0 .196.098.196.217v5.371C.196-.097.11 0 0 0h-17.871c-.107 0-.194-.097-.194-.218v-5.371c0-.119.087-.217.194-.217zm0-11.428c.11 0 .196.098.196.217v5.371c0 .121-.086.218-.196.218h-17.871c-.107 0-.194-.097-.194-.218v-5.371c0-.119.087-.217.194-.217zm-.251-8.118a.148.148 0 0 1-.105.253h-17.156a.148.148 0 0 1-.104-.253l8.577-8.578a.15.15 0 0 1 .21 0zM7.801.066a.148.148 0 0 1-.253-.105v-17.156c0-.132.16-.198.253-.104l8.578 8.577a.15.15 0 0 1 0 .21zm-25.418 8.053a.148.148 0 0 1 .105-.253H-.356c.132 0 .198.16.104.253l-8.578 8.578a.147.147 0 0 1-.209 0zM-25.67-17.3a.148.148 0 0 1 .253.105V-.039c0 .132-.16.198-.253.104l-8.578-8.578a.147.147 0 0 1 0-.209z" style="fill:#e01583" transform="matrix(4.16666 0 0 4.16667 239.386 289.5)"/>
</svg>
