<svg xmlns="http://www.w3.org/2000/svg" xml:space="preserve" style="fill-rule:evenodd;clip-rule:evenodd;stroke-linejoin:round;stroke-miterlimit:2" viewBox="0 0 405 405">
  <path d="m0 5.581-11.588-6.688v-13.379a.8.8 0 0 0-.395-.685l-11.981-6.917a.79.79 0 0 0-.79 0l-11.982 6.917a.79.79 0 0 0-.395.685v13.379l-11.587 6.688a.79.79 0 0 0-.395.685v13.837c0 .282.15.543.395.685l11.982 6.916a.8.8 0 0 0 .79 0l11.587-6.688 11.585 6.688a.8.8 0 0 0 .791 0L0 20.788a.79.79 0 0 0 .395-.685V6.266A.79.79 0 0 0 0 5.581m-25.149 13.153-9.611-5.549 9.611-5.55zM-13.96-.65l-9.609 5.547V-6.2zm-11.189 5.547L-34.76-.65l9.611-5.55zm2.371 1.369L-12.379.263l10.403 6.003-10.403 6.006zm9.609-8.285-9.609-5.55 9.609-5.548zm-12.771-5.55-9.611 5.55v-11.098zM-37.131 25.65l-10.401-6.003V7.635l10.401 6.006zm1.58 0V14.554l9.611 5.549zm34.365-6.003-10.402 6.003V13.641l10.402-6.006z" style="fill:#f26a2e;fill-rule:nonzero" transform="matrix(4.16666 0 0 4.16667 303.663 242.787)"/>
</svg>
