<!DOCTYPE svg PUBLIC "-//W3C//DTD SVG 1.1//EN" "http://www.w3.org/Graphics/SVG/1.1/DTD/svg11.dtd">
<svg xmlns="http://www.w3.org/2000/svg" xml:space="preserve" style="fill-rule:evenodd;clip-rule:evenodd;stroke-linejoin:round;stroke-miterlimit:2" viewBox="0 0 405 405">
  <defs>
    <path id="a" d="M.061 0v-.81h.191q.099 0 .154.027A.16.16 0 0 1 .485-.7a.4.4 0 0 1 .024.142v.296a.4.4 0 0 1-.024.147.16.16 0 0 1-.078.087A.3.3 0 0 1 .258 0zm.148-.103h.045q.05 0 .073-.018a.08.08 0 0 0 .027-.052l.005-.085v-.31a.3.3 0 0 0-.007-.079Q.345-.677.323-.691a.14.14 0 0 0-.071-.014H.209z"/>
    <path id="b" d="M.061 0v-.81h.34v.104H.209v.233H.36v.103H.209v.268h.194V0z"/>
    <path id="c" d="M.279.011a.25.25 0 0 1-.14-.035.2.2 0 0 1-.07-.095.5.5 0 0 1-.02-.14v-.289q0-.083.02-.144a.17.17 0 0 1 .07-.094.26.26 0 0 1 .14-.033q.084 0 .131.029a.16.16 0 0 1 .068.081q.02.052.02.123v.068H.356v-.07A.4.4 0 0 0 .352-.65a.07.07 0 0 0-.019-.044Q.318-.711.28-.711t-.056.018a.1.1 0 0 0-.022.047.4.4 0 0 0-.005.066v.352a.3.3 0 0 0 .007.073.1.1 0 0 0 .025.043q.02.014.051.014.037 0 .052-.017a.1.1 0 0 0 .02-.047.4.4 0 0 0 .004-.065V-.3h.142v.065a.4.4 0 0 1-.019.128.17.17 0 0 1-.067.087.24.24 0 0 1-.133.031"/>
    <path id="d" d="M.061 0v-.81h.103l.197.462V-.81h.122V0H.385L.187-.484V0z"/>
    <path id="e" d="M.142 0v-.701H.013V-.81h.404v.109H.29V0z"/>
    <path id="f" d="M.146 0 .031-.81h.124l.067.525.084-.523h.101l.086.523.066-.525h.122L.568 0h-.12l-.09-.543L.269 0z"/>
    <path id="g" d="M.281.011a.26.26 0 0 1-.137-.032.18.18 0 0 1-.073-.092.4.4 0 0 1-.022-.142v-.303q0-.082.022-.14a.18.18 0 0 1 .073-.09.26.26 0 0 1 .137-.031q.088 0 .138.031a.18.18 0 0 1 .073.09.4.4 0 0 1 .023.14v.304a.4.4 0 0 1-.023.141.2.2 0 0 1-.073.092.26.26 0 0 1-.138.032m0-.109q.037 0 .054-.016a.1.1 0 0 0 .024-.044.3.3 0 0 0 .006-.061v-.373a.3.3 0 0 0-.006-.061.07.07 0 0 0-.024-.042Q.318-.711.281-.711q-.035 0-.053.016a.07.07 0 0 0-.024.042.3.3 0 0 0-.006.061v.373q0 .033.005.061a.1.1 0 0 0 .024.044q.018.016.054.016"/>
    <path id="h" d="M.061 0v-.81h.194a.4.4 0 0 1 .138.02.16.16 0 0 1 .086.066q.03.047.03.128A.4.4 0 0 1 .5-.508a.2.2 0 0 1-.031.067.14.14 0 0 1-.059.042L.523 0H.375L.277-.371H.209V0zm.148-.464h.046a.2.2 0 0 0 .068-.012.1.1 0 0 0 .037-.04.2.2 0 0 0 .011-.071.15.15 0 0 0-.023-.091Q.326-.709.263-.709H.209z"/>
  </defs>
  <path d="M192.619 257.482h97.036v97.036h-97.036z" style="fill:#8f1737" transform="matrix(-4.16666 0 0 4.16667 1206.897 -1072.841)"/>
  <path d="M0 7.767q0-1.554.548-2.696.549-1.141 1.622-1.69-.845-.616-1.371-1.656Q.274.685.274-.799q0-2.284 1.211-3.552 1.21-1.269 3.472-1.268 2.26 0 3.449 1.256Q9.594-3.106 9.594-.868q0 1.554-.503 2.604T7.744 3.381q1.073.548 1.621 1.736.549 1.188.549 2.81 0 2.58-1.188 4.02t-3.769 1.439Q0 13.386 0 7.767m6.156 2.181q.309-.81.308-2.044 0-1.37-.308-2.17-.309-.8-1.199-.8t-1.199.811q-.309.812-.309 2.159 0 1.233.309 2.044.308.811 1.199.811.89 0 1.199-.811M6.259-.799q0-1.005-.32-1.588-.32-.582-.982-.582-.663 0-1.005.582-.343.583-.343 1.588 0 2.855 1.348 2.855 1.302 0 1.302-2.855" style="fill:#fff;fill-rule:nonzero" transform="matrix(4.16666 0 0 4.16667 31.662 57.63)"/>
  <path d="M.568-37.179c.647-.643.89-.074.89.238V.079c0 .31-.252.564-.563.564H-9.34a.566.566 0 0 1-.566-.564v-26.417c0-.769.192-1.043.566-1.415zm-28.544 12.28c.644-.646.89-.076.89.236V.079a.564.564 0 0 1-.564.562h-10.235a.565.565 0 0 1-.565-.562V-14.06c0-.769.192-1.042.565-1.415zm33.048-23.71-.004.083-1.667 7.745-.001.025a.27.27 0 0 1-.083.186.283.283 0 0 1-.404 0l-1.82-1.818-19.511 19.511a.225.225 0 0 1-.323 0l-2.155-2.153c-.01-.008-.013-.018-.019-.027l-5.762-5.762-12.569 12.566a.225.225 0 0 1-.321 0l-2.157-2.156a.23.23 0 0 1 0-.323l12.728-12.726q0-.002.002-.003l2.154-2.155a.227.227 0 0 1 .323 0l7.94 7.941 17.192-17.192-1.733-1.732-.086-.086a.29.29 0 0 1 0-.408.3.3 0 0 1 .148-.077l.138-.015 7.587-1.711.081-.005.055-.003a.28.28 0 0 1 .267.295m-18.72 25.364c.703-.704.949-.133.949.179V.078a.565.565 0 0 1-.563.563H-23.5a.56.56 0 0 1-.561-.563v-22.767c0-.311.172-.954.967-.161l4.343 4.427a.23.23 0 0 0 .309.012z" style="fill:#fff" transform="matrix(4.16666 0 0 4.16667 279.231 353.81)"/>
  <use href="#a" style="fill:#fff;fill-rule:nonzero" transform="matrix(36.37334 0 0 36.37353 99.686 64.58)"/>
  <use href="#b" style="fill:#fff;fill-rule:nonzero" transform="matrix(36.37334 0 0 36.37353 118.928 64.58)"/>
  <use href="#c" style="fill:#fff;fill-rule:nonzero" transform="matrix(36.37334 0 0 36.37353 133.476 64.58)"/>
  <use href="#b" style="fill:#fff;fill-rule:nonzero" transform="matrix(36.37334 0 0 36.37353 152.1 64.58)"/>
  <use href="#d" style="fill:#fff;fill-rule:nonzero" transform="matrix(36.37334 0 0 36.37353 166.649 64.58)"/>
  <use href="#e" style="fill:#fff;fill-rule:nonzero" transform="matrix(36.37334 0 0 36.37353 185.454 64.58)"/>
  <use href="#f" style="fill:#fff;fill-rule:nonzero" transform="matrix(36.37334 0 0 36.37353 207.897 64.58)"/>
  <use href="#g" style="fill:#fff;fill-rule:nonzero" transform="matrix(36.37334 0 0 36.37353 232.74 64.58)"/>
  <use href="#h" style="fill:#fff;fill-rule:nonzero" transform="matrix(36.37334 0 0 36.37353 252.2 64.58)"/>
  <path d="M.061 0v-.81h.148v.356l.16-.356H.51l-.155.362L.526 0H.379L.243-.369l-.034.062V0z" style="fill:#fff;fill-rule:nonzero" transform="matrix(36.37334 0 0 36.37353 271.586 64.58)"/>
  <path d="m.02 0 .162-.81H.34L.502 0H.365L.333-.187H.192L.159 0zm.187-.281h.11l-.055-.34z" style="fill:#fff;fill-rule:nonzero" transform="matrix(36.37334 0 0 36.37353 297.74 64.58)"/>
  <use href="#d" style="fill:#fff;fill-rule:nonzero" transform="matrix(36.37334 0 0 36.37353 315.707 64.58)"/>
  <use href="#a" style="fill:#fff;fill-rule:nonzero" transform="matrix(36.37334 0 0 36.37353 334.512 64.58)"/>
  <use href="#b" style="fill:#fff;fill-rule:nonzero" transform="matrix(36.37334 0 0 36.37353 99.686 112.729)"/>
  <use href="#c" style="fill:#fff;fill-rule:nonzero" transform="matrix(36.37334 0 0 36.37353 114.49 112.729)"/>
  <use href="#g" style="fill:#fff;fill-rule:nonzero" transform="matrix(36.37334 0 0 36.37353 133.368 112.729)"/>
  <use href="#d" style="fill:#fff;fill-rule:nonzero" transform="matrix(36.37334 0 0 36.37353 153.082 112.729)"/>
  <use href="#g" style="fill:#fff;fill-rule:nonzero" transform="matrix(36.37334 0 0 36.37353 172.142 112.729)"/>
  <path d="m.059 0 .014-.81h.153l.115.561.12-.561h.148L.624 0h-.11L.502-.563.387 0H.298L.181-.565.17 0z" style="fill:#fff;fill-rule:nonzero" transform="matrix(36.37334 0 0 36.37353 191.856 112.729)"/>
  <path d="M.065-.81h.146V0H.065z" style="fill:#fff;fill-rule:nonzero" transform="matrix(36.37334 0 0 36.37353 215.935 112.729)"/>
  <use href="#c" style="fill:#fff;fill-rule:nonzero" transform="matrix(36.37334 0 0 36.37353 225.174 112.729)"/>
  <path d="M.264.011a.2.2 0 0 1-.127-.034.2.2 0 0 1-.068-.096.5.5 0 0 1-.02-.148v-.272a.5.5 0 0 1 .02-.15.17.17 0 0 1 .07-.096.25.25 0 0 1 .14-.034q.082 0 .132.028a.16.16 0 0 1 .07.081.3.3 0 0 1 .022.127v.042H.362v-.046a.3.3 0 0 0-.006-.067.07.07 0 0 0-.022-.042Q.318-.711.281-.711q-.039 0-.057.019a.1.1 0 0 0-.022.05l-.004.068v.339q0 .042.007.073a.1.1 0 0 0 .026.048.08.08 0 0 0 .054.016q.036 0 .055-.018a.1.1 0 0 0 .026-.05.3.3 0 0 0 .008-.076v-.076H.287v-.093h.22V0H.412L.401-.08a.16.16 0 0 1-.049.066.14.14 0 0 1-.088.025" style="fill:#fff;fill-rule:nonzero" transform="matrix(36.37334 0 0 36.37353 252.126 112.729)"/>
  <use href="#h" style="fill:#fff;fill-rule:nonzero" transform="matrix(36.37334 0 0 36.37353 271.695 112.729)"/>
  <use href="#g" style="fill:#fff;fill-rule:nonzero" transform="matrix(36.37334 0 0 36.37353 291.228 112.729)"/>
  <use href="#f" style="fill:#fff;fill-rule:nonzero" transform="matrix(36.37334 0 0 36.37353 310.943 112.729)"/>
  <use href="#e" style="fill:#fff;fill-rule:nonzero" transform="matrix(36.37334 0 0 36.37353 336.076 112.729)"/>
  <path d="M.063 0v-.81H.21v.339h.166V-.81h.147V0H.376v-.366H.21V0z" style="fill:#fff;fill-rule:nonzero" transform="matrix(36.37334 0 0 36.37353 350.953 112.729)"/>
</svg>
