<svg xmlns="http://www.w3.org/2000/svg" xml:space="preserve" style="fill-rule:evenodd;clip-rule:evenodd;stroke-linejoin:round;stroke-miterlimit:2" viewBox="0 0 405 405">
  <path d="M.568-37.179c.647-.643.89-.074.89.238V.079c0 .31-.252.564-.563.564H-9.34a.566.566 0 0 1-.566-.564v-26.417c0-.769.192-1.043.566-1.415zm-28.544 12.28c.644-.646.89-.076.89.236V.079a.564.564 0 0 1-.564.562h-10.235a.565.565 0 0 1-.565-.562V-14.06c0-.769.192-1.042.565-1.415zm33.048-23.71-.004.083-1.667 7.745-.001.025a.27.27 0 0 1-.083.186.283.283 0 0 1-.404 0l-1.82-1.818-19.511 19.511a.225.225 0 0 1-.323 0l-2.155-2.153c-.01-.008-.013-.018-.019-.027l-5.762-5.762-12.569 12.566a.225.225 0 0 1-.321 0l-2.157-2.156a.23.23 0 0 1 0-.323l12.728-12.726q0-.002.002-.003l2.154-2.155a.227.227 0 0 1 .323 0l7.94 7.941 17.192-17.192-1.733-1.732-.086-.086a.29.29 0 0 1 0-.408.3.3 0 0 1 .148-.077l.138-.015 7.587-1.711.081-.005.055-.003a.28.28 0 0 1 .267.295m-18.72 25.364c.703-.704.949-.133.949.179V.078a.565.565 0 0 1-.563.563H-23.5a.56.56 0 0 1-.561-.563v-22.767c0-.311.172-.954.967-.161l4.343 4.427a.23.23 0 0 0 .309.012z" style="fill:#a31c44" transform="matrix(4.16666 0 0 4.16667 279.231 353.81)"/>
</svg>
