<!DOCTYPE svg PUBLIC "-//W3C//DTD SVG 1.1//EN" "http://www.w3.org/Graphics/SVG/1.1/DTD/svg11.dtd">
<svg xmlns="http://www.w3.org/2000/svg" xml:space="preserve" style="fill-rule:evenodd;clip-rule:evenodd;stroke-linejoin:round;stroke-miterlimit:2" viewBox="0 0 405 405">
  <defs>
    <path id="a" d="M.061 0v-.81h.34v.104H.209v.233H.36v.103H.209v.268h.194V0z"/>
    <path id="b" d="M.061 0v-.81h.194a.4.4 0 0 1 .138.02.16.16 0 0 1 .086.066q.03.047.03.128A.4.4 0 0 1 .5-.508a.2.2 0 0 1-.031.067.14.14 0 0 1-.059.042L.523 0H.375L.277-.371H.209V0zm.148-.464h.046a.2.2 0 0 0 .068-.012.1.1 0 0 0 .037-.04.2.2 0 0 0 .011-.071.15.15 0 0 0-.023-.091Q.326-.709.263-.709H.209z"/>
  </defs>
  <path d="M192.619 366.224h97.036v97.036h-97.036z" style="fill:#d2a02a" transform="matrix(-4.16666 0 0 4.16667 1206.897 -1525.933)"/>
  <path d="m0 13.751 4.477-6.922.274-.411q.868-1.302 1.279-2.181.412-.88.412-1.93 0-.891-.343-1.359T5.117.48q-.96 0-1.325.73-.366.732-.366 2.01v.846H0v-.914Q0 .548 1.222-.971T5.048-2.49q2.398 0 3.644 1.268Q9.936.046 9.937 2.375q0 1.052-.32 1.988a9 9 0 0 1-.754 1.667q-.434.731-1.348 2.079l-3.563 5.345h5.505v2.787H0z" style="fill:#fff;fill-rule:nonzero" transform="matrix(4.16666 0 0 4.16667 32.612 44.59)"/>
  <path d="M0 18.141c-9.239-2.847-16.206-10.224-17.773-19.25l-.033-.293c0-.359.29-.65.652-.65h51.249c.361 0 .65.291.65.65a.5.5 0 0 1-.009.09l-.008.054c-1.492 8.941-8.273 16.277-17.325 19.245v1.551l.002.004-.002.005a.647.647 0 0 1-.634.644l-.014.002-.014-.002H.661l-.016.002-.013-.002A.645.645 0 0 1 0 19.575l-.005-.033.005-.03zm17.388-42.066c.466-.651 1.46-.86 2.227-.468.765.394 1.013 1.238.549 1.893-.059.088-3.994 5.83-.109 10.077 2.747 3.001 3.029 5.92 2.344 8.248h-3.382c.69-1.577.9-3.911-1.518-6.557-5.274-5.764-.322-12.892-.111-13.193M8.822-4.175c.689-1.575.899-3.91-1.519-6.557-5.278-5.764-.323-12.893-.11-13.193.464-.651 1.46-.859 2.224-.468.767.395 1.012 1.238.55 1.89-.062.094-3.994 5.832-.107 10.08 2.746 3.001 3.03 5.92 2.346 8.248zm-11.827-19.75c.464-.652 1.459-.862 2.224-.468.767.394 1.012 1.238.552 1.89-.062.091-3.997 5.833-.11 10.08 2.748 3.002 3.031 5.921 2.347 8.248h-3.383c.689-1.575.898-3.91-1.521-6.557-5.275-5.764-.323-12.892-.109-13.193" style="fill:#fff" transform="matrix(4.16666 0 0 4.16667 166.873 268.62)"/>
  <path d="M.033 0v-.095l.218-.613H.045V-.81H.4v.076l-.226.632h.227V0z" style="fill:#fff;fill-rule:nonzero" transform="matrix(36.37334 0 0 36.37353 104.26 64.587)"/>
  <use href="#a" style="fill:#fff;fill-rule:nonzero" transform="matrix(36.37334 0 0 36.37353 119.428 64.587)"/>
  <use href="#b" style="fill:#fff;fill-rule:nonzero" transform="matrix(36.37334 0 0 36.37353 134.704 64.587)"/>
  <path d="M.281.011a.26.26 0 0 1-.137-.032.18.18 0 0 1-.073-.092.4.4 0 0 1-.022-.142v-.303q0-.082.022-.14a.18.18 0 0 1 .073-.09.26.26 0 0 1 .137-.031q.088 0 .138.031a.18.18 0 0 1 .073.09.4.4 0 0 1 .023.14v.304a.4.4 0 0 1-.023.141.2.2 0 0 1-.073.092.26.26 0 0 1-.138.032m0-.109q.037 0 .054-.016a.1.1 0 0 0 .024-.044.3.3 0 0 0 .006-.061v-.373a.3.3 0 0 0-.006-.061.07.07 0 0 0-.024-.042Q.318-.711.281-.711q-.035 0-.053.016a.07.07 0 0 0-.024.042.3.3 0 0 0-.006.061v.373q0 .033.005.061a.1.1 0 0 0 .024.044q.018.016.054.016" style="fill:#fff;fill-rule:nonzero" transform="matrix(36.37334 0 0 36.37353 154.71 64.587)"/>
  <path d="M.063 0v-.81H.21v.339h.166V-.81h.147V0H.376v-.366H.21V0z" style="fill:#fff;fill-rule:nonzero" transform="matrix(36.37334 0 0 36.37353 104.26 112.736)"/>
  <path d="M.283.011a.25.25 0 0 1-.14-.033.17.17 0 0 1-.069-.094.5.5 0 0 1-.019-.146V-.81h.144v.565q0 .037.005.072.005.033.023.054.019.02.056.02.04 0 .056-.02a.1.1 0 0 0 .023-.054.4.4 0 0 0 .006-.072V-.81h.143v.548a.5.5 0 0 1-.019.146.17.17 0 0 1-.069.094.25.25 0 0 1-.14.033" style="fill:#fff;fill-rule:nonzero" transform="matrix(36.37334 0 0 36.37353 125.283 112.736)"/>
  <path d="M.061 0v-.81h.103l.197.462V-.81h.122V0H.385L.187-.484V0z" style="fill:#fff;fill-rule:nonzero" transform="matrix(36.37334 0 0 36.37353 145.58 112.736)"/>
  <path d="M.264.011a.2.2 0 0 1-.127-.034.2.2 0 0 1-.068-.096.5.5 0 0 1-.02-.148v-.272a.5.5 0 0 1 .02-.15.17.17 0 0 1 .07-.096.25.25 0 0 1 .14-.034q.082 0 .132.028a.16.16 0 0 1 .07.081.3.3 0 0 1 .022.127v.042H.362v-.046a.3.3 0 0 0-.006-.067.07.07 0 0 0-.022-.042Q.318-.711.281-.711q-.039 0-.057.019a.1.1 0 0 0-.022.05l-.004.068v.339q0 .042.007.073a.1.1 0 0 0 .026.048.08.08 0 0 0 .054.016q.036 0 .055-.018a.1.1 0 0 0 .026-.05.3.3 0 0 0 .008-.076v-.076H.287v-.093h.22V0H.412L.401-.08a.16.16 0 0 1-.049.066.14.14 0 0 1-.088.025" style="fill:#fff;fill-rule:nonzero" transform="matrix(36.37334 0 0 36.37353 165.112 112.736)"/>
  <use href="#a" style="fill:#fff;fill-rule:nonzero" transform="matrix(36.37334 0 0 36.37353 185.154 112.736)"/>
  <use href="#b" style="fill:#fff;fill-rule:nonzero" transform="matrix(36.37334 0 0 36.37353 200.431 112.736)"/>
</svg>
