<!DOCTYPE svg PUBLIC "-//W3C//DTD SVG 1.1//EN" "http://www.w3.org/Graphics/SVG/1.1/DTD/svg11.dtd">
<svg xmlns="http://www.w3.org/2000/svg" xml:space="preserve" style="fill-rule:evenodd;clip-rule:evenodd;stroke-linejoin:round;stroke-miterlimit:2" viewBox="0 0 405 405">
  <defs>
    <path id="a" d="M.061 0v-.81h.34v.104H.209v.233H.36v.103H.209v.268h.194V0z"/>
    <path id="b" d="m.02 0 .162-.81H.34L.502 0H.365L.333-.187H.192L.159 0zm.187-.281h.11l-.055-.34z"/>
    <path id="c" d="M.061 0v-.81h.103l.197.462V-.81h.122V0H.385L.187-.484V0z"/>
    <path id="d" d="M.142 0v-.701H.013V-.81h.404v.109H.29V0z"/>
    <path id="e" d="M.065-.81h.146V0H.065z"/>
  </defs>
  <path d="M627.588 366.224h97.036v97.036h-97.036z" style="fill:#00add8" transform="matrix(-4.16666 0 0 4.16667 3019.214 -1525.933)"/>
  <path d="M0 15.692q-1.222-1.644-1.222-4.431V4.682q0-3.015 1.097-4.671Q.97-1.646 3.735-1.645q2.467 0 3.563 1.164Q8.395.685 8.417 3.037l.023.32H5.083q0-1.28-.252-1.793-.252-.514-1.05-.514-.571 0-.88.343-.309.342-.434 1.142-.126.8-.126 2.261v1.873q.297-.502.96-.788.662-.285 1.507-.285 2.057 0 2.981 1.427.925 1.428.925 3.895 0 3.061-1.141 4.74-1.143 1.679-3.815 1.679-2.537 0-3.758-1.645m4.888-1.747q.286-.765.286-2.433 0-1.165-.069-1.805-.068-.639-.377-1.028-.308-.388-.947-.388-.48 0-.857.252a1.9 1.9 0 0 0-.583.593v2.947q0 2.627 1.462 2.627.8 0 1.085-.765" style="fill:#fff;fill-rule:nonzero" transform="matrix(4.16666 0 0 4.16667 37.587 41.07)"/>
  <path d="M0-49.473a.43.43 0 0 0-.32-.14h-35.365a.43.43 0 0 0-.318.14.43.43 0 0 0-.089.335l5.942 35.935a.416.416 0 0 0 .408.347h7.292l.499 5.852L-25.02-7l7.14 7.14 7.158-7.156-3.068.003.498-5.843h7.421a.41.41 0 0 0 .406-.353L.094-49.138A.42.42 0 0 0 0-49.473m-13.668 28.769s-1.607 1.651-4.22 1.472c-2.62.179-4.225-1.472-4.225-1.472-2.649-2.647-1.704-5.94-.782-7.642.57-1.066 4.64-7.179 4.99-7.699v-.041l.017.019.014-.019v.041c.34.52 4.418 6.633 4.987 7.699.924 1.702 1.866 4.995-.781 7.642M-2.45-41.912c-.958-.422-2.173-.27-3.34.202-4.388 1.779-7.374 2.419-11.99.973-2.906-.909-5.626-2.815-8.84-1.654-2.133.767-4.121 1.499-6.533 1.48l-1.393-7.142h33.098z" style="fill:#fff;fill-rule:nonzero" transform="matrix(4.16666 0 0 4.16667 277.145 369.444)"/>
  <path d="M.279.011a.25.25 0 0 1-.14-.035.2.2 0 0 1-.07-.095.5.5 0 0 1-.02-.14v-.289q0-.083.02-.144a.17.17 0 0 1 .07-.094.26.26 0 0 1 .14-.033q.084 0 .131.029a.16.16 0 0 1 .068.081q.02.052.02.123v.068H.356v-.07A.4.4 0 0 0 .352-.65a.07.07 0 0 0-.019-.044Q.318-.711.28-.711t-.056.018a.1.1 0 0 0-.022.047.4.4 0 0 0-.005.066v.352a.3.3 0 0 0 .007.073.1.1 0 0 0 .025.043q.02.014.051.014.037 0 .052-.017a.1.1 0 0 0 .02-.047.4.4 0 0 0 .004-.065V-.3h.142v.065a.4.4 0 0 1-.019.128.17.17 0 0 1-.067.087.24.24 0 0 1-.133.031" style="fill:#fff;fill-rule:nonzero" transform="matrix(36.37334 0 0 36.37353 104.11 64.587)"/>
  <path d="M.061 0v-.81h.148v.708h.196V0z" style="fill:#fff;fill-rule:nonzero" transform="matrix(36.37334 0 0 36.37353 123.568 64.587)"/>
  <use href="#a" style="fill:#fff;fill-rule:nonzero" transform="matrix(36.37334 0 0 36.37353 138.7 64.587)"/>
  <use href="#b" style="fill:#fff;fill-rule:nonzero" transform="matrix(36.37334 0 0 36.37353 154.085 64.587)"/>
  <use href="#c" style="fill:#fff;fill-rule:nonzero" transform="matrix(36.37334 0 0 36.37353 172.89 64.587)"/>
  <path d="M.146 0 .031-.81h.124l.067.525.084-.523h.101l.086.523.066-.525h.122L.568 0h-.12l-.09-.543L.269 0z" style="fill:#fff;fill-rule:nonzero" transform="matrix(36.37334 0 0 36.37353 201.189 64.587)"/>
  <use href="#b" style="fill:#fff;fill-rule:nonzero" transform="matrix(36.37334 0 0 36.37353 225.923 64.587)"/>
  <use href="#d" style="fill:#fff;fill-rule:nonzero" transform="matrix(36.37334 0 0 36.37353 243.237 64.587)"/>
  <use href="#a" style="fill:#fff;fill-rule:nonzero" transform="matrix(36.37334 0 0 36.37353 258.695 64.587)"/>
  <path d="M.061 0v-.81h.194a.4.4 0 0 1 .138.02.16.16 0 0 1 .086.066q.03.047.03.128A.4.4 0 0 1 .5-.508a.2.2 0 0 1-.031.067.14.14 0 0 1-.059.042L.523 0H.375L.277-.371H.209V0zm.148-.464h.046a.2.2 0 0 0 .068-.012.1.1 0 0 0 .037-.04.2.2 0 0 0 .011-.071.15.15 0 0 0-.023-.091Q.326-.709.263-.709H.209z" style="fill:#fff;fill-rule:nonzero" transform="matrix(36.37334 0 0 36.37353 274.081 64.587)"/>
  <use href="#b" style="fill:#fff;fill-rule:nonzero" transform="matrix(36.37334 0 0 36.37353 104.11 112.736)"/>
  <use href="#c" style="fill:#fff;fill-rule:nonzero" transform="matrix(36.37334 0 0 36.37353 122.987 112.736)"/>
  <path d="M.061 0v-.81h.191q.099 0 .154.027A.16.16 0 0 1 .485-.7a.4.4 0 0 1 .024.142v.296a.4.4 0 0 1-.024.147.16.16 0 0 1-.078.087A.3.3 0 0 1 .258 0zm.148-.103h.045q.05 0 .073-.018a.08.08 0 0 0 .027-.052l.005-.085v-.31a.3.3 0 0 0-.007-.079Q.345-.677.323-.691a.14.14 0 0 0-.071-.014H.209z" style="fill:#fff;fill-rule:nonzero" transform="matrix(36.37334 0 0 36.37353 142.7 112.736)"/>
  <path d="M.265.011a.24.24 0 0 1-.122-.028.2.2 0 0 1-.074-.084.4.4 0 0 1-.028-.135l.127-.025a.4.4 0 0 0 .011.083.13.13 0 0 0 .029.056.07.07 0 0 0 .052.019q.036 0 .051-.021a.1.1 0 0 0 .015-.055.15.15 0 0 0-.024-.087.4.4 0 0 0-.064-.068l-.102-.09a.3.3 0 0 1-.069-.082.23.23 0 0 1-.025-.113q0-.096.056-.148a.2.2 0 0 1 .153-.052.2.2 0 0 1 .095.018.14.14 0 0 1 .06.048.2.2 0 0 1 .034.071.4.4 0 0 1 .014.083l-.126.022a.3.3 0 0 0-.009-.068.1.1 0 0 0-.023-.047.07.07 0 0 0-.048-.017q-.033 0-.051.022a.1.1 0 0 0-.017.053q0 .04.017.068a.3.3 0 0 0 .049.054l.101.089a.4.4 0 0 1 .085.099.25.25 0 0 1 .036.136.2.2 0 0 1-.026.103.2.2 0 0 1-.071.071.2.2 0 0 1-.106.025" style="fill:#fff;fill-rule:nonzero" transform="matrix(36.37334 0 0 36.37353 171.581 112.736)"/>
  <use href="#b" style="fill:#fff;fill-rule:nonzero" transform="matrix(36.37334 0 0 36.37353 189.332 112.736)"/>
  <use href="#c" style="fill:#fff;fill-rule:nonzero" transform="matrix(36.37334 0 0 36.37353 208.21 112.736)"/>
  <use href="#e" style="fill:#fff;fill-rule:nonzero" transform="matrix(36.37334 0 0 36.37353 227.923 112.736)"/>
  <use href="#d" style="fill:#fff;fill-rule:nonzero" transform="matrix(36.37334 0 0 36.37353 237.817 112.736)"/>
  <use href="#b" style="fill:#fff;fill-rule:nonzero" transform="matrix(36.37334 0 0 36.37353 251.857 112.736)"/>
  <use href="#d" style="fill:#fff;fill-rule:nonzero" transform="matrix(36.37334 0 0 36.37353 269.244 112.736)"/>
  <use href="#e" style="fill:#fff;fill-rule:nonzero" transform="matrix(36.37334 0 0 36.37353 284.775 112.736)"/>
  <path d="M.281.011a.26.26 0 0 1-.137-.032.18.18 0 0 1-.073-.092.4.4 0 0 1-.022-.142v-.303q0-.082.022-.14a.18.18 0 0 1 .073-.09.26.26 0 0 1 .137-.031q.088 0 .138.031a.18.18 0 0 1 .073.09.4.4 0 0 1 .023.14v.304a.4.4 0 0 1-.023.141.2.2 0 0 1-.073.092.26.26 0 0 1-.138.032m0-.109q.037 0 .054-.016a.1.1 0 0 0 .024-.044.3.3 0 0 0 .006-.061v-.373a.3.3 0 0 0-.006-.061.07.07 0 0 0-.024-.042Q.318-.711.281-.711q-.035 0-.053.016a.07.07 0 0 0-.024.042.3.3 0 0 0-.006.061v.373q0 .033.005.061a.1.1 0 0 0 .024.044q.018.016.054.016" style="fill:#fff;fill-rule:nonzero" transform="matrix(36.37334 0 0 36.37353 294.669 112.736)"/>
  <use href="#c" style="fill:#fff;fill-rule:nonzero" transform="matrix(36.37334 0 0 36.37353 315.038 112.736)"/>
</svg>
