<!DOCTYPE svg PUBLIC "-//W3C//DTD SVG 1.1//EN" "http://www.w3.org/Graphics/SVG/1.1/DTD/svg11.dtd">
<svg xmlns="http://www.w3.org/2000/svg" xml:space="preserve" style="fill-rule:evenodd;clip-rule:evenodd;stroke-linejoin:round;stroke-miterlimit:2" viewBox="0 0 405 405">
  <defs>
    <path id="a" d="M.061 0v-.81h.34v.104H.209v.233H.36v.103H.209v.268h.194V0z"/>
    <path id="b" d="m.02 0 .162-.81H.34L.502 0H.365L.333-.187H.192L.159 0zm.187-.281h.11l-.055-.34z"/>
    <path id="c" d="M.279.011a.25.25 0 0 1-.14-.035.2.2 0 0 1-.07-.095.5.5 0 0 1-.02-.14v-.289q0-.083.02-.144a.17.17 0 0 1 .07-.094.26.26 0 0 1 .14-.033q.084 0 .131.029a.16.16 0 0 1 .068.081q.02.052.02.123v.068H.356v-.07A.4.4 0 0 0 .352-.65a.07.07 0 0 0-.019-.044Q.318-.711.28-.711t-.056.018a.1.1 0 0 0-.022.047.4.4 0 0 0-.005.066v.352a.3.3 0 0 0 .007.073.1.1 0 0 0 .025.043q.02.014.051.014.037 0 .052-.017a.1.1 0 0 0 .02-.047.4.4 0 0 0 .004-.065V-.3h.142v.065a.4.4 0 0 1-.019.128.17.17 0 0 1-.067.087.24.24 0 0 1-.133.031"/>
    <path id="d" d="M.283.011a.25.25 0 0 1-.14-.033.17.17 0 0 1-.069-.094.5.5 0 0 1-.019-.146V-.81h.144v.565q0 .037.005.072.005.033.023.054.019.02.056.02.04 0 .056-.02a.1.1 0 0 0 .023-.054.4.4 0 0 0 .006-.072V-.81h.143v.548a.5.5 0 0 1-.019.146.17.17 0 0 1-.069.094.25.25 0 0 1-.14.033"/>
    <path id="e" d="M.265.011a.24.24 0 0 1-.122-.028.2.2 0 0 1-.074-.084.4.4 0 0 1-.028-.135l.127-.025a.4.4 0 0 0 .011.083.13.13 0 0 0 .029.056.07.07 0 0 0 .052.019q.036 0 .051-.021a.1.1 0 0 0 .015-.055.15.15 0 0 0-.024-.087.4.4 0 0 0-.064-.068l-.102-.09a.3.3 0 0 1-.069-.082.23.23 0 0 1-.025-.113q0-.096.056-.148a.2.2 0 0 1 .153-.052.2.2 0 0 1 .095.018.14.14 0 0 1 .06.048.2.2 0 0 1 .034.071.4.4 0 0 1 .014.083l-.126.022a.3.3 0 0 0-.009-.068.1.1 0 0 0-.023-.047.07.07 0 0 0-.048-.017q-.033 0-.051.022a.1.1 0 0 0-.017.053q0 .04.017.068a.3.3 0 0 0 .049.054l.101.089a.4.4 0 0 1 .085.099.25.25 0 0 1 .036.136.2.2 0 0 1-.026.103.2.2 0 0 1-.071.071.2.2 0 0 1-.106.025"/>
    <path id="f" d="M.142 0v-.701H.013V-.81h.404v.109H.29V0z"/>
    <path id="g" d="M.065-.81h.146V0H.065z"/>
    <path id="h" d="M.061 0v-.81h.103l.197.462V-.81h.122V0H.385L.187-.484V0z"/>
    <path id="i" d="M.281.011a.26.26 0 0 1-.137-.032.18.18 0 0 1-.073-.092.4.4 0 0 1-.022-.142v-.303q0-.082.022-.14a.18.18 0 0 1 .073-.09.26.26 0 0 1 .137-.031q.088 0 .138.031a.18.18 0 0 1 .073.09.4.4 0 0 1 .023.14v.304a.4.4 0 0 1-.023.141.2.2 0 0 1-.073.092.26.26 0 0 1-.138.032m0-.109q.037 0 .054-.016a.1.1 0 0 0 .024-.044.3.3 0 0 0 .006-.061v-.373a.3.3 0 0 0-.006-.061.07.07 0 0 0-.024-.042Q.318-.711.281-.711q-.035 0-.053.016a.07.07 0 0 0-.024.042.3.3 0 0 0-.006.061v.373q0 .033.005.061a.1.1 0 0 0 .024.044q.018.016.054.016"/>
  </defs>
  <path d="M410.103 148.74h97.036v97.036h-97.036z" style="fill:#01558a" transform="matrix(-4.16666 0 0 4.16667 2113.082 -619.746)"/>
  <path d="M0-11.193q-.252.137-1.462.571-.96.32-1.21.434v-2.627q.776-.297 1.884-.913 1.107-.618 1.565-1.12h2.764V3.655H0z" style="fill:#fff;fill-rule:nonzero" transform="matrix(4.16666 0 0 4.16667 34.672 97.04)"/>
  <path d="M0 15.692q-1.222-1.644-1.222-4.431V4.682q0-3.015 1.097-4.671Q.97-1.645 3.735-1.645q2.466 0 3.563 1.165t1.12 3.517l.022.32H5.083q0-1.28-.252-1.793-.252-.514-1.05-.514-.571 0-.88.343-.309.342-.434 1.142-.126.8-.126 2.261v1.873q.297-.502.96-.788.662-.285 1.507-.285 2.057 0 2.981 1.427.925 1.428.925 3.895 0 3.061-1.141 4.74-1.143 1.679-3.815 1.679-2.537 0-3.758-1.645m4.888-1.747q.286-.765.286-2.433 0-1.165-.069-1.805-.068-.639-.377-1.027-.308-.389-.947-.389-.48 0-.857.252a1.9 1.9 0 0 0-.583.593v2.947q0 2.627 1.462 2.627.8 0 1.085-.765" style="fill:#fff;fill-rule:nonzero" transform="matrix(4.16666 0 0 4.16667 62.609 41.08)"/>
  <path d="M-.682 18.462c.377 0 .684.306.684.682v7.793a.685.685 0 0 1-.684.684h-7.855a.683.683 0 0 1-.682-.684v-2.376l-5.128-.565-25.851.574v-3.056l14.209.306v-4.38a19 19 0 0 1-4.669-.958c-2.56-.881-5.42-3.414-7.834-4.167 1.315.299 4.559.802 6.866-.789 2.953-2.04 3.429-2.295 5.266-2.592-3.963-.337-6.859-2.779-8.008-8.176-1.096-5.143-1.854-7.166-4.019-8.089 3.165-.307 7.781-.338 13.073 5.08 4.011 4.103 8.118 3.999 11.384.961 3.264-3.039 5.553-4.503 7.331-2.51.429.481.847.894 1.235 1.243.407-1.975 1.609-3.22 2.799-4.438.654-.669 1.332-1.36 1.849-2.164l.426.275c-.547.846-1.24 1.556-1.911 2.243-1.222 1.249-2.406 2.471-2.73 4.46.952.797 1.627 1.159 1.627 1.159s-.712-.066-1.71.052c.011 1.025.219 2.228.707 3.69q-.255.028-.512.043c-.461-1.43-.67-2.629-.692-3.661a8.7 8.7 0 0 0-1.601.424c-1.932.726-3.276 2.357-3.119 6.558.157 4.125-1.416 8.616-8.627 10.651-.989.279-1.985.477-2.98.605v4.575l7.491.172 5.128-.564v-2.379c0-.376.305-.682.682-.682zm-24.072-.958v4.344l1.681.039v-4.429q-.843.058-1.681.046m21.429-30.077s1.397.728 1.673 1.953-.671 2.482-.671 2.482-1.396-.729-1.673-1.954c-.275-1.224.671-2.481.671-2.481m-1.542 7.178s-1.397-.729-1.674-1.954c-.275-1.225.672-2.48.672-2.48s1.396.726 1.673 1.951c.276 1.225-.671 2.483-.671 2.483m3.89-1.346s.844-1.171 1.982-1.273c1.139-.101 2.137.907 2.137.907s-.843 1.172-1.981 1.273-2.138-.907-2.138-.907M.66-12.125c.927-.938 2.56-.796 2.56-.796s.131 1.663-.795 2.601c-.928.939-2.56.797-2.56.797s-.131-1.662.795-2.602m-2.043 9.12c-1.134-.134-1.906-1.324-1.906-1.324s1.066-.974 2.201-.84C.045-5.035.817-3.844.817-3.844s-1.066.973-2.2.839M-.37 15.227a1.2 1.2 0 0 1 0 2.398h-8.477a1.199 1.199 0 1 1 0-2.398zm0 13.218a1.199 1.199 0 1 1 0 2.398h-8.477a1.2 1.2 0 1 1 0-2.398zm-38.123-16.13c-.371-.084-.589-.151-.589-.151.192.035.39.089.589.151m-2.439 11.75c0 .644-.45 1.167-1.004 1.167h-.603c-.554 0-1.005-.523-1.005-1.167v-2.112c0-.646.451-1.167 1.005-1.167h.603c.554 0 1.004.521 1.004 1.167z" style="fill:#fff" transform="matrix(4.16666 0 0 4.16667 291.143 231.752)"/>
  <path d="M.061 0v-.81h.238q.073 0 .118.027a.15.15 0 0 1 .067.079.3.3 0 0 1 .022.124.26.26 0 0 1-.027.128.16.16 0 0 1-.076.07.3.3 0 0 1-.114.022h-.08V0zm.148-.464h.056a.2.2 0 0 0 .062-.011.06.06 0 0 0 .031-.037.2.2 0 0 0 .009-.069.3.3 0 0 0-.007-.071.06.06 0 0 0-.028-.041Q.312-.706.265-.706H.209z" style="fill:#fff;fill-rule:nonzero" transform="matrix(36.37334 0 0 36.37353 127.145 64.585)"/>
  <use href="#a" style="fill:#fff;fill-rule:nonzero" transform="matrix(36.37334 0 0 36.37353 145.506 64.585)"/>
  <use href="#b" style="fill:#fff;fill-rule:nonzero" transform="matrix(36.37334 0 0 36.37353 160.266 64.585)"/>
  <use href="#c" style="fill:#fff;fill-rule:nonzero" transform="matrix(36.37334 0 0 36.37353 178.264 64.585)"/>
  <use href="#a" style="fill:#fff;fill-rule:nonzero" transform="matrix(36.37334 0 0 36.37353 197.098 64.585)"/>
  <path d="M.063.136.049.086A.1.1 0 0 0 .095.057Q.115.037.114 0H.042v-.135h.133v.123a.16.16 0 0 1-.028.1.13.13 0 0 1-.084.048" style="fill:#fff;fill-rule:nonzero" transform="matrix(36.37334 0 0 36.37353 211.859 64.585)"/>
  <path d="M.01.02v-.104a.3.3 0 0 0 .053-.004.1.1 0 0 0 .032-.014.06.06 0 0 0 .017-.031.3.3 0 0 0 .005-.053V-.81h.147v.63a.3.3 0 0 1-.016.113.12.12 0 0 1-.056.066.24.24 0 0 1-.111.021z" style="fill:#fff;fill-rule:nonzero" transform="matrix(36.37334 0 0 36.37353 226.83 64.585)"/>
  <use href="#d" style="fill:#fff;fill-rule:nonzero" transform="matrix(36.37334 0 0 36.37353 237.88 64.585)"/>
  <use href="#e" style="fill:#fff;fill-rule:nonzero" transform="matrix(36.37334 0 0 36.37353 257.66 64.585)"/>
  <use href="#f" style="fill:#fff;fill-rule:nonzero" transform="matrix(36.37334 0 0 36.37353 274.82 64.585)"/>
  <use href="#g" style="fill:#fff;fill-rule:nonzero" transform="matrix(36.37334 0 0 36.37353 289.654 64.585)"/>
  <use href="#c" style="fill:#fff;fill-rule:nonzero" transform="matrix(36.37334 0 0 36.37353 298.849 64.585)"/>
  <use href="#a" style="fill:#fff;fill-rule:nonzero" transform="matrix(36.37334 0 0 36.37353 317.682 64.585)"/>
  <use href="#b" style="fill:#fff;fill-rule:nonzero" transform="matrix(36.37334 0 0 36.37353 127.145 112.734)"/>
  <use href="#h" style="fill:#fff;fill-rule:nonzero" transform="matrix(36.37334 0 0 36.37353 145.313 112.734)"/>
  <path d="M.061 0v-.81h.191q.099 0 .154.027A.16.16 0 0 1 .485-.7a.4.4 0 0 1 .024.142v.296a.4.4 0 0 1-.024.147.16.16 0 0 1-.078.087A.3.3 0 0 1 .258 0zm.148-.103h.045q.05 0 .073-.018a.08.08 0 0 0 .027-.052l.005-.085v-.31a.3.3 0 0 0-.007-.079Q.345-.677.323-.691a.14.14 0 0 0-.071-.014H.209z" style="fill:#fff;fill-rule:nonzero" transform="matrix(36.37334 0 0 36.37353 164.318 112.734)"/>
  <use href="#e" style="fill:#fff;fill-rule:nonzero" transform="matrix(36.37334 0 0 36.37353 191.78 112.734)"/>
  <use href="#f" style="fill:#fff;fill-rule:nonzero" transform="matrix(36.37334 0 0 36.37353 208.93 112.734)"/>
  <path d="M.061 0v-.81h.194a.4.4 0 0 1 .138.02.16.16 0 0 1 .086.066q.03.047.03.128A.4.4 0 0 1 .5-.508a.2.2 0 0 1-.031.067.14.14 0 0 1-.059.042L.523 0H.375L.277-.371H.209V0zm.148-.464h.046a.2.2 0 0 0 .068-.012.1.1 0 0 0 .037-.04.2.2 0 0 0 .011-.071.15.15 0 0 0-.023-.091Q.326-.709.263-.709H.209z" style="fill:#fff;fill-rule:nonzero" transform="matrix(36.37334 0 0 36.37353 223.752 112.734)"/>
  <use href="#i" style="fill:#fff;fill-rule:nonzero" transform="matrix(36.37334 0 0 36.37353 243.23 112.734)"/>
  <use href="#h" style="fill:#fff;fill-rule:nonzero" transform="matrix(36.37334 0 0 36.37353 262.89 112.734)"/>
  <path d="M.264.011a.2.2 0 0 1-.127-.034.2.2 0 0 1-.068-.096.5.5 0 0 1-.02-.148v-.272a.5.5 0 0 1 .02-.15.17.17 0 0 1 .07-.096.25.25 0 0 1 .14-.034q.082 0 .132.028a.16.16 0 0 1 .07.081.3.3 0 0 1 .022.127v.042H.362v-.046a.3.3 0 0 0-.006-.067.07.07 0 0 0-.022-.042Q.318-.711.281-.711q-.039 0-.057.019a.1.1 0 0 0-.022.05l-.004.068v.339q0 .042.007.073a.1.1 0 0 0 .026.048.08.08 0 0 0 .054.016q.036 0 .055-.018a.1.1 0 0 0 .026-.05.3.3 0 0 0 .008-.076v-.076H.287v-.093h.22V0H.412L.401-.08a.16.16 0 0 1-.049.066.14.14 0 0 1-.088.025" style="fill:#fff;fill-rule:nonzero" transform="matrix(36.37334 0 0 36.37353 281.895 112.734)"/>
  <use href="#g" style="fill:#fff;fill-rule:nonzero" transform="matrix(36.37334 0 0 36.37353 127.145 160.884)"/>
  <use href="#h" style="fill:#fff;fill-rule:nonzero" transform="matrix(36.37334 0 0 36.37353 136.303 160.884)"/>
  <use href="#e" style="fill:#fff;fill-rule:nonzero" transform="matrix(36.37334 0 0 36.37353 155.284 160.884)"/>
  <use href="#f" style="fill:#fff;fill-rule:nonzero" transform="matrix(36.37334 0 0 36.37353 172.408 160.884)"/>
  <use href="#g" style="fill:#fff;fill-rule:nonzero" transform="matrix(36.37334 0 0 36.37353 187.204 160.884)"/>
  <use href="#f" style="fill:#fff;fill-rule:nonzero" transform="matrix(36.37334 0 0 36.37353 196.363 160.884)"/>
  <use href="#d" style="fill:#fff;fill-rule:nonzero" transform="matrix(36.37334 0 0 36.37353 211.16 160.884)"/>
  <use href="#f" style="fill:#fff;fill-rule:nonzero" transform="matrix(36.37334 0 0 36.37353 230.903 160.884)"/>
  <use href="#g" style="fill:#fff;fill-rule:nonzero" transform="matrix(36.37334 0 0 36.37353 245.7 160.884)"/>
  <use href="#i" style="fill:#fff;fill-rule:nonzero" transform="matrix(36.37334 0 0 36.37353 254.859 160.884)"/>
  <use href="#h" style="fill:#fff;fill-rule:nonzero" transform="matrix(36.37334 0 0 36.37353 274.493 160.884)"/>
  <use href="#e" style="fill:#fff;fill-rule:nonzero" transform="matrix(36.37334 0 0 36.37353 293.473 160.884)"/>
</svg>
