<!DOCTYPE svg PUBLIC "-//W3C//DTD SVG 1.1//EN" "http://www.w3.org/Graphics/SVG/1.1/DTD/svg11.dtd">
<svg xmlns="http://www.w3.org/2000/svg" xml:space="preserve" style="fill-rule:evenodd;clip-rule:evenodd;stroke-linejoin:round;stroke-miterlimit:2" viewBox="0 0 405 405">
  <defs>
    <path id="a" d="M0-11.193q-.252.137-1.462.571-.96.32-1.21.434v-2.627q.776-.297 1.884-.913 1.107-.618 1.565-1.12h2.764V3.655H0z"/>
    <path id="b" d="M.265.011a.24.24 0 0 1-.122-.028.2.2 0 0 1-.074-.084.4.4 0 0 1-.028-.135l.127-.025a.4.4 0 0 0 .011.083.13.13 0 0 0 .029.056.07.07 0 0 0 .052.019q.036 0 .051-.021a.1.1 0 0 0 .015-.055.15.15 0 0 0-.024-.087.4.4 0 0 0-.064-.068l-.102-.09a.3.3 0 0 1-.069-.082.23.23 0 0 1-.025-.113q0-.096.056-.148a.2.2 0 0 1 .153-.052.2.2 0 0 1 .095.018.14.14 0 0 1 .06.048.2.2 0 0 1 .034.071.4.4 0 0 1 .014.083l-.126.022a.3.3 0 0 0-.009-.068.1.1 0 0 0-.023-.047.07.07 0 0 0-.048-.017q-.033 0-.051.022a.1.1 0 0 0-.017.053q0 .04.017.068a.3.3 0 0 0 .049.054l.101.089a.4.4 0 0 1 .085.099.25.25 0 0 1 .036.136.2.2 0 0 1-.026.103.2.2 0 0 1-.071.071.2.2 0 0 1-.106.025"/>
    <path id="c" d="M.283.011a.25.25 0 0 1-.14-.033.17.17 0 0 1-.069-.094.5.5 0 0 1-.019-.146V-.81h.144v.565q0 .037.005.072.005.033.023.054.019.02.056.02.04 0 .056-.02a.1.1 0 0 0 .023-.054.4.4 0 0 0 .006-.072V-.81h.143v.548a.5.5 0 0 1-.019.146.17.17 0 0 1-.069.094.25.25 0 0 1-.14.033"/>
    <path id="d" d="M.142 0v-.701H.013V-.81h.404v.109H.29V0z"/>
    <path id="e" d="m.02 0 .162-.81H.34L.502 0H.365L.333-.187H.192L.159 0zm.187-.281h.11l-.055-.34z"/>
    <path id="f" d="M.065-.81h.146V0H.065z"/>
    <path id="g" d="M.061 0v-.81h.103l.197.462V-.81h.122V0H.385L.187-.484V0z"/>
    <path id="h" d="M.061 0v-.81h.34v.104H.209v.233H.36v.103H.209v.268h.194V0z"/>
    <path id="i" d="M.279.011a.25.25 0 0 1-.14-.035.2.2 0 0 1-.07-.095.5.5 0 0 1-.02-.14v-.289q0-.083.02-.144a.17.17 0 0 1 .07-.094.26.26 0 0 1 .14-.033q.084 0 .131.029a.16.16 0 0 1 .068.081q.02.052.02.123v.068H.356v-.07A.4.4 0 0 0 .352-.65a.07.07 0 0 0-.019-.044Q.318-.711.28-.711t-.056.018a.1.1 0 0 0-.022.047.4.4 0 0 0-.005.066v.352a.3.3 0 0 0 .007.073.1.1 0 0 0 .025.043q.02.014.051.014.037 0 .052-.017a.1.1 0 0 0 .02-.047.4.4 0 0 0 .004-.065V-.3h.142v.065a.4.4 0 0 1-.019.128.17.17 0 0 1-.067.087.24.24 0 0 1-.133.031"/>
    <path id="j" d="m.059 0 .014-.81h.153l.115.561.12-.561h.148L.624 0h-.11L.502-.563.387 0H.298L.181-.565.17 0z"/>
  </defs>
  <path d="M518.845 257.482h97.036v97.036h-97.036z" style="fill:#f99d25" transform="matrix(-4.16666 0 0 4.16667 2566.17 -1072.841)"/>
  <use href="#a" style="fill:#fff;fill-rule:nonzero" transform="matrix(4.16666 0 0 4.16667 35.231 97.033)"/>
  <use href="#a" style="fill:#fff;fill-rule:nonzero" transform="matrix(4.16666 0 0 4.16667 67.496 97.033)"/>
  <path d="M0 10.255a.36.36 0 0 1-.299-.562l.11-.134L6.928.22l.068-.077.044-.051A.37.37 0 0 1 7.276 0c.106 0 .2.045.266.117l.071.078 7.295 9.439.02.021a.36.36 0 0 1 .095.239.36.36 0 0 1-.36.361zm14.619 1.331a.36.36 0 0 1 .359.36v11.498a.36.36 0 0 1-.359.36H9.765v-7.233a.36.36 0 0 0-.36-.36h-4.39a.36.36 0 0 0-.359.36v7.233H-.073a.36.36 0 0 1-.36-.36V11.946a.36.36 0 0 1 .36-.36zm50.779-3.01c.198 0 .356.152.356.345v14.684a.35.35 0 0 1-.356.346H50.856a.35.35 0 0 1-.355-.346V8.921c0-.193.159-.345.355-.345zm-1.317 4.706V10.64a.35.35 0 0 0-.356-.345h-4.343a.35.35 0 0 0-.356.345v2.642a.35.35 0 0 0 .356.347h4.343a.35.35 0 0 0 .356-.347m-6.64 0V10.64a.35.35 0 0 0-.355-.345h-4.344a.35.35 0 0 0-.357.345v2.642c0 .192.159.347.357.347h4.344a.35.35 0 0 0 .355-.347m6.64 4.88v-2.64a.35.35 0 0 0-.356-.347h-4.343a.35.35 0 0 0-.356.347v2.64a.35.35 0 0 0 .356.347h4.343a.35.35 0 0 0 .356-.347m-6.64 0v-2.64a.35.35 0 0 0-.355-.347h-4.344a.35.35 0 0 0-.357.347v2.64a.35.35 0 0 0 .357.347h4.344a.35.35 0 0 0 .355-.347m-25.847-43.67a.35.35 0 0 1 .35.349v48.635a.35.35 0 0 1-.35.348H17.363a.35.35 0 0 1-.348-.348v-48.635a.35.35 0 0 1 .348-.349zM23.129 1.606v-3.633a.187.187 0 0 0-.187-.187h-3.259a.187.187 0 0 0-.187.187v3.633c0 .102.084.186.187.186h3.259a.187.187 0 0 0 .187-.186m6.39-16.678v-3.632a.187.187 0 0 0-.188-.187h-3.258a.186.186 0 0 0-.187.187v3.632c0 .102.083.186.187.186h3.258a.187.187 0 0 0 .188-.186m-6.39 33.355v-3.631a.187.187 0 0 0-.187-.186h-3.259a.187.187 0 0 0-.187.186v3.631c0 .103.084.187.187.187h3.259a.187.187 0 0 0 .187-.187m6.39-16.677v-3.633a.19.19 0 0 0-.188-.187h-3.258a.187.187 0 0 0-.187.187v3.633c0 .102.083.186.187.186h3.258a.187.187 0 0 0 .188-.186m0-8.341v-3.632a.185.185 0 0 0-.188-.184h-3.258a.184.184 0 0 0-.187.184v3.632c0 .104.083.187.187.187h3.258a.187.187 0 0 0 .188-.187m-6.39 16.678v-3.63a.186.186 0 0 0-.187-.187h-3.259a.186.186 0 0 0-.187.187v3.63c0 .105.084.187.187.187h3.259a.186.186 0 0 0 .187-.187m6.39 0v-3.63a.186.186 0 0 0-.188-.187h-3.258a.185.185 0 0 0-.187.187v3.63c0 .105.083.187.187.187h3.258a.186.186 0 0 0 .188-.187m-6.39-25.015v-3.632a.187.187 0 0 0-.187-.187h-3.259a.187.187 0 0 0-.187.187v3.632c0 .102.084.186.187.186h3.259a.187.187 0 0 0 .187-.186m6.39 33.355v-3.631a.187.187 0 0 0-.188-.186h-3.258a.186.186 0 0 0-.187.186v3.631c0 .103.083.187.187.187h3.258a.19.19 0 0 0 .188-.187m-6.39-25.018v-3.632a.185.185 0 0 0-.187-.184h-3.259a.185.185 0 0 0-.187.184v3.632c0 .104.084.187.187.187h3.259a.187.187 0 0 0 .187-.187M65.737 7.098c0 .163-.13.293-.292.293H50.808a.29.29 0 0 1-.292-.293V4.171c0-.161.131-.292.292-.292h14.637c.162 0 .292.131.292.292zM48.783-16.324q.032.067.034.146v39.727a.347.347 0 0 1-.348.347H34.252a.35.35 0 0 1-.349-.347V1.746a.4.4 0 0 1 .121-.277l.065-.086 13.986-17.742.121-.152q.012-.01.026-.018a.37.37 0 0 1 .204-.067c.171 0 .31.116.357.272m-1.618 29.579V10.6a.35.35 0 0 0-.348-.348h-4.24a.347.347 0 0 0-.35.348v2.655c0 .193.156.348.35.348h4.24a.35.35 0 0 0 .348-.348m0-4.906V5.693a.35.35 0 0 0-.348-.348h-4.24a.35.35 0 0 0-.35.348v2.656c0 .191.156.347.35.347h4.24a.35.35 0 0 0 .348-.347m-6.472-4.901v-6.006a.4.4 0 0 0-.701-.177l-.103.124c-1.027 1.26-3.474 4.273-4.016 5.049l-.039.057a.3.3 0 0 0-.031.046c-.013.02-.015.026-.021.041a.4.4 0 0 0-.027.13v.736c0 .192.156.348.35.348h4.24a.35.35 0 0 0 .348-.348m6.472-4.912v-2.654a.35.35 0 0 0-.348-.35h-4.24a.35.35 0 0 0-.35.35v2.654c0 .193.156.348.35.348h4.24a.35.35 0 0 0 .348-.348M40.681 18.16v-2.655a.347.347 0 0 0-.347-.347h-4.242a.347.347 0 0 0-.348.347v2.655c0 .193.155.348.348.348h4.242a.347.347 0 0 0 .347-.348m0-9.811V5.693a.347.347 0 0 0-.347-.348h-4.242a.347.347 0 0 0-.348.348v2.656c0 .191.155.347.348.347h4.242a.347.347 0 0 0 .347-.347m2.213-15.037a.402.402 0 0 0 .308.64l.018.003.018-.003h3.495l.017.003.018-.003a.4.4 0 0 0 .386-.4v-4.489a.397.397 0 0 0-.701-.178l-.102.124c-.787.964-2.399 2.949-3.357 4.177zm-2.213 19.943V10.6a.346.346 0 0 0-.347-.348h-4.242a.346.346 0 0 0-.348.348v2.655c0 .193.155.348.348.348h4.242a.347.347 0 0 0 .347-.348m6.484-9.812V.788a.35.35 0 0 0-.348-.348h-4.24a.35.35 0 0 0-.35.348v2.655c0 .191.156.347.35.347h4.24a.35.35 0 0 0 .348-.347m0 14.717v-2.655a.35.35 0 0 0-.348-.347h-4.24a.35.35 0 0 0-.35.347v2.655c0 .193.156.348.35.348h4.24a.35.35 0 0 0 .348-.348" style="fill:#fff" transform="matrix(4.16666 0 0 4.16667 66.07 265.565)"/>
  <use href="#b" style="fill:#fff;fill-rule:nonzero" transform="matrix(36.37334 0 0 36.37353 106.777 64.58)"/>
  <use href="#c" style="fill:#fff;fill-rule:nonzero" transform="matrix(36.37334 0 0 36.37353 123.269 64.58)"/>
  <use href="#b" style="fill:#fff;fill-rule:nonzero" transform="matrix(36.37334 0 0 36.37353 142.38 64.58)"/>
  <use href="#d" style="fill:#fff;fill-rule:nonzero" transform="matrix(36.37334 0 0 36.37353 158.87 64.58)"/>
  <use href="#e" style="fill:#fff;fill-rule:nonzero" transform="matrix(36.37334 0 0 36.37353 171.544 64.58)"/>
  <use href="#f" style="fill:#fff;fill-rule:nonzero" transform="matrix(36.37334 0 0 36.37353 189.053 64.58)"/>
  <use href="#g" style="fill:#fff;fill-rule:nonzero" transform="matrix(36.37334 0 0 36.37353 197.58 64.58)"/>
  <use href="#e" style="fill:#fff;fill-rule:nonzero" transform="matrix(36.37334 0 0 36.37353 215.926 64.58)"/>
  <path d="M.061 0v-.81H.26q.054 0 .097.01a.2.2 0 0 1 .075.034.14.14 0 0 1 .049.063q.017.04.017.101a.2.2 0 0 1-.014.084.14.14 0 0 1-.039.056.2.2 0 0 1-.065.027.16.16 0 0 1 .079.034.15.15 0 0 1 .047.066q.016.04.016.099a.3.3 0 0 1-.015.103.2.2 0 0 1-.043.074.2.2 0 0 1-.071.044A.3.3 0 0 1 .294 0zm.148-.104h.056q.067 0 .091-.032A.17.17 0 0 0 .38-.237a.2.2 0 0 0-.012-.079.08.08 0 0 0-.038-.046.14.14 0 0 0-.07-.015H.209zm0-.375h.05a.14.14 0 0 0 .068-.013.07.07 0 0 0 .033-.04A.2.2 0 0 0 .37-.6a.12.12 0 0 0-.015-.066.07.07 0 0 0-.043-.032.3.3 0 0 0-.074-.009H.209z" style="fill:#fff;fill-rule:nonzero" transform="matrix(36.37334 0 0 36.37353 233.436 64.58)"/>
  <path d="M.061 0v-.81h.148v.708h.196V0z" style="fill:#fff;fill-rule:nonzero" transform="matrix(36.37334 0 0 36.37353 252.22 64.58)"/>
  <use href="#h" style="fill:#fff;fill-rule:nonzero" transform="matrix(36.37334 0 0 36.37353 266.056 64.58)"/>
  <use href="#i" style="fill:#fff;fill-rule:nonzero" transform="matrix(36.37334 0 0 36.37353 287.509 64.58)"/>
  <use href="#f" style="fill:#fff;fill-rule:nonzero" transform="matrix(36.37334 0 0 36.37353 305.674 64.58)"/>
  <use href="#d" style="fill:#fff;fill-rule:nonzero" transform="matrix(36.37334 0 0 36.37353 314.2 64.58)"/>
  <use href="#f" style="fill:#fff;fill-rule:nonzero" transform="matrix(36.37334 0 0 36.37353 328.363 64.58)"/>
  <use href="#h" style="fill:#fff;fill-rule:nonzero" transform="matrix(36.37334 0 0 36.37353 336.89 64.58)"/>
  <use href="#b" style="fill:#fff;fill-rule:nonzero" transform="matrix(36.37334 0 0 36.37353 350.98 64.58)"/>
  <use href="#e" style="fill:#fff;fill-rule:nonzero" transform="matrix(36.37334 0 0 36.37353 106.777 112.729)"/>
  <use href="#g" style="fill:#fff;fill-rule:nonzero" transform="matrix(36.37334 0 0 36.37353 124.218 112.729)"/>
  <path d="M.061 0v-.81h.191q.099 0 .154.027A.16.16 0 0 1 .485-.7a.4.4 0 0 1 .024.142v.296a.4.4 0 0 1-.024.147.16.16 0 0 1-.078.087A.3.3 0 0 1 .258 0zm.148-.103h.045q.05 0 .073-.018a.08.08 0 0 0 .027-.052l.005-.085v-.31a.3.3 0 0 0-.007-.079Q.345-.677.323-.691a.14.14 0 0 0-.071-.014H.209z" style="fill:#fff;fill-rule:nonzero" transform="matrix(36.37334 0 0 36.37353 142.495 112.729)"/>
  <use href="#i" style="fill:#fff;fill-rule:nonzero" transform="matrix(36.37334 0 0 36.37353 168.503 112.729)"/>
  <path d="M.281.011a.26.26 0 0 1-.137-.032.18.18 0 0 1-.073-.092.4.4 0 0 1-.022-.142v-.303q0-.082.022-.14a.18.18 0 0 1 .073-.09.26.26 0 0 1 .137-.031q.088 0 .138.031a.18.18 0 0 1 .073.09.4.4 0 0 1 .023.14v.304a.4.4 0 0 1-.023.141.2.2 0 0 1-.073.092.26.26 0 0 1-.138.032m0-.109q.037 0 .054-.016a.1.1 0 0 0 .024-.044.3.3 0 0 0 .006-.061v-.373a.3.3 0 0 0-.006-.061.07.07 0 0 0-.024-.042Q.318-.711.281-.711q-.035 0-.053.016a.07.07 0 0 0-.024.042.3.3 0 0 0-.006.061v.373q0 .033.005.061a.1.1 0 0 0 .024.044q.018.016.054.016" style="fill:#fff;fill-rule:nonzero" transform="matrix(36.37334 0 0 36.37353 186.599 112.729)"/>
  <use href="#j" style="fill:#fff;fill-rule:nonzero" transform="matrix(36.37334 0 0 36.37353 205.53 112.729)"/>
  <use href="#j" style="fill:#fff;fill-rule:nonzero" transform="matrix(36.37334 0 0 36.37353 228.828 112.729)"/>
  <use href="#c" style="fill:#fff;fill-rule:nonzero" transform="matrix(36.37334 0 0 36.37353 252.125 112.729)"/>
  <use href="#g" style="fill:#fff;fill-rule:nonzero" transform="matrix(36.37334 0 0 36.37353 271.166 112.729)"/>
  <use href="#f" style="fill:#fff;fill-rule:nonzero" transform="matrix(36.37334 0 0 36.37353 289.444 112.729)"/>
  <use href="#d" style="fill:#fff;fill-rule:nonzero" transform="matrix(36.37334 0 0 36.37353 297.9 112.729)"/>
  <use href="#f" style="fill:#fff;fill-rule:nonzero" transform="matrix(36.37334 0 0 36.37353 311.996 112.729)"/>
  <use href="#h" style="fill:#fff;fill-rule:nonzero" transform="matrix(36.37334 0 0 36.37353 320.452 112.729)"/>
  <use href="#b" style="fill:#fff;fill-rule:nonzero" transform="matrix(36.37334 0 0 36.37353 334.474 112.729)"/>
</svg>
