<!DOCTYPE svg PUBLIC "-//W3C//DTD SVG 1.1//EN" "http://www.w3.org/Graphics/SVG/1.1/DTD/svg11.dtd">
<svg xmlns="http://www.w3.org/2000/svg" xml:space="preserve" style="fill-rule:evenodd;clip-rule:evenodd;stroke-linejoin:round;stroke-miterlimit:2" viewBox="0 0 405 405">
  <defs>
    <path id="a" d="m.02 0 .162-.81H.34L.502 0H.365L.333-.187H.192L.159 0zm.187-.281h.11l-.055-.34z"/>
    <path id="b" d="M.061 0v-.81h.333v.102H.209v.236H.36v.103H.209V0z"/>
    <path id="c" d="M.061 0v-.81h.194a.4.4 0 0 1 .138.02.16.16 0 0 1 .086.066q.03.047.03.128A.4.4 0 0 1 .5-.508a.2.2 0 0 1-.031.067.14.14 0 0 1-.059.042L.523 0H.375L.277-.371H.209V0zm.148-.464h.046a.2.2 0 0 0 .068-.012.1.1 0 0 0 .037-.04.2.2 0 0 0 .011-.071.15.15 0 0 0-.023-.091Q.326-.709.263-.709H.209z"/>
    <path id="d" d="M.061 0v-.81h.191q.099 0 .154.027A.16.16 0 0 1 .485-.7a.4.4 0 0 1 .024.142v.296a.4.4 0 0 1-.024.147.16.16 0 0 1-.078.087A.3.3 0 0 1 .258 0zm.148-.103h.045q.05 0 .073-.018a.08.08 0 0 0 .027-.052l.005-.085v-.31a.3.3 0 0 0-.007-.079Q.345-.677.323-.691a.14.14 0 0 0-.071-.014H.209z"/>
    <path id="e" d="M.061 0v-.81h.148v.708h.196V0z"/>
    <path id="f" d="M.061 0v-.81h.34v.104H.209v.233H.36v.103H.209v.268h.194V0z"/>
    <path id="g" d="M.061 0v-.81h.103l.197.462V-.81h.122V0H.385L.187-.484V0z"/>
  </defs>
  <path d="M83.876 257.482h97.036v97.036H83.876z" style="fill:#fdb713" transform="matrix(-4.16666 0 0 4.16667 753.8 -1072.841)"/>
  <path d="M0-13.112h-5.025v-2.695h8.474v2.307L-.457 2.695h-3.426z" style="fill:#fff;fill-rule:nonzero" transform="matrix(4.16666 0 0 4.16667 54.117 101.03)"/>
  <path d="M0-28.576c7.89 0 14.286 6.396 14.286 14.287C14.286-6.395 7.89 0 0 0s-14.286-6.395-14.286-14.289c0-7.891 6.396-14.287 14.286-14.287m-1.058 5.644v4.905c0 .474.478.992 1.064.992.585 0 1.058-.518 1.058-.992v-4.905c0-.475-.473-.999-1.058-.999s-1.064.524-1.064.999M.002-6.968A7.43 7.43 0 0 0 2.198-21.5v2.764a4.86 4.86 0 0 1 2.669 4.337 4.864 4.864 0 1 1-9.729 0 4.86 4.86 0 0 1 2.656-4.33v-2.767A7.432 7.432 0 0 0 .002-6.968M-16.4-14.414c0 .65-.574 1.177-1.098 1.177h-6.256c-.528 0-1.107-.527-1.107-1.177 0-.648.579-1.172 1.107-1.172h6.256c.524 0 1.098.524 1.098 1.172m41.268 0c0 .65-.574 1.177-1.098 1.177h-6.256c-.528 0-1.107-.527-1.107-1.177 0-.648.579-1.172 1.107-1.172h6.256c.524 0 1.098.524 1.098 1.172M.006 10.452c-.649 0-1.178-.574-1.178-1.098V3.098c0-.527.529-1.107 1.178-1.107.647 0 1.172.58 1.172 1.107v6.256c0 .524-.525 1.098-1.172 1.098M21.585-2.063c-.323.564-1.083.737-1.537.476l-5.431-3.107c-.457-.262-.698-1.008-.375-1.571.321-.563 1.085-.731 1.543-.469l5.43 3.108c.454.26.691 1.001.37 1.563m-33.93 9.233c-.564-.322-.737-1.084-.477-1.538l3.108-5.43c.261-.457 1.008-.698 1.571-.376s.73 1.086.468 1.543l-3.108 5.43c-.26.455-1 .692-1.562.371M12.4 7.142c-.563.323-1.306.089-1.567-.365L7.715 1.354C7.45.896 7.619.131 8.182-.192c.562-.323 1.305-.083 1.569.374l3.119 5.424c.261.454.091 1.213-.47 1.536m-33.95-9.157c-.324-.563-.089-1.307.365-1.568l5.423-3.119c.457-.263 1.223-.094 1.546.469.324.562.083 1.305-.375 1.568l-5.423 3.119c-.455.261-1.214.092-1.536-.469m21.556-28.8c-.649 0-1.178-.574-1.178-1.097v-6.257c0-.528.529-1.107 1.178-1.107.647 0 1.172.579 1.172 1.107v6.257c0 .523-.525 1.097-1.172 1.097m-14.239 8.253c-.322.564-1.082.736-1.537.476l-5.43-3.107c-.458-.263-.699-1.008-.376-1.572.322-.562 1.085-.73 1.543-.467l5.43 3.107c.455.26.692 1.001.37 1.563m22.387-6.085c-.564-.322-.737-1.083-.477-1.538l3.108-5.43c.262-.457 1.008-.699 1.572-.376.561.322.729 1.085.467 1.544l-3.108 5.43c-.261.454-1 .691-1.562.37m-16.326.014c-.564.324-1.306.089-1.568-.365l-3.118-5.423c-.264-.458-.096-1.223.468-1.546.562-.323 1.304-.084 1.568.374l3.119 5.424c.262.454.092 1.213-.469 1.536m22.397 6.046c-.324-.562-.089-1.307.365-1.568l5.424-3.118c.458-.264 1.222-.094 1.546.468.323.562.082 1.305-.376 1.568l-5.423 3.119c-.455.261-1.213.092-1.536-.469" style="fill:#fff" transform="matrix(4.16666 0 0 4.16667 202.143 316.047)"/>
  <use href="#a" style="fill:#fff;fill-rule:nonzero" transform="matrix(36.37334 0 0 36.37353 99.084 64.58)"/>
  <use href="#b" style="fill:#fff;fill-rule:nonzero" transform="matrix(36.37334 0 0 36.37353 117.253 64.58)"/>
  <use href="#b" style="fill:#fff;fill-rule:nonzero" transform="matrix(36.37334 0 0 36.37353 131.457 64.58)"/>
  <path d="M.281.011a.26.26 0 0 1-.137-.032.18.18 0 0 1-.073-.092.4.4 0 0 1-.022-.142v-.303q0-.082.022-.14a.18.18 0 0 1 .073-.09.26.26 0 0 1 .137-.031q.088 0 .138.031a.18.18 0 0 1 .073.09.4.4 0 0 1 .023.14v.304a.4.4 0 0 1-.023.141.2.2 0 0 1-.073.092.26.26 0 0 1-.138.032m0-.109q.037 0 .054-.016a.1.1 0 0 0 .024-.044.3.3 0 0 0 .006-.061v-.373a.3.3 0 0 0-.006-.061.07.07 0 0 0-.024-.042Q.318-.711.281-.711q-.035 0-.053.016a.07.07 0 0 0-.024.042.3.3 0 0 0-.006.061v.373q0 .033.005.061a.1.1 0 0 0 .024.044q.018.016.054.016" style="fill:#fff;fill-rule:nonzero" transform="matrix(36.37334 0 0 36.37353 145.66 64.58)"/>
  <use href="#c" style="fill:#fff;fill-rule:nonzero" transform="matrix(36.37334 0 0 36.37353 165.32 64.58)"/>
  <use href="#d" style="fill:#fff;fill-rule:nonzero" transform="matrix(36.37334 0 0 36.37353 184.907 64.58)"/>
  <use href="#a" style="fill:#fff;fill-rule:nonzero" transform="matrix(36.37334 0 0 36.37353 204.167 64.58)"/>
  <path d="M.061 0v-.81H.26q.054 0 .097.01a.2.2 0 0 1 .075.034.14.14 0 0 1 .049.063q.017.04.017.101a.2.2 0 0 1-.014.084.14.14 0 0 1-.039.056.2.2 0 0 1-.065.027.16.16 0 0 1 .079.034.15.15 0 0 1 .047.066q.016.04.016.099a.3.3 0 0 1-.015.103.2.2 0 0 1-.043.074.2.2 0 0 1-.071.044A.3.3 0 0 1 .294 0zm.148-.104h.056q.067 0 .091-.032A.17.17 0 0 0 .38-.237a.2.2 0 0 0-.012-.079.08.08 0 0 0-.038-.046.14.14 0 0 0-.07-.015H.209zm0-.375h.05a.14.14 0 0 0 .068-.013.07.07 0 0 0 .033-.04A.2.2 0 0 0 .37-.6a.12.12 0 0 0-.015-.066.07.07 0 0 0-.043-.032.3.3 0 0 0-.074-.009H.209z" style="fill:#fff;fill-rule:nonzero" transform="matrix(36.37334 0 0 36.37353 222.335 64.58)"/>
  <use href="#e" style="fill:#fff;fill-rule:nonzero" transform="matrix(36.37334 0 0 36.37353 241.777 64.58)"/>
  <use href="#f" style="fill:#fff;fill-rule:nonzero" transform="matrix(36.37334 0 0 36.37353 256.271 64.58)"/>
  <use href="#a" style="fill:#fff;fill-rule:nonzero" transform="matrix(36.37334 0 0 36.37353 279.042 64.58)"/>
  <use href="#g" style="fill:#fff;fill-rule:nonzero" transform="matrix(36.37334 0 0 36.37353 297.21 64.58)"/>
  <use href="#d" style="fill:#fff;fill-rule:nonzero" transform="matrix(36.37334 0 0 36.37353 316.214 64.58)"/>
  <path d="M.279.011a.25.25 0 0 1-.14-.035.2.2 0 0 1-.07-.095.5.5 0 0 1-.02-.14v-.289q0-.083.02-.144a.17.17 0 0 1 .07-.094.26.26 0 0 1 .14-.033q.084 0 .131.029a.16.16 0 0 1 .068.081q.02.052.02.123v.068H.356v-.07A.4.4 0 0 0 .352-.65a.07.07 0 0 0-.019-.044Q.318-.711.28-.711t-.056.018a.1.1 0 0 0-.022.047.4.4 0 0 0-.005.066v.352a.3.3 0 0 0 .007.073.1.1 0 0 0 .025.043q.02.014.051.014.037 0 .052-.017a.1.1 0 0 0 .02-.047.4.4 0 0 0 .004-.065V-.3h.142v.065a.4.4 0 0 1-.019.128.17.17 0 0 1-.067.087.24.24 0 0 1-.133.031" style="fill:#fff;fill-rule:nonzero" transform="matrix(36.37334 0 0 36.37353 99.084 112.729)"/>
  <use href="#e" style="fill:#fff;fill-rule:nonzero" transform="matrix(36.37334 0 0 36.37353 117.908 112.729)"/>
  <use href="#f" style="fill:#fff;fill-rule:nonzero" transform="matrix(36.37334 0 0 36.37353 132.402 112.729)"/>
  <use href="#a" style="fill:#fff;fill-rule:nonzero" transform="matrix(36.37334 0 0 36.37353 147.151 112.729)"/>
  <use href="#g" style="fill:#fff;fill-rule:nonzero" transform="matrix(36.37334 0 0 36.37353 165.32 112.729)"/>
  <use href="#f" style="fill:#fff;fill-rule:nonzero" transform="matrix(36.37334 0 0 36.37353 192.345 112.729)"/>
  <use href="#g" style="fill:#fff;fill-rule:nonzero" transform="matrix(36.37334 0 0 36.37353 207.094 112.729)"/>
  <use href="#f" style="fill:#fff;fill-rule:nonzero" transform="matrix(36.37334 0 0 36.37353 226.1 112.729)"/>
  <use href="#c" style="fill:#fff;fill-rule:nonzero" transform="matrix(36.37334 0 0 36.37353 240.849 112.729)"/>
  <path d="M.264.011a.2.2 0 0 1-.127-.034.2.2 0 0 1-.068-.096.5.5 0 0 1-.02-.148v-.272a.5.5 0 0 1 .02-.15.17.17 0 0 1 .07-.096.25.25 0 0 1 .14-.034q.082 0 .132.028a.16.16 0 0 1 .07.081.3.3 0 0 1 .022.127v.042H.362v-.046a.3.3 0 0 0-.006-.067.07.07 0 0 0-.022-.042Q.318-.711.281-.711q-.039 0-.057.019a.1.1 0 0 0-.022.05l-.004.068v.339q0 .042.007.073a.1.1 0 0 0 .026.048.08.08 0 0 0 .054.016q.036 0 .055-.018a.1.1 0 0 0 .026-.05.3.3 0 0 0 .008-.076v-.076H.287v-.093h.22V0H.412L.401-.08a.16.16 0 0 1-.049.066.14.14 0 0 1-.088.025" style="fill:#fff;fill-rule:nonzero" transform="matrix(36.37334 0 0 36.37353 260.327 112.729)"/>
  <path d="M.174 0v-.309L.01-.81h.138l.1.321.094-.321h.135l-.162.501V0z" style="fill:#fff;fill-rule:nonzero" transform="matrix(36.37334 0 0 36.37353 279.405 112.729)"/>
</svg>
