<svg xmlns="http://www.w3.org/2000/svg" xml:space="preserve" style="fill-rule:evenodd;clip-rule:evenodd;stroke-linejoin:round;stroke-miterlimit:2" viewBox="0 0 404 404">
  <path d="M0-.707q.167.231.278.401a9 9 0 0 1-.279.404c-2.573 3.597-14.21 17.965-35.805 17.935C-57.404 18.004-68.998 3.605-71.565.001c-.109-.157-.203-.289-.28-.406q.116-.17.281-.4c2.577-3.598 14.21-17.965 35.809-17.936C-14.161-18.711-2.563-4.313 0-.707m-35.776 15.481c3.43.005 6.59-1.141 9.123-3.068-.347-.131-.339-.304-1.371-.345-1.514-.059-2.547 1.281-3.059 1.574-.51.293-3.714-1.533-6.154-1.298-1.094.104-2.481.577-2.948 1.79a.62.62 0 0 0 .181.736c1.341.393 2.758.609 4.228.611m10.616-4.365a15.1 15.1 0 0 0 3.456-5.302 2.4 2.4 0 0 0-.231-.98q-.082-.165-.176-.348c-.327-.653-.71.418-2.518.867-.613.151-1.425.246-2.732.717-.951.345-2.092 1.872-1.562 3.213.525 1.34.198 2.252 1.407 1.463 1.214-.791.351.145.757.296.403.148.306-.52 1.127-.101a2.5 2.5 0 0 0 .472.175m-12.649-5.444c.994-1.595-.292-1.651-.887-.561-.111.2-.65 2.838-.268 3.134.379.295.948-2.234 1.155-2.573m12.788-2.943c.166.065.773.095.773-.151s-.399-.707-.708-.864c-.303-.149-.614.061-.492.431.122.369.265.523.427.584m-6.64-.035c.296-.268-.464-.976-.97-.931-.226.018-.845.505-.467.8.38.297 1.14.395 1.437.131m-8.868 6.475c.297-1.145.635-.469.782-1.25s.393-.834.345-1.774c-.049-.936.082-1.154.766-1.832.683-.673.488-.318.687-.946.198-.625-.484-.801-1.092-1.187-.714-.455-1.448-1.672-1.377-2.499.05-.573.356-.051 1.056.678.699.732 1.013 1.304 1.725 1.134.715-.171 1.693-.811 1.438-1.538-.171-.49-2.576-2.402-2.467-2.765.124-.414.533-.102 1.266.47.73.576 1.605.48 1.784 1.496.332 1.872 2.467 1.045 3.933 2.73.564.647.841-.051 1.225-.833.386-.783-.298-1.15.238-1.516.538-.367 1.172-.206 1.416.419.242.627.583 1.441.895 2.273.296.79 2.092 2.02 2.33 2.038 1.017.066-.352-1.504-.458-2.079-.106-.574.326-1.648.769-1.804.445-.157.621-.006 1.582-.63.963-.625-.029-.733-.049-1.776-.02-1.042.624-.432.776-.212.596.874 1.625.409 1.762-.133a2.5 2.5 0 0 0 .074-.696c-1.576-6.614-7.515-11.539-14.612-11.548a14.97 14.97 0 0 0-8.105 2.36c1.745-.129 5.245-.717 4.869.816-.332 1.356 2.216 1.58.921 2.245-.55.286-2.157 1.402-2.512 1.206-.997-.54 2.04-1.227 1.456-1.621-.586-.4-1.752.056-2.664.255-.449.101-2.203.094-2.844.399-.641.31-1.397.72-1.186 1.268.214.549 1.95.985 2.242.985.292.001.609-.07 1.232-.833.622-.767 1.376-.062 1.157.04-.217.105-.707.452-1.092.908-.307.36-.879.615-1.501.301-.623-.313-2.015-.146-2.285.009-.268.157-.939.625-1.142.678-.201.054-.494.206-.396.416.097.207.151.457-.004.611-.152.158-.432.484-.82.224-.355-.237-1.387-.134-1.675.183q-.058.182-.111.366c-.02.533.211 1.409 1.093.752.289-.217 1.73-.164 2.619-1.005.42-.396.888.124.989.332.103.21.707 1.504 1.009 1.453s-.49-1.243-.136-1.295c.354-.053.805 1.006 1.018.857.575-.406 1.05-.262 1.114.341.054.481-.398.796-.976 1.034-.799.324-2.172-.417-3.043-.746-1.059-.4-2.464-.618-2.464-.618l-.881.303s.018.221-.779 1.161a1 1 0 0 0-.093.14q-.074.74-.077 1.501a15 15 0 0 0 1.174 5.857c.021.008.031.014.053.021.829.262.589.125 1.173-.133.587-.263 1.112-.833 1.53-.312.422.521.823.355.88 1.188.055.835.86-.546 1.011.706.237 1.955.698.993.697 1.318-.001.939.092 2.765.776 2.817.683.051 1.761-.415 2.052-.782.292-.362.634-.776.927-1.926m16.147-5.977c-.227.018-.845.505-.467.8.38.298 1.138.397 1.434.13.298-.268-.461-.97-.967-.93m3.353.335a15.2 15.2 0 0 0 .294-3.943c-.19-.654-.579-1.108-1.309-1.052-.184.015.486.759.263 1.011-1.337 1.535.349 3.873.752 3.984M-48.588-8.129a15 15 0 0 0-1.124 2.236.57.57 0 0 0 .388.041c.476-.104 1.291-1.078 1.811-1.556.184-.17 1.187-.622 1.123-.87-.06-.249-.559-.438-.933-.375-.374.058-.915.124-1.187.433-.013.017-.044.05-.078.091m.773-1.533c-.067.103.071.375.422.43.454.073 1.28-.39 1.597-.718.113-.115.242-.783.203-.956-.037-.172-.342-.302-.571-.257-.232.04-.563.084-.729.298-.079.102-.727.917-.922 1.203" style="fill:#407f46" transform="matrix(4.16666 0 0 4.16667 350.705 256.504)"/>
</svg>
