<svg xmlns="http://www.w3.org/2000/svg" xml:space="preserve" style="fill-rule:evenodd;clip-rule:evenodd;stroke-linejoin:round;stroke-miterlimit:2" viewBox="0 0 405 405">
  <path d="M0-5.388a5.03 5.03 0 0 1-1.415 3.514l.005.005-6.824 6.838-6.833-6.846a5.02 5.02 0 0 1-1.414-3.512c0-2.744 1.868-4.968 4.534-4.968 1.333 0 2.834 1.461 3.707 2.36.874-.898 2.482-2.358 3.814-2.358C-1.76-10.355 0-8.131 0-5.388m-29.092 21.533-.07-.002a1.12 1.12 0 0 1-1.036-.93l-3.471-20.215-5.258 9.748a1.123 1.123 0 0 1-2.098-.373l-2.232-15.601-4.084 9.172c-.18.405-.582.666-1.025.666h-15.872a1.122 1.122 0 0 1 0-2.244h15.143l5.372-12.065a1.121 1.121 0 0 1 2.136.297L-39.286.685l5.185-9.614a1.122 1.122 0 0 1 2.094.343l3.214 18.722 11.715-38.914a1.121 1.121 0 0 1 2.085-.164l6.164 12.779a1.122 1.122 0 0 1-2.021.975l-4.911-10.181-12.257 40.715a1.12 1.12 0 0 1-1.074.799" style="fill:#4ca046" transform="matrix(4.16666 0 0 4.16667 338.329 275.366)"/>
</svg>
