<!DOCTYPE svg PUBLIC "-//W3C//DTD SVG 1.1//EN" "http://www.w3.org/Graphics/SVG/1.1/DTD/svg11.dtd">
<svg xmlns="http://www.w3.org/2000/svg" xml:space="preserve" style="fill-rule:evenodd;clip-rule:evenodd;stroke-linejoin:round;stroke-miterlimit:2" viewBox="0 0 405 405">
  <defs>
    <path id="a" d="M.061 0v-.81h.148v.708h.196V0z"/>
    <path id="b" d="M.061 0v-.81h.103l.197.462V-.81h.122V0H.385L.187-.484V0z"/>
  </defs>
  <path d="M301.361 148.74h97.036v97.036h-97.036z" style="fill:#3faf49" transform="matrix(-4.16666 0 0 4.16667 1659.995 -619.746)"/>
  <path d="M0-11.193q-.252.137-1.462.571-.959.32-1.211.434v-2.627q.777-.297 1.885-.913 1.107-.618 1.565-1.12h2.764V3.655H0z" style="fill:#fff;fill-rule:nonzero" transform="matrix(4.16666 0 0 4.16667 34.487 97.04)"/>
  <path d="M0 17.452q-1.051-.674-1.439-1.908t-.389-3.083h3.427q0 1.6.297 2.318.297.72 1.165.72.685 0 1.005-.457.32-.456.4-1.245.08-.787.08-2.273 0-1.69-.309-2.524-.308-.833-1.268-.834-1.233 0-1.576 1.668h-3.038l.251-10.508h8.521v3.038H1.508l-.206 4.089q.32-.388 1.096-.651a5.2 5.2 0 0 1 1.668-.263q1.896 0 2.855 1.531t.96 4.294q0 2.193-.389 3.644-.389 1.45-1.473 2.284t-3.095.834q-1.874 0-2.924-.674" style="fill:#fff;fill-rule:nonzero" transform="matrix(4.16666 0 0 4.16667 65.326 37.98)"/>
  <path d="M0-7.53c.119 0 .215.097.215.216v7.098A.214.214 0 0 1 0 0h-2.873a.214.214 0 0 1-.215-.216v-7.098c0-.119.096-.216.215-.216zM31.546 3.048c.117 0 .217.102.217.222v2.894c0 .117-.1.213-.217.213h-47.338a.216.216 0 0 1-.216-.213V3.27c0-.12.098-.222.216-.222zm0 5.75c.117 0 .217.095.217.213v2.902c0 .116-.1.214-.217.214h-47.338a.217.217 0 0 1-.216-.214V9.011c0-.118.098-.213.216-.213zm-9.008-24.185c.608-.482 2.179-1.545 4.087-1.545 1.398 0 2.691.557 3.847 1.659a.4.4 0 0 1 .127.292v.229c0 .183-.123.34-.298.39a.6.6 0 0 1-.277-.009.7.7 0 0 1-.262-.16c-.249-.167-.924-.394-1.9-.394-1.003 0-2.97.268-4.885 2.047l-.039.04a.57.57 0 0 1-.812-.004l-.044-.039c-1.904-1.776-3.874-2.044-4.877-2.044-.97 0-1.648.227-1.896.394a.64.64 0 0 1-.325.173.38.38 0 0 1-.334-.078.41.41 0 0 1-.135-.324v-.258c0-.113.046-.219.127-.296 1.145-1.074 2.425-1.616 3.801-1.616 1.925 0 3.503 1.08 4.095 1.543M19.6-34.254c.594-.299 1.19-.449 1.775-.449 1.663 0 2.759 1.205 3.192 1.789.368-.135.991-.32 1.704-.32.958 0 2.292.334 3.211 1.93a.4.4 0 0 1 .055.203q0 .062-.016.115l-.04.14a.4.4 0 0 1-.201.242.4.4 0 0 1-.188.047q-.022 0-.042-.002l-.07-.01a1 1 0 0 1-.154-.074.6.6 0 0 1-.158-.177c-.183-.203-.964-.691-2.159-.691-.706 0-1.422.177-2.112.523l-.031.015a.5.5 0 0 1-.39.035.5.5 0 0 1-.303-.242l-.016-.031c-1.261-2.144-3.17-2.209-3.382-2.209-.157 0-.244.024-.286.032a.5.5 0 0 1-.229.059c-.016.005-.038 0-.06-.003a.39.39 0 0 1-.292-.159.4.4 0 0 1-.063-.356l.048-.158a.4.4 0 0 1 .207-.249M9.598-26.971a.42.42 0 0 1 .11-.303c.97-1.029 2.099-1.552 3.358-1.552 1.434 0 2.655.706 3.159 1.048.55-.482 1.878-1.465 3.543-1.465 1.07 0 2.086.399 3.028 1.191a.4.4 0 0 1 .142.282l.011.185a.4.4 0 0 1-.269.407.5.5 0 0 1-.099.024.54.54 0 0 1-.419-.139c-.172-.097-.613-.226-1.234-.226-.873 0-2.572.249-4.15 1.918l-.032.036a.55.55 0 0 1-.372.179h-.035a.56.56 0 0 1-.365-.138l-.033-.034c-1.425-1.17-2.823-1.416-3.743-1.416-.956 0-1.604.265-1.805.41a.52.52 0 0 1-.274.173.4.4 0 0 1-.318-.048.4.4 0 0 1-.189-.319zm-23.955 3.8a5.13 5.13 0 0 1 5.132-5.132c.111 0 .219.01.329.016a6.94 6.94 0 0 1 6.917-6.416 6.943 6.943 0 0 1 6.944 6.943 6.9 6.9 0 0 1-.702 3.026c3.475.77 6.076 3.865 6.076 7.57a7.76 7.76 0 0 1-7.759 7.76c-.313 0-10.356-.06-10.356-.06a5.495 5.495 0 0 1-5.495-5.494 5.47 5.47 0 0 1 1.498-3.762 5.13 5.13 0 0 1-2.584-4.451" style="fill:#fff" transform="matrix(4.16666 0 0 4.16667 169.342 305.074)"/>
  <use href="#a" style="fill:#fff;fill-rule:nonzero" transform="matrix(36.37334 0 0 36.37353 126.757 64.585)"/>
  <path d="M.065-.81h.146V0H.065z" style="fill:#fff;fill-rule:nonzero" transform="matrix(36.37334 0 0 36.37353 140.906 64.585)"/>
  <path d="M.061 0v-.81h.333v.102H.209v.236H.36v.103H.209V0z" style="fill:#fff;fill-rule:nonzero" transform="matrix(36.37334 0 0 36.37353 149.745 64.585)"/>
  <path d="M.061 0v-.81h.34v.104H.209v.233H.36v.103H.209v.268h.194V0z" style="fill:#fff;fill-rule:nonzero" transform="matrix(36.37334 0 0 36.37353 163.602 64.585)"/>
  <path d="M.281.011a.26.26 0 0 1-.137-.032.18.18 0 0 1-.073-.092.4.4 0 0 1-.022-.142v-.303q0-.082.022-.14a.18.18 0 0 1 .073-.09.26.26 0 0 1 .137-.031q.088 0 .138.031a.18.18 0 0 1 .073.09.4.4 0 0 1 .023.14v.304a.4.4 0 0 1-.023.141.2.2 0 0 1-.073.092.26.26 0 0 1-.138.032m0-.109q.037 0 .054-.016a.1.1 0 0 0 .024-.044.3.3 0 0 0 .006-.061v-.373a.3.3 0 0 0-.006-.061.07.07 0 0 0-.024-.042Q.318-.711.281-.711q-.035 0-.053.016a.07.07 0 0 0-.024.042.3.3 0 0 0-.006.061v.373q0 .033.005.061a.1.1 0 0 0 .024.044q.018.016.054.016" style="fill:#fff;fill-rule:nonzero" transform="matrix(36.37334 0 0 36.37353 126.757 112.734)"/>
  <use href="#b" style="fill:#fff;fill-rule:nonzero" transform="matrix(36.37334 0 0 36.37353 146.07 112.734)"/>
  <use href="#a" style="fill:#fff;fill-rule:nonzero" transform="matrix(36.37334 0 0 36.37353 172.405 112.734)"/>
  <path d="m.02 0 .162-.81H.34L.502 0H.365L.333-.187H.192L.159 0zm.187-.281h.11l-.055-.34z" style="fill:#fff;fill-rule:nonzero" transform="matrix(36.37334 0 0 36.37353 186.554 112.734)"/>
  <use href="#b" style="fill:#fff;fill-rule:nonzero" transform="matrix(36.37334 0 0 36.37353 204.377 112.734)"/>
  <path d="M.061 0v-.81h.191q.099 0 .154.027A.16.16 0 0 1 .485-.7a.4.4 0 0 1 .024.142v.296a.4.4 0 0 1-.024.147.16.16 0 0 1-.078.087A.3.3 0 0 1 .258 0zm.148-.103h.045q.05 0 .073-.018a.08.08 0 0 0 .027-.052l.005-.085v-.31a.3.3 0 0 0-.007-.079Q.345-.677.323-.691a.14.14 0 0 0-.071-.014H.209z" style="fill:#fff;fill-rule:nonzero" transform="matrix(36.37334 0 0 36.37353 223.036 112.734)"/>
</svg>
