<!DOCTYPE svg PUBLIC "-//W3C//DTD SVG 1.1//EN" "http://www.w3.org/Graphics/SVG/1.1/DTD/svg11.dtd">
<svg xmlns="http://www.w3.org/2000/svg" xml:space="preserve" style="fill-rule:evenodd;clip-rule:evenodd;stroke-linejoin:round;stroke-miterlimit:2" viewBox="0 0 405 405">
  <defs>
    <path id="a" d="M.061 0v-.81h.34v.104H.209v.233H.36v.103H.209v.268h.194V0z"/>
    <path id="b" d="M.061 0v-.81h.191q.099 0 .154.027A.16.16 0 0 1 .485-.7a.4.4 0 0 1 .024.142v.296a.4.4 0 0 1-.024.147.16.16 0 0 1-.078.087A.3.3 0 0 1 .258 0zm.148-.103h.045q.05 0 .073-.018a.08.08 0 0 0 .027-.052l.005-.085v-.31a.3.3 0 0 0-.007-.079Q.345-.677.323-.691a.14.14 0 0 0-.071-.014H.209z"/>
    <path id="c" d="M.283.011a.25.25 0 0 1-.14-.033.17.17 0 0 1-.069-.094.5.5 0 0 1-.019-.146V-.81h.144v.565q0 .037.005.072.005.033.023.054.019.02.056.02.04 0 .056-.02a.1.1 0 0 0 .023-.054.4.4 0 0 0 .006-.072V-.81h.143v.548a.5.5 0 0 1-.019.146.17.17 0 0 1-.069.094.25.25 0 0 1-.14.033"/>
    <path id="d" d="M.065-.81h.146V0H.065z"/>
  </defs>
  <path d="M410.103 257.482h97.036v97.036h-97.036z" style="fill:#e01583" transform="matrix(-4.16666 0 0 4.16667 2113.082 -1072.841)"/>
  <path d="M0-11.193q-.252.137-1.462.571-.96.32-1.21.434v-2.627q.776-.297 1.884-.913 1.107-.618 1.565-1.12h2.764V3.655H0z" style="fill:#fff;fill-rule:nonzero" transform="matrix(4.16666 0 0 4.16667 35.232 97.033)"/>
  <path d="M0 16.172q-1.268-1.45-1.268-3.895V3.985Q-1.268 1.45-.034 0q1.233-1.451 3.723-1.451Q6.156-1.451 7.39 0q1.233 1.45 1.233 3.985v8.292q0 2.422-1.279 3.884-1.28 1.462-3.655 1.462-2.421 0-3.689-1.451m5.037-3.963V4.054q0-1.027-.263-1.713-.263-.685-1.085-.685-.868 0-1.119.673-.252.675-.251 1.725v8.155q0 2.307 1.37 2.307 1.348 0 1.348-2.307" style="fill:#fff;fill-rule:nonzero" transform="matrix(4.16666 0 0 4.16667 62.88 40.17)"/>
  <path d="M0-5.806c.11 0 .196.098.196.217v5.371C.196-.097.11 0 0 0h-17.871c-.107 0-.194-.097-.194-.218v-5.371c0-.119.087-.217.194-.217zm0-11.428c.11 0 .196.098.196.217v5.371c0 .121-.086.218-.196.218h-17.871c-.107 0-.194-.097-.194-.218v-5.371c0-.119.087-.217.194-.217zm-.251-8.118a.148.148 0 0 1-.105.253h-17.156a.148.148 0 0 1-.104-.253l8.577-8.578a.15.15 0 0 1 .21 0zM7.801.066a.148.148 0 0 1-.253-.105v-17.156c0-.132.16-.198.253-.104l8.578 8.577a.15.15 0 0 1 0 .21zm-25.418 8.053a.148.148 0 0 1 .105-.253H-.356c.132 0 .198.16.104.253l-8.578 8.578a.147.147 0 0 1-.209 0zM-25.67-17.3a.148.148 0 0 1 .253.105V-.039c0 .132-.16.198-.253.104l-8.578-8.578a.147.147 0 0 1 0-.209z" style="fill:#fff" transform="matrix(4.16666 0 0 4.16667 239.386 289.5)"/>
  <path d="M.061 0v-.81h.194a.4.4 0 0 1 .138.02.16.16 0 0 1 .086.066q.03.047.03.128A.4.4 0 0 1 .5-.508a.2.2 0 0 1-.031.067.14.14 0 0 1-.059.042L.523 0H.375L.277-.371H.209V0zm.148-.464h.046a.2.2 0 0 0 .068-.012.1.1 0 0 0 .037-.04.2.2 0 0 0 .011-.071.15.15 0 0 0-.023-.091Q.326-.709.263-.709H.209z" style="fill:#fff;fill-rule:nonzero" transform="matrix(36.37334 0 0 36.37353 127.145 64.58)"/>
  <use href="#a" style="fill:#fff;fill-rule:nonzero" transform="matrix(36.37334 0 0 36.37353 146.532 64.58)"/>
  <use href="#b" style="fill:#fff;fill-rule:nonzero" transform="matrix(36.37334 0 0 36.37353 161.081 64.58)"/>
  <use href="#c" style="fill:#fff;fill-rule:nonzero" transform="matrix(36.37334 0 0 36.37353 180.323 64.58)"/>
  <path d="M.279.011a.25.25 0 0 1-.14-.035.2.2 0 0 1-.07-.095.5.5 0 0 1-.02-.14v-.289q0-.083.02-.144a.17.17 0 0 1 .07-.094.26.26 0 0 1 .14-.033q.084 0 .131.029a.16.16 0 0 1 .068.081q.02.052.02.123v.068H.356v-.07A.4.4 0 0 0 .352-.65a.07.07 0 0 0-.019-.044Q.318-.711.28-.711t-.056.018a.1.1 0 0 0-.022.047.4.4 0 0 0-.005.066v.352a.3.3 0 0 0 .007.073.1.1 0 0 0 .025.043q.02.014.051.014.037 0 .052-.017a.1.1 0 0 0 .02-.047.4.4 0 0 0 .004-.065V-.3h.142v.065a.4.4 0 0 1-.019.128.17.17 0 0 1-.067.087.24.24 0 0 1-.133.031" style="fill:#fff;fill-rule:nonzero" transform="matrix(36.37334 0 0 36.37353 199.892 64.58)"/>
  <use href="#a" style="fill:#fff;fill-rule:nonzero" transform="matrix(36.37334 0 0 36.37353 218.514 64.58)"/>
  <use href="#b" style="fill:#fff;fill-rule:nonzero" transform="matrix(36.37334 0 0 36.37353 233.064 64.58)"/>
  <use href="#d" style="fill:#fff;fill-rule:nonzero" transform="matrix(36.37334 0 0 36.37353 127.145 112.729)"/>
  <path d="M.061 0v-.81h.103l.197.462V-.81h.122V0H.385L.187-.484V0z" style="fill:#fff;fill-rule:nonzero" transform="matrix(36.37334 0 0 36.37353 136.129 112.729)"/>
  <use href="#a" style="fill:#fff;fill-rule:nonzero" transform="matrix(36.37334 0 0 36.37353 154.934 112.729)"/>
  <path d="M.456.161A.3.3 0 0 1 .402.125.6.6 0 0 1 .299.01L.29.011H.281a.26.26 0 0 1-.137-.032.18.18 0 0 1-.073-.092.4.4 0 0 1-.022-.142v-.303q0-.082.022-.14a.18.18 0 0 1 .073-.09.26.26 0 0 1 .137-.031q.088 0 .139.031a.18.18 0 0 1 .073.09.4.4 0 0 1 .022.14v.304a.5.5 0 0 1-.011.105.2.2 0 0 1-.036.082.2.2 0 0 1-.066.053l.027.029.028.028a.1.1 0 0 0 .027.021zM.281-.098q.037 0 .055-.016A.1.1 0 0 0 .36-.158a.3.3 0 0 0 .006-.061v-.373A.3.3 0 0 0 .36-.653a.07.07 0 0 0-.024-.042Q.318-.711.281-.711q-.036 0-.054.016a.07.07 0 0 0-.024.042.4.4 0 0 0-.005.061v.373q0 .033.005.061a.1.1 0 0 0 .024.044q.018.016.054.016" style="fill:#fff;fill-rule:nonzero" transform="matrix(36.37334 0 0 36.37353 169.483 112.729)"/>
  <use href="#c" style="fill:#fff;fill-rule:nonzero" transform="matrix(36.37334 0 0 36.37353 188.98 112.729)"/>
  <path d="m.02 0 .162-.81H.34L.502 0H.365L.333-.187H.192L.159 0zm.187-.281h.11l-.055-.34z" style="fill:#fff;fill-rule:nonzero" transform="matrix(36.37334 0 0 36.37353 208.44 112.729)"/>
  <path d="M.061 0v-.81h.148v.708h.196V0z" style="fill:#fff;fill-rule:nonzero" transform="matrix(36.37334 0 0 36.37353 226.407 112.729)"/>
  <use href="#d" style="fill:#fff;fill-rule:nonzero" transform="matrix(36.37334 0 0 36.37353 240.702 112.729)"/>
  <path d="M.142 0v-.701H.013V-.81h.404v.109H.29V0z" style="fill:#fff;fill-rule:nonzero" transform="matrix(36.37334 0 0 36.37353 249.686 112.729)"/>
  <use href="#d" style="fill:#fff;fill-rule:nonzero" transform="matrix(36.37334 0 0 36.37353 264.309 112.729)"/>
  <use href="#a" style="fill:#fff;fill-rule:nonzero" transform="matrix(36.37334 0 0 36.37353 273.293 112.729)"/>
  <path d="M.265.011a.24.24 0 0 1-.122-.028.2.2 0 0 1-.074-.084.4.4 0 0 1-.028-.135l.127-.025a.4.4 0 0 0 .011.083.13.13 0 0 0 .029.056.07.07 0 0 0 .052.019q.036 0 .051-.021a.1.1 0 0 0 .015-.055.15.15 0 0 0-.024-.087.4.4 0 0 0-.064-.068l-.102-.09a.3.3 0 0 1-.069-.082.23.23 0 0 1-.025-.113q0-.096.056-.148a.2.2 0 0 1 .153-.052.2.2 0 0 1 .095.018.14.14 0 0 1 .06.048.2.2 0 0 1 .034.071.4.4 0 0 1 .014.083l-.126.022a.3.3 0 0 0-.009-.068.1.1 0 0 0-.023-.047.07.07 0 0 0-.048-.017q-.033 0-.051.022a.1.1 0 0 0-.017.053q0 .04.017.068a.3.3 0 0 0 .049.054l.101.089a.4.4 0 0 1 .085.099.25.25 0 0 1 .036.136.2.2 0 0 1-.026.103.2.2 0 0 1-.071.071.2.2 0 0 1-.106.025" style="fill:#fff;fill-rule:nonzero" transform="matrix(36.37334 0 0 36.37353 287.842 112.729)"/>
</svg>
