<svg xmlns="http://www.w3.org/2000/svg" xml:space="preserve" style="fill-rule:evenodd;clip-rule:evenodd;stroke-linejoin:round;stroke-miterlimit:2" viewBox="0 0 405 405">
  <path d="M0-28.576c7.89 0 14.286 6.396 14.286 14.287C14.286-6.395 7.89 0 0 0s-14.286-6.395-14.286-14.289c0-7.891 6.396-14.287 14.286-14.287m-1.058 5.644v4.905c0 .474.478.992 1.064.992.585 0 1.058-.518 1.058-.992v-4.905c0-.475-.473-.999-1.058-.999s-1.064.524-1.064.999M.002-6.968A7.43 7.43 0 0 0 2.198-21.5v2.764a4.86 4.86 0 0 1 2.669 4.337 4.864 4.864 0 1 1-9.729 0 4.86 4.86 0 0 1 2.656-4.33v-2.767A7.432 7.432 0 0 0 .002-6.968M-16.4-14.414c0 .65-.574 1.177-1.098 1.177h-6.256c-.528 0-1.107-.527-1.107-1.177 0-.648.579-1.172 1.107-1.172h6.256c.524 0 1.098.524 1.098 1.172m41.268 0c0 .65-.574 1.177-1.098 1.177h-6.256c-.528 0-1.107-.527-1.107-1.177 0-.648.579-1.172 1.107-1.172h6.256c.524 0 1.098.524 1.098 1.172M.006 10.452c-.649 0-1.178-.574-1.178-1.098V3.098c0-.527.529-1.107 1.178-1.107.647 0 1.172.58 1.172 1.107v6.256c0 .524-.525 1.098-1.172 1.098M21.585-2.063c-.323.564-1.083.737-1.537.476l-5.431-3.107c-.457-.262-.698-1.008-.375-1.571.321-.563 1.085-.731 1.543-.469l5.43 3.108c.454.26.691 1.001.37 1.563m-33.93 9.233c-.564-.322-.737-1.084-.477-1.538l3.108-5.43c.261-.457 1.008-.698 1.571-.376s.73 1.086.468 1.543l-3.108 5.43c-.26.455-1 .692-1.562.371M12.4 7.142c-.563.323-1.306.089-1.567-.365L7.715 1.354C7.45.896 7.619.131 8.182-.192c.562-.323 1.305-.083 1.569.374l3.119 5.424c.261.454.091 1.213-.47 1.536m-33.95-9.157c-.324-.563-.089-1.307.365-1.568l5.423-3.119c.457-.263 1.223-.094 1.546.469.324.562.083 1.305-.375 1.568l-5.423 3.119c-.455.261-1.214.092-1.536-.469m21.556-28.8c-.649 0-1.178-.574-1.178-1.097v-6.257c0-.528.529-1.107 1.178-1.107.647 0 1.172.579 1.172 1.107v6.257c0 .523-.525 1.097-1.172 1.097m-14.239 8.253c-.322.564-1.082.736-1.537.476l-5.43-3.107c-.458-.263-.699-1.008-.376-1.572.322-.562 1.085-.73 1.543-.467l5.43 3.107c.455.26.692 1.001.37 1.563m22.387-6.085c-.564-.322-.737-1.083-.477-1.538l3.108-5.43c.262-.457 1.008-.699 1.572-.376.561.322.729 1.085.467 1.544l-3.108 5.43c-.261.454-1 .691-1.562.37m-16.326.014c-.564.324-1.306.089-1.568-.365l-3.118-5.423c-.264-.458-.096-1.223.468-1.546.562-.323 1.304-.084 1.568.374l3.119 5.424c.262.454.092 1.213-.469 1.536m22.397 6.046c-.324-.562-.089-1.307.365-1.568l5.424-3.118c.458-.264 1.222-.094 1.546.468.323.562.082 1.305-.376 1.568l-5.423 3.119c-.455.261-1.213.092-1.536-.469" style="fill:#fbc412" transform="matrix(4.16666 0 0 4.16667 202.143 316.047)"/>
</svg>
