<!DOCTYPE svg PUBLIC "-//W3C//DTD SVG 1.1//EN" "http://www.w3.org/Graphics/SVG/1.1/DTD/svg11.dtd">
<svg xmlns="http://www.w3.org/2000/svg" xml:space="preserve" style="fill-rule:evenodd;clip-rule:evenodd;stroke-linejoin:round;stroke-miterlimit:2" viewBox="0 0 405 405">
  <defs>
    <path id="a" d="M.264.011a.2.2 0 0 1-.127-.034.2.2 0 0 1-.068-.096.5.5 0 0 1-.02-.148v-.272a.5.5 0 0 1 .02-.15.17.17 0 0 1 .07-.096.25.25 0 0 1 .14-.034q.082 0 .132.028a.16.16 0 0 1 .07.081.3.3 0 0 1 .022.127v.042H.362v-.046a.3.3 0 0 0-.006-.067.07.07 0 0 0-.022-.042Q.318-.711.281-.711q-.039 0-.057.019a.1.1 0 0 0-.022.05l-.004.068v.339q0 .042.007.073a.1.1 0 0 0 .026.048.08.08 0 0 0 .054.016q.036 0 .055-.018a.1.1 0 0 0 .026-.05.3.3 0 0 0 .008-.076v-.076H.287v-.093h.22V0H.412L.401-.08a.16.16 0 0 1-.049.066.14.14 0 0 1-.088.025"/>
    <path id="b" d="M.281.011a.26.26 0 0 1-.137-.032.18.18 0 0 1-.073-.092.4.4 0 0 1-.022-.142v-.303q0-.082.022-.14a.18.18 0 0 1 .073-.09.26.26 0 0 1 .137-.031q.088 0 .138.031a.18.18 0 0 1 .073.09.4.4 0 0 1 .023.14v.304a.4.4 0 0 1-.023.141.2.2 0 0 1-.073.092.26.26 0 0 1-.138.032m0-.109q.037 0 .054-.016a.1.1 0 0 0 .024-.044.3.3 0 0 0 .006-.061v-.373a.3.3 0 0 0-.006-.061.07.07 0 0 0-.024-.042Q.318-.711.281-.711q-.035 0-.053.016a.07.07 0 0 0-.024.042.3.3 0 0 0-.006.061v.373q0 .033.005.061a.1.1 0 0 0 .024.044q.018.016.054.016"/>
    <path id="c" d="M.061 0v-.81h.191q.099 0 .154.027A.16.16 0 0 1 .485-.7a.4.4 0 0 1 .024.142v.296a.4.4 0 0 1-.024.147.16.16 0 0 1-.078.087A.3.3 0 0 1 .258 0zm.148-.103h.045q.05 0 .073-.018a.08.08 0 0 0 .027-.052l.005-.085v-.31a.3.3 0 0 0-.007-.079Q.345-.677.323-.691a.14.14 0 0 0-.071-.014H.209z"/>
    <path id="d" d="M.063 0v-.81H.21v.339h.166V-.81h.147V0H.376v-.366H.21V0z"/>
    <path id="e" d="M.061 0v-.81h.34v.104H.209v.233H.36v.103H.209v.268h.194V0z"/>
    <path id="f" d="m.02 0 .162-.81H.34L.502 0H.365L.333-.187H.192L.159 0zm.187-.281h.11l-.055-.34z"/>
    <path id="g" d="M.061 0v-.81h.148v.708h.196V0z"/>
    <path id="h" d="M.061 0v-.81h.103l.197.462V-.81h.122V0H.385L.187-.484V0z"/>
  </defs>
  <path d="M301.361 366.224h97.036v97.036h-97.036z" style="fill:#2c9b48" transform="matrix(-4.16666 0 0 4.16667 1659.995 -1525.933)"/>
  <path d="M0 16.15q-1.164-1.462-1.165-4.134v-.64h3.518v.617q.023 1.416.342 2.033.32.616 1.165.616.846 0 1.131-.628t.286-2.044q0-1.485-.434-2.204-.435-.72-1.599-.743Q3.175 9 2.604 9V6.419h.571q1.188 0 1.645-.639.457-.64.457-2.102 0-1.188-.331-1.759-.332-.57-1.177-.571-.8 0-1.096.617t-.32 1.827v.822h-3.518V3.609q0-2.42 1.291-3.746 1.29-1.325 3.643-1.325 2.399 0 3.701 1.279 1.302 1.28 1.302 3.678 0 1.6-.663 2.684-.663 1.086-1.69 1.359 2.353.868 2.353 4.363 0 2.673-1.188 4.192t-3.769 1.519q-2.65 0-3.815-1.462" style="fill:#fff;fill-rule:nonzero" transform="matrix(4.16666 0 0 4.16667 36.897 40.21)"/>
  <path d="M0-5.388a5.03 5.03 0 0 1-1.415 3.514l.005.005-6.824 6.838-6.833-6.846a5.02 5.02 0 0 1-1.414-3.512c0-2.744 1.868-4.968 4.534-4.968 1.333 0 2.834 1.461 3.707 2.36.874-.898 2.482-2.358 3.814-2.358C-1.76-10.355 0-8.131 0-5.388m-29.092 21.533-.07-.002a1.12 1.12 0 0 1-1.036-.93l-3.471-20.215-5.258 9.748a1.123 1.123 0 0 1-2.098-.373l-2.232-15.601-4.084 9.172c-.18.405-.582.666-1.025.666h-15.872a1.122 1.122 0 0 1 0-2.244h15.143l5.372-12.065a1.121 1.121 0 0 1 2.136.297L-39.286.685l5.185-9.614a1.122 1.122 0 0 1 2.094.343l3.214 18.722 11.715-38.914a1.121 1.121 0 0 1 2.085-.164l6.164 12.779a1.122 1.122 0 0 1-2.021.975l-4.911-10.181-12.257 40.715a1.12 1.12 0 0 1-1.074.799" style="fill:#fff" transform="matrix(4.16666 0 0 4.16667 338.329 275.366)"/>
  <use href="#a" style="fill:#fff;fill-rule:nonzero" transform="matrix(36.37334 0 0 36.37353 104.132 64.587)"/>
  <use href="#b" style="fill:#fff;fill-rule:nonzero" transform="matrix(36.37334 0 0 36.37353 124.418 64.587)"/>
  <use href="#b" style="fill:#fff;fill-rule:nonzero" transform="matrix(36.37334 0 0 36.37353 144.849 64.587)"/>
  <use href="#c" style="fill:#fff;fill-rule:nonzero" transform="matrix(36.37334 0 0 36.37353 165.28 64.587)"/>
  <use href="#d" style="fill:#fff;fill-rule:nonzero" transform="matrix(36.37334 0 0 36.37353 194.283 64.587)"/>
  <use href="#e" style="fill:#fff;fill-rule:nonzero" transform="matrix(36.37334 0 0 36.37353 215.551 64.587)"/>
  <use href="#f" style="fill:#fff;fill-rule:nonzero" transform="matrix(36.37334 0 0 36.37353 231.072 64.587)"/>
  <use href="#g" style="fill:#fff;fill-rule:nonzero" transform="matrix(36.37334 0 0 36.37353 250.01 64.587)"/>
  <path d="M.142 0v-.701H.013V-.81h.404v.109H.29V0z" style="fill:#fff;fill-rule:nonzero" transform="matrix(36.37334 0 0 36.37353 262.44 64.587)"/>
  <use href="#d" style="fill:#fff;fill-rule:nonzero" transform="matrix(36.37334 0 0 36.37353 278.033 64.587)"/>
  <use href="#f" style="fill:#fff;fill-rule:nonzero" transform="matrix(36.37334 0 0 36.37353 104.132 112.736)"/>
  <use href="#h" style="fill:#fff;fill-rule:nonzero" transform="matrix(36.37334 0 0 36.37353 123.071 112.736)"/>
  <use href="#c" style="fill:#fff;fill-rule:nonzero" transform="matrix(36.37334 0 0 36.37353 142.848 112.736)"/>
  <path d="M.146 0 .031-.81h.124l.067.525.084-.523h.101l.086.523.066-.525h.122L.568 0h-.12l-.09-.543L.269 0z" style="fill:#fff;fill-rule:nonzero" transform="matrix(36.37334 0 0 36.37353 171.852 112.736)"/>
  <use href="#e" style="fill:#fff;fill-rule:nonzero" transform="matrix(36.37334 0 0 36.37353 197.702 112.736)"/>
  <use href="#g" style="fill:#fff;fill-rule:nonzero" transform="matrix(36.37334 0 0 36.37353 213.223 112.736)"/>
  <use href="#g" style="fill:#fff;fill-rule:nonzero" transform="matrix(36.37334 0 0 36.37353 228.49 112.736)"/>
  <path d="M.036-.339h.242v.093H.036z" style="fill:#fff;fill-rule:nonzero" transform="matrix(36.37334 0 0 36.37353 243.136 112.736)"/>
  <path d="M.061 0v-.81H.26q.054 0 .097.01a.2.2 0 0 1 .075.034.14.14 0 0 1 .049.063q.017.04.017.101a.2.2 0 0 1-.014.084.14.14 0 0 1-.039.056.2.2 0 0 1-.065.027.16.16 0 0 1 .079.034.15.15 0 0 1 .047.066q.016.04.016.099a.3.3 0 0 1-.015.103.2.2 0 0 1-.043.074.2.2 0 0 1-.071.044A.3.3 0 0 1 .294 0zm.148-.104h.056q.067 0 .091-.032A.17.17 0 0 0 .38-.237a.2.2 0 0 0-.012-.079.08.08 0 0 0-.038-.046.14.14 0 0 0-.07-.015H.209zm0-.375h.05a.14.14 0 0 0 .068-.013.07.07 0 0 0 .033-.04A.2.2 0 0 0 .37-.6a.12.12 0 0 0-.015-.066.07.07 0 0 0-.043-.032.3.3 0 0 0-.074-.009H.209z" style="fill:#fff;fill-rule:nonzero" transform="matrix(36.37334 0 0 36.37353 254.51 112.736)"/>
  <use href="#e" style="fill:#fff;fill-rule:nonzero" transform="matrix(36.37334 0 0 36.37353 274.723 112.736)"/>
  <path d="M.065-.81h.146V0H.065z" style="fill:#fff;fill-rule:nonzero" transform="matrix(36.37334 0 0 36.37353 290.243 112.736)"/>
  <use href="#h" style="fill:#fff;fill-rule:nonzero" transform="matrix(36.37334 0 0 36.37353 300.199 112.736)"/>
  <use href="#a" style="fill:#fff;fill-rule:nonzero" transform="matrix(36.37334 0 0 36.37353 319.975 112.736)"/>
</svg>
