<!DOCTYPE svg PUBLIC "-//W3C//DTD SVG 1.1//EN" "http://www.w3.org/Graphics/SVG/1.1/DTD/svg11.dtd">
<svg xmlns="http://www.w3.org/2000/svg" xml:space="preserve" style="fill-rule:evenodd;clip-rule:evenodd;stroke-linejoin:round;stroke-miterlimit:2" viewBox="0 0 405 405">
  <defs>
    <path id="a" d="M.061 0v-.81h.238q.073 0 .118.027a.15.15 0 0 1 .067.079.3.3 0 0 1 .022.124.26.26 0 0 1-.027.128.16.16 0 0 1-.076.07.3.3 0 0 1-.114.022h-.08V0zm.148-.464h.056a.2.2 0 0 0 .062-.011.06.06 0 0 0 .031-.037.2.2 0 0 0 .009-.069.3.3 0 0 0-.007-.071.06.06 0 0 0-.028-.041Q.312-.706.265-.706H.209z"/>
    <path id="b" d="m.02 0 .162-.81H.34L.502 0H.365L.333-.187H.192L.159 0zm.187-.281h.11l-.055-.34z"/>
    <path id="c" d="M.061 0v-.81h.194a.4.4 0 0 1 .138.02.16.16 0 0 1 .086.066q.03.047.03.128A.4.4 0 0 1 .5-.508a.2.2 0 0 1-.031.067.14.14 0 0 1-.059.042L.523 0H.375L.277-.371H.209V0zm.148-.464h.046a.2.2 0 0 0 .068-.012.1.1 0 0 0 .037-.04.2.2 0 0 0 .011-.071.15.15 0 0 0-.023-.091Q.326-.709.263-.709H.209z"/>
    <path id="d" d="M.142 0v-.701H.013V-.81h.404v.109H.29V0z"/>
    <path id="e" d="M.061 0v-.81h.34v.104H.209v.233H.36v.103H.209v.268h.194V0z"/>
    <path id="f" d="M.265.011a.24.24 0 0 1-.122-.028.2.2 0 0 1-.074-.084.4.4 0 0 1-.028-.135l.127-.025a.4.4 0 0 0 .011.083.13.13 0 0 0 .029.056.07.07 0 0 0 .052.019q.036 0 .051-.021a.1.1 0 0 0 .015-.055.15.15 0 0 0-.024-.087.4.4 0 0 0-.064-.068l-.102-.09a.3.3 0 0 1-.069-.082.23.23 0 0 1-.025-.113q0-.096.056-.148a.2.2 0 0 1 .153-.052.2.2 0 0 1 .095.018.14.14 0 0 1 .06.048.2.2 0 0 1 .034.071.4.4 0 0 1 .014.083l-.126.022a.3.3 0 0 0-.009-.068.1.1 0 0 0-.023-.047.07.07 0 0 0-.048-.017q-.033 0-.051.022a.1.1 0 0 0-.017.053q0 .04.017.068a.3.3 0 0 0 .049.054l.101.089a.4.4 0 0 1 .085.099.25.25 0 0 1 .036.136.2.2 0 0 1-.026.103.2.2 0 0 1-.071.071.2.2 0 0 1-.106.025"/>
    <path id="g" d="M.063 0v-.81H.21v.339h.166V-.81h.147V0H.376v-.366H.21V0z"/>
    <path id="h" d="M.281.011a.26.26 0 0 1-.137-.032.18.18 0 0 1-.073-.092.4.4 0 0 1-.022-.142v-.303q0-.082.022-.14a.18.18 0 0 1 .073-.09.26.26 0 0 1 .137-.031q.088 0 .138.031a.18.18 0 0 1 .073.09.4.4 0 0 1 .023.14v.304a.4.4 0 0 1-.023.141.2.2 0 0 1-.073.092.26.26 0 0 1-.138.032m0-.109q.037 0 .054-.016a.1.1 0 0 0 .024-.044.3.3 0 0 0 .006-.061v-.373a.3.3 0 0 0-.006-.061.07.07 0 0 0-.024-.042Q.318-.711.281-.711q-.035 0-.053.016a.07.07 0 0 0-.024.042.3.3 0 0 0-.006.061v.373q0 .033.005.061a.1.1 0 0 0 .024.044q.018.016.054.016"/>
  </defs>
  <path d="M518.845 148.74h97.036v97.036h-97.036z" style="fill:#193667" transform="matrix(-4.16666 0 0 4.16667 2566.17 -619.746)"/>
  <path d="M0-11.193q-.252.137-1.462.571-.96.32-1.21.434v-2.627q.776-.297 1.884-.913 1.107-.618 1.565-1.12h2.764V3.655H0z" style="fill:#fff;fill-rule:nonzero" transform="matrix(4.16666 0 0 4.16667 35.231 97.04)"/>
  <path d="M0-13.112h-5.026v-2.695h8.475v2.307L-.457 2.695h-3.426z" style="fill:#fff;fill-rule:nonzero" transform="matrix(4.16666 0 0 4.16667 79.682 101.036)"/>
  <path d="M0-5.071c0-6.846-5.446-12.439-12.23-12.687-1.745-4.928-6.452-8.469-11.971-8.469-5.518 0-10.224 3.541-11.971 8.469-6.784.248-12.228 5.842-12.228 12.687 0 4.062 1.92 7.683 4.899 10.009a12.7 12.7 0 0 0-.501 3.524c0 6.998 5.695 12.694 12.697 12.694 2.657 0 5.124-.822 7.166-2.223a12.6 12.6 0 0 0 7.044 2.139c7 0 12.696-5.696 12.696-12.695 0-1.198-.17-2.356-.481-3.454C-1.913 2.596 0-1.018 0-5.071m-14.06-8.459c0 5.082-3.762 9.29-8.645 10.017a10 10 0 0 1-.132-1.558c0-5.083 3.761-9.292 8.644-10.018.079.509.133 1.027.133 1.559m-10.094 29.17a10.11 10.11 0 0 1-.093-14.444 10.1 10.1 0 0 1 3.082 7.266 10.1 10.1 0 0 1-2.989 7.178m-10.054-30.729c4.883.726 8.645 4.935 8.645 10.018 0 .53-.054 1.049-.133 1.558-4.883-.727-8.645-4.935-8.645-10.017 0-.532.054-1.05.133-1.559m7.56 14.553c-1.668 3.318-5.096 5.605-9.056 5.605-1.679 0-3.262-.418-4.658-1.144 1.668-3.317 5.097-5.604 9.057-5.604 1.68 0 3.261.417 4.657 1.143m4.862-.068a10.06 10.06 0 0 1 4.691-1.159c3.986 0 7.433 2.319 9.09 5.672a10.1 10.1 0 0 1-4.691 1.16c-3.988 0-7.435-2.319-9.09-5.673m-2.415-23.066c4.155 0 7.729 2.513 9.295 6.097-4.125.728-7.568 3.45-9.295 7.135-1.725-3.685-5.169-6.408-9.294-7.135 1.565-3.584 5.14-6.097 9.294-6.097M-45.844-5.071c0-5.225 3.971-9.537 9.053-10.082a12.67 12.67 0 0 0 4.042 11.002c-4.212.48-7.804 3.025-9.735 6.598-2.057-1.857-3.36-4.535-3.36-7.518m4.399 13.533q.002-1.083.221-2.101a12.6 12.6 0 0 0 5.52 1.264c2.224 0 4.312-.576 6.131-1.583a12.65 12.65 0 0 0 3.369 11.166 10.06 10.06 0 0 1-5.101 1.392c-5.592 0-10.14-4.549-10.14-10.138m34.49-.085c0 5.59-4.549 10.139-10.14 10.139a10.06 10.06 0 0 1-5-1.33 12.65 12.65 0 0 0 3.25-11.154 12.6 12.6 0 0 0 6.149 1.593c1.983 0 3.863-.458 5.536-1.274q.204.985.205 2.026m-8.619-12.602a12.66 12.66 0 0 0 3.964-10.928c5.081.545 9.054 4.857 9.054 10.082 0 2.968-1.29 5.635-3.332 7.491-1.911-3.58-5.486-6.141-9.686-6.645" style="fill:#fff;fill-rule:nonzero" transform="matrix(4.16666 0 0 4.16667 302.99 266.544)"/>
  <use href="#a" style="fill:#fff;fill-rule:nonzero" transform="matrix(36.37334 0 0 36.37353 126.992 64.585)"/>
  <use href="#b" style="fill:#fff;fill-rule:nonzero" transform="matrix(36.37334 0 0 36.37353 143.657 64.585)"/>
  <use href="#c" style="fill:#fff;fill-rule:nonzero" transform="matrix(36.37334 0 0 36.37353 161.779 64.585)"/>
  <use href="#d" style="fill:#fff;fill-rule:nonzero" transform="matrix(36.37334 0 0 36.37353 180.81 64.585)"/>
  <path d="M.061 0v-.81h.103l.197.462V-.81h.122V0H.385L.187-.484V0z" style="fill:#fff;fill-rule:nonzero" transform="matrix(36.37334 0 0 36.37353 195.584 64.585)"/>
  <use href="#e" style="fill:#fff;fill-rule:nonzero" transform="matrix(36.37334 0 0 36.37353 214.542 64.585)"/>
  <use href="#c" style="fill:#fff;fill-rule:nonzero" transform="matrix(36.37334 0 0 36.37353 229.244 64.585)"/>
  <use href="#f" style="fill:#fff;fill-rule:nonzero" transform="matrix(36.37334 0 0 36.37353 248.711 64.585)"/>
  <use href="#g" style="fill:#fff;fill-rule:nonzero" transform="matrix(36.37334 0 0 36.37353 265.814 64.585)"/>
  <path d="M.065-.81h.146V0H.065z" style="fill:#fff;fill-rule:nonzero" transform="matrix(36.37334 0 0 36.37353 286.263 64.585)"/>
  <use href="#a" style="fill:#fff;fill-rule:nonzero" transform="matrix(36.37334 0 0 36.37353 295.4 64.585)"/>
  <use href="#f" style="fill:#fff;fill-rule:nonzero" transform="matrix(36.37334 0 0 36.37353 313.594 64.585)"/>
  <path d="M.061 0v-.81h.333v.102H.209v.236H.36v.103H.209V0z" style="fill:#fff;fill-rule:nonzero" transform="matrix(36.37334 0 0 36.37353 126.992 112.734)"/>
  <use href="#h" style="fill:#fff;fill-rule:nonzero" transform="matrix(36.37334 0 0 36.37353 140.867 112.734)"/>
  <use href="#c" style="fill:#fff;fill-rule:nonzero" transform="matrix(36.37334 0 0 36.37353 160.2 112.734)"/>
  <use href="#d" style="fill:#fff;fill-rule:nonzero" transform="matrix(36.37334 0 0 36.37353 187.152 112.734)"/>
  <use href="#g" style="fill:#fff;fill-rule:nonzero" transform="matrix(36.37334 0 0 36.37353 201.648 112.734)"/>
  <use href="#e" style="fill:#fff;fill-rule:nonzero" transform="matrix(36.37334 0 0 36.37353 221.816 112.734)"/>
  <path d="M.264.011a.2.2 0 0 1-.127-.034.2.2 0 0 1-.068-.096.5.5 0 0 1-.02-.148v-.272a.5.5 0 0 1 .02-.15.17.17 0 0 1 .07-.096.25.25 0 0 1 .14-.034q.082 0 .132.028a.16.16 0 0 1 .07.081.3.3 0 0 1 .022.127v.042H.362v-.046a.3.3 0 0 0-.006-.067.07.07 0 0 0-.022-.042Q.318-.711.281-.711q-.039 0-.057.019a.1.1 0 0 0-.022.05l-.004.068v.339q0 .042.007.073a.1.1 0 0 0 .026.048.08.08 0 0 0 .054.016q.036 0 .055-.018a.1.1 0 0 0 .026-.05.3.3 0 0 0 .008-.076v-.076H.287v-.093h.22V0H.412L.401-.08a.16.16 0 0 1-.049.066.14.14 0 0 1-.088.025" style="fill:#fff;fill-rule:nonzero" transform="matrix(36.37334 0 0 36.37353 243.931 112.734)"/>
  <use href="#h" style="fill:#fff;fill-rule:nonzero" transform="matrix(36.37334 0 0 36.37353 263.118 112.734)"/>
  <use href="#b" style="fill:#fff;fill-rule:nonzero" transform="matrix(36.37334 0 0 36.37353 282.27 112.734)"/>
  <path d="M.061 0v-.81h.148v.708h.196V0z" style="fill:#fff;fill-rule:nonzero" transform="matrix(36.37334 0 0 36.37353 300.11 112.734)"/>
  <use href="#f" style="fill:#fff;fill-rule:nonzero" transform="matrix(36.37334 0 0 36.37353 314.169 112.734)"/>
</svg>
