<svg xmlns="http://www.w3.org/2000/svg" xml:space="preserve" style="fill-rule:evenodd;clip-rule:evenodd;stroke-linejoin:round;stroke-miterlimit:2" viewBox="0 0 405 405">
  <path d="M-.096-51.885c.086 0 .157.069.157.155v12.116a.156.156 0 0 1-.157.154h-4.025a.156.156 0 0 1-.156-.154v-4.506l-5.281 5.281a15.77 15.77 0 0 1 2.899 9.127c0 7.873-5.764 14.421-13.293 15.656v4.715h4.778c.085 0 .154.068.154.153v4.315a.153.153 0 0 1-.154.154h-4.778v4.566a.155.155 0 0 1-.156.153h-4.313a.153.153 0 0 1-.154-.153v-4.566h-4.779a.153.153 0 0 1-.156-.154v-4.315c0-.085.067-.153.156-.153h4.779v-4.639c-7.785-1.009-13.821-7.676-13.821-15.732 0-8.75 7.12-15.868 15.869-15.868a15.78 15.78 0 0 1 9.783 3.388l5.357-5.357h-4.824a.156.156 0 0 1-.154-.155v-4.026c0-.086.071-.155.154-.155zm-22.431 33.853c6.441 0 11.68-5.24 11.68-11.68s-5.239-11.68-11.68-11.68-11.679 5.24-11.679 11.68 5.238 11.68 11.679 11.68m7.135-10.35c.088 0 .157.065.157.143v3.43c0 .077-.069.138-.157.138h-14.167c-.085 0-.154-.061-.154-.138v-3.43c0-.078.069-.143.154-.143zm0-6.124c.088 0 .157.063.157.138v3.43c0 .08-.069.14-.157.14h-14.167c-.085 0-.154-.06-.154-.14v-3.43c0-.075.069-.138.154-.138z" style="fill:#ee402d" transform="matrix(4.16666 0 0 4.16667 294.92 368.942)"/>
</svg>
