<?xml version="1.0" encoding="UTF-8" standalone="no"?>
<svg width="1292" height="204" version="1.1" id="svg98" xmlns="http://www.w3.org/2000/svg">
  <defs id="defs102" />
  <path
     d="M 32.366397,168.21616 H 28.12988 c -1.293718,0 -1.939033,-0.64737 -1.935427,-1.94212 v -2.86915 a 4.720116,4.720116 0 0 0 -1.291917,-3.37412 c -0.785656,-0.88738 -1.904269,-1.4078 -3.088547,-1.43715 h -9.322551 c -1.180415,-0.0242 -2.311131,0.47561 -3.0885472,1.36504 a 4.6377136,4.6377136 0 0 0 -1.3640182,3.44623 v 28.64593 a 4.7252662,4.7252662 0 0 0 1.3176668,3.37927 c 0.7869436,0.8848 1.9052996,1.40342 3.0885476,1.432 h 9.399546 a 3.9372926,3.9372926 0 0 0 3.011295,-1.3599 4.6737646,4.6737646 0 0 0 1.364018,-3.45137 v -2.94125 c 0,-1.22085 0.643511,-1.87003 1.935428,-1.87003 h 4.164414 c 1.291916,0 1.935428,0.64918 1.935428,1.87003 v 2.94125 c 0.08086,3.23429 -1.231659,6.34705 -3.603305,8.54591 -2.381946,2.24392 -5.552639,3.45652 -8.822986,3.37412 h -9.383838 c -3.2466573,0.07 -6.3905687,-1.14205 -8.7508842,-3.37412 -2.42495,-2.1677 -3.77480532,-5.29307 -3.69085781,-8.54591 v -28.64593 c -0.0800849,-3.23404 1.23243181,-6.34679 3.60330511,-8.54591 2.4192848,-2.23388 5.6092901,-3.44313 8.9002389,-3.37412 h 9.327443 c 3.270348,-0.0824 6.44104,1.1302 8.822986,3.37412 2.41259,2.1744 3.750342,5.29822 3.659957,8.54591 v 2.94125 c -0.01545,1.22085 -0.658962,1.87002 -1.950878,1.87002 z m 12.621997,-6.22267 h -4.231366 c -1.291917,0 -1.940578,-0.64918 -1.940578,-1.86487 v -3.37902 c 0,-1.22084 0.648661,-1.86487 1.940578,-1.86487 h 4.231366 c 1.291916,0 1.940578,0.64403 1.940578,1.86487 v 3.36383 c 0.0052,1.23114 -0.648662,1.88032 -1.940578,1.88032 v 0 z m 0,41.97736 h -4.231366 c -1.291917,0 -1.940578,-0.64403 -1.940578,-1.86487 v -33.75076 c 0,-1.22085 0.648661,-1.87002 1.940578,-1.87002 h 4.231366 c 1.291916,0 1.940578,0.64917 1.940578,1.87002 v 33.74561 c 0.0052,1.22599 -0.648662,1.87002 -1.940578,1.87002 z m 26.685007,-1.5041 a 1.9570585,1.9570585 0 0 1 -2.059031,1.5041 h -5.255732 c -0.984967,0.0803 -1.888047,-0.55107 -2.151735,-1.5041 L 51.396988,168.57152 c -0.06773,-0.16274 -0.09244,-0.34016 -0.0721,-0.51501 0,-1.07664 0.571409,-1.65346 1.791481,-1.65346 h 4.02021 a 1.9673588,1.9673588 0 0 1 2.059031,1.50925 l 7.75227,24.21088 7.721368,-24.21088 c 0.275276,-0.94531 1.1696,-1.57285 2.151734,-1.50925 h 3.948108 c 1.220072,0 1.791481,0.57682 1.791481,1.65346 0.02034,0.1751 -0.0044,0.35253 -0.0721,0.51501 l -10.815066,33.89497 z m 21.33168,-40.47326 h -4.231366 c -1.291916,0 -1.940578,-0.64918 -1.940578,-1.86487 v -3.37902 c 0,-1.22084 0.648662,-1.86487 1.940578,-1.86487 h 4.231366 c 1.291916,0 1.935428,0.64403 1.935428,1.86487 v 3.36383 c 0,1.23114 -0.648662,1.88032 -1.935428,1.88032 v 0 z m 0,41.97736 h -4.231366 c -1.291916,0 -1.940578,-0.64403 -1.940578,-1.86487 v -33.75076 c 0,-1.22085 0.648662,-1.87002 1.940578,-1.87002 h 4.231366 c 1.291916,0 1.935428,0.64917 1.935428,1.87002 v 33.74561 c 0,1.22599 -0.648662,1.87002 -1.935428,1.87002 z m 31.369069,-30.01123 c -0.42488,0.49389 -1.09852,0.69501 -1.72453,0.51501 -2.50683,-0.64403 -5.95563,-1.03029 -10.187,-1.03029 a 3.9424428,3.9424428 0 0 0 -3.01129,1.36505 4.586212,4.586212 0 0 0 -1.36402,3.37412 v 14.07306 a 4.6377136,4.6377136 0 0 0 1.29191,3.30202 4.0351456,4.0351456 0 0 0 3.08855,1.43715 c 4.23137,0 7.60806,-0.36051 10.12005,-1.00454 0.60824,-0.20832 1.28188,-0.0389 1.71938,0.43261 0.37468,0.36103 0.60514,0.84643 0.64866,1.36505 v 2.94125 c 0,2.15328 -4.16261,3.22992 -12.48809,3.22992 -3.51575,0 -6.45495,-1.07664 -8.82299,-3.30202 -2.39688,-2.12469 -3.735918,-5.19831 -3.659953,-8.4017 v -14.06275 c -0.06412,-3.16838 1.250973,-6.208 3.603303,-8.3296 2.41697,-2.23414 5.60543,-3.4434 8.89509,-3.37413 8.32548,0 12.48809,1.07664 12.48809,3.22992 v 2.9464 c -0.0417,0.48772 -0.25313,0.94506 -0.59716,1.29295 v 0 z m 46.32821,28.36266 c 0,1.07664 -0.57141,1.64831 -1.79148,1.64831 h -4.38072 c -0.98497,0.0803 -1.88805,-0.55106 -2.15173,-1.5041 l -4.01506,-12.78526 h -16.45166 l -4.02021,12.78526 a 1.9622086,1.9622086 0 0 1 -2.05903,1.5041 h -4.37505 c -1.22007,0 -1.79663,-0.57167 -1.79663,-1.64831 -0.0185,-0.1751 0.006,-0.35201 0.0721,-0.51501 l 15.35518,-48.82346 c 0.26163,-0.9551 1.16522,-1.58908 2.15174,-1.50925 h 5.88379 c 0.98651,-0.0798 1.89011,0.55415 2.15173,1.50925 l 15.26764,48.85436 c 0.0832,0.14858 0.13055,0.31416 0.13905,0.48411 h 0.0206 z m -20.51821,-38.84529 -5.96079,19.09548 h 11.89093 z m 46.67816,10.48263 c -0.42489,0.49389 -1.09853,0.69501 -1.72453,0.51501 -2.50683,-0.64403 -5.95049,-1.03029 -10.187,-1.03029 a 3.9630434,3.9630434 0 0 0 -3.01645,1.36505 4.6377136,4.6377136 0 0 0 -1.35886,3.37412 v 14.07306 a 4.6737646,4.6737646 0 0 0 1.29191,3.30202 4.0351456,4.0351456 0 0 0 3.08855,1.43715 c 4.23651,0 7.60291,-0.36051 10.1149,-1.00454 0.60978,-0.20781 1.28471,-0.0386 1.72453,0.43261 0.37364,0.36129 0.60231,0.84669 0.64351,1.36505 v 2.94125 c 0,2.15328 -4.16107,3.22992 -12.48294,3.22992 -3.51575,0 -6.4601,-1.07664 -8.82299,-3.30202 -2.39688,-2.12469 -3.73592,-5.19831 -3.65995,-8.4017 v -14.06275 c -0.0621,-3.16786 1.25251,-6.20697 3.6033,-8.3296 2.41929,-2.23388 5.60903,-3.44314 8.90024,-3.37413 8.32548,0 12.48629,1.07664 12.48294,3.22992 v 2.9464 c -0.0446,0.49107 -0.26394,0.94995 -0.61776,1.29295 h 0.0206 z m 21.16688,29.79982 -3.01645,0.21115 c -3.51575,0.21631 -6.45494,-0.78823 -8.89509,-3.15782 -2.39276,-2.24649 -3.72253,-5.40225 -3.65995,-8.68496 v -33.17368 c 0,-1.03029 0.85956,-1.72556 2.51198,-2.08633 l 3.44365,-0.42746 c 0.54026,-0.10249 1.0975,0.0559 1.50308,0.42746 0.3981,0.37416 0.63141,0.89098 0.64866,1.43715 v 8.3296 h 7.37141 c 1.28703,0 1.93543,0.64918 1.93543,1.86487 v 3.30717 c 0,1.22085 -0.64866,1.86487 -1.93543,1.86487 h -7.39201 v 18.45687 a 4.7407166,4.7407166 0 0 0 1.29191,3.37412 4.050596,4.050596 0 0 0 3.08855,1.432 h 3.01645 c 1.28702,0 1.93542,0.64918 1.93542,1.87002 v 3.09061 c 0.0154,1.14359 -0.65381,1.79251 -1.86847,1.86487 h 0.0206 z m 13.0183,-41.76621 h -4.88003 c -1.29192,0 -1.94058,-0.64917 -1.94058,-1.86487 v -3.37876 c 0,-1.22084 0.64866,-1.86487 1.94058,-1.86487 h 4.88003 c 1.29191,0 1.94058,0.64403 1.94058,1.86487 v 3.36383 c -0.0206,1.23114 -0.66927,1.88032 -1.96118,1.88032 h 0.0206 z m 0,41.97736 h -4.23137 c -1.29191,0 -1.94058,-0.64403 -1.94058,-1.86487 v -33.7505 c 0,-1.22085 0.64867,-1.87002 1.94058,-1.87002 h 4.23137 c 1.29191,0 1.94058,0.64917 1.94058,1.87002 v 33.74561 c -0.0206,1.22599 -0.66927,1.87002 -1.96118,1.87002 h 0.0206 z m 33.90192,-3.30202 c -2.42701,2.21328 -5.61805,3.3973 -8.90024,3.30202 h -5.66234 c -3.23739,0.0945 -6.38181,-1.09183 -8.75088,-3.30202 -2.39843,-2.12341 -3.73798,-5.19805 -3.65996,-8.4017 v -14.07306 c -0.0662,-3.16863 1.24917,-6.20928 3.60331,-8.3296 2.41696,-2.23413 5.60542,-3.44339 8.89508,-3.37412 h 5.55419 c 3.51575,0 6.46009,1.07664 8.82813,3.30202 2.39611,2.12495 3.73515,5.19857 3.65996,8.4017 v 14.07306 c 0.0693,3.18691 -1.23835,6.24894 -3.58785,8.4017 z m -4.51952,-22.47476 a 4.6737646,4.6737646 0 0 0 -1.29192,-3.30202 c -0.78849,-0.88325 -1.90555,-1.4029 -3.08855,-1.43715 h -5.61598 c -1.18093,-0.0255 -2.31216,0.47433 -3.08855,1.36505 a 4.8231191,4.8231191 0 0 0 -1.29191,3.37412 l -0.0721,14.07306 a 4.6737646,4.6737646 0 0 0 1.29192,3.30202 4.3029536,4.3029536 0 0 0 3.1555,1.43715 h 5.60053 a 3.9733437,3.9733437 0 0 0 3.01645,-1.3599 4.6377136,4.6377136 0 0 0 1.36402,-3.37927 z m 41.41754,25.75618 h -4.22622 c -1.29192,0 -1.94058,-0.64403 -1.94058,-1.86487 v -23.89131 a 4.6737646,4.6737646 0 0 0 -1.29191,-3.30202 c -0.78695,-0.88531 -1.90479,-1.40547 -3.08855,-1.43715 h -5.61599 c -1.18015,-0.0227 -2.31036,0.47665 -3.08854,1.36505 a 4.6016625,4.6016625 0 0 0 -1.35887,3.37412 l 0.067,23.91191 c 0,1.22084 -0.64351,1.86487 -2.00753,1.86487 h -4.15926 c -1.29192,0 -1.94058,-0.64403 -1.94058,-1.86487 v -23.91191 c -0.0646,-3.18923 1.24865,-6.25151 3.6033,-8.4017 2.42701,-2.21328 5.61805,-3.3973 8.90024,-3.30202 h 5.59539 c 3.51575,0 6.46009,1.07664 8.82298,3.30202 2.39611,2.12495 3.73515,5.19857 3.65996,8.4017 v 23.91191 c -0.0154,1.22084 -0.65896,1.86487 -1.95088,1.86487 l 0.0206,-0.0206 z m 27.28216,-3.09086 c -2.43988,2.06057 -5.38448,3.09086 -8.90024,3.09086 -8.32548,0 -12.48629,-1.07664 -12.48294,-3.22992 v -2.94125 c 0.0342,-0.48437 0.23639,-0.94171 0.57141,-1.29295 0.40506,-0.52377 1.09879,-0.73106 1.72453,-0.51501 2.51199,0.64917 5.88379,1.00454 10.187,1.00454 1.12815,0.043 2.23131,-0.34146 3.08855,-1.07664 a 3.9115419,3.9115419 0 0 0 1.29192,-3.01336 c 0,-1.07664 -0.57656,-1.94212 -1.72453,-2.65799 -0.21116,-0.0721 -1.29192,-0.57682 -3.2276,-1.43715 -4.59162,-2.00908 -7.24781,-3.30203 -8.03527,-3.80674 -2.48675,-1.61071 -3.96588,-4.39231 -3.91206,-7.35597 0,-3.37412 1.22007,-6.10422 3.60331,-8.11329 2.38323,-2.00908 5.37933,-3.01851 8.89508,-3.01851 8.18463,0 12.2754,1.07664 12.27179,3.22992 v 2.94641 c -0.0361,0.48488 -0.24,0.94222 -0.57656,1.29294 -0.42257,0.49416 -1.09492,0.69553 -1.71938,0.51502 a 41.559167,41.559167 0 0 0 -9.9761,-1.03029 c -1.14977,-0.052 -2.27689,0.33244 -3.1555,1.07664 a 4.1226982,4.1226982 0 0 0 -1.22007,3.0185 c 0,1.07664 0.57656,1.93698 1.65242,2.65285 a 30.741268,30.741268 0 0 0 3.2276,1.43715 c 4.38073,1.79766 7.03151,3.09061 8.10738,3.80674 2.48469,1.6277 3.95119,4.42604 3.876,7.39716 -0.0154,3.37928 -1.23552,6.03727 -3.6033,8.04634 l 0.036,-0.0258 z"
     fill="#d83933"
     id="path96"
     style="stroke-width:0.257508" />
</svg>
