<?xml version='1.0' encoding='utf-8'?>
<svg xmlns="http://www.w3.org/2000/svg" viewBox="0 0 1200 500" width="1200" height="500" class="logo-sprite">
  <style>
        /* Default: dark text for light backgrounds */
        .logo-sprite { color: #2d2d2d; }

        /* Dark mode: light text for dark backgrounds */
        @media (prefers-color-scheme: dark) {
            .logo-sprite { color: #cccccc; }
            .logo-sprite .png-logo .theme-aware { filter: url(#theme-dark); }
        }

        /* Explicit theme classes */
        .logo-sprite.theme-light { color: #2d2d2d; }
        .logo-sprite.theme-light .png-logo .theme-aware { filter: url(#theme-light); }
        .logo-sprite.theme-dark { color: #cccccc; }
        .logo-sprite.theme-dark .png-logo .theme-aware { filter: url(#theme-dark); }

        /* Default PNG filter for light mode */
        .png-logo .theme-aware { filter: url(#theme-light); }
    </style>
  <title>Open Source Platform Logos</title>
  <desc>Monochrome logos for open source content management systems, frameworks, and platforms</desc>
  <g id="drupal" transform="translate(50, 50)">
    <title>Drupal</title>
    <desc>Open source content management system</desc>
    <svg width="100.0" height="100.0" viewBox="0.0 0.0 24.0 24.0" preserveAspectRatio="xMidYMid meet">
      <path fill="currentColor" d="M15.78 5.113C14.09 3.425 12.48 1.815 11.998 0c-.48 1.815-2.09 3.425-3.778 5.113c-2.534 2.53-5.405 5.4-5.405 9.702a9.184 9.185 0 1 0 18.368 0c0-4.303-2.871-7.171-5.405-9.702M6.72 16.954c-.563-.019-2.64-3.6 1.215-7.416l2.55 2.788a.22.22 0 0 1-.016.325c-.61.625-3.204 3.227-3.527 4.126c-.066.186-.164.18-.222.177M12 21.677a3.16 3.16 0 0 1-3.158-3.159a3.3 3.3 0 0 1 .787-2.087c.57-.696 2.37-2.655 2.37-2.655s1.774 1.988 2.367 2.649a3.1 3.1 0 0 1 .792 2.093A3.16 3.16 0 0 1 12 21.677m6.046-5.123c-.068.15-.223.398-.431.405c-.371.014-.411-.177-.686-.583c-.604-.892-5.864-6.39-6.848-7.455c-.866-.935-.122-1.595.223-1.94C10.736 6.547 12 5.285 12 5.285s3.766 3.574 5.336 6.016s1.029 4.556.71 5.253" />
    </svg>
  </g>
  <g id="wordpress" transform="translate(200, 50)">
    <title>WordPress</title>
    <desc>Open source content management system</desc>
    <svg width="99.99755148013027" height="100.0" viewBox="0.0 0.0 122.52 122.523" preserveAspectRatio="xMidYMid meet">
      <g fill="currentColor">
        <path d="m8.708 61.26c0 20.802 12.089 38.779 29.619 47.298l-25.069-68.686c-2.916 6.536-4.55 13.769-4.55 21.388z" />
        <path d="m96.74 58.608c0-6.495-2.333-10.993-4.334-14.494-2.664-4.329-5.161-7.995-5.161-12.324 0-4.831 3.664-9.328 8.825-9.328.233 0 .454.029.681.042-9.35-8.566-21.807-13.796-35.489-13.796-18.36 0-34.513 9.42-43.91 23.688 1.233.037 2.395.063 3.382.063 5.497 0 14.006-.667 14.006-.667 2.833-.167 3.167 3.994.337 4.329 0 0-2.847.335-6.015.501l19.138 56.925 11.501-34.493-8.188-22.434c-2.83-.166-5.511-.501-5.511-.501-2.832-.166-2.5-4.496.332-4.329 0 0 8.679.667 13.843.667 5.496 0 14.006-.667 14.006-.667 2.835-.167 3.168 3.994.337 4.329 0 0-2.853.335-6.015.501l18.992 56.494 5.242-17.517c2.272-7.269 4.001-12.49 4.001-16.989z" />
        <path d="m62.184 65.857-15.768 45.819c4.708 1.384 9.687 2.141 14.846 2.141 6.12 0 11.989-1.058 17.452-2.979-.141-.225-.269-.464-.374-.724z" />
        <path d="m107.376 36.046c.226 1.674.354 3.471.354 5.404 0 5.333-.996 11.328-3.996 18.824l-16.053 46.413c15.624-9.111 26.133-26.038 26.133-45.426.001-9.137-2.333-17.729-6.438-25.215z" />
        <path d="m61.262 0c-33.779 0-61.262 27.481-61.262 61.26 0 33.783 27.483 61.263 61.262 61.263 33.778 0 61.265-27.48 61.265-61.263-.001-33.779-27.487-61.26-61.265-61.26zm0 119.715c-32.23 0-58.453-26.223-58.453-58.455 0-32.23 26.222-58.451 58.453-58.451 32.229 0 58.45 26.221 58.45 58.451 0 32.232-26.221 58.455-58.45 58.455z" />
      </g>
    </svg>
  </g>
  <g id="joomla" transform="translate(350, 50)">
    <title>Joomla</title>
    <desc>Open source content management system</desc>
    <svg width="100.0" height="100.0" viewBox="0.0 0.0 24.0 24.0" preserveAspectRatio="xMidYMid meet">
      <path fill="currentColor" d="M16.719 14.759L14.22 17.26l-2.37 2.37l-.462.466a5.33 5.33 0 0 1-5.047 1.397a3.21 3.21 0 1 1-3.872-3.844a5.32 5.32 0 0 1 1.396-5.08l.179-.18l2.37 2.37l-.184.181a1.974 1.974 0 0 0 0 2.789c.771.78 2.022.78 2.787 0l.465-.465l2.367-2.371l2.502-2.506zm.924 6.652a5.32 5.32 0 0 1-5.328-1.318l-.18-.185l2.365-2.369l.18.184a1.974 1.974 0 0 0 2.787 0a1.965 1.965 0 0 0-.004-2.781l-.466-.465l-2.365-2.37l-2.502-2.503l2.37-2.369l2.499 2.505l2.367 2.37l.464.464a5.28 5.28 0 0 1 1.411 5.021A3.215 3.215 0 0 1 24 20.775a3.204 3.204 0 0 1-3.209 3.21a3.19 3.19 0 0 1-3.135-2.565zM6.975 9.461l2.508-2.505l2.37-2.369l.462-.461A5.3 5.3 0 0 1 17.58 2.79A3.215 3.215 0 0 1 20.759.015a3.211 3.211 0 0 1 .421 6.395a5.31 5.31 0 0 1-1.35 5.234l-.182.184l-2.369-2.369l.184-.184a1.967 1.967 0 1 0-2.781-2.78l-.462.461l-2.37 2.369l-2.505 2.502zm-2.653 2.647l-.461-.462a5.31 5.31 0 0 1-1.332-5.288A3.22 3.22 0 0 1 .03 3.224C.03 1.454 1.47.015 3.24.015a3.215 3.215 0 0 1 3.17 2.691a5.32 5.32 0 0 1 4.979 1.415l.184.185l-2.37 2.37l-.183-.181a1.977 1.977 0 0 0-2.785 0a1.977 1.977 0 0 0-.005 2.79l.465.466l2.37 2.369l2.505 2.505l-2.367 2.37l-2.51-2.505l-2.371-2.37z" />
    </svg>
  </g>
  <g id="typo3" transform="translate(500, 50)">
    <title>TYPO3</title>
    <desc>Open source enterprise content management system</desc>
    <svg width="100.0" height="100.0" viewBox="0.0 0.0 24.0 24.0" preserveAspectRatio="xMidYMid meet">
      <path fill="currentColor" d="M18.08 16.539a3.3 3.3 0 0 1-1.012.144c-3.048 0-7.524-10.652-7.524-14.197c0-1.305.31-1.74.745-2.114C6.56.808 2.082 2.177.651 3.917c-.31.436-.497 1.12-.497 1.99C.154 11.442 6.06 24 10.228 24c1.928 0 5.178-3.168 7.852-7.46M16.134 0c3.855 0 7.713.622 7.713 2.798c0 4.415-2.8 9.765-4.23 9.765c-2.549 0-5.72-7.09-5.72-10.635C13.897.31 14.518 0 16.134 0" />
    </svg>
  </g>
  <g id="wagtail" transform="translate(650, 50)">
    <title>Wagtail</title>
    <desc>Open source Django-based CMS</desc>
    <svg width="100.0" height="100.0" viewBox="0.0 0.0 24.0 24.0" preserveAspectRatio="xMidYMid meet">
      <path fill="currentColor" d="M16.181 0c-2.64 0-4.11 1.969-4.732 3.313l-7.431 13.66l2.097-.392L2.263 24l2.688-.482l2.043-5.838c5.815 0 13.279-2.088 12.238-9.906c0 0-.634-3.151-4.743-2.302c-.417-1.42-.342-2.475.566-3.434c1.248-1.32 3.182-.596 3.182-.596l.002-1.087C17.559.057 16.906 0 16.181 0m2.417 2.523a.496.496 0 1 0 0 .99a.496.496 0 0 0 0-.99M20.1 3.552l-1.292 1.574h2.93zm-3.726 4.79l.303.01l-.04.55l-.038.29c-.014.104-.025.218-.05.338l-.075.383l-.106.42c-.042.144-.094.293-.143.448a14 14 0 0 1-.186.468l-.113.237l-.058.12l-.066.12l-.134.24l-.152.235l-.077.119l-.085.114q-.085.116-.174.23c-.126.148-.25.3-.39.438c-.134.146-.285.276-.432.41l-.23.19c-.077.065-.16.12-.24.18a8 8 0 0 1-1.01.626c-.347.181-.697.344-1.044.477q-.521.204-1.013.351c-.325.1-.636.183-.924.255c-.576.142-1.06.24-1.4.307L7.963 16l.531-.115c.338-.076.82-.184 1.391-.34c.286-.078.594-.168.915-.276c.322-.105.657-.23.997-.373c.341-.14.683-.31 1.022-.496a8 8 0 0 0 .978-.64c.076-.06.157-.116.23-.181l.221-.191c.14-.135.284-.265.41-.41c.134-.137.25-.288.369-.433q.084-.114.163-.228l.08-.112l.072-.117l.141-.231l.124-.235l.061-.115l.053-.118l.103-.232q.091-.233.17-.455c.043-.151.09-.296.126-.436l.094-.408l.062-.372c.022-.116.03-.227.042-.329l.03-.28z" />
    </svg>
  </g>
  <g id="craft-cms" transform="translate(800, 50)">
    <title>Craft CMS</title>
    <desc>Content management system</desc>
    <svg width="100.0" height="29.285714285714285" viewBox="0.0 0.0 140.0 41.0" preserveAspectRatio="xMidYMid meet">
      <g id="Symbols" stroke="none" stroke-width="1" fill="none" fill-rule="evenodd">
        <g id="Header-Signed-In" transform="translate(-114.000000, -101.000000)" fill="currentColor">
          <path d="M184.373975,118.233217 L190.308596,118.233217 L191,114.457894 L185.066259,114.457894 L186.076501,108.935422 L186.057124,108.935422 L181.556394,112.608134 L181.218179,114.45697 L176.556269,114.45697 L177.917937,107.017255 C178.238537,104.209798 182.348206,105.060262 182.96034,105.218338 L183.618275,101.633445 C176.226861,98.679006 174.070738,107.018179 174.070738,107.018179 L172.708189,114.459743 L172.684408,114.459743 L168.055967,118.235066 L172.017666,118.235066 L167.666667,142 L171.513866,142 L175.864865,118.233217 L180.527656,118.233217 L178.823368,127.538407 C177.740022,134.310692 184.260355,133.568385 186.341613,133.132984 L186.993382,129.586917 C182.013514,130.75723 182.670567,127.539331 182.670567,127.539331 L184.373975,118.23599 L184.373975,118.233217 Z M161.493162,127.765972 C157.197553,132.299529 154.445945,129.331736 154.445945,129.331736 C152.584452,127.465957 154.642488,125.550177 154.642488,125.550177 C157.484809,122.880437 161.833333,125.814896 161.833333,125.814896 L161.493162,127.765972 Z M162.116097,123.02661 C162.116097,123.02661 156.452174,120.024195 152.489237,123.365972 C152.489237,123.365972 150.166667,124.966631 150.166667,128.164179 C150.166667,131.362669 153.004962,133.081163 153.004962,133.081163 C153.004962,133.081163 157.273714,135.40768 160.616876,131.689777 L160.248631,133.419582 L163.987182,133.419582 L166.336896,121.909542 C168.099407,110.553157 154.996383,114.578372 154.996383,114.578372 L154.281606,118.660147 C163.941038,114.312538 162.316053,121.888803 162.316053,121.888803 L162.117002,123.02661 L162.116097,123.02661 Z M152.5,115.059007 C149.360375,115.090694 146.507695,116.826955 146.507695,116.826955 L146.871034,115.123313 L143.104416,115.123313 L139.666667,133.8 L143.517132,133.8 L145.848094,121.51197 C147.571627,118.041312 151.82922,119.120534 151.82922,119.120534 L152.5,115.057143 L152.5,115.059007 Z M137.406045,106.884116 C137.59367,107.029492 137.770574,107.183201 137.943904,107.339689 L140.745775,105.080341 L140.833333,104.96367 C140.400258,104.511933 139.93624,104.093233 139.444906,103.710843 C133.01472,98.7245372 123.297517,100.811656 117.741128,108.373063 C112.188313,115.933544 112.898609,126.10246 119.327902,131.090618 C124.57873,135.161148 132.018519,134.514826 137.59635,130.025762 L137.591883,130.01465 L134.92403,127.866418 C130.79002,130.596154 125.662489,130.792458 121.952869,127.91642 C117.01207,124.08664 116.467063,116.273372 120.735092,110.465737 C125.001333,104.657177 132.466139,103.054336 137.405151,106.884116 L137.406045,106.884116 Z M209.662959,132.016468 C208.819164,132.550106 207.914568,132.98065 206.968496,133.298904 C205.988775,133.632968 204.929343,133.8 203.791124,133.8 C202.447137,133.8 201.205107,133.560587 200.065035,133.081762 C198.96247,132.629117 197.963415,131.95663 197.128654,131.105216 C196.3022,130.252221 195.647629,129.247809 195.200727,128.146891 C194.733576,127.014785 194.5,125.799163 194.5,124.494456 C194.5,123.18975 194.727088,121.964848 195.179409,120.81975 C195.615365,119.70025 196.270904,118.679523 197.107336,117.817812 C197.950935,116.955384 198.956809,116.268785 200.066889,115.797652 C201.206961,115.303979 202.447137,115.057143 203.792978,115.057143 C204.93027,115.057143 205.989702,115.224175 206.969423,115.558239 C207.94729,115.890447 208.846371,116.319163 209.664813,116.838819 L208.919595,117.927311 C208.189207,117.465189 207.408768,117.080087 206.574569,116.77479 C205.744077,116.47042 204.816262,116.320091 203.793905,116.320091 C202.624172,116.320091 201.557324,116.528881 200.592434,116.948317 C199.663755,117.345509 198.822694,117.922631 198.117643,118.646477 C197.417561,119.376543 196.873241,120.241639 196.517835,121.189077 C196.133023,122.203058 195.940035,123.279875 195.948726,124.364542 C195.948726,125.494793 196.137811,126.561015 196.517835,127.559495 C196.874555,128.52621 197.417841,129.413181 198.116717,130.169836 C198.811915,130.916744 199.655544,131.509735 200.593361,131.910681 C201.557324,132.332901 202.625099,132.541692 203.793905,132.541692 C204.817189,132.541692 205.745004,132.388579 206.574569,132.086993 C207.408768,131.780768 208.190134,131.396594 208.919595,130.932616 L209.666667,132.018324 L209.662959,132.016468 Z M237.488592,133.799055 L237.488592,121.43686 C237.488592,118.071197 236.112702,116.385529 233.363592,116.385529 C232.101618,116.385529 230.895712,116.773147 229.745874,117.53893 C228.595146,118.307549 227.571683,119.325757 226.673706,120.596389 L226.673706,133.799055 L225.328074,133.799055 L225.328074,121.43686 C225.328074,118.071197 223.953074,116.385529 221.204854,116.385529 C219.914401,116.385529 218.712945,116.773147 217.606715,117.53893 C216.464537,118.338416 215.424702,119.291765 214.513188,120.375163 L214.513188,133.8 L213.166667,133.8 L213.166667,115.41081 L214.471359,115.41081 L214.471359,118.866287 C214.862945,118.395473 215.311489,117.93033 215.81521,117.471806 C216.322492,117.013282 216.860922,116.606755 217.436731,116.252226 C218.01165,115.898642 218.636408,115.609346 219.310113,115.38812 C219.99188,115.16522 220.701569,115.053649 221.414887,115.057226 C222.593204,115.057226 223.629126,115.397574 224.527994,116.076379 C225.425081,116.754239 226.028479,117.803645 226.337298,119.221762 C227.177427,118.100504 228.230259,117.12484 229.493123,116.297605 C230.755097,115.472262 232.114968,115.057226 233.574515,115.057226 C234.254952,115.053564 234.930973,115.173467 235.573382,115.411755 C236.203479,115.648108 236.765939,116.026273 237.255421,116.541522 C237.744903,117.058661 238.132039,117.709104 238.412379,118.491905 C238.692718,119.273759 238.833333,120.212553 238.833333,121.305448 L238.833333,133.799055 L237.487702,133.799055 L237.488592,133.799055 Z M253.999089,128.800482 C253.999089,129.468445 253.871605,130.103938 253.612993,130.713454 C253.356588,131.319059 252.974481,131.860902 252.492949,132.301722 C251.979308,132.765349 251.389263,133.132816 250.750052,133.387162 C250.076205,133.660841 249.306744,133.8 248.446222,133.8 C247.297039,133.8 246.222526,133.605177 245.218129,133.213677 C244.200916,132.815055 243.232784,132.296979 242.333333,131.66994 L242.977131,130.62532 C243.787521,131.192705 244.653238,131.67334 245.560516,132.059585 C246.450177,132.438098 247.412686,132.625498 248.444401,132.625498 C249.73746,132.625498 250.770996,132.276673 251.54592,131.580878 C252.321756,130.885084 252.708763,130.031575 252.708763,129.015715 C252.708763,128.146435 252.47838,127.45899 252.019435,126.949668 C251.56049,126.444057 250.978614,126.008953 250.276538,125.646212 C249.573551,125.284399 248.81957,124.956912 248.016417,124.667461 C247.234087,124.387966 246.477478,124.038716 245.755386,123.623769 C245.078848,123.242351 244.485547,122.724697 244.011578,122.102297 C243.551722,121.493709 243.323161,120.682876 243.323161,119.667016 C243.323161,119.087186 243.444271,118.523129 243.689224,117.971132 C243.939028,117.411212 244.29776,116.908759 244.743704,116.494191 C245.232705,116.04026 245.802332,115.685696 246.421948,115.449571 C247.083047,115.189808 247.842491,115.057143 248.703923,115.057143 C249.650952,115.057143 250.547898,115.203724 251.39385,115.493174 C252.240712,115.780769 253.06663,116.216801 253.870694,116.79663 L253.224165,117.883925 C252.450151,117.304096 251.71074,116.883836 251.007753,116.622217 C250.26825,116.35523 249.488448,116.222715 248.703923,116.230717 C247.325268,116.230717 246.299927,116.57212 245.62608,117.253999 C244.950411,117.93495 244.612577,118.695686 244.612577,119.536206 C244.612577,120.405486 244.842049,121.094786 245.302815,121.601325 C245.76176,122.106936 246.342726,122.535546 247.046623,122.883443 C247.751431,123.229485 248.50359,123.549551 249.306744,123.839001 C250.110808,124.12938 250.865699,124.469855 251.567775,124.8595 C252.270762,125.251929 252.851728,125.752901 253.311583,126.360562 C253.770528,126.970078 254,127.782766 254,128.795844 L253.999089,128.800482 Z" id="Shape" />
        </g>
      </g>
    </svg>
  </g>
  <g id="processwire" transform="translate(950, 50)">
    <title>ProcessWire</title>
    <desc>Open source content management system</desc>
    <svg width="100.0" height="100.0" viewBox="0.0 0.0 24.0 24.0" preserveAspectRatio="xMidYMid meet">
      <title>ProcessWire logo</title>
      <path style="fill:currentColor" d="M21.939 5.27C21.211 4.183 20 2.941 18.784 2.137 16.258.407 13.332-.207 10.744.061c-2.699.291-5.01 1.308-6.91 3.004C2.074 4.637.912 6.559.4 8.392c-.518 1.833-.449 3.53-.264 4.808.195 1.297.841 2.929.841 2.929.132.313.315.44.41.493.472.258 1.247.031 1.842-.637.03-.041.046-.098.03-.146-.166-.639-.226-1.12-.285-1.492-.135-.736-.195-1.969-.105-3.109.045-.617.165-1.277.375-1.969.406-1.367 1.262-2.794 2.6-3.98 1.441-1.277 3.289-2.066 5.046-2.27.616-.074 1.788-.145 3.199.203.301.075 1.593.412 2.975 1.348 1.006.684 1.816 1.528 2.374 2.363.568.797 1.185 2.141 1.366 3.125.256 1.12.256 2.307.074 3.463-.225 1.158-.631 2.284-1.262 3.275-.435.768-1.337 1.783-2.403 2.545-.961.676-2.058 1.164-3.184 1.434-.57.135-1.142.221-1.728.24-.521.016-1.212 0-1.697-.082-.721-.115-.871-.299-1.036-.549 0 0-.115-.18-.147-.662.011-4.405.009-3.229.009-5.516 0-.646-.021-1.232-.015-1.764.03-.873.104-1.473.728-2.123.451-.479 1.082-.768 1.777-.768.211 0 .938.01 1.577.541.685.572.8 1.354.827 1.563.156 1.223-.652 2.134-.962 2.365-.384.288-.729.428-.962.51-.496.166-1.041.214-1.531.182-.075-.005-.143.044-.158.119l-.165.856c-.161.65.2.888.41.972.671.207 1.266.293 1.971.24 1.081-.076 2.147-.502 3.052-1.346.77-.732 1.209-1.635 1.359-2.645.15-1.121-.045-2.328-.556-3.35-.562-1.127-1.532-2.068-2.81-2.583-1.291-.508-2.318-.526-3.642-.188l-.015.005c-.86.296-1.596.661-2.362 1.452-.525.546-.955 1.207-1.217 1.953-.26.752-.33 1.313-.342 2.185-.016.646.015 1.246.015 1.808v3.701c0 1.184-.04 1.389 0 1.998.022.404.078.861.255 1.352.182.541.564 1.096.826 1.352.367.391.834.705 1.293.9 1.051.467 2.478.541 3.635.496.766-.029 1.536-.135 2.291-.314 1.51-.359 2.96-1.012 4.235-1.918 1.367-.963 2.555-2.277 3.211-3.393.841-1.326 1.385-2.814 1.668-4.343.255-1.532.243-3.103-.099-4.612-.27-1.4-.991-2.936-1.823-4.176l.038.037z" />
    </svg>
  </g>
  <g id="strapi" transform="translate(1100, 50)">
    <title>Strapi</title>
    <desc>Open source headless CMS</desc>
    <svg width="100.0" height="100.0" viewBox="0.0 0.0 24.0 24.0" preserveAspectRatio="xMidYMid meet">
      <path fill="currentColor" d="M8.32 0c-3.922 0-5.882 0-7.1 1.219C0 2.438 0 4.399 0 8.32v7.36c0 3.922 0 5.882 1.219 7.101S4.399 24 8.32 24h7.36c3.922 0 5.882 0 7.101-1.219S24 19.601 24 15.68V8.32c0-3.922 0-5.882-1.219-7.101S19.601 0 15.68 0zm.41 7.28h7.83a.16.16 0 0 1 .16.16v7.83h-3.87v-3.71a.41.41 0 0 0-.313-.398l-.086-.012h-3.72zm-.5.25v3.87H4.553a.08.08 0 0 1-.057-.136L8.23 7.529zm.25 4.12h3.87v3.87H8.64a.16.16 0 0 1-.16-.16zm4.12 4.12h3.87l-3.734 3.734a.08.08 0 0 1-.136-.057z" />
    </svg>
  </g>
  <g id="directus" transform="translate(50, 200)">
    <title>Directus</title>
    <desc>Open source data platform</desc>
    <svg width="100.0" height="100.0" viewBox="0.0 0.0 24.0 24.0" preserveAspectRatio="xMidYMid meet">
      <path fill="currentColor" d="M19.187 13.909a2 2 0 0 1-.286-.092a.7.7 0 0 1-.203-.139c.056-.488 0-.912.047-1.392c.184-1.862 1.355-1.272 2.406-1.577c.655-.184 1.31-.562 1.475-1.336a13.5 13.5 0 0 0-2.397-2.204c-2.85-2.028-6.574-2.84-9.958-2.277a5.1 5.1 0 0 0 2.238 2.074s-.917 0-1.703-.587c-.23.092-.692.274-.913.384a5.094 5.094 0 0 0 6.63.37c-.01.017-.185.285-.397 1.4c-.47 2.38-1.826 2.195-3.504 1.596c-3.485-1.264-5.403-.093-7.145-2.49c-.507.286-.82.82-.82 1.402c0 .599.331 1.106.81 1.383c.262-.348.38-.446.836-.446c-.706.4-.79.75-1.094 1.718c-.368 1.171-.212 2.37-1.936 2.683c-.913.046-.894.664-1.226 1.586c-.415 1.199-.968 1.678-2.047 2.812c.443.535.904.6 1.374.406c.968-.406 1.715-1.66 2.415-2.471c.784-.904 2.665-.517 4.085-1.402c.977-.599 1.457-1.41.811-2.784a2.72 2.72 0 0 1 .701 1.66c1.641-.213 3.836 1.788 5.836 2.12a3.6 3.6 0 0 1-.488-.82c-.23-.554-.304-1.06-.258-1.503c.184 1.097 1.29 2.507 3.07 2.637c.452.036.95-.019 1.466-.176c.618-.184 1.19-.424 1.872-.295c.507.093.977.35 1.272.784c.443.645 1.41.784 1.844-.009c-.977-2.554-3.67-2.72-4.813-3.015" />
    </svg>
  </g>
  <g id="ghost" transform="translate(200, 200)">
    <title>Ghost</title>
    <desc>Open source publishing platform</desc>
    <svg width="100.0" height="100.0" viewBox="0.0 0.0 24.0 24.0" preserveAspectRatio="xMidYMid meet">
      <path fill="currentColor" d="M12 0C5.373 0 0 5.373 0 12s5.373 12 12 12s12-5.373 12-12S18.627 0 12 0m.256 2.313c2.47.005 5.116 2.008 5.898 2.962l.244.3c1.64 1.994 3.569 4.34 3.569 6.966c0 3.719-2.98 5.808-6.158 7.508c-1.433.766-2.98 1.508-4.748 1.508c-4.543 0-8.366-3.569-8.366-8.112c0-.706.17-1.425.342-2.15c.122-.515.244-1.033.307-1.549c.548-4.539 2.967-6.795 8.422-7.408a4 4 0 0 1 .49-.026Z" />
    </svg>
  </g>
  <g id="hugo" transform="translate(350, 200)">
    <title>Hugo</title>
    <desc>Fast static site generator</desc>
    <svg width="100.0" height="100.0" viewBox="0.0 0.0 24.0 24.0" preserveAspectRatio="xMidYMid meet">
      <path fill="currentColor" d="M11.754 0a4 4 0 0 0-2.049.596L3.33 4.532a4.25 4.25 0 0 0-2.017 3.615v8.03a4.13 4.13 0 0 0 2.067 3.574l6.486 3.733a3.88 3.88 0 0 0 3.835.018l7.043-3.966a3.82 3.82 0 0 0 1.943-3.323V7.752a3.57 3.57 0 0 0-1.774-3.084L13.817.541a4 4 0 0 0-2.063-.54zm.022 1.674c.413-.006.828.1 1.2.315l7.095 4.127c.584.34.941.96.94 1.635v8.462c0 .774-.414 1.484-1.089 1.864l-7.042 3.966a2.2 2.2 0 0 1-2.179-.01l-6.485-3.734a2.45 2.45 0 0 1-1.228-2.123v-8.03c0-.893.461-1.72 1.221-2.19l6.376-3.935a2.3 2.3 0 0 1 1.19-.347zm-4.7 3.844V18.37h2.69v-5.62h4.46v5.62h2.696V5.518h-2.696v4.681h-4.46V5.518Z" />
    </svg>
  </g>
  <g id="jekyll" transform="translate(500, 200)">
    <title>Jekyll</title>
    <desc>Static site generator</desc>
    <svg width="100.0" height="100.0" viewBox="0.0 0.0 24.0 24.0" preserveAspectRatio="xMidYMid meet">
      <path fill="currentColor" d="M8.073 24q-.523 0-1.02-.189a2.85 2.85 0 0 1-1.726-3.402l-.015-.006l.09-.226L12.399 2.01c.105-.27.057-.91.006-1.267a.5.5 0 0 1 .008-.24l.008-.023l.006-.015V.458l.009-.019c.108-.292.45-.439 1.008-.439c.673 0 1.602.21 2.551.573c.797.307 1.523.689 2.033 1.075c.602.45.842.854.707 1.2l-.031.045l-.016.015a.8.8 0 0 1-.15.165c-.314.271-.764.735-.84.945l-7.063 18.421l-.016-.006a2.87 2.87 0 0 1-2.543 1.561H8.07zm-2.187-3.718l-.02.05A2.36 2.36 0 0 0 7.23 23.35q.407.156.837.154c.971 0 1.83-.585 2.188-1.5l.027-.061l6.959-18.09c.146-.39.84-1.02.979-1.14l.016-.016c.012-.015.02-.015.02-.03c0-.06-.061-.27-.557-.645c-.479-.36-1.154-.72-1.904-1.005c-.868-.328-1.768-.539-2.368-.539c-.39 0-.524.082-.545.126v.04c.016.104.147 1.035-.034 1.515l-6.962 18.12zm8.95-11.507s-.964 1.109-1.843 1.509c-.88.398-1.529.293-2.32.756c-.789.461-1.188 1.103-1.188 1.103L6.27 20.505c-.348.944.168 2.05 1.125 2.42c.96.369 2.04-.12 2.412-1.056zM9.905 18.76c.104-.041.225 0 .266.105c.042.104 0 .222-.105.264c-.104.043-.225 0-.266-.104a.204.204 0 0 1 .105-.265m-1.014-1.802a.297.297 0 0 1-.397-.155a.296.296 0 0 1 .154-.397c.154-.07.335 0 .398.153c.074.15.008.314-.155.39zm.286-1.096a.58.58 0 0 1 .287-.758a.574.574 0 0 1 .75.285a.583.583 0 0 1-.285.757c-.3.126-.629 0-.765-.285zm2.426-2.258a.295.295 0 0 1 .398.15c.07.154 0 .336-.153.399a.297.297 0 0 1-.399-.155a.293.293 0 0 1 .154-.397zm-1.293-1.379c.105-.042.226 0 .266.105c.043.104 0 .226-.104.266c-.104.042-.226 0-.265-.104a.205.205 0 0 1 .103-.267M13.681 1.14c.1-.261.993-.162 1.995.226c.999.384 1.729.909 1.63 1.17c-.104.264-.997.164-1.996-.221c-1.005-.385-1.734-.91-1.632-1.176z" />
    </svg>
  </g>
  <g id="eleventy" transform="translate(650, 200)">
    <title>Eleventy</title>
    <desc>Simple static site generator</desc>
    <svg width="71.7932296431839" height="100.00000000000001" viewBox="0.0 0.0 15694.0 21860.0" preserveAspectRatio="xMidYMid meet">
      <path fill="currentColor" stroke="currentColor" stroke-miterlimit="10" stroke-width="280" d="M5622 14101c-90 0-135-120-135-361V7789c0-115-23-169-70-162l-431 108c-79 7-118-72-118-237v-517c0-143 43-224 129-242l1422-366c11-3 27-5 48-5 79 0 118 84 118 253v7120c0 241-47 361-140 361zm3683 11c-144 0-268-10-374-30s-216-65-331-135-209-166-283-288-134-293-180-512-70-479-70-781V9604c0-72-20-108-59-108h-334c-90 0-135-86-135-258v-291c0-176 45-264 135-264h334c39 0 59-48 59-145l97-2095c11-190 57-285 140-285h539c90 0 135 95 135 285v2095c0 97 21 145 65 145h687c90 0 135 88 135 264v291c0 172-45 258-135 258h-689c-25 0-42 6-51 19-9 12-13 42-13 89v2779c0 208 13 382 40 520s66 240 118 304 104 108 156 129c52 22 116 32 191 32h382c97 0 145 67 145 199v323c0 147-52 221-156 221zm2067 646c82 0 154-67 215-202s92-326 92-574c0-58-36-257-108-598l-1056-4389c-7-50-11-90-11-119 0-129 27-194 81-194h652c50 0 91 17 124 51s58 103 75 207l700 3705c14 43 23 65 27 65 14 0 22-20 22-59l549-3695c14-108 37-180 67-218s69-57 116-57h452c61 0 92 70 92 210 0 32-4 74-11 124l-959 4993c-75 413-158 729-248 948s-190 368-302 447a776 776 0 01-442 124h-54c-291 0-488-77-592-232-29-32-43-115-43-248 0-266 43-399 129-399 7 0 72 18 194 54 124 38 203 56 239 56zm-8460-647c-90 0-135-120-135-361V7799c0-115-23-169-70-162l-431 108c-79 7-118-72-118-237v-517c0-143 43-224 129-242l1423-367c11-3 27-5 48-5 79 0 118 84 118 253v7120c0 241-47 361-140 361z" />
    </svg>
  </g>
  <g id="gatsby" transform="translate(800, 200)">
    <title>Gatsby</title>
    <desc>React-based static site generator</desc>
    <svg width="100.0" height="100.0" viewBox="0.0 0.0 24.0 24.0" preserveAspectRatio="xMidYMid meet">
      <path fill="currentColor" d="M12 0C5.4 0 0 5.4 0 12s5.4 12 12 12s12-5.4 12-12S18.6 0 12 0m0 2.571c3.171 0 5.915 1.543 7.629 3.858l-1.286 1.115C16.886 5.572 14.571 4.286 12 4.286c-3.343 0-6.171 2.143-7.286 5.143l9.857 9.857c2.486-.857 4.373-3 4.973-5.572h-4.115V12h6c0 4.457-3.172 8.228-7.372 9.17L2.83 9.944C3.772 5.743 7.543 2.57 12 2.57zm-9.429 9.6l9.344 9.258c-2.4-.086-4.801-.943-6.601-2.743s-2.743-4.201-2.743-6.515" />
    </svg>
  </g>
  <g id="astro" transform="translate(950, 200)">
    <title>Astro</title>
    <desc>Modern web framework</desc>
    <svg width="100.0" height="100.0" viewBox="0.0 0.0 24.0 24.0" preserveAspectRatio="xMidYMid meet">
      <path fill="currentColor" d="M8.358 20.162c-1.186-1.07-1.532-3.316-1.038-4.944c.856 1.026 2.043 1.352 3.272 1.535c1.897.283 3.76.177 5.522-.678c.202-.098.388-.229.608-.36c.166.473.209.95.151 1.437c-.14 1.185-.738 2.1-1.688 2.794c-.38.277-.782.525-1.175.787c-1.205.804-1.531 1.747-1.078 3.119l.044.148a3.16 3.16 0 0 1-1.407-1.188a3.3 3.3 0 0 1-.544-1.815c-.004-.32-.004-.642-.048-.958c-.106-.769-.472-1.113-1.161-1.133c-.707-.02-1.267.411-1.415 1.09c-.012.053-.028.104-.045.165zm-5.961-4.445s3.24-1.575 6.49-1.575l2.451-7.565c.092-.366.36-.614.662-.614s.57.248.662.614l2.45 7.565c3.85 0 6.491 1.575 6.491 1.575L16.088.727C15.93.285 15.663 0 15.303 0H8.697c-.36 0-.615.285-.784.727z" />
    </svg>
  </g>
  <g id="mastodon" transform="translate(1100, 200)">
    <title>Mastodon</title>
    <desc>Open source decentralized social network</desc>
    <svg width="93.67088607594937" height="100.0" viewBox="0.0 0.0 74.0 79.0" preserveAspectRatio="xMidYMid meet">
      <path d="M73.7014 17.4323C72.5616 9.05152 65.1774 2.4469 56.424 1.1671C54.9472 0.950843 49.3518 0.163818 36.3901 0.163818H36.2933C23.3281 0.163818 20.5465 0.950843 19.0697 1.1671C10.56 2.41145 2.78877 8.34604 0.903306 16.826C-0.00357854 21.0022 -0.100361 25.6322 0.068112 29.8793C0.308275 35.9699 0.354874 42.0498 0.91406 48.1156C1.30064 52.1448 1.97502 56.1419 2.93215 60.0769C4.72441 67.3445 11.9795 73.3925 19.0876 75.86C26.6979 78.4332 34.8821 78.8603 42.724 77.0937C43.5866 76.8952 44.4398 76.6647 45.2833 76.4024C47.1867 75.8033 49.4199 75.1332 51.0616 73.9562C51.0841 73.9397 51.1026 73.9184 51.1156 73.8938C51.1286 73.8693 51.1359 73.8421 51.1368 73.8144V67.9366C51.1364 67.9107 51.1302 67.8852 51.1186 67.862C51.1069 67.8388 51.0902 67.8184 51.0695 67.8025C51.0489 67.7865 51.0249 67.7753 50.9994 67.7696C50.9738 67.764 50.9473 67.7641 50.9218 67.7699C45.8976 68.9569 40.7491 69.5519 35.5836 69.5425C26.694 69.5425 24.3031 65.3699 23.6184 63.6327C23.0681 62.1314 22.7186 60.5654 22.5789 58.9744C22.5775 58.9477 22.5825 58.921 22.5934 58.8965C22.6043 58.8721 22.621 58.8505 22.6419 58.8336C22.6629 58.8167 22.6876 58.8049 22.714 58.7992C22.7404 58.7934 22.7678 58.794 22.794 58.8007C27.7345 59.9796 32.799 60.5746 37.8813 60.5733C39.1036 60.5733 40.3223 60.5733 41.5447 60.5414C46.6562 60.3996 52.0437 60.1408 57.0728 59.1694C57.1983 59.1446 57.3237 59.1233 57.4313 59.0914C65.3638 57.5847 72.9128 52.8555 73.6799 40.8799C73.7086 40.4084 73.7803 35.9415 73.7803 35.4523C73.7839 33.7896 74.3216 23.6576 73.7014 17.4323ZM61.4925 47.3144H53.1514V27.107C53.1514 22.8528 51.3591 20.6832 47.7136 20.6832C43.7061 20.6832 41.6988 23.2499 41.6988 28.3194V39.3803H33.4078V28.3194C33.4078 23.2499 31.3969 20.6832 27.3894 20.6832C23.7654 20.6832 21.9552 22.8528 21.9516 27.107V47.3144H13.6176V26.4937C13.6176 22.2395 14.7157 18.8598 16.9118 16.3545C19.1772 13.8552 22.1488 12.5719 25.8373 12.5719C30.1064 12.5719 33.3325 14.1955 35.4832 17.4394L37.5587 20.8853L39.6377 17.4394C41.7884 14.1955 45.0145 12.5719 49.2765 12.5719C52.9614 12.5719 55.9329 13.8552 58.2055 16.3545C60.4017 18.8574 61.4997 22.2371 61.4997 26.4937L61.4925 47.3144Z" fill="currentColor" />
    </svg>
  </g>
  <g id="moodle" transform="translate(50, 350)">
    <title>Moodle</title>
    <desc>Open source learning management system</desc>
    <svg width="100.0" height="100.0" viewBox="0.0 0.0 24.0 24.0" preserveAspectRatio="xMidYMid meet">
      <path fill="currentColor" d="M12 0C5.373 0 0 5.373 0 12s5.373 12 12 12s12-5.373 12-12S18.627 0 12 0m1.135 5.74l.035.123l-2.736 1.99c.369.261.796.61 1.007.844l.077.104C10.23 11.058 7.78 11.857 5.2 10.982l.02-.16h-.002A6.5 6.5 0 0 1 5.16 9.36c-.75-.003-1.53-.04-2.283-.066l-.516.018c-.1.844-.035 2.135-.025 2.322c.35 1.282.298 2.29.295 3.53c-.413-1.004-.9-2.098-.416-3.468l-.01-.318c0-.014-.068-1.153.037-2.062l-.408.013l-.037-.119c3.995-2.37 6.706-2.992 11.338-3.47m1.623 2.514q1.83 0 2.904.807q1.22.9 1.22 2.658v5.685h-2.734v-5.369q0-1.683-1.39-1.683q-1.391 0-1.39 1.683v5.37h-2.735v-5.37q-.001-.776-.293-1.193a5.5 5.5 0 0 0 1.572-1.725q.046.044.088.088q.756-.952 2.758-.951m-9.61 3.234c.932.3 1.862.393 2.737.287a4 4 0 0 0-.01.26v5.37H5.143v-5.686q0-.118.005-.23" />
    </svg>
  </g>
  <g id="wikibooks" transform="translate(200, 350)">
    <title>Wikibooks</title>
    <desc>Open source collaborative book creation</desc>
    <svg width="100.0" height="100.0" viewBox="0.0 0.0 24.0 24.0" preserveAspectRatio="xMidYMid meet">
      <path fill="currentColor" d="M6.027.29c-.424.143-.776.418-1.106.707C.434 5.314.254 5.497.254 5.497c-.236.22-.257.537-.254.859l.021 1.819s2.07-2.013 5.164-4.99c1.665 4.337 3.405 8.651 5.116 12.974c.234.653-.329 1.188-1.04 1.902c-.982.958-3.034 2.93-5.136 5.561h2.107l5.067-5.554c.482-.662 1.077-1.309.824-1.909L8.145 5.806c.924-.785 1.763-1.676 2.618-2.531l5.252 13.173c.303.891-.175 1.684-1.134 2.549c-1.148.922-3.508 3.073-4.58 4.712h1.631c1.71-1.758 2.017-1.994 3.964-3.68c1.308-1.334 2.488-2.022 1.871-3.731l-4.13-10.325c1.007-.99 2.013-1.875 2.98-2.852c2.113 4.643 3.559 8.384 5.33 13.33c.58 1.607.458 1.682-.928 2.55c-2.228 1.107-2.929 1.834-5.585 4.66h1.815c2.22-2.008 3.045-2.716 5.825-4.18c.983-.569 1.116-1.285.713-2.4c-1.3-3.616-4.116-11.41-6.719-16.755l-4.103 3.971l-1.569-3.92C9.912 1.38 8.74 2.78 7.466 4.04z" />
    </svg>
  </g>
  <g id="novelwriter" transform="translate(350, 350)">
    <title>novelWriter</title>
    <desc>Open source novel writing application</desc>
    <svg width="100.0" height="100.0" viewBox="0.0 0.0 67.733 67.733" preserveAspectRatio="xMidYMid meet">
      <path d="m20.707 1.1297 37.318 6.987c0.39557 0.074068 0.71238 0.54183 0.71238 1.0492v49.454c0 0.50736-0.31681 0.97512-0.71238 1.0492l-37.318 6.987c-1.9163 0.0199-1.1646-0.30729-1.1646-0.95984v-63.606c0-0.65255-0.45734-1.2024 1.1646-0.95984z" fill="currentColor" fill-opacity="0.7" />
      <path d="m19.997 1.0721c-0.75676 0.024647-0.45489 0.48723-0.45489 1.0174v63.606c0 0.65255-0.75195 0.97981 1.1644 0.95991l4.2748-0.8006v-63.925l-4.2748-0.8006c-0.30412-0.045486-0.53484-0.063202-0.70948-0.057514z" fill="currentColor" fill-opacity="0.7" />
      <path d="m19.738 1.0586c-3.7864 0.0032112-7.5349 0.95341-10.028 2.9485-0.52621 0.45109-0.71353 0.78923-0.71353 1.3737v56.972c0 0.58449 0.17728 0.77989 0.81276 1.3021 2.3431 1.7847 6.1263 3.0243 9.9289 3.02 0.63507-0.0047 1.003-0.22255 1.003-0.87772v-63.861c0-0.65517-0.29674-0.88723-1.003-0.87772z" fill="currentColor" fill-opacity="1.0" />
      <path d="m16.625 27.236-0.52346 0.03304v0.24313c0 0.11178-0.02089 0.19106-0.06253 0.2382-0.03698 0.05241-0.09951 0.08122-0.18714 0.0863l-2.9489 0.17061c-0.08696 5e-3 -0.14994-0.01575-0.18898-0.06215-0.039-0.04097-0.05856-0.1153-0.05856-0.2234v-0.23514l-0.47828 0.03019v1.9284l0.47828-0.02106v-0.23514c0-0.10269 0.01954-0.17913 0.05856-0.22968 0.03903-0.05059 0.10016-0.07802 0.18277-0.08209l3.7282-0.18383zm-0.09854 12.968-0.64014-0.03835v0.9454l0.64014 0.04413zm-0.0066-10.478-0.51582 0.0204v0.17543c0 0.16191-0.02086 0.27723-0.06241 0.34566-0.03692 0.0682-0.11021 0.11801-0.22063 0.14956l-3.5438 1.0865v0.70979l2.4247 0.90982-2.4247 0.96246v0.70211l3.5438 1.0249c0.11043 0.02989 0.18372 0.07922 0.22063 0.14689 0.04156 0.06781 0.06241 0.1822 0.06241 0.34412v0.18463l0.51582 0.01278v-1.2877l-3.151-0.84796 2.393-0.89955v-0.70194l-2.393-0.85617 3.1509-0.88596zm-0.17508 13.668-0.23658-0.90984-0.74453-0.06097v-0.64927l-0.49068-0.03713v0.64621l-1.7477-0.14311c-0.34414-0.02818-0.60377 0.06365-0.78056 0.27528-0.17617 0.2109-0.26412 0.53929-0.26412 0.98535 0 0.28483 0.03222 0.53522 0.09652 0.75148 0.06438 0.21653 0.15678 0.42014 0.27742 0.611l0.49432 0.05356v-0.73962l-0.28013-0.02831c-0.08224-0.13254-0.12359-0.31767-0.12359-0.55522 0-0.18356 0.04135-0.31722 0.12359-0.40151 0.08237-0.07901 0.21916-0.11025 0.41094-0.09292l1.7932 0.16203v1.1929l0.49068 0.04998v-1.1986zm-0.87873-31.249c0-0.34438-0.04568-0.62882-0.13701-0.85329-0.08661-0.21954-0.22735-0.4022-0.42229-0.54689l0.45688-0.15194v-1.065l-0.51104 0.11952v0.17411c0 0.11043-0.0204 0.19227-0.06105 0.24578-0.0361 0.05243-0.09959 0.08893-0.18963 0.10957l-1.7051 0.39102c-0.08695 0.01994-0.14993 0.01002-0.18896-0.02974-0.03467-0.03527-0.05236-0.10669-0.05236-0.21478v-0.2025l-0.47829 0.11205v1.8475l0.47828-0.1033v-0.2108c0-0.10269 0.01769-0.17917 0.05236-0.23005 0.03903-0.04647 0.102-0.07954 0.18896-0.09874l1.3353-0.29479c0.23278-0.05139 0.41484-3.82e-4 0.54558 0.15296 0.13107 0.15373 0.19675 0.37118 0.19675 0.65312 0 0.25983-0.05207 0.45893-0.15607 0.59639-0.09928 0.13626-0.26133 0.22744-0.48557 0.27326l-2.1556 0.4404v1.3877l0.47828-0.09114v-0.22684c0-0.10809 0.01769-0.18994 0.05236-0.24536 0.03903-0.05088 0.102-0.08532 0.18896-0.10235l1.4429-0.28246c0.74836-0.1465 1.1264-0.66454 1.1264-1.5533zm0 4.3907c0-0.68321-0.15507-1.1695-0.46426-1.4573-0.30285-0.28145-0.72486-0.37057-1.2629-0.27044-0.52811 0.09828-0.93576 0.34163-1.2259 0.72978-0.28852 0.38594-0.43227 0.90581-0.43227 1.5615 0 0.65566 0.14375 1.1277 0.43227 1.4176 0.29018 0.29156 0.69782 0.39981 1.2259 0.32229 0.53808-0.07898 0.96009-0.31215 1.2629-0.69995 0.30918-0.38524 0.46426-0.92016 0.46426-1.6034zm0 8.2547c-0.0091-0.61981-0.16007-1.0874-0.45081-1.4019-0.29391-0.3177-0.73147-0.44486-1.3094-0.38349-0.53652 0.05697-0.94199 0.28374-1.219 0.67958-0.2712 0.39864-0.40618 0.90375-0.40618 1.5164 0 0.3547 0.03222 0.65818 0.09652 0.91127 0.06009 0.25912 0.1548 0.49753 0.28406 0.71479l0.45468-0.03172v-0.75605l-0.23427 0.01808c-0.0563-0.10913-0.09721-0.23302-0.12314-0.37135-0.02161-0.13861-0.03276-0.30995-0.03276-0.51507 0-0.36166 0.08222-0.65811 0.2469-0.88978 0.16957-0.22743 0.43185-0.35906 0.78768-0.39383v3.002l0.30506-0.02087c0.48566-0.03322 0.87434-0.21983 1.1638-0.56089 0.2911-0.34298 0.43686-0.82916 0.43686-1.4568 0-0.02031 2.95e-4 -0.04042 0-0.06041zm0 22.671c-0.0091-0.6218-0.16007-1.1222-0.45081-1.4999-0.29391-0.3816-0.73147-0.60389-1.3094-0.66816-0.53652-0.05967-0.94199 0.07894-1.219 0.41456-0.2712 0.33968-0.40618 0.81544-0.40618 1.4281 0 0.3547 0.03222 0.66519 0.09652 0.93226 0.06009 0.27218 0.1548 0.53118 0.28406 0.77655l0.45468 0.06714v-0.75606l-0.23427-0.03284c-0.0563-0.12137-0.09721-0.25415-0.12314-0.39812-0.02161-0.14331-0.03276-0.31766-0.03276-0.52278 0-0.36166 0.08222-0.64024 0.2469-0.83611 0.16957-0.19056 0.43185-0.26458 0.78768-0.22199v3.002l0.30506 0.04545c0.48566 0.07236 0.87434-0.02975 1.1638-0.30787 0.2911-0.27969 0.43686-0.73418 0.43686-1.3618 0-0.02031 2.95e-4 -0.04037 0-0.06041zm-0.10242-28.936-0.4703 0.06937v0.17418c0 0.1381-0.01361 0.23383-0.04073 0.28742-0.0226 0.05844-0.07015 0.10673-0.14233 0.14456l-2.5331 1.4729v0.88768l2.5331 0.82361c0.07219 0.02509 0.11974 0.06134 0.14233 0.10855 0.02712 0.05225 0.04073 0.14454 0.04073 0.27712v0.18268l0.4703-0.0496v-1.1571l-2.506-0.71514 2.506-1.3491zm0 18.004-0.50459-0.01278v0.17412c0 0.10492-0.0204 0.1791-0.06106 0.22209-0.04062 0.04296-0.10361 0.063-0.18916 0.06046l-1.7121-0.05101c-0.08695-0.0026-0.14993-0.02889-0.18896-0.07871-0.03467-0.04425-0.05236-0.12025-0.05236-0.22835v-0.20308l-0.47829-0.01188v1.848l0.47828 0.02063v-0.20248c0-0.10269 0.01769-0.17518 0.05236-0.21707 0.03903-0.04175 0.102-0.06085 0.18896-0.05752l1.2618 0.04838c0.23692 0.0091 0.41198 0.08146 0.5245 0.21816 0.11728 0.13718 0.17602 0.36332 0.17602 0.67808v0.46412l0.50459 0.02584v-0.38286c0-0.23861-0.02746-0.44789-0.08219-0.62769-0.05466-0.17407-0.15242-0.31896-0.2931-0.43496l0.37529-0.10299zm0 3.0799-0.51104-0.02805v0.24023c0 0.11043-0.0204 0.18636-0.06105 0.22811-0.0361 0.0475-0.09716 0.06873-0.18271 0.06358l-1.7058-0.10262c-0.08696-0.0052-0.14994-0.03344-0.18898-0.08444-0.039-0.04556-0.05856-0.12221-0.05856-0.23031v-0.23514l-0.47828-0.02624v1.9284l0.47828 0.03538v-0.23514c0-0.10269 0.01955-0.17682 0.05856-0.22276 0.03903-0.04598 0.10016-0.0662 0.18277-0.06052l2.4669 0.16948zm0 10.405-0.50459-0.07809v0.17351c0 0.10492-0.0204 0.17647-0.06106 0.21418-0.04062 0.0377-0.10361 0.04959-0.18916 0.03597l-1.7121-0.2726c-0.08695-0.01385-0.14993-0.04829-0.18896-0.10316-0.03467-0.04874-0.05236-0.12703-0.05236-0.23513v-0.20249l-0.47829-0.07379v1.8475l0.47828 0.08254v-0.20248c0-0.10269 0.01769-0.17288 0.05236-0.21029 0.03903-0.03671 0.102-0.04765 0.18896-0.03306l1.2618 0.21169c0.23692 0.03974 0.41198 0.1354 0.5245 0.28665 0.11728 0.15236 0.17602 0.3861 0.17602 0.70087v0.46351l0.50459 0.09115v-0.38286c0-0.23861-0.02746-0.45144-0.08219-0.63832-0.05466-0.18114-0.15242-0.33868-0.2931-0.4729l0.37529-0.0538zm-0.38925-25.129c0 0.7021-0.32952 1.0784-0.98269 1.1285v-2.1688c0.30319-0.02963 0.54304 0.04335 0.71855 0.21936 0.17611 0.17661 0.26415 0.45058 0.26415 0.82099zm0 22.564c0 0.7021-0.32952 1.0068-0.98269 0.91484v-2.1682c0.30319 0.03628 0.54304 0.16141 0.71855 0.37558 0.17611 0.2149 0.26415 0.5074 0.26415 0.8778zm-0.02041-30.828c0 0.39796-0.10161 0.70996-0.30462 0.93528-0.19774 0.22374-0.50192 0.36725-0.91053 0.43062-0.40098 0.06219-0.6963 0.01297-0.88795-0.14666-0.19093-0.15903-0.28625-0.43276-0.28625-0.82156 0-0.3888 0.09532-0.69426 0.28624-0.91685 0.19165-0.218 0.48697-0.36259 0.88795-0.43384 0.4086-0.07261 0.71279-0.03329 0.91052 0.11913 0.20302 0.15774 0.30462 0.43592 0.30462 0.83388z" fill="currentColor" fill-opacity="0.35" />
      <path d="m29.498 34.351 1.2554-0.0035c0.66183-0.0018 1.122-0.14472 1.3837-0.42803 0.2935-0.31764 0.43986-0.82859 0.43986-1.5337v-13.591c0-0.70512-0.13008-1.2117-0.39087-1.5205-0.26162-0.34516-0.72148-0.55253-1.3829-0.62169l-1.0526-0.11006v-4.035l6.2152 0.80096 0.27993 3.4996c1.0487-1.3598 2.2197-2.2769 3.5073-2.7588 1.2959-0.5036 2.8285-0.63289 4.5832-0.39822 4.3479 0.58147 6.4295 3.4598 6.4295 8.6597v10.243c0 0.6265 0.10253 1.0809 0.30717 1.3626 0.22952 0.24963 0.59778 0.37345 1.1027 0.37206l1.0488-0.0029v3.4181l-6.6961 0.1791v-15.862c0-1.612-0.28587-2.8008-0.86091-3.5706-0.57948-0.80835-1.5272-1.2873-2.8572-1.4341-1.4698-0.16225-2.7016 0.18938-3.6834 1.0654-0.9942 0.8872-1.4961 2.2233-1.4961 3.9998v10.352c0 0.68328 0.10672 1.1788 0.31973 1.4861 0.24274 0.2723 0.65066 0.40734 1.2212 0.40577l1.1582-0.0032v3.7274l-10.832 0.28972z" fill="currentColor" fill-opacity="0.35" />
    </svg>
  </g>
</svg>