<svg width="1253" height="866" viewBox="0 0 1253 866" fill="none" xmlns="http://www.w3.org/2000/svg">
<g clip-path="url(#clip0_22_10507)">
<rect width="1253" height="866" fill="white"/>
<g clip-path="url(#clip1_22_10507)" filter="url(#filter0_d_22_10507)">
<rect width="1920" height="960" transform="translate(0 0.344971)" fill="#070707"/>
<path d="M1186.47 201.295V187.095H1176.07L1175.97 193.095H1173.27C1168.87 193.395 1165.47 196.995 1165.47 201.395H1186.47V201.295Z" stroke="white" stroke-width="3" stroke-miterlimit="10"/>
<path d="M1210.47 76.7949V80.5949C1210.47 90.4949 1197.67 98.5949 1192.47 98.5949C1187.27 98.5949 1174.47 90.4949 1174.47 80.5949V78.3949V76.7949" stroke="white" stroke-width="3" stroke-miterlimit="10"/>
<path d="M1178.27 75.9949H1185.67C1187.47 75.9949 1189.07 77.2948 1189.47 79.5948C1189.07 81.8948 1187.47 82.7949 1185.67 82.7949C1182.87 82.7949 1180.27 81.8948 1178.47 79.0948L1178.27 78.6949V75.9949Z" stroke="white" stroke-width="3" stroke-miterlimit="10"/>
<path d="M1206.77 75.9949H1199.37C1197.57 75.9949 1195.97 77.2948 1195.57 79.5948C1195.97 81.8948 1197.57 82.7949 1199.37 82.7949C1202.17 82.7949 1204.77 81.8948 1206.57 79.0948L1206.77 78.6949V75.9949Z" stroke="white" stroke-width="3" stroke-miterlimit="10"/>
<path d="M1189.47 78.2949H1195.47" stroke="white" stroke-width="3" stroke-miterlimit="10"/>
<path d="M1179.07 186.995V156.995" stroke="white" stroke-width="3" stroke-miterlimit="10"/>
<path d="M1206.07 192.295V156.995" stroke="white" stroke-width="3" stroke-miterlimit="10"/>
<path d="M1198.47 188.595L1194.77 163.795" stroke="white" stroke-width="3" stroke-miterlimit="10"/>
<path d="M1186.47 188.595L1189.47 162.995" stroke="white" stroke-width="3" stroke-miterlimit="10"/>
<path d="M1185.77 89.595C1187.27 90.595 1188.97 91.095 1190.77 91.095H1193.57C1195.37 91.095 1197.07 90.595 1198.57 89.595" stroke="white" stroke-width="3" stroke-miterlimit="10"/>
<path d="M1178.27 78.2949H1173.77" stroke="white" stroke-width="3" stroke-miterlimit="10"/>
<path d="M1206.77 78.2949H1210.47" stroke="white" stroke-width="3" stroke-miterlimit="10"/>
<path d="M1197.77 53.595C1199.87 53.595 1201.57 54.495 1201.57 56.595L1202.97 56.995C1205.17 57.595 1206.07 58.895 1206.07 61.895C1206.07 64.895 1202.37 67.095 1199.27 67.095H1190.27C1179.67 67.095 1176.67 68.695 1174.47 74.595H1172.97V66.395H1171.47C1171.47 56.295 1179.07 53.595 1197.77 53.595Z" stroke="white" stroke-width="3" stroke-miterlimit="10"/>
<path d="M1197.07 200.595C1197.07 196.495 1200.47 193.095 1204.57 193.095C1208.67 193.095 1212.07 196.495 1212.07 200.595" stroke="white" stroke-width="3" stroke-miterlimit="10"/>
<path d="M1205.27 186.995H1195.47V201.295H1213.47" stroke="white" stroke-width="3" stroke-miterlimit="10"/>
<path d="M1166.27 198.295H1185.77" stroke="white" stroke-width="3" stroke-miterlimit="10"/>
<path d="M1197.77 198.295H1212.07" stroke="white" stroke-width="3" stroke-miterlimit="10"/>
<path d="M1212.77 135.995V128.495V124.795C1212.77 119.395 1209.27 114.595 1204.17 112.895C1196.87 110.495 1188.87 111.795 1182.77 116.495H1180.57V108.995L1176.77 111.195H1168.57L1164.77 108.995V119.495C1164.77 121.895 1165.87 124.095 1167.77 125.495V128.495C1165.27 128.495 1163.27 130.495 1163.27 132.995V133.795H1168.47" stroke="white" stroke-width="3" stroke-miterlimit="10"/>
<path d="M1214.27 135.995H1203.07L1199.27 133.495H1195.47V135.195H1189.47V138.995L1192.47 142.695H1220.27V125.195C1220.27 116.795 1216.47 109.195 1210.57 104.095" stroke="white" stroke-width="3" stroke-miterlimit="10"/>
<path d="M1179.07 129.995L1180.47 134.595L1178.27 139.795H1170.77L1168.57 137.095L1168.47 133.795H1170.77L1172.27 129.995H1179.07Z" stroke="white" stroke-width="3" stroke-miterlimit="10"/>
<path d="M1174.47 138.995V145.695C1174.47 149.695 1175.77 153.495 1178.17 156.695L1178.97 157.795H1206.77" stroke="white" stroke-width="3" stroke-miterlimit="10"/>
<path d="M1185.07 96.2949V100.095C1185.07 104.195 1188.47 107.595 1192.57 107.595C1196.67 107.595 1200.07 104.195 1200.07 100.095V96.2949" stroke="white" stroke-width="3" stroke-miterlimit="10"/>
<path d="M1200.77 95.595L1208.37 96.895C1211.77 97.495 1214.27 100.395 1214.27 103.895V104.695H1212.07H1206.97C1201.87 105.195 1196.97 106.695 1192.57 109.195" stroke="white" stroke-width="3" stroke-miterlimit="10"/>
<path d="M1184.27 95.595L1176.67 96.895C1173.27 97.495 1170.77 100.395 1170.77 103.895V104.695H1172.97H1178.07C1183.17 105.195 1188.07 106.695 1192.47 109.195" stroke="white" stroke-width="3" stroke-miterlimit="10"/>
<path d="M1179.07 162.995H1205.27" stroke="white" stroke-width="3" stroke-miterlimit="10"/>
<path d="M1177.47 117.995C1177.47 117.195 1176.77 116.495 1175.97 116.495C1175.17 116.495 1174.47 117.195 1174.47 117.995" stroke="white" stroke-width="1.5" stroke-miterlimit="10"/>
<path d="M1171.47 117.995C1171.47 117.195 1170.77 116.495 1169.97 116.495C1169.17 116.495 1168.47 117.195 1168.47 117.995" stroke="white" stroke-width="1.5" stroke-miterlimit="10"/>
<path d="M1214.27 103.795V108.295" stroke="white" stroke-width="3" stroke-miterlimit="10"/>
<path d="M1212.77 142.795V156.295C1212.77 158.795 1214.77 160.795 1217.27 160.795C1217.27 164.495 1214.27 167.595 1210.47 167.595C1207.97 167.595 1205.97 165.595 1205.97 163.095V142.795" stroke="white" stroke-width="3" stroke-miterlimit="10"/>
<path d="M1212.07 124.795H1219.47" stroke="white" stroke-width="3" stroke-miterlimit="10"/>
<path d="M1212.07 129.295H1219.47" stroke="white" stroke-width="3" stroke-miterlimit="10"/>
<path d="M1192.47 108.295V111.995" stroke="white" stroke-width="3" stroke-miterlimit="10"/>
<path d="M1202.27 120.295C1197.77 120.295 1193.77 123.495 1192.47 127.795V130.795" stroke="white" stroke-width="3" stroke-miterlimit="10"/>
<path d="M1192.47 142.795V162.995" stroke="white" stroke-width="3" stroke-miterlimit="10"/>
<path d="M1192.47 129.295H1190.97C1188.47 129.295 1186.47 131.295 1186.47 133.795H1180.47" stroke="white" stroke-width="3" stroke-miterlimit="10"/>
<path d="M1206.07 153.295L1196.27 147.995H1188.07L1179.07 153.995V156.995" stroke="white" stroke-width="3" stroke-miterlimit="10"/>
<path d="M1210.57 77.995L1210.67 72.495C1210.67 67.495 1208.67 62.895 1205.37 59.595" stroke="white" stroke-width="3" stroke-miterlimit="10"/>
<path d="M1166.71 736.151V740.651C1166.71 750.551 1174.71 758.451 1184.61 758.651C1194.71 758.851 1202.71 750.651 1202.71 740.651V736.151C1202.71 726.251 1195.31 730.351 1185.41 730.151C1175.31 729.951 1166.71 726.051 1166.71 736.151Z" stroke="white" stroke-width="3" stroke-miterlimit="10"/>
<path d="M1178.71 748.151C1179.61 750.651 1181.81 752.451 1184.61 752.451C1187.41 752.451 1189.81 750.651 1190.71 748.151" stroke="white" stroke-width="3" stroke-miterlimit="10"/>
<path d="M1211.71 733.851C1211.71 747.551 1200.41 758.651 1184.71 758.651C1169.01 758.651 1157.71 747.551 1157.71 733.851C1157.71 720.151 1168.21 712.851 1183.91 712.851C1199.61 712.851 1211.71 720.151 1211.71 733.851Z" stroke="white" stroke-width="3" stroke-miterlimit="10"/>
<path d="M1199.71 804.351V852.351H1195.21V860.551H1183.91V856.051C1184.41 854.351 1186.61 853.051 1188.41 853.051L1188.01 822.851H1184.61L1181.61 852.351H1177.11V860.551H1160.41L1160.61 857.951C1161.41 855.751 1163.51 854.551 1165.91 854.551H1171.11V818.351" stroke="white" stroke-width="3" stroke-miterlimit="10"/>
<path d="M1164.71 789.851V798.151L1173.41 804.851H1180.91V805.651L1179.41 807.151L1184.71 811.651L1181.71 814.651H1176.41L1170.41 809.351L1156.91 800.451V789.851H1170.41" stroke="white" stroke-width="2.8755" stroke-miterlimit="10"/>
<path d="M1205.71 798.851H1197.51C1195.81 796.551 1192.81 795.051 1190.01 795.051V796.551H1185.51V800.651L1190.01 804.751H1212.51V786.751" stroke="white" stroke-width="3" stroke-miterlimit="10"/>
<path d="M1178.51 760.851C1179.41 763.351 1181.81 765.151 1184.61 765.151C1187.41 765.151 1189.81 763.351 1190.71 760.851" stroke="white" stroke-width="3" stroke-miterlimit="10"/>
<path d="M1212.41 787.151C1212.41 771.851 1200.01 759.351 1184.61 759.351C1169.21 759.351 1156.81 771.751 1156.81 787.151V790.151" stroke="white" stroke-width="3" stroke-miterlimit="10"/>
<path d="M1201.01 792.451C1206.69 792.451 1211.31 787.84 1211.31 782.151C1211.31 776.463 1206.69 771.851 1201.01 771.851C1195.32 771.851 1190.71 776.463 1190.71 782.151C1190.71 787.84 1195.32 792.451 1201.01 792.451Z" stroke="white" stroke-width="3" stroke-miterlimit="10"/>
<path d="M1193.71 774.851L1168.11 799.651" stroke="white" stroke-width="3" stroke-miterlimit="10"/>
<path d="M1193.21 804.551L1182.41 815.351" stroke="white" stroke-width="3" stroke-miterlimit="10"/>
<path d="M1210.11 787.651L1199.31 798.451" stroke="white" stroke-width="3" stroke-miterlimit="10"/>
<path d="M1164.71 805.651C1164.51 806.351 1164.51 807.151 1164.51 807.951C1164.51 813.751 1169.21 818.451 1175.01 818.451C1177.91 818.451 1180.51 817.251 1182.41 815.351" stroke="white" stroke-width="3" stroke-miterlimit="10"/>
<path d="M1185.41 782.351V795.151" stroke="white" stroke-width="3" stroke-miterlimit="10"/>
<path d="M1195.91 774.851C1199.41 778.351 1199.41 784.051 1195.91 787.651L1194.41 789.151H1185.41" stroke="white" stroke-width="3" stroke-miterlimit="10"/>
<path d="M1166.71 777.851L1168.01 780.151C1170.11 784.051 1171.21 788.351 1171.21 792.851V796.651" stroke="white" stroke-width="3" stroke-miterlimit="10"/>
<path d="M1185.26 542.267C1185.26 546.467 1188.66 549.867 1192.86 549.867C1197.06 549.867 1200.46 546.467 1200.46 542.267" stroke="white" stroke-width="3" stroke-miterlimit="10"/>
<path d="M1191.26 565.567L1186.26 559.567C1185.06 558.267 1183.36 557.467 1181.56 557.467H1174.16L1173.06 561.767H1182.76L1188.26 567.767" stroke="white" stroke-width="3" stroke-miterlimit="10"/>
<path d="M1176.86 561.167V565.467" stroke="white" stroke-width="3" stroke-miterlimit="10"/>
<path d="M1220.56 578.467V568.267C1220.56 553.367 1208.76 540.867 1193.86 540.767C1193.46 540.767 1193.06 540.767 1192.66 540.767C1183.36 541.067 1175.46 547.967 1173.46 557.067L1170.26 571.467H1168.76L1155.96 566.367V563.367L1153.76 561.567L1152.96 557.367H1150.76" stroke="white" stroke-width="3" stroke-miterlimit="10"/>
<path d="M1150.06 571.567V552.067C1150.06 550.267 1149.26 548.567 1147.96 547.367L1142.36 542.467L1138.76 544.967L1145.66 551.167V561.767" stroke="white" stroke-width="3" stroke-miterlimit="10"/>
<path d="M1141.86 547.067L1138.96 550.367" stroke="white" stroke-width="3" stroke-miterlimit="10"/>
<path d="M1148.56 561.767H1144.76L1143.26 563.267L1144.66 568.367C1145.16 570.067 1146.66 571.467 1148.46 571.467H1151.46" stroke="white" stroke-width="3" stroke-miterlimit="10"/>
<path d="M1176.36 529.467C1179.16 535.867 1185.46 540.267 1192.86 540.267C1202.76 540.267 1210.86 532.167 1210.86 522.267" stroke="white" stroke-width="3" stroke-miterlimit="10"/>
<path d="M1174.26 515.967C1175.36 506.867 1183.06 499.767 1192.46 499.767C1202.56 499.767 1210.86 507.967 1210.86 518.167L1210.76 520.767" stroke="white" stroke-width="3.0149" stroke-miterlimit="10"/>
<path d="M1168.76 517.667V521.267C1169.26 525.367 1172.76 528.667 1176.96 528.667C1181.26 528.667 1188.16 528.667 1192.46 528.667C1196.66 528.667 1200.36 525.267 1200.86 521.267V517.667C1200.86 516.367 1199.86 515.367 1198.56 515.267H1171.06C1169.86 515.367 1168.76 516.467 1168.76 517.667Z" stroke="white" stroke-width="3" stroke-miterlimit="10"/>
<path d="M1194.96 515.267V521.367C1194.46 525.467 1191.06 528.767 1186.86 528.767" stroke="white" stroke-width="3" stroke-miterlimit="10"/>
<path d="M1195.96 520.767H1212.36" stroke="white" stroke-width="3" stroke-miterlimit="10"/>
<path d="M1195.96 515.267H1210.76" stroke="white" stroke-width="3" stroke-miterlimit="10"/>
<path d="M1210.76 578.267V588.067H1207.76L1220.56 628.567V630.067H1219.06V638.267H1207.06V633.667C1207.56 631.967 1209.06 630.767 1210.86 630.767H1213.06L1196.56 596.267H1191.36L1192.16 630.067H1188.36V638.267H1171.86L1172.06 635.667C1172.86 633.467 1174.96 631.967 1177.36 631.967H1182.36V588.067H1180.86V569.267H1180.06L1170.26 579.767H1168.66L1154.56 571.567H1150.76" stroke="white" stroke-width="3" stroke-miterlimit="10"/>
<path d="M1210.06 515.267L1210.86 520.067C1214.16 520.667 1216.26 522.667 1215.66 525.867L1212.26 543.367C1211.66 546.567 1214.66 552.867 1221.56 552.767C1229.66 552.667 1230.56 543.667 1230.56 543.667L1227.46 543.067C1224.26 542.467 1222.26 539.367 1222.86 536.267L1223.96 530.567C1225.56 522.467 1219.06 516.867 1210.96 515.367H1208.76" stroke="white" stroke-width="3" stroke-miterlimit="10"/>
<path d="M1220.56 573.767V580.567H1219.76L1198.06 572.267L1192.76 574.567L1186.76 569.967V566.967L1191.26 564.767L1189.76 561.767H1194.26L1197.26 563.967L1198.76 566.967L1212.26 570.767V564.767" stroke="white" stroke-width="3" stroke-miterlimit="10"/>
<path d="M1183.36 587.967H1207.06" stroke="white" stroke-width="3" stroke-miterlimit="10"/>
<path d="M1199.56 588.767V590.967L1206.26 594.767H1209.26" stroke="white" stroke-width="3" stroke-miterlimit="10"/>
<path d="M1192.76 574.567L1195.76 578.267" stroke="white" stroke-width="3" stroke-miterlimit="10"/>
<path d="M1146.26 570.767V575.967" stroke="white" stroke-width="3" stroke-miterlimit="10"/>
<path d="M1190.76 329.483L1189.16 320.383" stroke="white" stroke-width="3" stroke-miterlimit="10"/>
<path d="M1165.16 320.383L1163.56 329.383C1165.96 331.183 1171.16 332.383 1177.16 332.383" stroke="white" stroke-width="3" stroke-miterlimit="10"/>
<path d="M1159.16 306.982C1159.16 306.982 1159.66 293.083 1177.96 293.083" stroke="white" stroke-width="3" stroke-miterlimit="10"/>
<path d="M1195.16 306.982C1195.16 306.982 1194.66 293.083 1176.36 293.083" stroke="white" stroke-width="3" stroke-miterlimit="10"/>
<path d="M1190.66 328.583C1198.76 333.283 1204.16 341.982 1204.16 351.982V374.482L1201.96 378.182H1192.16" stroke="white" stroke-width="3" stroke-miterlimit="10"/>
<path d="M1163.66 328.583C1155.56 333.283 1150.16 341.982 1150.16 351.982V373.782L1152.36 378.282H1162.16" stroke="white" stroke-width="3" stroke-miterlimit="10"/>
<path d="M1160.66 346.683L1163.66 369.183V403.183M1190.66 403.183V338.383V403.183Z" stroke="white" stroke-width="3" stroke-miterlimit="10"/>
<path d="M1163.66 384.183H1189.96" stroke="white" stroke-width="3" stroke-miterlimit="10"/>
<path d="M1176.76 276.883C1178.19 276.883 1179.36 275.719 1179.36 274.283C1179.36 272.847 1178.19 271.683 1176.76 271.683C1175.32 271.683 1174.16 272.847 1174.16 274.283C1174.16 275.719 1175.32 276.883 1176.76 276.883Z" stroke="white" stroke-width="3" stroke-miterlimit="10"/>
<path d="M1195.16 306.983C1195.16 316.883 1187.06 324.983 1177.16 324.983C1167.26 324.983 1159.16 316.883 1159.16 306.983" stroke="white" stroke-width="3" stroke-miterlimit="10"/>
<path d="M1159.16 306.983V297.983C1159.16 288.083 1167.26 276.983 1177.16 276.983C1187.06 276.983 1195.16 288.083 1195.16 297.983V306.983" stroke="white" stroke-width="3" stroke-miterlimit="10"/>
<path d="M1171.36 314.383C1172.06 316.983 1174.36 318.883 1177.16 318.883C1179.96 318.883 1182.26 316.983 1182.96 314.383" stroke="white" stroke-width="3" stroke-miterlimit="10"/>
<path d="M1190.66 392.483V327.983" stroke="white" stroke-width="3" stroke-miterlimit="10"/>
<path d="M1177.36 324.983V358.683" stroke="white" stroke-width="3" stroke-miterlimit="10"/>
<path d="M1202.66 293.183C1208.46 293.183 1213.16 297.883 1213.16 303.683V422.683" stroke="white" stroke-width="3" stroke-miterlimit="10"/>
<path d="M1208.66 287.183C1214.46 287.183 1219.16 291.883 1219.16 297.683V422.683" stroke="white" stroke-width="3" stroke-miterlimit="10"/>
<path d="M1186.16 352.683V358.683" stroke="white" stroke-width="3" stroke-miterlimit="10" stroke-linejoin="round"/>
<path d="M1181.66 352.683V358.683" stroke="white" stroke-width="3" stroke-miterlimit="10" stroke-linejoin="round"/>
<path d="M1162.16 300.783V305.483H1162.26C1162.66 308.883 1165.46 311.483 1168.96 311.483C1172.46 311.483 1175.26 308.883 1175.66 305.483H1178.86C1179.26 308.883 1182.06 311.483 1185.56 311.483C1189.06 311.483 1191.86 308.883 1192.26 305.483H1192.36V300.783H1162.16Z" stroke="white" stroke-width="3" stroke-miterlimit="10"/>
<path d="M1153.16 378.183V379.283C1153.16 383.383 1154.76 387.283 1157.66 390.183H1163.66" stroke="white" stroke-width="3" stroke-miterlimit="10"/>
<path d="M1201.16 378.183V379.283C1201.16 383.383 1199.56 387.283 1196.66 390.183H1190.66" stroke="white" stroke-width="3" stroke-miterlimit="10"/>
<path d="M1160.66 378.983V384.183H1164.36" stroke="white" stroke-width="3" stroke-miterlimit="10"/>
<path d="M1193.66 378.983V384.183H1189.96" stroke="white" stroke-width="3" stroke-miterlimit="10"/>
<path d="M1186.16 403.183L1179.36 384.983" stroke="white" stroke-width="3" stroke-miterlimit="10" stroke-linejoin="round"/>
<path d="M1150.16 373.683H1162.96" stroke="white" stroke-width="3" stroke-miterlimit="10"/>
<path d="M1191.36 373.683H1204.16" stroke="white" stroke-width="3" stroke-miterlimit="10"/>
<path d="M1150.96 353.383H1154.66" stroke="white" stroke-width="3" stroke-miterlimit="10"/>
<path d="M1150.96 358.683H1154.66" stroke="white" stroke-width="3" stroke-miterlimit="10"/>
<path d="M1185.36 415.183V403.183H1193.66V415.183" stroke="white" stroke-width="3" stroke-miterlimit="10"/>
<path d="M1196.66 421.183V419.683C1196.66 416.383 1193.96 413.683 1190.66 413.683H1189.16C1185.86 413.683 1183.16 416.383 1183.16 419.683V421.183H1196.66Z" stroke="white" stroke-width="3" stroke-miterlimit="10"/>
<path d="M1186.16 406.983H1194.06" stroke="white" stroke-width="3" stroke-miterlimit="10"/>
<path d="M1174.96 391.683H1163.76V412.183H1159.96C1157.56 412.183 1155.56 414.183 1155.56 416.583C1155.56 418.983 1157.56 421.183 1159.96 421.183H1175.06V391.683H1174.96Z" stroke="white" stroke-width="3" stroke-miterlimit="10"/>
<path d="M1163.66 396.983L1174.96 404.483" stroke="white" stroke-width="3" stroke-miterlimit="10"/>
<path d="M1163.66 406.983L1174.96 409.183" stroke="white" stroke-width="3" stroke-miterlimit="10"/>
<path d="M1163.66 412.783L1174.96 420.283" stroke="white" stroke-width="3" stroke-miterlimit="10"/>
<path d="M1163.26 412.383L1159.96 420.383" stroke="white" stroke-width="3" stroke-miterlimit="10"/>
<path d="M1174.96 384.183V390.983" stroke="white" stroke-width="3" stroke-miterlimit="10" stroke-linejoin="round"/>
<path d="M1162.96 377.383H1189.96" stroke="white" stroke-width="3" stroke-miterlimit="10" stroke-linejoin="round"/>
<path d="M967.85 864.802C967.85 868.902 971.25 872.302 975.35 872.302C979.45 872.302 982.85 868.902 982.85 864.802" stroke="white" stroke-width="3" stroke-miterlimit="10"/>
<path d="M984.45 865.002C994.95 868.702 1002.35 878.702 1002.35 890.402V906.202H998.55L991.05 890.002H984.35L981.25 887.002V883.002H987.25V881.502C990.05 881.502 992.75 882.802 994.35 885.102L998.45 894.302" stroke="white" stroke-width="3" stroke-miterlimit="10"/>
<path d="M986.55 864.602H990.35C994.65 864.602 998.25 861.102 998.25 856.702V843.902C998.25 831.702 988.35 821.002 976.15 820.702C963.35 820.402 952.85 830.602 952.85 843.402V868.002C952.85 870.502 950.85 872.502 948.35 872.502" stroke="white" stroke-width="3" stroke-miterlimit="10"/>
<path d="M993.35 849.202C993.35 859.102 985.25 867.202 975.35 867.202C965.45 867.202 957.35 859.102 957.35 849.202V846.202H970.85C974.15 846.202 976.85 843.502 976.85 840.202C979.35 840.202 981.35 842.202 981.35 844.702V846.202H993.35V849.202Z" stroke="white" stroke-width="3" stroke-miterlimit="10"/>
<path d="M969.75 856.602C970.45 859.202 972.75 861.102 975.55 861.102C978.35 861.102 980.65 859.202 981.35 856.602" stroke="white" stroke-width="3" stroke-miterlimit="10"/>
<path d="M535.225 854.849C535.925 857.449 538.225 859.349 541.025 859.349C543.825 859.349 546.125 857.449 546.825 854.849" stroke="white" stroke-width="3" stroke-miterlimit="10"/>
<path d="M559.025 838.349C559.025 838.349 551.525 833.849 541.025 833.849C530.525 833.849 523.025 838.349 523.025 838.349C523.025 828.449 535.025 817.349 541.025 817.349C547.725 817.349 559.025 828.449 559.025 838.349Z" stroke="white" stroke-width="3" stroke-miterlimit="10"/>
<path d="M526.025 830.849C525.425 831.049 524.925 831.349 524.525 831.549" stroke="white" stroke-width="3" stroke-miterlimit="10"/>
<path d="M556.025 830.849C552.925 829.549 547.525 827.849 541.025 827.849C534.525 827.849 529.125 829.549 526.025 830.849" stroke="white" stroke-width="3" stroke-miterlimit="10"/>
<path d="M557.525 831.549C557.125 831.349 556.625 831.149 556.025 830.849" stroke="white" stroke-width="3" stroke-miterlimit="10"/>
<path d="M554.525 859.349C555.525 862.249 555.625 865.449 554.925 868.449L554.625 869.849C552.225 871.649 547.025 872.849 541.025 872.849C535.025 872.849 529.925 871.649 527.425 869.849L526.725 867.149C526.225 865.049 526.425 862.849 527.425 860.849" stroke="white" stroke-width="3" stroke-miterlimit="10"/>
<path d="M568.025 850.349C565.525 850.349 563.525 848.349 563.525 845.849V844.349C561.025 844.349 559.025 842.349 559.025 839.849V838.349" stroke="white" stroke-width="3" stroke-miterlimit="10"/>
<path d="M533.525 833.849V835.649C533.525 838.749 530.925 841.349 527.825 841.349V841.649C527.825 844.749 524.625 847.349 521.525 847.349C521.525 850.649 518.825 853.349 515.525 853.349" stroke="white" stroke-width="3" stroke-miterlimit="10"/>
<path d="M550.025 835.349V837.249C550.025 839.549 551.825 841.349 554.125 841.349H554.525V842.849C554.525 845.349 556.525 847.349 559.025 847.349C559.025 857.249 550.925 865.349 541.025 865.349C531.125 865.349 523.025 857.249 523.025 847.349" stroke="white" stroke-width="3" stroke-miterlimit="10"/>
<path d="M562.025 851.849C562.025 855.149 564.725 857.849 568.025 857.849" stroke="white" stroke-width="3" stroke-miterlimit="10"/>
<path d="M523.024 836.849C523.024 839.349 521.024 841.349 518.524 841.349H517.024L514.824 843.549" stroke="white" stroke-width="3" stroke-miterlimit="10"/>
<path d="M539.525 838.349V839.849C539.525 842.349 537.525 844.349 535.025 844.349C535.025 846.849 533.025 848.849 530.525 848.849H529.025" stroke="white" stroke-width="3" stroke-miterlimit="10"/>
<path d="M129.45 865.699C129.45 869.899 132.85 873.299 137.05 873.299C141.25 873.299 144.65 869.899 144.65 865.699" stroke="white" stroke-width="3" stroke-miterlimit="10"/>
<path d="M155.15 847.699C155.15 857.599 147.05 865.699 137.15 865.699C127.25 865.699 119.15 857.599 119.15 847.699" stroke="white" stroke-width="3" stroke-miterlimit="10"/>
<path d="M131.35 855.199C132.05 857.799 134.35 859.699 137.15 859.699C139.95 859.699 142.25 857.799 142.95 855.199" stroke="white" stroke-width="3" stroke-miterlimit="10"/>
<path d="M126.65 862.699H116.15C114.75 858.099 114.65 850.699 114.65 850.699C114.65 840.199 114.65 847.699 114.65 847.699C114.65 840.199 116.15 816.199 137.15 816.199C156.85 816.199 159.65 840.199 159.65 846.199C159.65 850.099 159.65 856.999 158.05 862.699H147.65" stroke="white" stroke-width="3" stroke-miterlimit="10"/>
<path d="M134.45 846.199C134.45 849.199 131.15 850.699 126.25 850.699C122.85 850.699 120.75 848.399 120.75 844.699C120.75 839.999 126.95 841.099 130.35 841.699C133.65 842.299 134.45 843.599 134.45 846.199Z" stroke="white" stroke-width="3" stroke-miterlimit="10"/>
<path d="M139.85 846.199C139.85 849.199 143.15 850.699 148.05 850.699C151.45 850.699 153.55 848.399 153.55 844.699C153.55 839.999 147.35 841.099 143.95 841.699C140.65 842.299 139.85 843.599 139.85 846.199Z" stroke="white" stroke-width="3" stroke-miterlimit="10"/>
<path d="M133.05 844.699C133.05 844.699 137.15 840.199 141.25 844.699" stroke="white" stroke-width="3" stroke-miterlimit="10"/>
<path d="M144.65 841.699C136.05 841.299 131.15 829.699 131.15 829.699H129.65C129.65 829.699 128.55 836.799 122.15 841.699" stroke="white" stroke-width="3" stroke-miterlimit="10"/>
<path d="M164.15 893.199C164.15 878.099 151.75 865.399 136.65 865.699C121.95 865.999 110.15 877.999 110.15 892.699V909.199" stroke="white" stroke-width="3" stroke-miterlimit="10"/>
<path d="M985.85 745.072C990.82 745.072 994.85 741.042 994.85 736.072C994.85 731.101 990.82 727.072 985.85 727.072C980.879 727.072 976.85 731.101 976.85 736.072C976.85 741.042 980.879 745.072 985.85 745.072Z" stroke="white" stroke-width="3" stroke-miterlimit="10"/>
<path d="M974.55 640.472C975.45 640.972 976.55 641.372 977.75 641.372C980.55 641.372 982.95 639.572 983.85 637.072" stroke="white" stroke-width="3" stroke-miterlimit="10"/>
<path d="M958.85 668.572C959.85 670.572 960.35 672.672 960.35 674.972V676.072H980.55L990.35 679.872V685.872H985.15L980.65 682.072H951.45L950.65 680.572V675.372C950.65 665.872 955.55 657.172 962.65 652.172" stroke="white" stroke-width="3" stroke-miterlimit="10"/>
<path d="M996.35 626.572C996.35 626.572 996.35 620.172 996.35 620.072C996.25 608.272 985.05 598.472 972.55 601.372C963.65 603.372 957.45 611.572 957.45 620.672V626.572V644.572C957.45 650.572 954.45 651.272 954.45 651.272V652.072H966.75C971.15 652.072 974.75 648.472 974.75 644.072V636.772C974.75 631.072 979.35 626.472 985.05 626.472H992.75H996.35V626.572Z" stroke="white" stroke-width="3" stroke-miterlimit="10"/>
<path d="M996.35 622.772V644.572C996.35 650.572 999.35 651.272 999.35 651.272V652.072H986.65C983.35 652.072 980.65 649.372 980.65 646.072" stroke="white" stroke-width="3" stroke-miterlimit="10"/>
<path d="M996.35 628.872V629.072C996.35 638.972 988.65 647.472 978.65 647.672H974.55" stroke="white" stroke-width="3" stroke-miterlimit="10"/>
<path d="M981.35 690.272H997.15C999.65 690.272 1001.85 692.072 1002.25 694.572L1006.05 714.972V716.472H1003.05V719.472L1006.25 720.472C1008.85 721.272 1010.55 723.572 1010.55 726.272H997.75V721.772H994.75" stroke="white" stroke-width="3" stroke-miterlimit="10"/>
<path d="M991.85 690.272H1006.15C1008.65 690.272 1010.85 692.072 1011.25 694.572L1015.05 714.972V716.472H1012.05V719.472L1015.25 720.472C1017.85 721.272 1019.55 723.572 1019.55 726.272H1012.05" stroke="white" stroke-width="3" stroke-miterlimit="10"/>
<path d="M981.35 682.072V695.572" stroke="white" stroke-width="3" stroke-miterlimit="10"/>
<path d="M929.55 640.472L939.15 640.672L950.55 682.072L955.85 713.572" stroke="white" stroke-width="3" stroke-miterlimit="10"/>
<path d="M981.35 676.072H997.15V670.072L993.35 668.572L986.55 671.572H981.35" stroke="white" stroke-width="3" stroke-miterlimit="10"/>
<path d="M980.55 676.072V648.272" stroke="white" stroke-width="3" stroke-miterlimit="10"/>
<path d="M952.15 694.772H985.85L994.15 700.772V721.772L987.35 733.772" stroke="white" stroke-width="3" stroke-miterlimit="10"/>
<path d="M944.55 744.972C954.049 744.972 961.75 737.271 961.75 727.772C961.75 718.272 954.049 710.572 944.55 710.572C935.05 710.572 927.35 718.272 927.35 727.772C927.35 737.271 935.05 744.972 944.55 744.972Z" stroke="white" stroke-width="3" stroke-miterlimit="10"/>
<path d="M953.55 682.072C948.25 682.072 943.55 678.472 942.15 673.372L936.85 653.372C936.15 650.772 938.15 648.272 940.75 648.272" stroke="white" stroke-width="3" stroke-miterlimit="10"/>
<path d="M944.55 738.272C950.349 738.272 955.05 733.571 955.05 727.772C955.05 721.973 950.349 717.272 944.55 717.272C938.751 717.272 934.05 721.973 934.05 727.772C934.05 733.571 938.751 738.272 944.55 738.272Z" stroke="white" stroke-width="3" stroke-miterlimit="10"/>
<path d="M985.65 738.272C986.865 738.272 987.85 737.287 987.85 736.072C987.85 734.857 986.865 733.872 985.65 733.872C984.435 733.872 983.45 734.857 983.45 736.072C983.45 737.287 984.435 738.272 985.65 738.272Z" stroke="white" stroke-width="3" stroke-miterlimit="10"/>
<path d="M944.55 729.972C945.765 729.972 946.75 728.987 946.75 727.772C946.75 726.557 945.765 725.572 944.55 725.572C943.335 725.572 942.35 726.557 942.35 727.772C942.35 728.987 943.335 729.972 944.55 729.972Z" stroke="white" stroke-width="3" stroke-miterlimit="10"/>
<path d="M969.35 652.072L974.15 656.872C975.85 658.572 978.15 659.572 980.55 659.572" stroke="white" stroke-width="3" stroke-miterlimit="10"/>
<path d="M993.35 701.572H980.55L959.55 717.372" stroke="white" stroke-width="3" stroke-miterlimit="10"/>
<path d="M981.35 694.772L955.85 713.572" stroke="white" stroke-width="3" stroke-miterlimit="10"/>
<path d="M960.35 717.372H994.85" stroke="white" stroke-width="3" stroke-miterlimit="10"/>
<path d="M994.15 721.772H980.55" stroke="white" stroke-width="3" stroke-miterlimit="10"/>
<path d="M954.35 701.572H943.85V706.772" stroke="white" stroke-width="3" stroke-miterlimit="10"/>
<path d="M997.15 676.072H1002.35L1008.35 667.072" stroke="white" stroke-width="3" stroke-miterlimit="10"/>
<path d="M939.15 640.672C940.05 640.872 957.35 640.672 957.35 640.672" stroke="white" stroke-width="3" stroke-miterlimit="10"/>
<path d="M996.35 730.772H1023.35" stroke="white" stroke-width="3" stroke-miterlimit="10"/>
<path d="M764.188 798.272V846.272H759.688V854.472H748.388V850.072C748.888 848.372 751.088 847.072 752.888 847.072L752.488 816.872H749.088L746.088 846.372H741.588V854.572H724.888L725.088 851.972C725.888 849.772 727.988 848.572 730.388 848.572H735.588V812.372" stroke="white" stroke-width="3" stroke-miterlimit="10"/>
<path d="M762.588 715.472C765.088 715.472 767.088 717.472 767.088 719.972V734.972C767.088 744.772 759.188 752.772 749.388 752.972C739.288 753.172 731.088 744.672 731.088 734.572V722.972C727.788 722.972 725.088 718.072 725.088 714.772H734.088C734.088 714.772 755.188 711.572 758.088 711.372C760.588 711.172 762.588 713.072 762.588 715.472Z" stroke="white" stroke-width="3" stroke-miterlimit="10"/>
<path d="M734.888 737.272H740.888C741.688 737.272 742.388 736.572 742.388 735.772V733.572C742.388 732.772 741.688 732.072 740.888 732.072H734.888L733.388 733.572L734.888 737.272Z" stroke="white" stroke-width="3" stroke-miterlimit="10"/>
<path d="M755.888 737.272H749.888C749.088 737.272 748.388 736.572 748.388 735.772V733.572C748.388 732.772 749.088 732.072 749.888 732.072H755.888L757.388 733.572L755.888 737.272Z" stroke="white" stroke-width="3" stroke-miterlimit="10"/>
<path d="M740.888 732.772H748.388" stroke="white" stroke-width="3" stroke-miterlimit="10"/>
<path d="M734.888 733.472H730.388" stroke="white" stroke-width="3" stroke-miterlimit="10"/>
<path d="M766.388 733.472H755.888" stroke="white" stroke-width="3" stroke-miterlimit="10"/>
<path d="M731.188 722.972H746.088C750.188 722.972 754.188 722.272 757.988 720.772L758.188 720.672H760.388L761.188 727.472C761.588 730.872 764.488 733.472 767.888 733.472" stroke="white" stroke-width="3" stroke-miterlimit="10"/>
<path d="M728.888 783.772V792.072L737.888 799.072H745.388V799.572L743.888 801.072L749.188 805.572L746.188 808.572H740.888L734.888 803.272L721.388 794.372V784.072H734.888" stroke="white" stroke-width="2.8755" stroke-miterlimit="10"/>
<path d="M770.188 793.072H761.988C760.288 790.572 757.288 789.072 754.488 789.072V790.572H749.988V794.672L754.488 799.072H776.988V780.872" stroke="white" stroke-width="3" stroke-miterlimit="10"/>
<path d="M742.988 754.772C743.888 757.272 746.288 759.072 749.088 759.072C751.888 759.072 754.288 757.272 755.188 754.772" stroke="white" stroke-width="3" stroke-miterlimit="10"/>
<path d="M776.888 781.072C776.888 765.772 764.488 753.272 749.088 753.272C733.688 753.272 721.388 765.672 721.388 781.072V784.072" stroke="white" stroke-width="3" stroke-miterlimit="10"/>
<path d="M765.488 786.372C771.176 786.372 775.788 781.76 775.788 776.072C775.788 770.383 771.176 765.772 765.488 765.772C759.799 765.772 755.188 770.383 755.188 776.072C755.188 781.76 759.799 786.372 765.488 786.372Z" stroke="white" stroke-width="3" stroke-miterlimit="10"/>
<path d="M758.188 768.772L732.588 793.572" stroke="white" stroke-width="3" stroke-miterlimit="10"/>
<path d="M757.688 798.472L746.888 809.272" stroke="white" stroke-width="3" stroke-miterlimit="10"/>
<path d="M774.588 781.572L763.788 792.472" stroke="white" stroke-width="3" stroke-miterlimit="10"/>
<path d="M729.188 799.572C728.988 800.272 728.988 801.072 728.988 801.872C728.988 807.672 733.688 812.372 739.488 812.372C742.388 812.372 744.988 811.172 746.888 809.272" stroke="white" stroke-width="3" stroke-miterlimit="10"/>
<path d="M749.888 776.272V789.072" stroke="white" stroke-width="3" stroke-miterlimit="10"/>
<path d="M760.388 768.772C763.888 772.272 763.888 777.972 760.388 781.572L758.888 783.072H749.888" stroke="white" stroke-width="3" stroke-miterlimit="10"/>
<path d="M731.188 771.772L732.488 774.072C734.588 777.972 735.688 782.272 735.688 786.772V790.572" stroke="white" stroke-width="3" stroke-miterlimit="10"/>
<path d="M506.126 674.565C506.126 661.265 516.826 650.565 530.126 650.565H542.126C545.626 650.665 549.126 651.065 552.526 651.865L570.626 661.965L572.826 677.765L575.826 682.265V686.765L574.326 689.765H570.526V685.265H568.326V680.065" stroke="white" stroke-width="3" stroke-miterlimit="10"/>
<path d="M548.126 632.565C548.126 642.465 540.026 650.565 530.126 650.565C520.226 650.565 512.126 642.465 512.126 632.565" stroke="white" stroke-width="3" stroke-miterlimit="10"/>
<path d="M536.126 636.365C536.789 636.365 537.327 636.902 537.327 637.565C537.327 638.228 536.789 638.765 536.126 638.765C535.464 638.765 534.926 638.228 534.926 637.565C534.926 636.902 535.464 636.365 536.126 636.365Z" stroke="white" stroke-width="2"/>
<path d="M522.626 636.365C523.289 636.365 523.827 636.902 523.827 637.565C523.827 638.228 523.289 638.765 522.626 638.765C521.964 638.765 521.426 638.228 521.426 637.565C521.426 636.902 521.964 636.365 522.626 636.365Z" stroke="white" stroke-width="2"/>
<path d="M521.126 651.265C521.126 656.265 525.126 660.265 530.126 660.265C535.126 660.265 539.126 656.265 539.126 651.265" stroke="white" stroke-width="3" stroke-miterlimit="10"/>
<path d="M520.426 721.065V741.665L512.126 745.065V747.265H526.426V721.065" stroke="white" stroke-width="3" stroke-miterlimit="10"/>
<path d="M539.926 721.065V741.665L544.426 744.265V747.265L532.326 747.465V744.265L533.926 742.065V721.065" stroke="white" stroke-width="3" stroke-miterlimit="10"/>
<path d="M515.126 706.965V721.665H526.426L527.926 706.165H530.126L533.926 721.765H545.126V693.465" stroke="white" stroke-width="3" stroke-miterlimit="10"/>
<path d="M506.126 673.565V696.465L504.726 701.665L506.126 706.165H510.726V701.665H512.926" stroke="white" stroke-width="3" stroke-miterlimit="10"/>
<path d="M544.426 660.465L542.126 651.265" stroke="white" stroke-width="3" stroke-miterlimit="10"/>
<path d="M545.126 706.165H512.926V672.365C514.226 672.365 515.326 671.465 515.526 670.165L518.126 653.465" stroke="white" stroke-width="3" stroke-miterlimit="10"/>
<path d="M519.726 736.765H525.726" stroke="white" stroke-width="3" stroke-miterlimit="10"/>
<path d="M534.726 736.765H540.726" stroke="white" stroke-width="3" stroke-miterlimit="10"/>
<path d="M505.426 692.665H512.126" stroke="white" stroke-width="3" stroke-miterlimit="10"/>
<path d="M564.57 687.949C570.728 680.644 569.798 669.73 562.492 663.572C555.187 657.414 544.273 658.344 538.115 665.649C531.957 672.955 532.887 683.869 540.193 690.027C547.498 696.185 558.412 695.254 564.57 687.949Z" stroke="white" stroke-width="3" stroke-miterlimit="10"/>
<path d="M533.526 676.965C538.226 677.165 542.926 675.465 546.426 671.865C550.026 668.265 551.626 663.565 551.526 658.965" stroke="white" stroke-width="3" stroke-miterlimit="10"/>
<path d="M569.126 676.565C564.426 676.365 559.726 678.065 556.226 681.665C552.626 685.265 551.026 689.965 551.126 694.565" stroke="white" stroke-width="3" stroke-miterlimit="10"/>
<path d="M539.126 688.965L563.626 664.465" stroke="white" stroke-width="3" stroke-miterlimit="10"/>
<path d="M518.126 646.565H512.126C509.026 646.565 506.526 644.765 505.526 642.265C505.126 641.265 502.226 640.865 501.926 639.765C501.626 638.765 503.826 637.265 503.626 636.165C503.426 635.065 500.726 634.265 500.626 633.165C500.526 632.065 503.026 630.965 503.026 629.865C503.026 628.765 500.526 627.565 500.626 626.565C500.726 625.465 503.426 624.665 503.626 623.565C503.826 622.465 501.626 620.965 501.926 619.965C502.226 618.865 505.126 618.465 505.526 617.465C505.926 616.465 504.126 614.665 504.626 613.665C505.226 612.665 508.026 612.665 508.726 611.765C509.426 610.865 508.026 608.765 508.826 607.865C509.626 606.965 512.426 607.565 513.326 606.765C514.226 605.965 513.526 603.665 514.526 603.065C515.526 602.365 518.126 603.565 519.226 602.965C520.326 602.465 520.526 600.065 521.726 599.665C522.926 599.265 524.926 601.065 526.226 600.865C527.526 600.665 528.526 598.465 529.926 598.465C531.226 598.465 532.326 600.665 533.626 600.865C534.926 601.065 536.826 599.265 538.026 599.665C539.226 600.065 539.326 602.365 540.526 602.965C541.626 603.465 544.126 602.365 545.226 603.065C546.226 603.765 545.526 606.065 546.426 606.765C547.326 607.565 550.126 606.965 550.926 607.865C551.726 608.665 550.326 610.765 551.026 611.765C551.726 612.665 554.526 612.665 555.126 613.665C555.626 614.665 553.826 616.465 554.226 617.465C554.626 618.465 557.526 618.865 557.826 619.965C558.126 620.965 555.926 622.465 556.126 623.565C556.326 624.665 559.026 625.465 559.126 626.565C559.226 627.665 556.726 628.765 556.726 629.865C556.726 630.965 559.226 632.165 559.126 633.165C559.026 634.265 556.326 635.065 556.126 636.165C555.926 637.265 558.126 638.765 557.826 639.765C557.526 640.865 554.626 641.265 554.226 642.265C553.126 644.865 550.326 646.565 547.126 646.565H541.626" stroke="white" stroke-width="3" stroke-miterlimit="10"/>
<path d="M512.126 634.065V632.565C512.126 624.665 520.226 620.565 530.126 620.565C540.026 620.565 548.126 624.665 548.126 632.565V634.065" stroke="white" stroke-width="3" stroke-miterlimit="10"/>
<path d="M512.126 630.265V626.565C512.126 618.665 520.226 614.565 530.126 614.565C540.026 614.565 548.126 618.665 548.126 626.565V630.365" stroke="white" stroke-width="3" stroke-miterlimit="10"/>
<path d="M317.618 748.865C315.718 745.965 314.618 742.465 314.618 738.765V737.165" stroke="white" stroke-width="3" stroke-miterlimit="10"/>
<path d="M350.618 734.265V739.265C350.618 742.665 349.718 745.865 348.018 748.565" stroke="white" stroke-width="3" stroke-miterlimit="10"/>
<path d="M320.618 758.165C312.118 762.765 305.618 771.865 305.618 782.165L307.118 796.465H308.618L331.118 794.265" stroke="white" stroke-width="3" stroke-miterlimit="10"/>
<path d="M348.418 809.265H319.918V849.065H314.618C312.218 849.065 310.118 850.165 309.318 852.465L309.118 855.065H325.818L328.818 835.565H326.618V825.765H336.718L337.118 847.565C335.318 847.565 333.118 848.865 332.618 850.565V855.065H345.818V837.065H343.818V826.465H348.318V807.665" stroke="white" stroke-width="3" stroke-miterlimit="10"/>
<path d="M341.618 786.665H328.818L319.818 782.965H317.618L314.618 787.465V790.465" stroke="white" stroke-width="3" stroke-miterlimit="10"/>
<path d="M341.618 787.465V782.965L343.718 780.865L345.418 782.265L348.918 778.965L353.618 779.265V783.665L351.418 786.665H339.418" stroke="white" stroke-width="3" stroke-miterlimit="10"/>
<path d="M313.118 789.665H319.918L356.618 796.465H358.118L359.618 782.165C359.618 771.865 353.818 762.865 345.418 758.365" stroke="white" stroke-width="3" stroke-miterlimit="10"/>
<path d="M332.618 759.665V785.965" stroke="white" stroke-width="3" stroke-miterlimit="10"/>
<path d="M331.818 792.665V809.965" stroke="white" stroke-width="3" stroke-miterlimit="10"/>
<path d="M348.418 758.965L328.118 761.265L316.818 758.965V748.465L348.418 745.465V758.965Z" stroke="white" stroke-width="3" stroke-miterlimit="10"/>
<path d="M347.618 755.265H316.818V753.665L348.418 749.265" stroke="white" stroke-width="3" stroke-miterlimit="10"/>
<path d="M319.818 809.265C317.818 806.365 316.818 802.865 316.818 799.365V795.765" stroke="white" stroke-width="3" stroke-miterlimit="10"/>
<path d="M348.418 809.265C350.418 806.365 351.418 802.865 351.418 799.365V795.765" stroke="white" stroke-width="3" stroke-miterlimit="10"/>
<path d="M320.618 815.965H347.618" stroke="white" stroke-width="3" stroke-miterlimit="10"/>
<path d="M313.018 737.765H323.518C329.318 737.765 334.018 733.065 334.018 727.265H337.018C337.018 731.365 340.418 734.765 344.518 734.765H352.018" stroke="white" stroke-width="3" stroke-miterlimit="10"/>
<path d="M316.118 755.265H311.518V731.865C311.518 720.265 320.918 710.865 332.518 710.865C333.518 710.865 334.018 711.165 334.018 713.865C334.018 713.865 353.418 710.865 353.518 731.865L353.618 755.265H348.418" stroke="white" stroke-width="3" stroke-miterlimit="10"/>
<path d="M328.118 761.265V774.365H316.818V761.265" stroke="white" stroke-width="3" stroke-miterlimit="10"/>
<path d="M316.818 769.465H327.418" stroke="white" stroke-width="3" stroke-miterlimit="10"/>
<path d="M316.818 764.665H327.418" stroke="white" stroke-width="3" stroke-miterlimit="10"/>
<path d="M319.418 775.465V779.265H332.618" stroke="white" stroke-width="3" stroke-miterlimit="10"/>
<path d="M337.118 847.465H340.818" stroke="white" stroke-width="3" stroke-miterlimit="10"/>
<path d="M118.4 651.215C118.4 655.415 121.8 658.815 126 658.815C130.2 658.815 133.6 655.415 133.6 651.215" stroke="white" stroke-width="3" stroke-miterlimit="10"/>
<path d="M143.9 633.615L144 630.515C134.8 627.015 124.5 614.015 124.5 614.015C124.5 614.015 108.3 622.415 108 633.615" stroke="white" stroke-width="3" stroke-miterlimit="10"/>
<path d="M143.2 673.015V724.715H134.9" stroke="white" stroke-width="3" stroke-miterlimit="10"/>
<path d="M108.6 700.015V724.715H117.6" stroke="white" stroke-width="3" stroke-miterlimit="10"/>
<path d="M110.2 669.215V691.015" stroke="white" stroke-width="3" stroke-miterlimit="10"/>
<path d="M114.6 724.715V730.015" stroke="white" stroke-width="3" stroke-miterlimit="10"/>
<path d="M117.6 701.415V730.015" stroke="white" stroke-width="3" stroke-miterlimit="10"/>
<path d="M116.2 739.715V745.715H117.6V731.415H110.2L105.6 739.715L96.5999 744.215V745.715H110.2L116.2 739.715Z" stroke="white" stroke-width="3" stroke-miterlimit="10"/>
<path d="M137.2 724.715V730.015" stroke="white" stroke-width="3" stroke-miterlimit="10"/>
<path d="M134.2 678.215V730.015" stroke="white" stroke-width="3" stroke-miterlimit="10"/>
<path d="M135.6 739.715V745.715H134.2V731.415H141.6L146.2 739.715L155.2 744.215V745.715H141.6L135.6 739.715Z" stroke="white" stroke-width="3" stroke-miterlimit="10"/>
<path d="M112.4 655.715L121.4 664.715H122.9L125.8 660.215H126L128.9 664.715H130.4L139.4 655.715" stroke="white" stroke-width="3" stroke-miterlimit="10"/>
<path d="M102.6 665.815C100.7 669.515 99.5999 673.715 99.5999 678.215V698.415L117.6 701.415V696.915H123.4C126.9 696.915 129.7 694.115 129.7 690.615V688.615H123.2L117.7 690.115V692.315H108.7" stroke="white" stroke-width="3" stroke-miterlimit="10"/>
<path d="M143.9 633.215C143.9 643.115 135.8 651.215 125.9 651.215C116 651.215 107.9 643.115 107.9 633.215" stroke="white" stroke-width="3" stroke-miterlimit="10"/>
<path d="M120.1 640.715C120.8 643.315 123.1 645.215 125.9 645.215C128.7 645.215 131 643.315 131.7 640.715" stroke="white" stroke-width="3" stroke-miterlimit="10"/>
<path d="M125.9 600.215C143.9 600.215 149.1 621.515 148.6 628.715C148.1 635.515 145.1 638.015 148.6 649.715C153 664.515 147.2 673.715 147.2 673.715L148.7 678.215H147.2C147.2 678.215 137.9 669.215 140.9 655.715L139.4 654.815C135.4 652.515 130.8 651.215 125.9 651.215C121 651.215 116.4 652.515 112.4 654.815L110.9 655.715C113.9 669.215 104.9 678.215 104.9 678.215H103.4L104.9 673.715C104.9 673.715 98.9998 664.515 103.4 649.715C106.9 638.015 103.9 635.515 103.4 628.715C102.8 621.115 107.9 600.215 125.9 600.215Z" stroke="white" stroke-width="3" stroke-miterlimit="10"/>
<path d="M122.2 690.215V680.415H129.6V690.215" stroke="white" stroke-width="3" stroke-miterlimit="10"/>
<path d="M142.4 712.015L147.6 710.515V706.015H152.1V678.215C152.1 673.915 151.1 669.815 149.3 666.215" stroke="white" stroke-width="3" stroke-miterlimit="10"/>
<path d="M113.2 658.015L116.3 667.915C117.2 670.815 117.7 673.815 117.7 676.815V691.015" stroke="white" stroke-width="3" stroke-miterlimit="10"/>
<path d="M138.6 658.015L135.5 667.915C134.6 670.815 134.1 673.815 134.1 676.815V679.015" stroke="white" stroke-width="3" stroke-miterlimit="10"/>
<path d="M117.6 721.015H134.2" stroke="white" stroke-width="3" stroke-miterlimit="10"/>
<path d="M122.2 697.015L122.9 702.215H128.9L129.6 696.215V691.715" stroke="white" stroke-width="3" stroke-miterlimit="10"/>
<path d="M119.9 681.915L131.9 682.015" stroke="white" stroke-width="3" stroke-miterlimit="10"/>
<path d="M117.6 709.715H134.9" stroke="white" stroke-width="3" stroke-miterlimit="10"/>
<path d="M963.45 395.781V398.781V402.881C963.45 412.281 970.45 420.381 979.85 421.181C990.55 422.081 999.45 413.781 999.45 403.281V395.781" stroke="white" stroke-width="3" stroke-miterlimit="10"/>
<path d="M963.45 395.781V393.981C963.45 384.581 970.45 376.481 979.85 375.681C990.55 374.781 999.45 383.081 999.45 393.581V395.781" stroke="white" stroke-width="3" stroke-miterlimit="10"/>
<path d="M964.95 401.081V403.281H966.55C966.95 406.681 969.75 409.281 973.25 409.281C976.75 409.281 979.55 406.681 979.95 403.281H983.15C983.55 406.681 986.35 409.281 989.85 409.281C993.35 409.281 996.15 406.681 996.55 403.281H998.15V401.081H964.95Z" stroke="white" stroke-width="3" stroke-miterlimit="10"/>
<path d="M991.25 475.281H964.25V454.581C964.25 450.981 963.45 447.381 961.75 444.081L961.25 442.981" stroke="white" stroke-width="3" stroke-miterlimit="10"/>
<path d="M969.45 424.281C960.95 428.881 954.45 437.981 954.45 448.281V478.281H964.95" stroke="white" stroke-width="3" stroke-miterlimit="10"/>
<path d="M994.25 424.481C1002.75 429.081 1008.45 437.981 1008.45 448.281" stroke="white" stroke-width="3" stroke-miterlimit="10"/>
<path d="M991.25 476.781L942.25 530.081" stroke="white" stroke-width="3" stroke-miterlimit="10"/>
<path d="M962.75 401.081L967.25 398.881H973.85C979.65 398.881 985.25 396.481 989.15 392.181L991.25 389.881H992.05L993.55 394.281C994.45 396.781 996.85 398.581 999.55 398.581" stroke="white" stroke-width="3" stroke-miterlimit="10"/>
<path d="M979.25 490.281V517.281H977.75V523.281H968.75V521.781L970.95 518.781V516.581H967.25V475.281" stroke="white" stroke-width="3" stroke-miterlimit="10"/>
<path d="M994.25 478.281V516.581H991.95V518.781L997.95 521.781V523.281H985.25V516.581H983.75V485.081" stroke="white" stroke-width="3" stroke-miterlimit="10"/>
<path d="M964.25 476.081V486.581H960.15L958.65 482.081V478.281" stroke="white" stroke-width="3" stroke-miterlimit="10"/>
<path d="M970.05 416.781V424.981L970.25 425.081C978.05 427.481 986.45 427.481 994.25 424.981V415.981" stroke="white" stroke-width="3" stroke-miterlimit="10"/>
<path d="M982.25 428.081V452.781H994.25V425.081" stroke="white" stroke-width="3" stroke-miterlimit="10"/>
<path d="M981.45 441.581H994.25" stroke="white" stroke-width="3" stroke-miterlimit="10"/>
<path d="M981.45 446.781H994.25" stroke="white" stroke-width="3" stroke-miterlimit="10"/>
<path d="M983.75 453.581V458.081" stroke="white" stroke-width="3" stroke-miterlimit="10"/>
<path d="M988.25 453.581V458.081" stroke="white" stroke-width="3" stroke-miterlimit="10"/>
<path d="M992.75 453.581V458.081" stroke="white" stroke-width="3" stroke-miterlimit="10"/>
<path d="M1008.45 448.281V467.081L1004.75 472.281H999.75L996.75 478.281H988.95V476.081L995.75 469.281L1000.95 466.281" stroke="white" stroke-width="3" stroke-miterlimit="10"/>
<path d="M736.238 569.497V613.197M763.238 614.697V566.497V614.697Z" stroke="white" stroke-width="3" stroke-miterlimit="10"/>
<path d="M767.738 543.397C773.238 548.297 776.738 555.497 776.738 563.497" stroke="white" stroke-width="3" stroke-miterlimit="10"/>
<path d="M722.738 563.497C722.738 555.497 726.138 548.297 731.738 543.297" stroke="white" stroke-width="3" stroke-miterlimit="10"/>
<path d="M721.538 504.997H751.538C760.838 504.997 768.038 505.397 768.038 514.697" stroke="white" stroke-width="3" stroke-miterlimit="10"/>
<path d="M732.038 521.497C733.038 522.697 735.038 523.997 736.538 524.497C736.838 522.697 738.038 519.997 739.538 519.997H747.038C748.638 519.997 749.838 522.697 750.038 524.497C754.538 523.097 758.338 520.597 760.538 516.997V506.297" stroke="white" stroke-width="3" stroke-miterlimit="10"/>
<path d="M768.038 550.397C768.038 564.097 764.838 569.497 751.138 569.497H733.538C730.238 569.497 727.538 566.297 727.538 561.997C731.538 561.997 732.038 559.297 732.038 554.497V518.497" stroke="white" stroke-width="3" stroke-miterlimit="10"/>
<path d="M776.738 563.497L776.838 594.297C776.838 601.797 770.738 608.497 763.238 608.497H736.238C728.738 608.497 722.738 601.797 722.738 594.297V563.497" stroke="white" stroke-width="3" stroke-miterlimit="10"/>
<path d="M736.338 597.897H762.738" stroke="white" stroke-width="3" stroke-miterlimit="10"/>
<path d="M776.737 586.797C776.737 587.797 775.937 588.697 774.837 588.697C773.837 588.697 772.938 587.897 772.938 586.797C772.938 585.697 773.737 584.897 774.837 584.897C775.937 584.897 776.737 585.697 776.737 586.797Z" stroke="white" stroke-width="2" stroke-miterlimit="10"/>
<path d="M726.538 586.797C726.538 587.797 725.738 588.697 724.638 588.697C723.638 588.697 722.738 587.897 722.738 586.797C722.738 585.697 723.538 584.897 724.638 584.897C725.638 584.897 726.538 585.697 726.538 586.797Z" stroke="white" stroke-width="2" stroke-miterlimit="10"/>
<path d="M754.638 590.797C754.638 591.797 753.838 592.697 752.738 592.697C751.738 592.697 750.838 591.897 750.838 590.797C750.838 589.797 751.638 588.897 752.738 588.897C753.838 588.997 754.638 589.797 754.638 590.797Z" stroke="white" stroke-width="2" stroke-miterlimit="10"/>
<path d="M754.938 573.697C754.938 574.697 754.138 575.597 753.038 575.597C752.038 575.597 751.138 574.797 751.138 573.697C751.138 572.697 751.938 571.797 753.038 571.797C754.138 571.797 754.938 572.597 754.938 573.697Z" stroke="white" stroke-width="2" stroke-miterlimit="10"/>
<path d="M754.638 582.297C754.638 583.297 753.838 584.197 752.738 584.197C751.738 584.197 750.838 583.397 750.838 582.297C750.838 581.297 751.638 580.397 752.738 580.397C753.838 580.397 754.638 581.197 754.638 582.297Z" stroke="white" stroke-width="2" stroke-miterlimit="10"/>
<path d="M746.938 598.697V569.997" stroke="white" stroke-width="3" stroke-miterlimit="10"/>
<path d="M768.038 513.997V497.097C768.038 493.997 765.538 491.497 762.438 491.497H737.638C734.538 491.497 732.038 493.997 732.038 497.097V518.497" stroke="white" stroke-width="3" stroke-miterlimit="10"/>
<path d="M768.038 513.997V551.497" stroke="white" stroke-width="3" stroke-miterlimit="10"/>
<path d="M736.238 593.497H722.738" stroke="white" stroke-width="3" stroke-miterlimit="10"/>
<path d="M776.738 593.497H763.238" stroke="white" stroke-width="3" stroke-miterlimit="10"/>
<path d="M764.738 614.697H752.738V631.197L754.238 634.197H767.738C768.538 634.197 769.238 633.497 769.238 632.697V628.197C769.238 626.097 767.738 624.197 765.638 623.797L764.738 623.697V614.697Z" stroke="white" stroke-width="3" stroke-miterlimit="10"/>
<path d="M766.238 623.697H756.438C754.338 623.697 752.638 625.397 752.638 627.497" stroke="white" stroke-width="3" stroke-miterlimit="10"/>
<path d="M734.738 614.697H746.738V632.697C746.738 633.497 746.038 634.197 745.238 634.197H728.738C727.938 634.197 727.238 633.497 727.238 632.697V628.197C727.238 626.097 728.738 624.197 730.838 623.797L734.738 623.697V614.697Z" stroke="white" stroke-width="3" stroke-miterlimit="10"/>
<path d="M746.738 609.497V616.197" stroke="white" stroke-width="3" stroke-miterlimit="10"/>
<path d="M752.738 609.497V616.197" stroke="white" stroke-width="3" stroke-miterlimit="10"/>
<path d="M520.275 453.647V463.547L533.075 458.147L532.275 453.647L535.275 447.647H538.275V461.847L513.475 473.847H512.675L511.175 456.247C511.175 441.347 523.275 429.247 538.175 429.247C553.075 429.247 565.175 441.347 565.175 456.247L563.675 473.847H562.875L538.075 461.847V447.647H541.075L544.075 453.647L543.275 458.147L556.075 462.847V453.647" stroke="white" stroke-width="3" stroke-miterlimit="10"/>
<path d="M520.275 411.247C520.275 421.147 528.275 429.047 538.175 429.247C548.275 429.447 556.275 421.247 556.275 411.247V402.247C556.275 392.347 548.275 384.447 538.375 384.247C528.275 384.047 520.275 392.247 520.275 402.247V411.247Z" stroke="white" stroke-width="3" stroke-miterlimit="10"/>
<path d="M530.775 430.747C530.775 434.847 534.175 438.247 538.275 438.247C542.375 438.247 545.775 434.847 545.775 430.747" stroke="white" stroke-width="3" stroke-miterlimit="10" stroke-linecap="round" stroke-linejoin="round" stroke-dasharray="0.15 0.15"/>
<path d="M538.275 404.747C538.551 404.747 538.775 404.971 538.775 405.247C538.775 405.523 538.551 405.747 538.275 405.747C537.998 405.747 537.775 405.523 537.775 405.247C537.775 404.971 537.998 404.747 538.275 404.747Z" stroke="white" stroke-width="2"/>
<path d="M553.475 470.147V525.647H544.275V527.447H519.975L524.475 469.347" stroke="white" stroke-width="3" stroke-miterlimit="10"/>
<path d="M559.275 439.547C554.175 443.447 546.975 445.947 538.975 445.947C530.175 445.947 522.275 442.947 517.275 438.247" stroke="white" stroke-width="3" stroke-miterlimit="10"/>
<path d="M538.275 468.247V466.747" stroke="white" stroke-width="3" stroke-miterlimit="10"/>
<path d="M544.275 471.647V524.147" stroke="white" stroke-width="3" stroke-miterlimit="10"/>
<path d="M538.275 384.247C538.275 394.247 532.275 403.247 523.075 407.047L520.275 408.247" stroke="white" stroke-width="3" stroke-miterlimit="10"/>
<path d="M538.275 384.247C538.275 394.247 544.275 403.247 553.475 407.047L556.275 408.247" stroke="white" stroke-width="3" stroke-miterlimit="10"/>
<path d="M530.775 385.247C530.775 381.347 533.875 378.247 537.775 378.247C541.675 378.247 544.775 381.347 544.775 385.247" stroke="white" stroke-width="3" stroke-miterlimit="10"/>
<path d="M520.275 411.247V429.247" stroke="white" stroke-width="3" stroke-miterlimit="10" stroke-linecap="round" stroke-linejoin="round" stroke-dasharray="0.15 0.15"/>
<path d="M556.275 411.247V429.247" stroke="white" stroke-width="3" stroke-miterlimit="10" stroke-linecap="round" stroke-linejoin="round" stroke-dasharray="0.15 0.15"/>
<path d="M511.275 458.847H520.275" stroke="white" stroke-width="3" stroke-miterlimit="10"/>
<path d="M556.275 458.847H565.275" stroke="white" stroke-width="3" stroke-miterlimit="10"/>
<path d="M524.775 470.847H553.275" stroke="white" stroke-width="3" stroke-miterlimit="10"/>
<path d="M317.619 612.347H329.619V633.347C329.619 634.147 328.919 634.847 328.119 634.847H311.619C310.819 634.847 310.119 634.147 310.119 633.347V628.847C310.119 626.747 311.619 624.847 313.719 624.447L317.619 624.347V612.347Z" stroke="white" stroke-width="3" stroke-miterlimit="10"/>
<path d="M323.619 624.347H316.119" stroke="white" stroke-width="3" stroke-miterlimit="10"/>
<path d="M319.119 619.847H323.619" stroke="white" stroke-width="3" stroke-miterlimit="10"/>
<path d="M347.619 612.347H335.619V633.347C335.619 634.147 336.319 634.847 337.119 634.847H353.619C354.419 634.847 355.119 634.147 355.119 633.347V628.847C355.119 626.747 353.619 624.847 351.519 624.447L347.619 624.347V612.347Z" stroke="white" stroke-width="3" stroke-miterlimit="10"/>
<path d="M341.619 624.347H349.119" stroke="white" stroke-width="3" stroke-miterlimit="10"/>
<path d="M346.119 619.847H341.619" stroke="white" stroke-width="3" stroke-miterlimit="10"/>
<path d="M359.619 567.347C359.619 552.447 347.519 540.347 332.619 540.347C317.719 540.347 305.619 552.447 305.619 567.347V577.747H319.119" stroke="white" stroke-width="3" stroke-miterlimit="10"/>
<path d="M350.619 522.347C350.619 532.247 342.519 540.347 332.619 540.347C322.719 540.347 314.619 532.247 314.619 522.347" stroke="white" stroke-width="3" stroke-miterlimit="10"/>
<path d="M350.619 523.847H353.619C353.619 523.847 359.619 517.847 353.619 511.847C353.619 511.847 355.119 490.847 332.619 490.847C310.119 490.847 311.619 511.847 311.619 511.847C305.619 517.847 311.619 523.847 311.619 523.847H314.619" stroke="white" stroke-width="3" stroke-miterlimit="10"/>
<path d="M326.819 529.847C327.519 532.447 329.819 534.347 332.619 534.347C335.419 534.347 337.719 532.447 338.419 529.847" stroke="white" stroke-width="3" stroke-miterlimit="10"/>
<path d="M316.119 510.347C316.119 510.347 322.119 507.347 332.619 507.347C343.119 507.347 349.119 510.347 349.119 510.347" stroke="white" stroke-width="3" stroke-miterlimit="10"/>
<path d="M325.119 541.847L332.619 550.847L340.119 541.847" stroke="white" stroke-width="3" stroke-miterlimit="10"/>
<path d="M316.119 546.347H323.519V550.847L332.619 553.847L341.619 550.847V546.347H349.119" stroke="white" stroke-width="3" stroke-miterlimit="10"/>
<path d="M319.119 559.847V611.647" stroke="white" stroke-width="3" stroke-miterlimit="10"/>
<path d="M346.119 562.847V610.847" stroke="white" stroke-width="3" stroke-miterlimit="10"/>
<path d="M332.619 553.847V571.147" stroke="white" stroke-width="3" stroke-miterlimit="10"/>
<path d="M319.119 591.347L346.119 591.547" stroke="white" stroke-width="3" stroke-miterlimit="10"/>
<path d="M322.119 561.347H329.619" stroke="white" stroke-width="3" stroke-miterlimit="10"/>
<path d="M319.119 597.347H359.619V567.347" stroke="white" stroke-width="3" stroke-miterlimit="10"/>
<path d="M350.619 522.347C350.619 519.047 347.919 516.347 344.619 516.347H320.619C317.319 516.347 314.619 519.047 314.619 522.347" stroke="white" stroke-width="3" stroke-miterlimit="10"/>
<path d="M349.119 546.347L319.119 591.347" stroke="white" stroke-width="3" stroke-miterlimit="10"/>
<path d="M353.619 550.847L326.619 591.347" stroke="white" stroke-width="3" stroke-miterlimit="10"/>
<path d="M346.819 598.147V603.347H349.119V607.147H354.019L356.619 603.147V598.147" stroke="white" stroke-width="3" stroke-miterlimit="10"/>
<path d="M359.619 590.647H353.619" stroke="white" stroke-width="3" stroke-miterlimit="10"/>
<path d="M359.619 586.147H350.619" stroke="white" stroke-width="3" stroke-miterlimit="10"/>
<path d="M331.119 597.347L329.619 612.347" stroke="white" stroke-width="3" stroke-miterlimit="10"/>
<path d="M334.119 597.347L335.619 612.347" stroke="white" stroke-width="3" stroke-miterlimit="10"/>
<path d="M118.4 429.447C118.4 433.647 121.8 437.047 126 437.047C130.2 437.047 133.6 433.647 133.6 429.447" stroke="white" stroke-width="3" stroke-miterlimit="10"/>
<path d="M141.5 393.447C143 396.047 143.9 399.147 143.9 402.447V411.447" stroke="white" stroke-width="3" stroke-miterlimit="10"/>
<path d="M130.4 385.047C132.6 385.647 134.6 386.547 136.4 387.847" stroke="white" stroke-width="3" stroke-miterlimit="10"/>
<path d="M115.4 387.847C117.2 386.547 119.2 385.647 121.4 385.047" stroke="white" stroke-width="3" stroke-miterlimit="10"/>
<path d="M107.9 411.447V402.447C107.9 398.747 109 395.347 110.9 392.447" stroke="white" stroke-width="3" stroke-miterlimit="10"/>
<path d="M120.2 419.147C120.9 421.747 123.2 423.647 126 423.647C128.8 423.647 131.1 421.747 131.8 419.147" stroke="white" stroke-width="3" stroke-miterlimit="10"/>
<path d="M152.9 468.647V456.647C152.9 441.747 140.8 429.647 125.9 429.647C111 429.647 98.9001 441.747 98.9001 456.647" stroke="white" stroke-width="3" stroke-miterlimit="10"/>
<path d="M109.4 435.447C109.4 435.447 109.5 435.447 109.4 435.447" stroke="white" stroke-width="3" stroke-linecap="round" stroke-linejoin="round"/>
<path d="M110.9 438.047C112.9 440.747 117.2 444.447 125.9 444.447C136.1 444.447 140.3 439.347 141.7 436.847" stroke="white" stroke-width="3" stroke-linecap="round" stroke-linejoin="round" stroke-dasharray="0.15 0.15"/>
<path d="M142.4 435.547C142.4 435.447 142.4 435.447 142.4 435.547" stroke="white" stroke-width="3" stroke-linecap="round" stroke-linejoin="round"/>
<path d="M108.3 478.447C106.9 480.047 105.7 482.147 105.7 485.047C105.7 491.847 105.7 528.747 105.7 528.747H146.2C146.2 528.747 146.2 491.847 146.2 485.047C146.2 482.547 145.3 480.547 144.1 479.047" stroke="white" stroke-width="3" stroke-miterlimit="10"/>
<path d="M113.9 405.447C113.9 405.447 116.9 402.447 119.9 402.447C122.9 402.447 125.9 405.447 125.9 405.447C125.9 405.447 128.9 402.447 131.9 402.447C134.9 402.447 137.9 405.447 137.9 405.447" stroke="white" stroke-width="3" stroke-miterlimit="10"/>
<path d="M125.9 390.447L118.4 381.447L119.9 379.947L122.9 381.447L125.9 376.947L128.9 381.447L131.9 379.947L133.4 381.447L125.9 390.447Z" stroke="white" stroke-width="3" stroke-miterlimit="10"/>
<path d="M142.8 392.347C141.3 393.847 139 393.847 137.5 392.347C136 390.847 136 388.547 137.5 387.047C138.1 386.447 139.4 384.447 139.4 384.447L140.9 385.947H143.9V388.947L145.4 390.447C145.4 390.447 143.6 391.547 142.8 392.347Z" stroke="white" stroke-width="3" stroke-miterlimit="10"/>
<path d="M109 392.347C110.5 393.847 112.8 393.847 114.3 392.347C115.8 390.847 115.8 388.547 114.3 387.047C113.7 386.447 112.4 384.447 112.4 384.447L110.9 385.947H107.9V388.947L106.4 390.447C106.4 390.447 108.3 391.547 109 392.347Z" stroke="white" stroke-width="3" stroke-miterlimit="10"/>
<path d="M134.9 452.747C134.9 451.547 133.9 450.547 132.7 450.547C130.5 450.547 130.5 453.547 130.5 453.547C130.5 453.547 130.5 450.547 128.3 450.547C127.1 450.547 126.1 451.547 126.1 452.747C126.1 456.547 130.6 459.547 130.6 459.547C130.6 459.547 134.9 456.447 134.9 452.747Z" stroke="white" stroke-width="3" stroke-miterlimit="10"/>
<path d="M110.2 522.647H141.7" stroke="white" stroke-width="3" stroke-miterlimit="10" stroke-linecap="round" stroke-linejoin="round" stroke-dasharray="0.15 0.15"/>
<path d="M143.9 403.947V410.947C143.9 420.847 136.1 429.347 126.2 429.547C116.1 429.747 107.9 421.647 107.9 411.547V402.447C107.9 402.447 122.9 394.547 125.5 390.947L125.9 390.447L126.9 391.847C129.2 394.847 143.9 402.447 143.9 402.447" stroke="white" stroke-width="3" stroke-miterlimit="10"/>
<path d="M106.4 458.147V470.147H123.7L125.9 471.647" stroke="white" stroke-width="3" stroke-miterlimit="10"/>
<path d="M152.9 456.447V474.447L151.6 476.147L133.4 482.147V476.147H129.7L125.2 482.147H123.7L117.7 479.147" stroke="white" stroke-width="3" stroke-miterlimit="10"/>
<path d="M145.4 458.147V470.147H128.2L121.4 474.647L117.7 479.147V482.947L100.3 476.147L98.9001 474.447V456.447" stroke="white" stroke-width="3" stroke-miterlimit="10"/>
<path d="M948.25 283.529H960.25V304.529C960.25 305.329 959.55 306.029 958.75 306.029H942.25C941.45 306.029 940.75 305.329 940.75 304.529V300.029C940.75 297.929 942.249 296.029 944.349 295.629L948.25 295.529V283.529Z" stroke="white" stroke-width="3" stroke-miterlimit="10"/>
<path d="M954.25 295.529H946.75" stroke="white" stroke-width="3" stroke-miterlimit="10"/>
<path d="M949.75 291.029H954.25" stroke="white" stroke-width="3" stroke-miterlimit="10"/>
<path d="M936.25 238.529C936.25 223.629 948.35 211.529 963.25 211.529C978.15 211.529 990.25 223.629 990.25 238.529V245.229" stroke="white" stroke-width="3" stroke-miterlimit="10"/>
<path d="M981.25 193.529C981.25 203.429 973.15 211.529 963.25 211.529C953.35 211.529 945.25 203.429 945.25 193.529" stroke="white" stroke-width="3" stroke-miterlimit="10"/>
<path d="M981.25 195.029H984.25C984.25 195.029 990.25 189.029 984.25 183.029C984.25 183.029 985.75 162.029 963.25 162.029C940.75 162.029 942.25 183.029 942.25 183.029C936.25 189.029 942.25 195.029 942.25 195.029H945.25" stroke="white" stroke-width="3" stroke-miterlimit="10"/>
<path d="M957.549 201.029C958.249 203.629 960.549 205.529 963.349 205.529C966.149 205.529 968.449 203.629 969.149 201.029" stroke="white" stroke-width="3" stroke-miterlimit="10"/>
<path d="M946.75 181.529C946.75 181.529 952.75 178.529 963.25 178.529C973.75 178.529 979.75 181.529 979.75 181.529" stroke="white" stroke-width="3" stroke-miterlimit="10"/>
<path d="M955.75 213.029L963.25 222.029L970.75 213.029" stroke="white" stroke-width="3" stroke-miterlimit="10"/>
<path d="M946.75 217.529H954.149V222.029L963.25 225.029L972.25 222.029V217.529H979.75" stroke="white" stroke-width="3" stroke-miterlimit="10"/>
<path d="M949.75 235.529V282.729" stroke="white" stroke-width="3" stroke-miterlimit="10"/>
<path d="M963.25 225.029V262.529" stroke="white" stroke-width="3" stroke-miterlimit="10"/>
<path d="M936.25 238.529V269.229H971.549" stroke="white" stroke-width="3" stroke-miterlimit="10"/>
<path d="M949.75 262.529L968.25 262.729" stroke="white" stroke-width="3" stroke-miterlimit="10"/>
<path d="M952.75 237.729H960.25" stroke="white" stroke-width="3" stroke-miterlimit="10"/>
<path d="M936.25 261.729H942.25" stroke="white" stroke-width="3" stroke-miterlimit="10"/>
<path d="M936.25 257.229H945.25" stroke="white" stroke-width="3" stroke-miterlimit="10"/>
<path d="M981.25 193.529C981.25 190.229 978.55 187.529 975.25 187.529H951.25C947.95 187.529 945.25 190.229 945.25 193.529" stroke="white" stroke-width="3" stroke-miterlimit="10"/>
<path d="M949.75 269.229V274.529H947.549V278.229H942.649L940.049 274.329V269.229" stroke="white" stroke-width="3" stroke-miterlimit="10"/>
<path d="M961.75 268.529L960.25 283.529" stroke="white" stroke-width="3" stroke-miterlimit="10"/>
<path d="M964.75 268.529L966.25 283.529H977.25" stroke="white" stroke-width="3" stroke-miterlimit="10"/>
<path d="M981.849 306.929C981.849 306.929 981.849 301.429 985.549 301.429H992.849C991.749 299.629 991.049 297.229 991.049 295.029C991.049 290.829 993.249 287.129 996.549 285.029" stroke="white" stroke-width="3" stroke-miterlimit="10"/>
<path d="M966.049 306.929C966.049 306.929 966.05 301.429 969.75 301.429H977.649V253.429H976.75L972.349 259.429L971.349 257.929L974.549 248.929H995.549L998.75 257.929H997.75L993.349 253.429H992.449C992.449 253.429 999.749 272.329 1001.85 287.029C1003.95 301.729 1003.95 306.929 1003.95 306.929" stroke="white" stroke-width="3" stroke-miterlimit="10"/>
<path d="M1014.45 297.629C1014.45 302.229 1010.65 306.029 1006.05 306.029H952.549" stroke="white" stroke-width="3" stroke-miterlimit="10"/>
<path d="M980.549 267.029H986.549" stroke="white" stroke-width="3" stroke-miterlimit="10"/>
<path d="M983.549 268.529V273.029" stroke="white" stroke-width="3" stroke-miterlimit="10"/>
<path d="M977.549 273.029H985.949C989.449 273.029 992.25 270.229 992.25 266.729" stroke="white" stroke-width="3" stroke-miterlimit="10"/>
<path d="M966.25 283.529V305.229" stroke="white" stroke-width="3" stroke-miterlimit="10"/>
<path d="M977.549 248.229V234.029" stroke="white" stroke-width="3" stroke-miterlimit="10"/>
<path d="M764.888 377.429H776.088V348.529C776.088 333.629 763.988 321.529 749.088 321.529C734.188 321.529 722.088 333.629 722.088 348.529V377.029H735.688" stroke="white" stroke-width="3" stroke-miterlimit="10"/>
<path d="M731.288 344.129C734.188 349.029 735.688 354.629 735.688 360.329V410.529H728.388C725.988 410.529 723.888 412.029 723.088 414.229L722.188 416.829H741.688V408.629H746.188V383.129" stroke="white" stroke-width="3" stroke-miterlimit="10"/>
<path d="M768.588 343.929C765.688 348.829 764.188 354.429 764.188 360.129V377.129" stroke="white" stroke-width="3" stroke-miterlimit="10"/>
<path d="M736.088 383.629H763.088" stroke="white" stroke-width="3" stroke-miterlimit="10"/>
<path d="M728.588 377.129V379.329L730.088 383.829H734.188" stroke="white" stroke-width="3" stroke-miterlimit="10"/>
<path d="M770.888 377.129V379.329L769.488 383.829H765.288" stroke="white" stroke-width="3" stroke-miterlimit="10"/>
<path d="M764.188 372.529V408.529H759.688V416.729H747.688L748.988 412.129C749.488 410.429 751.088 409.229 752.888 409.229V383.729" stroke="white" stroke-width="3" stroke-miterlimit="10"/>
<path d="M731.288 299.129V303.629C731.288 313.529 739.288 321.429 749.188 321.629C759.288 321.829 767.288 313.629 767.288 303.629V299.129C767.288 289.229 759.688 292.529 749.788 292.329C739.688 292.129 731.288 289.029 731.288 299.129Z" stroke="white" stroke-width="3" stroke-miterlimit="10"/>
<path d="M743.288 311.129C744.188 313.629 746.388 315.429 749.188 315.429C751.988 315.429 754.388 313.629 755.288 311.129" stroke="white" stroke-width="3" stroke-miterlimit="10"/>
<path d="M749.188 321.529C764.928 321.529 777.688 310.471 777.688 296.829C777.688 283.188 764.928 272.129 749.188 272.129C733.448 272.129 720.688 283.188 720.688 296.829C720.688 310.471 733.448 321.529 749.188 321.529Z" stroke="white" stroke-width="3" stroke-miterlimit="10"/>
<path d="M759.688 323.129V334.329H758.888L750.688 326.129H749.188L740.188 334.329H739.488V323.129" stroke="white" stroke-width="3" stroke-miterlimit="10"/>
<path d="M753.088 383.129V364.329L739.488 335.829V333.529" stroke="white" stroke-width="3" stroke-miterlimit="10"/>
<path d="M759.688 332.829V335.829L749.888 356.829V358.329" stroke="white" stroke-width="3" stroke-miterlimit="10"/>
<path d="M743.888 331.329L747.688 336.529V338.829L745.488 347.829" stroke="white" stroke-width="3" stroke-miterlimit="10"/>
<path d="M755.888 331.329L752.188 336.529V338.829L754.488 347.829" stroke="white" stroke-width="3" stroke-miterlimit="10"/>
<path d="M748.488 365.129V368.129" stroke="white" stroke-width="3" stroke-miterlimit="10"/>
<path d="M524.175 298.229L517.475 304.229H506.175V300.529C506.175 298.429 507.875 296.729 509.975 296.729H516.675V289.229H524.175" stroke="white" stroke-width="3" stroke-miterlimit="10"/>
<path d="M536.175 298.229L542.175 304.229H554.175V300.529C554.175 298.429 552.475 296.729 550.375 296.729H543.675V289.229H536.175" stroke="white" stroke-width="3" stroke-miterlimit="10"/>
<path d="M512.175 185.729V191.729C512.175 201.629 520.275 209.729 530.175 209.729C540.075 209.729 548.175 201.629 548.175 191.729V185.729" stroke="white" stroke-width="3" stroke-miterlimit="10"/>
<path d="M524.375 199.329C525.075 201.929 527.375 203.829 530.175 203.829C532.975 203.829 535.275 201.929 535.975 199.329" stroke="white" stroke-width="3" stroke-miterlimit="10"/>
<path d="M512.175 193.229V208.229C512.175 211.529 509.475 214.229 506.175 214.229C506.175 216.729 508.175 218.729 510.675 218.729" stroke="white" stroke-width="3" stroke-miterlimit="10"/>
<path d="M537.675 178.229C537.675 184.029 532.975 188.729 527.175 188.729C523.475 188.729 519.975 190.629 517.975 193.829L513.675 200.729" stroke="white" stroke-width="3" stroke-miterlimit="10"/>
<path d="M537.675 178.229C537.675 183.829 542.175 188.329 547.775 188.329H548.175" stroke="white" stroke-width="3" stroke-miterlimit="10"/>
<path d="M512.175 191.729V182.729C512.175 172.829 520.275 164.729 530.175 164.729H533.975C536.075 164.729 537.675 166.429 537.675 168.529V169.329C543.475 169.329 548.175 174.029 548.175 179.829V187.329" stroke="white" stroke-width="3" stroke-miterlimit="10"/>
<path d="M524.175 280.229V304.229H522.375V300.429" stroke="white" stroke-width="3" stroke-miterlimit="10"/>
<path d="M536.175 280.229V287.729V304.229H538.075V302.029" stroke="white" stroke-width="3" stroke-miterlimit="10"/>
<path d="M545.175 213.529C542.675 216.629 537.175 218.729 530.875 218.729C524.575 218.729 519.175 216.629 516.675 213.529" stroke="white" stroke-width="3" stroke-miterlimit="10"/>
<path d="M541.875 239.329C536.675 235.829 529.475 236.429 524.875 241.029C523.875 242.029 523.075 243.129 522.475 244.229C521.375 246.329 519.375 247.829 517.075 248.229C512.675 249.029 508.475 251.529 505.775 255.929C502.175 261.529 502.375 268.829 506.175 274.329C512.375 283.329 524.775 284.129 532.075 276.829C534.675 274.229 536.175 271.029 536.775 267.729C537.175 265.529 538.675 263.629 540.675 262.529C542.675 261.529 544.475 259.929 545.775 257.929C548.675 253.529 548.675 247.529 545.675 243.129" stroke="white" stroke-width="3" stroke-miterlimit="10"/>
<path d="M527.175 280.229H545.175V259.229" stroke="white" stroke-width="3" stroke-miterlimit="10"/>
<path d="M565.375 211.229L564.075 212.529" stroke="white" stroke-width="3" stroke-miterlimit="10"/>
<path d="M573.275 219.129L571.975 220.429" stroke="white" stroke-width="3" stroke-miterlimit="10"/>
<path d="M561.475 215.129L560.175 216.429" stroke="white" stroke-width="3" stroke-miterlimit="10"/>
<path d="M569.675 223.329L568.375 224.629" stroke="white" stroke-width="3" stroke-miterlimit="10"/>
<path d="M526.475 259.229C528.375 261.129 528.375 264.229 526.475 266.029C524.575 267.929 521.475 267.929 519.675 266.029" stroke="white" stroke-width="3" stroke-miterlimit="10"/>
<path d="M550.375 238.329L528.175 260.629" stroke="white" stroke-width="3" stroke-miterlimit="10"/>
<path d="M553.875 227.029L568.475 212.329L572.375 216.229L554.175 234.529" stroke="white" stroke-width="3" stroke-miterlimit="10"/>
<path d="M524.675 256.329L546.675 234.229" stroke="white" stroke-width="3" stroke-miterlimit="10"/>
<path d="M557.575 245.729L555.375 253.229H550.075V238.229L546.375 234.429V230.029L549.375 227.429V225.429L550.875 224.029L553.875 227.729V229.129V235.229L557.575 245.729Z" stroke="white" stroke-width="3" stroke-miterlimit="10"/>
<path d="M503.175 239.029V236.829C503.175 221.929 515.275 209.829 530.175 209.829C538.175 209.829 545.375 213.329 550.275 218.829C550.275 218.829 554.175 216.829 554.175 214.329C550.875 214.329 548.175 211.629 548.175 208.329V193.329" stroke="white" stroke-width="3" stroke-miterlimit="10"/>
<path d="M503.175 239.029V248.729L512.575 257.029L519.375 262.229L522.775 259.729L523.875 260.729L526.575 258.329L521.575 254.029H517.075L509.575 245.729V236.729H512.575L517.075 248.329" stroke="white" stroke-width="3" stroke-miterlimit="10"/>
<path d="M519.375 282.429V289.229" stroke="white" stroke-width="3" stroke-miterlimit="10"/>
<path d="M541.075 279.429V289.229" stroke="white" stroke-width="3" stroke-miterlimit="10"/>
<path d="M350.619 297.979V304.079C350.619 313.979 342.519 322.079 332.619 322.079C322.719 322.079 314.619 313.979 314.619 304.079V296.479" stroke="white" stroke-width="3" stroke-miterlimit="10"/>
<path d="M326.819 311.679C327.519 314.279 329.819 316.179 332.619 316.179C335.419 316.179 337.719 314.279 338.419 311.679" stroke="white" stroke-width="3" stroke-miterlimit="10"/>
<path d="M314.619 291.979C314.619 291.979 322.119 288.979 332.619 288.979C343.119 288.979 350.619 293.479 350.619 293.479V300.979C350.619 300.979 343.119 296.479 332.619 296.479C322.119 296.479 314.619 299.479 314.619 299.479V291.979Z" stroke="white" stroke-width="3" stroke-miterlimit="10"/>
<path d="M350.619 300.979L362.619 287.479V285.979L332.619 272.479L302.619 285.979V287.479L314.619 302.479" stroke="white" stroke-width="3" stroke-miterlimit="10"/>
<path d="M302.619 300.979V287.479" stroke="white" stroke-width="3" stroke-miterlimit="10"/>
<path d="M302.619 311.479V303.979" stroke="white" stroke-width="3" stroke-miterlimit="10"/>
<path d="M326.619 323.479L332.619 332.479L338.619 323.479" stroke="white" stroke-width="3" stroke-miterlimit="10"/>
<path d="M355.119 333.979L332.619 351.979L310.119 333.979" stroke="white" stroke-width="3" stroke-miterlimit="10"/>
<path d="M319.119 341.479V416.479H340.119V413.479H346.119V376.779" stroke="white" stroke-width="3" stroke-miterlimit="10"/>
<path d="M349.519 350.797L324.064 369.351L327.598 374.199L353.053 355.646L349.519 350.797Z" stroke="white" stroke-width="3" stroke-miterlimit="10"/>
<path d="M340.119 416.479V396.979" stroke="white" stroke-width="3" stroke-miterlimit="10"/>
<path d="M313.119 382.779V384.979L314.619 389.479H318.719" stroke="white" stroke-width="3" stroke-miterlimit="10"/>
<path d="M333.419 370.179L337.219 372.379L340.919 369.979L346.119 377.479L359.619 363.979V349.079C359.619 334.179 347.519 322.079 332.619 322.079C317.719 322.079 305.619 334.179 305.619 349.079V383.479H318.719" stroke="white" stroke-width="3" stroke-miterlimit="10"/>
<path d="M332.619 330.979V357.979" stroke="white" stroke-width="3" stroke-miterlimit="10"/>
<path d="M158.5 249.529V236.729C158.5 221.829 146.4 209.729 131.5 209.729C116.6 209.729 104.5 221.829 104.5 236.729V238.929" stroke="white" stroke-width="3" stroke-miterlimit="10"/>
<path d="M113.5 188.729V191.729C113.5 201.629 121.6 209.529 131.5 209.729C141.6 209.929 149.5 201.729 149.5 191.729V188.729" stroke="white" stroke-width="3" stroke-miterlimit="10"/>
<path d="M131.5 216.529V244.629" stroke="white" stroke-width="3" stroke-miterlimit="10"/>
<path d="M155.5 208.929V184.829C155.5 181.929 154.9 179.129 153.7 176.529C155.9 175.129 157.5 172.829 158.1 170.229L158.7 167.529H156.3C155.5 169.829 153.4 171.529 150.9 171.729C146.4 165.729 139.1 161.729 131.5 161.729C123.9 161.729 116.6 165.729 112.1 171.729C109.7 171.429 107.7 169.729 106.9 167.529H104.5L105.1 170.229C105.7 172.829 107.2 175.029 109.3 176.429C108.1 179.029 107.5 181.929 107.5 184.829V208.929" stroke="white" stroke-width="3" stroke-miterlimit="10"/>
<path d="M108.2 188.729H155.5" stroke="white" stroke-width="3" stroke-miterlimit="10"/>
<path d="M131.5 162.429V179.729" stroke="white" stroke-width="3" stroke-miterlimit="10"/>
<path d="M131.5 253.229C133.985 253.229 136 251.215 136 248.729C136 246.244 133.985 244.229 131.5 244.229C129.015 244.229 127 246.244 127 248.729C127 251.215 129.015 253.229 131.5 253.229Z" stroke="white" stroke-width="3" stroke-miterlimit="10"/>
<path d="M136 249.129H146.5" stroke="white" stroke-width="3" stroke-miterlimit="10"/>
<path d="M118.8 249.129H127" stroke="white" stroke-width="3" stroke-miterlimit="10"/>
<path d="M160 257.729V307.229" stroke="white" stroke-width="3" stroke-miterlimit="10"/>
<path d="M154 263.729H166" stroke="white" stroke-width="3" stroke-miterlimit="10"/>
<path d="M125.5 200.129C126.4 202.629 128.8 204.429 131.6 204.429C134.4 204.429 136.8 202.629 137.7 200.129" stroke="white" stroke-width="3" stroke-miterlimit="10"/>
<path d="M124 210.329C124 214.529 127.4 217.929 131.6 217.929C135.8 217.929 139.2 214.529 139.2 210.329" stroke="white" stroke-width="3" stroke-miterlimit="10"/>
<path d="M100.4 267.829C108.463 267.829 115 261.293 115 253.229C115 245.166 108.463 238.629 100.4 238.629C92.3367 238.629 85.8 245.166 85.8 253.229C85.8 261.293 92.3367 267.829 100.4 267.829Z" stroke="white" stroke-width="3" stroke-miterlimit="10"/>
<path d="M112.8 244.929V233.829L115.8 233.729L118 248.729L113.5 287.729H132.2" stroke="white" stroke-width="3" stroke-miterlimit="10"/>
<path d="M151 251.729V233.829L148 233.729L145.8 248.729L150.2 287.729H131.5" stroke="white" stroke-width="3" stroke-miterlimit="10"/>
<path d="M139 288.529V299.029L133.8 302.829V305.829H146.6V302.829L144.4 300.529V287.729" stroke="white" stroke-width="3" stroke-miterlimit="10"/>
<path d="M124.8 287.729V299.729L120.2 300.529L114.2 302.729V305.729H130.8V288.529" stroke="white" stroke-width="3" stroke-miterlimit="10"/>
<path d="M112 188.729V208.929" stroke="white" stroke-width="3" stroke-miterlimit="10"/>
<path d="M151 188.729V208.929" stroke="white" stroke-width="3" stroke-miterlimit="10"/>
<path d="M111.7 218.029C115.1 225.529 122.7 230.729 131.5 230.729C140.6 230.729 148.4 225.129 151.6 217.229" stroke="white" stroke-width="3" stroke-miterlimit="10"/>
<path d="M163 257.729V251.029L154.9 247.929L151 251.429V254.729H153.3L154.8 257.729H163Z" stroke="white" stroke-width="3" stroke-miterlimit="10"/>
<path d="M991.65 21.845L1002.05 21.645" stroke="white" stroke-width="3" stroke-miterlimit="10"/>
<path d="M948.85 21.6449C948.85 6.54486 961.25 -6.15514 976.35 -5.85514C991.05 -5.55514 1002.85 6.44486 1002.85 21.1449V34.4449H1001.35L986.35 24.8449C984.95 23.9449 983.75 22.5449 983.15 20.9449L981.15 15.7449V12.1449L987.75 11.6449L990.95 15.4449V21.9449L994.75 24.7449H995.55V22.5449" stroke="white" stroke-width="3" stroke-miterlimit="10"/>
<path d="M948.85 21.0448V34.3448H951.05L966.85 31.3448H970.35C971.95 31.3448 973.55 31.0448 975.05 30.4448L977.95 29.0448V22.8448H974.15V20.9448H970.35L965.85 26.7448H956.85V21.5448L947.85 21.7448" stroke="white" stroke-width="3" stroke-miterlimit="10"/>
<path d="M973.15 22.8449L981.35 14.5449" stroke="white" stroke-width="3" stroke-miterlimit="10"/>
<path d="M988.15 24.9448L968.95 44.0448L961.25 36.2448L966.05 31.4448" stroke="white" stroke-width="3" stroke-miterlimit="10"/>
<path d="M987.65 11.5449L991.75 7.54492L996.05 11.9449L990.85 17.1449" stroke="white" stroke-width="3" stroke-miterlimit="10"/>
<path d="M966.45 -4.55518V0.94482H986.35V-3.05518" stroke="white" stroke-width="3" stroke-miterlimit="10"/>
<path d="M960.85 -2.05518V26.1448" stroke="white" stroke-width="3" stroke-miterlimit="10"/>
<path d="M990.85 38.4448V65.5448H962.75V42.6448" stroke="white" stroke-width="3" stroke-miterlimit="10"/>
<path d="M962.75 62.9448V83.1448H958.25C955.75 83.1448 953.75 85.1448 953.75 87.6448V89.1448H971.75V65.1448" stroke="white" stroke-width="3" stroke-miterlimit="10"/>
<path d="M981.85 65.445V83.145H980.75C978.25 83.145 976.25 85.145 976.25 87.645V89.145H990.85V65.145" stroke="white" stroke-width="3" stroke-miterlimit="10"/>
<path d="M963.45 56.145H990.45" stroke="white" stroke-width="3" stroke-miterlimit="10"/>
<path d="M750.438 189.775V163.975" stroke="white" stroke-width="3" stroke-miterlimit="10"/>
<path d="M739.138 130.175V163.975H766.838V138.475" stroke="white" stroke-width="3" stroke-miterlimit="10"/>
<path d="M745.238 163.975V181.175" stroke="white" stroke-width="3" stroke-miterlimit="10"/>
<path d="M763.838 181.175V163.975" stroke="white" stroke-width="3" stroke-miterlimit="10"/>
<path d="M759.338 163.975V181.175" stroke="white" stroke-width="3" stroke-miterlimit="10"/>
<path d="M749.638 190.574L740.838 195.474H731.638V193.274C731.638 191.174 733.338 189.474 735.438 189.474H739.938V181.274H750.438" stroke="white" stroke-width="3" stroke-miterlimit="10"/>
<path d="M755.038 189.475H759.438" stroke="white" stroke-width="3" stroke-miterlimit="10"/>
<path d="M763.838 190.975V196.975" stroke="white" stroke-width="3" stroke-miterlimit="10"/>
<path d="M754.938 181.175H763.938V190.975L761.038 195.475H749.038V193.275C749.038 191.175 750.738 189.475 752.838 189.475H754.938V181.175V181.175Z" stroke="white" stroke-width="3" stroke-miterlimit="10"/>
<path d="M763.838 78.8744C767.238 88.2744 762.338 98.5744 752.938 101.874C743.538 105.274 733.238 100.374 729.938 90.9744L728.938 88.1744L741.638 83.5744C744.738 82.4744 746.338 78.9744 745.238 75.8744C747.538 75.0744 750.138 76.2744 751.038 78.5744L751.538 79.9744L762.838 75.8744L763.838 78.8744Z" stroke="white" stroke-width="3" stroke-miterlimit="10"/>
<path d="M744.138 93.7745C745.638 95.9745 748.438 96.9745 751.138 96.0745C753.738 95.1745 755.338 92.5745 755.038 89.8745" stroke="white" stroke-width="3" stroke-miterlimit="10"/>
<path d="M762.638 95.6745L766.138 94.3745C770.238 92.8745 772.338 88.3745 770.838 84.2745L766.538 72.1745C762.438 60.7745 749.438 53.9745 737.938 57.7745C729.438 60.5745 723.838 67.7745 722.538 75.9745V111.275C722.538 113.775 720.538 115.775 718.038 115.775C718.038 118.675 720.438 120.975 723.238 120.975C730.738 120.975 736.738 114.975 736.738 107.475V99.9745" stroke="white" stroke-width="3" stroke-miterlimit="10"/>
<path d="M735.338 122.675L739.838 117.175C741.738 115.575 744.538 113.675 747.338 113.675V115.175H754.838L753.338 118.175L749.538 121.975H745.138L730.938 137.675H730.138V125.675" stroke="white" stroke-width="3" stroke-miterlimit="10"/>
<path d="M730.138 119.675V130.175" stroke="white" stroke-width="3" stroke-miterlimit="10"/>
<path d="M773.638 121.975L763.138 132.475H752.238C750.538 130.175 748.638 128.675 745.838 128.675V130.175H739.138V134.275L743.638 138.375L766.938 138.175L780.338 124.875V121.175C780.338 109.175 772.438 98.9746 761.638 95.4746" stroke="white" stroke-width="2.8755" stroke-miterlimit="10"/>
<path d="M765.438 115.875C766.266 115.875 766.938 116.546 766.938 117.375C766.938 118.203 766.266 118.874 765.438 118.875C764.609 118.875 763.938 118.203 763.938 117.375C763.938 116.546 764.609 115.875 765.438 115.875Z" stroke="white" stroke-width="2"/>
<path d="M759.338 114.475V131.675" stroke="white" stroke-width="3" stroke-miterlimit="10"/>
<path d="M768.738 123.474C773.487 123.474 777.338 119.624 777.338 114.874C777.338 110.125 773.487 106.274 768.738 106.274C763.988 106.274 760.138 110.125 760.138 114.874C760.138 119.624 763.988 123.474 768.738 123.474Z" stroke="white" stroke-width="2.8755" stroke-miterlimit="10"/>
<path d="M760.838 110.975C762.038 110.275 763.438 109.975 764.938 109.975C769.738 109.975 773.538 113.875 773.538 118.575C773.538 119.775 773.338 120.875 772.838 121.975" stroke="white" stroke-width="2.8755" stroke-miterlimit="10"/>
<path d="M761.638 109.975L751.938 119.675" stroke="white" stroke-width="2.8755" stroke-miterlimit="10"/>
<path d="M759.038 138.274L754.838 142.574C751.238 146.174 745.438 146.174 741.838 142.574C739.738 140.474 739.238 137.774 739.238 134.774" stroke="white" stroke-width="3" stroke-miterlimit="10"/>
<path d="M539.125 11.845C539.672 11.8451 540.024 12.1978 540.024 12.7454C540.024 13.2274 539.638 13.6446 539.125 13.6448C538.643 13.6448 538.225 13.2589 538.225 12.7454C538.225 12.2631 538.611 11.845 539.125 11.845Z" stroke="white" stroke-width="2"/>
<path d="M553.825 45.645V81.645H524.525V49.845" stroke="white" stroke-width="3" stroke-miterlimit="10"/>
<path d="M545.525 28.845V8.24502L528.325 0.64502" stroke="white" stroke-width="3" stroke-miterlimit="10"/>
<path d="M529.825 22.0449L545.525 37.8449" stroke="white" stroke-width="3" stroke-miterlimit="10"/>
<path d="M519.325 11.645L523.025 15.345" stroke="white" stroke-width="3" stroke-miterlimit="10"/>
<path d="M535.025 37.845L532.025 28.845L536.525 24.345L545.525 28.845L551.525 37.345" stroke="white" stroke-width="3" stroke-miterlimit="10"/>
<path d="M556.825 37.345H520.025C520.025 47.745 528.125 55.845 538.025 55.845" stroke="white" stroke-width="3" stroke-miterlimit="10"/>
<path d="M553.125 47.645C549.925 52.645 544.325 55.845 538.025 55.845" stroke="white" stroke-width="3" stroke-miterlimit="10"/>
<path d="M524.525 73.845H553.825" stroke="white" stroke-width="3" stroke-miterlimit="10"/>
<path d="M521.525 43.845H536.525" stroke="white" stroke-width="3" stroke-miterlimit="10"/>
<path d="M524.525 81.645V87.345H520.025C517.525 87.345 515.525 89.345 515.525 91.845V93.345H533.525V81.645" stroke="white" stroke-width="3" stroke-miterlimit="10"/>
<path d="M546.325 81.645V87.345H544.825C542.325 87.345 540.325 89.345 540.325 91.845V93.345H553.825V81.345" stroke="white" stroke-width="3" stroke-miterlimit="10"/>
<path d="M517.925 27.5448L521.525 23.6448L518.625 16.5448L521.025 13.5448L523.225 15.7448L527.025 12.7448L530.625 16.1448V21.3448L513.425 39.3448H511.225V23.6448C511.225 10.9448 523.225 -1.05518 538.125 -1.05518C553.025 -1.05518 565.125 11.0448 565.125 25.9448L565.225 37.9448L547.225 50.2448H540.425L535.925 46.9448V43.9448H541.125V41.7448C544.325 41.7448 547.125 43.2448 547.125 43.2448H548.625L556.825 37.5448V26.6448" stroke="white" stroke-width="3" stroke-miterlimit="10"/>
<path d="M357.268 83.645C360.568 83.645 363.268 86.345 363.268 89.645C363.268 92.945 360.568 95.645 357.268 95.645C355.968 95.645 354.668 95.245 353.668 94.445" stroke="white" stroke-width="3" stroke-miterlimit="10"/>
<path d="M321.168 79.8449V82.0449C321.168 91.9449 329.268 100.045 339.168 100.045C349.068 100.045 357.168 91.9449 357.168 82.0449V79.0449" stroke="white" stroke-width="3" stroke-miterlimit="10"/>
<path d="M333.368 89.645C334.068 92.245 336.368 94.145 339.168 94.145C341.968 94.145 344.268 92.245 344.968 89.645" stroke="white" stroke-width="3" stroke-miterlimit="10"/>
<path d="M330.968 83.645C333.84 83.645 336.168 81.6303 336.168 79.145C336.168 76.6597 333.84 74.645 330.968 74.645C328.097 74.645 325.768 76.6597 325.768 79.145C325.768 81.6303 328.097 83.645 330.968 83.645Z" stroke="white" stroke-width="3" stroke-miterlimit="10"/>
<path d="M347.468 83.645C350.34 83.645 352.668 81.6303 352.668 79.145C352.668 76.6597 350.34 74.645 347.468 74.645C344.597 74.645 342.268 76.6597 342.268 79.145C342.268 81.6303 344.597 83.645 347.468 83.645Z" stroke="white" stroke-width="3" stroke-miterlimit="10"/>
<path d="M336.268 79.145C336.268 77.445 337.568 76.145 339.268 76.145C340.968 76.145 342.268 77.445 342.268 79.145" stroke="white" stroke-width="3" stroke-miterlimit="10"/>
<path d="M331.768 98.645C331.768 102.845 335.168 106.245 339.368 106.245C343.568 106.245 346.968 102.845 346.968 98.645" stroke="white" stroke-width="3" stroke-miterlimit="10"/>
<path d="M321.268 79.4449C321.268 79.4449 321.768 65.5449 340.068 65.5449" stroke="white" stroke-width="3" stroke-miterlimit="10"/>
<path d="M357.269 79.4449C357.269 79.4449 356.769 65.5449 338.469 65.5449" stroke="white" stroke-width="3" stroke-miterlimit="10"/>
<path d="M321.168 79.145V73.145C321.168 63.245 329.268 55.145 339.168 55.145C349.068 55.145 357.168 63.245 357.168 73.145V79.145" stroke="white" stroke-width="3" stroke-miterlimit="10" stroke-linecap="round" stroke-linejoin="round" stroke-dasharray="0.15 0.15"/>
<path d="M325.168 104.645C325.168 107.145 327.168 109.145 329.668 109.145C330.168 109.145 330.668 109.045 331.168 108.845C331.068 110.045 331.468 111.345 332.468 112.345C334.268 114.145 337.068 114.145 338.868 112.345L339.568 111.645C339.768 111.845 339.968 112.145 340.168 112.345C341.968 114.145 344.768 114.145 346.568 112.345C347.568 111.345 347.968 110.145 347.868 108.845C348.368 109.045 348.868 109.145 349.368 109.145C351.868 109.145 353.868 107.145 353.868 104.645" stroke="white" stroke-width="3" stroke-miterlimit="10"/>
<path d="M326.368 119.745V198.345L345.168 198.545V196.245H352.668V119.745" stroke="white" stroke-width="3" stroke-miterlimit="10"/>
<path d="M313.668 166.145C313.668 166.145 313.668 170.645 307.668 170.645C301.668 170.645 301.668 166.145 301.668 166.145" stroke="white" stroke-width="3" stroke-miterlimit="10"/>
<path d="M340.668 166.145C340.668 166.145 340.668 170.645 334.668 170.645C328.668 170.645 328.668 166.145 328.668 166.145" stroke="white" stroke-width="3" stroke-miterlimit="10"/>
<path d="M323.469 146.745H334.669L334.769 150.945" stroke="white" stroke-width="3" stroke-miterlimit="10"/>
<path d="M307.568 151.145L307.668 146.745H312.168" stroke="white" stroke-width="3" stroke-miterlimit="10"/>
<path d="M301.668 166.145L307.668 151.145" stroke="white" stroke-width="3" stroke-miterlimit="10"/>
<path d="M313.668 166.145L307.668 151.145" stroke="white" stroke-width="3" stroke-miterlimit="10"/>
<path d="M328.668 166.145L334.668 151.145" stroke="white" stroke-width="3" stroke-miterlimit="10"/>
<path d="M340.668 166.145L334.668 150.545" stroke="white" stroke-width="3" stroke-miterlimit="10"/>
<path d="M312.268 146.745L312.168 127.045C312.168 112.145 324.268 100.045 339.168 100.045C354.068 100.045 366.168 112.145 366.168 127.045L366.268 160.645H353.468" stroke="white" stroke-width="3" stroke-miterlimit="10"/>
<path d="M345.168 194.945V182.745" stroke="white" stroke-width="3" stroke-miterlimit="10"/>
<path d="M298.668 166.245H316.668" stroke="white" stroke-width="3" stroke-miterlimit="10"/>
<path d="M325.668 166.245H343.668" stroke="white" stroke-width="3" stroke-miterlimit="10"/>
<path d="M353.068 155.045H366.568" stroke="white" stroke-width="3" stroke-miterlimit="10"/>
<path d="M335.068 113.645L332.068 124.145H335.068V127.145H339.568" stroke="white" stroke-width="3" stroke-miterlimit="10"/>
<path d="M344.068 113.645L347.068 124.145H344.068V127.145H339.568" stroke="white" stroke-width="3" stroke-miterlimit="10"/>
<path d="M336.568 130.145H342.568" stroke="white" stroke-width="3" stroke-miterlimit="10"/>
<path d="M314.468 149.745L312.168 147.545L313.668 141.545H321.868L324.168 143.745V146.745H321.868V149.745H314.468Z" stroke="white" stroke-width="3" stroke-miterlimit="10"/>
<path d="M154.014 39.845C154.897 39.845 155.614 40.5611 155.614 41.4446C155.614 42.3282 154.897 43.0452 154.014 43.0452C153.13 43.045 152.414 42.3281 152.414 41.4446C152.414 40.5612 153.13 39.8452 154.014 39.845Z" stroke="white" stroke-width="2"/>
<path d="M161.914 38.245C161.914 47.945 154.014 55.845 144.314 55.845C134.614 55.845 126.714 47.945 126.714 38.245C126.714 28.545 134.614 20.645 144.314 20.645C148.814 20.645 143.714 29.445 153.114 32.445C157.714 33.845 161.914 33.045 161.914 38.245Z" stroke="white" stroke-width="3" stroke-miterlimit="10"/>
<path d="M124.414 -7.15503V4.84497H127.414L134.914 -7.15503" stroke="white" stroke-width="3" stroke-miterlimit="10"/>
<path d="M145.414 -7.15503V4.84497H142.414L134.914 -7.15503" stroke="white" stroke-width="3" stroke-miterlimit="10"/>
<path d="M134.914 -5.65503V22.845" stroke="white" stroke-width="3" stroke-miterlimit="10"/>
<path d="M148.514 30.045C148.514 24.345 150.014 18.745 152.914 13.845" stroke="white" stroke-width="3" stroke-miterlimit="10"/>
<path d="M139.014 29.345C139.567 29.345 140.014 29.7927 140.014 30.345C140.014 30.8973 139.567 31.345 139.014 31.345C138.462 31.345 138.014 30.8973 138.014 30.345C138.014 29.7927 138.462 29.345 139.014 29.345Z" stroke="white" stroke-width="2"/>
<path d="M141.614 46.345C142.167 46.345 142.614 46.7927 142.614 47.345C142.614 47.8973 142.167 48.345 141.614 48.345C141.062 48.345 140.614 47.8973 140.614 47.345C140.614 46.7927 141.062 46.345 141.614 46.345Z" stroke="white" stroke-width="2"/>
<path d="M136.414 38.5449C137.684 38.5449 138.714 39.5746 138.714 40.8447C138.714 42.115 137.684 43.1445 136.414 43.1445C135.144 43.1444 134.114 42.1149 134.114 40.8447C134.114 39.5746 135.144 38.545 136.414 38.5449Z" stroke="white" stroke-width="2"/>
<path d="M121.414 52.845H134.914" stroke="white" stroke-width="3" stroke-miterlimit="10"/>
<path d="M96.0142 -4.15513C96.6142 -2.45513 95.7142 -0.65513 94.1142 -0.05513C92.5142 0.54487 90.6142 -0.355128 90.0142 -1.95513C89.4142 -3.55513 91.1142 -8.25513 91.1142 -8.25513C91.1142 -8.25513 95.4142 -5.75513 96.0142 -4.15513Z" stroke="white" stroke-width="3" stroke-miterlimit="10"/>
<path d="M94.1143 -0.0549316L100.414 14.6451" stroke="white" stroke-width="3" stroke-miterlimit="10"/>
<path d="M107.914 25.845H121.414" stroke="white" stroke-width="3" stroke-miterlimit="10"/>
<path d="M133.014 93.345H113.914V89.545L118.414 88.045L124.414 86.945V82.845H121.414V30.345C121.414 24.645 119.714 18.745 116.914 13.845" stroke="white" stroke-width="3" stroke-miterlimit="10"/>
<path d="M119.114 26.6449L108.614 40.1449H107.114L96.7142 16.8449L101.214 13.0449H104.214V19.8449L103.414 22.0449L107.214 30.2449H107.914V18.2449C107.914 3.34487 120.014 -8.75513 134.914 -8.75513C149.814 -8.75513 161.914 3.34487 161.914 18.2449V37.8449" stroke="white" stroke-width="3" stroke-miterlimit="10"/>
<path d="M130.414 89.645V82.845L133.414 57.345H136.414L137.914 82.845H140.914V86.945L134.914 88.045L130.414 89.645ZM130.414 89.645V93.345H146.814L146.914 55.845" stroke="white" stroke-width="3" stroke-miterlimit="10"/>
</g>
</g>
<defs>
<filter id="filter0_d_22_10507" x="-40" y="-35.655" width="2000" height="1040" filterUnits="userSpaceOnUse" color-interpolation-filters="sRGB">
<feFlood flood-opacity="0" result="BackgroundImageFix"/>
<feColorMatrix in="SourceAlpha" type="matrix" values="0 0 0 0 0 0 0 0 0 0 0 0 0 0 0 0 0 0 127 0" result="hardAlpha"/>
<feOffset dy="4"/>
<feGaussianBlur stdDeviation="20"/>
<feColorMatrix type="matrix" values="0 0 0 0 0 0 0 0 0 0 0 0 0 0 0 0 0 0 0.45 0"/>
<feBlend mode="normal" in2="BackgroundImageFix" result="effect1_dropShadow_22_10507"/>
<feBlend mode="normal" in="SourceGraphic" in2="effect1_dropShadow_22_10507" result="shape"/>
</filter>
<clipPath id="clip0_22_10507">
<rect width="1253" height="866" fill="white"/>
</clipPath>
<clipPath id="clip1_22_10507">
<rect width="1920" height="960" fill="white" transform="translate(0 0.344971)"/>
</clipPath>
</defs>
</svg>
