<svg width="1253" height="1013" viewBox="0 0 1253 1013" fill="none" version="1.1" id="svg190" xmlns="http://www.w3.org/2000/svg" style="--stroke-color:#000000;--fill-color:#000000;--bg-color:transparent"><title>Seasonal Characters Collection</title><desc>A collection of character illustrations representing different seasons and seasonal activities, depicted in a minimalist line art style.</desc><style>path{stroke:var(--stroke-color)}[fill=white]{fill:var(--fill-color)}[fill=none]{fill:none}[stroke=white]{stroke:var(--stroke-color)}[stroke=none]{stroke:none}@media (prefers-color-scheme:dark){svg{--stroke-color:#FFFFFF;--fill-color:#FFFFFF;--bg-color:transparent}}path[stroke-width=&quot;3&quot;]{stroke-width:3}</style><path fill="none" id="rect1" d="M2.032 6.095h1253v1013h-1253z"/><g id="g191"><title>Ghost</title><desc>Person in ghost costume with sheet</desc><path d="M199.886 493.651h12.478v17.158l-1.559 3.119h-14.038c-.936 0-1.56-.624-1.56-1.56v-4.679c0-2.184 1.56-4.211 3.743-4.523l.936-.156z" stroke="#fff" stroke-width="3" stroke-miterlimit="10" id="path1"/><path d="M198.327 503.01h10.138c2.184 0 3.9.936 3.9 3.119v1.56" stroke="#fff" stroke-width="3" stroke-miterlimit="10" id="path2"/><path d="M230.926 493.651h-12.478v18.717c0 .936.624 1.56 1.56 1.56h17.157c.936 0 1.56-.624 1.56-1.56v-4.679c0-2.184-1.56-4.211-3.744-4.523l-4.055-.156z" stroke="#fff" stroke-width="3" stroke-miterlimit="10" id="path3"/><path d="M222.035 384.156c0 1.091-.936 1.871-1.872 1.871-1.091 0-1.871-.936-1.871-1.871 0-1.092.936-1.872 1.871-1.872 1.092 0 1.872.936 1.872 1.872Z" fill="#fff" id="path4"/><path d="M230.146 384.156c0 1.091-.936 1.871-1.872 1.871-1.092 0-1.872-.936-1.872-1.871 0-1.092.936-1.872 1.872-1.872s1.872.936 1.872 1.872Z" fill="#fff" id="path5"/><path d="M198.327 405.992v-18.717c0-10.295 8.423-18.717 18.717-18.717 10.295 0 18.717 8.422 18.717 18.717v18.717c7.331 24.957 14.506 50.069 21.837 75.025-1.248.78-4.991 3.12-10.294 2.652-3.744-.312-6.239-1.872-7.487-2.652-.936.624-3.744 2.652-7.955 2.652-4.367 0-7.331-2.028-8.111-2.652-.936.78-3.899 2.808-8.267 2.652-3.899 0-6.707-1.716-7.643-2.496-.935.624-3.743 2.496-7.798 2.496-3.9 0-6.707-1.716-7.643-2.496-.936.624-3.744 2.496-7.643 2.496-4.212 0-7.019-2.028-7.955-2.652 6.863-24.956 14.194-50.068 21.525-75.025Z" stroke="#fff" stroke-width="3" stroke-miterlimit="10" id="path6"/></g><g id="g193"><title>Mummy</title><desc>Person wrapped in mummy bandages</desc><path d="m506.744 408.061 2.38 11.423c-2.538 1.904-8.408 3.966-14.278 3.966-6.029 0-12.692-2.062-15.231-3.966.952-3.649 2.063-7.298 3.015-11.105" stroke="#fff" stroke-width="3" stroke-miterlimit="10" id="path7"/><path d="M507.855 418.691c8.567 4.918 14.278 14.278 14.278 24.908v23.956l-2.38 4.442h-40.138" stroke="#fff" stroke-width="3" stroke-miterlimit="10" id="path8"/><path d="M488.182 402.033c.635 2.697 3.173 4.759 6.188 4.759s5.394-2.062 6.187-4.759" stroke="#fff" stroke-width="3" stroke-miterlimit="10" id="path9"/><path d="M519.436 471.362v1.269c0 4.284-1.745 8.409-4.759 11.582h-2.856" stroke="#fff" stroke-width="3" stroke-miterlimit="10" id="path10"/><path d="M508.172 453.435h-39.821l-2.38-8.726c-.317-.951-.317-1.903-.317-2.697.476-9.994 6.187-18.561 14.279-23.321" stroke="#fff" stroke-width="3" stroke-miterlimit="10" id="path11"/><path d="M510.552 445.027h1.903c3.649 0 7.616 6.346 7.616 6.346v2.062h-11.899" stroke="#fff" stroke-width="3" stroke-miterlimit="10" id="path12"/><path d="M480.567 475.329q.238-2.142 0-4.76c-.159-1.745-.476-3.332-.793-4.759-.794-3.967-1.745-8.091-2.539-12.058" stroke="#fff" stroke-width="3" stroke-miterlimit="10" id="path13"/><path d="m514.518 454.704-2.697 13.485c-.317 1.746-.476 3.332-.476 5.077" stroke="#fff" stroke-width="3" stroke-miterlimit="10" id="path14"/><path d="M508.965 419.643v33.316" stroke="#fff" stroke-width="3" stroke-miterlimit="10" id="path15"/><path d="M498.971 433.921h-31.413" stroke="#fff" stroke-width="3" stroke-miterlimit="10" id="path16"/><path d="M510.869 471.362v32.682h-4.759v8.726h-11.899v-4.76c.476-.634.952-1.428 1.904-2.221q1.665-1.428 2.855-1.904c-.158-10.471-.317-20.941-.317-31.412h-3.649l-3.173 31.73h-4.759v8.725h-17.927l.158-2.855c.793-2.38 3.015-3.491 5.553-3.491h5.553v-35.854" stroke="#fff" stroke-width="3" stroke-miterlimit="10" id="path17"/><path d="M475.49 393.624v-9.519c0-10.47 8.568-19.037 19.038-19.037s19.038 8.567 19.038 19.037v9.519" stroke="#fff" stroke-width="3" stroke-miterlimit="10" id="path18"/><path d="M513.566 393.624c0 10.471-8.567 19.038-19.038 19.038s-19.038-8.567-19.038-19.038" stroke="#fff" stroke-width="3" stroke-miterlimit="10" id="path19"/><path d="m474.856 393.624 30.619-25.066" stroke="#fff" stroke-width="3" stroke-miterlimit="10" id="path20"/><path d="m478.346 404.412 34.11-28.08" stroke="#fff" stroke-width="3" stroke-miterlimit="10" id="path21"/><path d="M478.981 374.269h19.514" stroke="#fff" stroke-width="3" stroke-miterlimit="10" id="path22"/><path d="M500.557 386.009h13.009" stroke="#fff" stroke-width="3" stroke-miterlimit="10" id="path23"/><path d="M476.284 386.009h8.091" stroke="#fff" stroke-width="3" stroke-miterlimit="10" id="path24"/><path d="M486.913 396.956h26.653" stroke="#fff" stroke-width="3" stroke-miterlimit="10" id="path25"/><path d="M477.87 434.714v18.245" stroke="#fff" stroke-width="3" stroke-miterlimit="10" id="path26"/><path d="M488.817 434.714v18.245" stroke="#fff" stroke-width="3" stroke-miterlimit="10" id="path27"/><path d="M498.495 424.085v28.874" stroke="#fff" stroke-width="3" stroke-miterlimit="10" id="path28"/><path d="M478.346 462.478h34.585" stroke="#fff" stroke-width="3" stroke-miterlimit="10" id="path29"/><path d="M509.758 428.369h8.726" stroke="#fff" stroke-width="3" stroke-miterlimit="10" id="path30"/><path d="M469.938 428.369h28.715" stroke="#fff" stroke-width="3" stroke-miterlimit="10" id="path31"/><path d="M509.758 438.522h11.899" stroke="#fff" stroke-width="3" stroke-miterlimit="10" id="path32"/><path d="M480.567 482.626h13.485" stroke="#fff" stroke-width="3" stroke-miterlimit="10" id="path33"/><path d="M480.567 493.89h11.899" stroke="#fff" stroke-width="3" stroke-miterlimit="10" id="path34"/><path d="M480.567 503.885h11.899" stroke="#fff" stroke-width="3" stroke-miterlimit="10" id="path35"/><path d="M497.86 482.626h13.485" stroke="#fff" stroke-width="3" stroke-miterlimit="10" id="path36"/><path d="M497.86 493.89h11.898" stroke="#fff" stroke-width="3" stroke-miterlimit="10" id="path37"/><path d="M497.86 503.885h11.898" stroke="#fff" stroke-width="3" stroke-miterlimit="10" id="path38"/></g><g id="g195"><title>Jack-o&apos;-Lantern</title><desc>Person in pumpkin costume</desc><path d="M777.364 417.44c0 8.347-6.829 15.177-15.177 15.177s-15.177-6.83-15.177-15.177" stroke="#fff" stroke-width="3" stroke-miterlimit="10" id="path39"/><path d="M747.01 417.44v-3.541c10.118 0 20.236.126 30.354.126v4.182" stroke="#fff" stroke-width="3" stroke-miterlimit="10" id="path40"/><path d="M757.255 423.764c.506 2.15 2.529 3.794 4.932 3.794s4.301-1.644 4.933-3.794" stroke="#fff" stroke-width="3" stroke-miterlimit="10" id="path41"/><path d="M757.255 466.891c.506 2.151 2.529 3.795 4.932 3.795s4.301-1.644 4.933-3.795" stroke="#fff" stroke-width="3" stroke-miterlimit="10" id="path42"/><path d="M767.879 436.158c-1.771.253-3.795.506-5.818.506-2.024 0-4.655-.127-6.425-.506m11.737-4.427c2.656.38 5.185.886 7.588 1.771 11.257 3.921 19.098 12.774 19.098 23.145 0 13.659-13.659 24.789-30.607 25.295h-2.529c-17.075-.506-30.734-11.636-30.734-25.295 0-10.371 7.842-19.224 19.098-23.145 2.403-.885 4.932-1.391 7.588-1.771" stroke="#fff" stroke-width="3" stroke-miterlimit="10" id="path43"/><path d="M751.058 434.64c-6.956 4.301-11.636 12.648-11.636 22.133 0 13.407 9.486 24.41 21.374 25.295h2.53c11.888-.758 21.374-11.762 21.374-25.295 0-9.485-4.68-17.706-11.636-22.133" stroke="#fff" stroke-width="3" stroke-miterlimit="10" id="path44"/><path d="M756.622 436.158c-3.161 4.932-5.438 13.153-5.565 20.489-.126 10.877 4.68 23.398 9.992 25.295h2.53c5.185-1.897 10.117-14.418 9.991-25.295-.126-7.336-2.403-15.557-5.312-20.489" stroke="#fff" stroke-width="3" stroke-miterlimit="10" id="path45"/><path d="M749.287 433.502c.506.379 1.012.759 1.771 1.138 1.391.759 3.161 1.265 5.311 1.645" stroke="#fff" stroke-width="3" stroke-miterlimit="10" id="path46"/><path d="M767.879 436.158c2.15-.379 3.92-.885 5.312-1.644.632-.38 1.264-.632 1.644-1.138" stroke="#fff" stroke-width="3" stroke-miterlimit="10" id="path47"/><path d="M773.444 495.981v-14.798m-22.766-1.012v16.316z" stroke="#fff" stroke-width="3" stroke-miterlimit="10" id="path48"/><path d="M749.413 496.487h10.118v13.912l-1.265 2.529h-11.382c-.759 0-1.265-.506-1.265-1.264v-3.795c0-1.77 1.265-3.415 3.035-3.667l.759-.127z" stroke="#fff" stroke-width="3" stroke-miterlimit="10" id="path49"/><path d="M748.149 504.075h8.22c1.771 0 3.162.759 3.162 2.53v1.264" stroke="#fff" stroke-width="3" stroke-miterlimit="10" id="path50"/><path d="M774.708 496.487H764.59v15.177c0 .758.506 1.264 1.265 1.264h13.912c.759 0 1.265-.506 1.265-1.264v-3.795c0-1.77-1.265-3.415-3.035-3.667l-3.289-.127z" stroke="#fff" stroke-width="3" stroke-miterlimit="10" id="path51"/><path d="M741.825 410.357c.253-2.276.379-4.426 1.518-7.082.379-1.012 1.138-2.403 2.403-3.921 3.794-5.059 9.991-8.474 16.315-8.474 6.45 0 12.521 3.415 16.315 8.474 1.265 1.518 1.897 3.035 2.403 4.047 1.012 2.53 1.265 4.806 1.518 6.956.126 1.139.126 2.15.253 2.909 0 .633 0 1.644-.253 2.909-.253 1.644-.38 3.794-1.518 5.944-.379.886-1.138 2.15-2.403 3.415-3.794 4.3-9.991 7.209-16.315 7.209-6.45 0-12.521-2.909-16.315-7.209a16.6 16.6 0 0 1-2.403-3.415q-.949-1.897-1.139-3.414c-.126-.506-.253-1.265-.379-2.53a29 29 0 0 1 0-5.818Z" stroke="#fff" stroke-width="3" stroke-miterlimit="10" id="path52"/><path d="M762.061 390.88c-1.644 2.277-3.668 5.818-5.059 10.498-1.518 5.185-1.644 9.612-1.391 12.521" stroke="#fff" stroke-width="3" stroke-miterlimit="10" id="path53"/><path d="M762.693 390.88c1.644 2.277 3.668 5.818 5.059 10.498 1.518 5.185 1.644 9.612 1.391 12.521" stroke="#fff" stroke-width="3" stroke-miterlimit="10" id="path54"/><path d="M762.061 378.991v11.889" stroke="#fff" stroke-width="3" stroke-miterlimit="10" id="path55"/><path d="M750.931 383.039c.379-.127 5.944-2.024 9.233 1.011 1.264 1.139 2.529 3.415 1.644 4.807-.885 1.644-4.174 1.517-6.071.632-3.794-1.391-4.679-5.818-4.806-6.45Z" stroke="#fff" stroke-width="3" stroke-miterlimit="10" id="path56"/><path d="M764.59 496.993v-14.798" stroke="#fff" stroke-width="3" stroke-miterlimit="10" id="path57"/><path d="M759.531 496.993v-14.798" stroke="#fff" stroke-width="3" stroke-miterlimit="10" id="path58"/></g><g id="g197"><title>Witch</title><desc>Witch with pointed hat and broom</desc><path d="M1032.73 419.134c0 4.102 3.37 7.325 7.33 7.325 3.95 0 7.32-3.37 7.32-7.325" stroke="#fff" stroke-width="3" stroke-miterlimit="10" id="path59"/><path d="M1057.34 401.995v-3.077c-8.93-3.369-18.9-15.967-18.9-15.967s-15.67 8.057-15.96 18.897" stroke="#fff" stroke-width="3" stroke-miterlimit="10" id="path60"/><path d="M1059.69 444.038v46.291h-10.99" stroke="#fff" stroke-width="3" stroke-miterlimit="10" id="path61"/><path d="M1023.21 439.789v50.539h8.79" stroke="#fff" stroke-width="3" stroke-miterlimit="10" id="path62"/><path d="M1029.07 490.328v4.981" stroke="#fff" stroke-width="3" stroke-miterlimit="10" id="path63"/><path d="M1030.53 504.831v5.86h1.47v-13.917h-7.33l-4.39 8.057-8.64 4.395v1.465h13.03z" stroke="#fff" stroke-width="3" stroke-miterlimit="10" id="path64"/><path d="M1050.9 490.328v4.981" stroke="#fff" stroke-width="3" stroke-miterlimit="10" id="path65"/><path d="M1047.97 445.209v50.1" stroke="#fff" stroke-width="3" stroke-miterlimit="10" id="path66"/><path d="M1049.43 504.831v5.86h-1.46v-13.917h7.17l4.4 8.057 8.79 4.395v1.465h-13.19z" stroke="#fff" stroke-width="3" stroke-miterlimit="10" id="path67"/><path d="m1026.87 423.529 8.79 8.643h1.32l2.93-4.395h.15l2.78 4.395h1.46l8.79-8.643" stroke="#fff" stroke-width="3" stroke-miterlimit="10" id="path68"/><path d="M1057.34 401.702c0 9.668-7.76 17.432-17.43 17.432s-17.43-7.764-17.43-17.432" stroke="#fff" stroke-width="3" stroke-miterlimit="10" id="path69"/><path d="M1034.34 408.88c.59 2.49 2.93 4.395 5.57 4.395s4.98-1.905 5.57-4.395" stroke="#fff" stroke-width="3" stroke-miterlimit="10" id="path70"/><path d="M1039.91 369.767c10.99 0 19.78 16.114 21.97 27.54.74 4.248.3 5.859 0 20.362-.14 9.815-.14 17.725-.14 22.853 0 1.611.14 3.076.14 4.687h-1.46c-1.32-1.611-2.78-3.516-4.1-6.006-3.08-5.86-3.67-11.573-3.67-14.942 0-1.758 0-3.369.15-5.127-4.25 0-8.64-.147-12.89-.147-1.9 0-4.69.147-7.76 1.172-2.2.733-3.96 1.465-5.28 2.344l-1.46.879c2.93 13.038-5.86 21.827-5.86 21.827h-1.47c.15-1.465.44-2.93.59-4.541-.15-4.981-.29-13.184-.59-23.146-.44-15.381-.58-17.139 0-20.362 2.2-11.133 10.84-27.393 21.83-27.393Z" stroke="#fff" stroke-width="3" stroke-miterlimit="10" id="path71"/><path d="m1023.65 480.807-5.13-1.465v-7.325h-4.39v-26.808c0-2.051.29-4.687 1.17-7.764s2.05-5.42 3.08-7.031" stroke="#fff" stroke-width="3" stroke-miterlimit="10" id="path72"/><path d="m1052.36 425.58-3.08 9.521a29 29 0 0 0-1.31 8.643v2.051" stroke="#fff" stroke-width="3" stroke-miterlimit="10" id="path73"/><path d="M1032 445.209v50.1" stroke="#fff" stroke-width="3" stroke-miterlimit="10" id="path74"/><path d="m1027.6 425.58 3.08 9.521a28.7 28.7 0 0 1 1.32 8.643v2.051" stroke="#fff" stroke-width="3" stroke-miterlimit="10" id="path75"/><path d="M1032 486.666h15.97" stroke="#fff" stroke-width="3" stroke-miterlimit="10" id="path76"/><path d="M1032 475.826h16.7" stroke="#fff" stroke-width="3" stroke-miterlimit="10" id="path77"/><path d="M1077.85 393.791c0 5.567-16.99 10.108-37.79 10.108-20.81 0-37.95-4.395-37.95-10.108 0-3.662 7.18-6.885 18.02-8.643 6.74-18.751 13.33-37.648 20.07-56.545h2.05c6.16 18.897 12.31 37.794 18.46 56.692 10.26 1.904 17.14 4.98 17.14 8.496Z" fill="#121212" stroke="#fff" stroke-width="3" stroke-miterlimit="10" id="path78"/><path d="M1060.42 419.427h14.94v13.038c-4.98 0-9.96 0-14.94.146" stroke="#fff" stroke-width="3" stroke-miterlimit="10" id="path79"/><path d="m1079.17 420.16-3.37 2.05v7.471l7.91 1.612 2.64-2.344.73-3.516-2.93-.439.73-3.663z" fill="#121212" stroke="#fff" stroke-width="3" stroke-miterlimit="10" id="path80"/><path d="M1081.37 399.504v19.923" stroke="#fff" stroke-width="3" stroke-miterlimit="10" id="path81"/><path d="M1081.37 431.293v45.558" stroke="#fff" stroke-width="3" stroke-miterlimit="10" id="path82"/><path d="M1081.37 476.851v33.693h7.76v-.439c-2.64-11.134-5.27-22.12-7.76-33.254Zm0 0c-2.49 10.987-5.13 22.12-7.62 33.107v.586h7.62" stroke="#fff" stroke-width="3" stroke-miterlimit="10" id="path83"/><path d="M1018.52 472.164h4.54" stroke="#fff" stroke-width="3" stroke-miterlimit="10" id="path84"/></g><g id="g194"><title>Ugly Sweater</title><desc>Person wearing festive holiday sweater</desc><path d="M522.292 741.44v37.119" stroke="#72c8f1" stroke-width="3" stroke-miterlimit="10" id="path85"/><path d="M522.292 741.44v37.119" stroke="#72c8f1" stroke-width="3" stroke-miterlimit="10" id="path86"/><path d="M464.192 782.432c-2.743 0-4.841-2.098-4.841-4.842s2.098-4.841 4.841-4.841" fill="#fff" id="path87"/><path d="M464.192 782.432c-2.743 0-4.841-2.098-4.841-4.842s2.098-4.841 4.841-4.841" stroke="#fff" stroke-width="3" stroke-miterlimit="10" id="path88"/><path d="M464.192 799.377c-2.743 0-4.841-2.098-4.841-4.841s2.098-4.842 4.841-4.842" fill="#fff" id="path89"/><path d="M464.192 799.377c-2.743 0-4.841-2.098-4.841-4.841s2.098-4.842 4.841-4.842" stroke="#fff" stroke-width="3" stroke-miterlimit="10" id="path90"/><path d="M522.292 756.287q.241 0 0 0c2.743 0 4.841 2.098 4.841 4.842s-2.098 4.841-4.841 4.841" fill="#fff" id="path91"/><path d="M522.292 756.287q.241 0 0 0c2.743 0 4.841 2.098 4.841 4.842s-2.098 4.841-4.841 4.841" stroke="#fff" stroke-width="3" stroke-miterlimit="10" id="path92"/><path d="M522.292 772.749q.241 0 0 0c2.743 0 4.841 2.098 4.841 4.841s-2.098 4.842-4.841 4.842" fill="#fff" id="path93"/><path d="M522.292 772.749q.241 0 0 0c2.743 0 4.841 2.098 4.841 4.841s-2.098 4.842-4.841 4.842" stroke="#fff" stroke-width="3" stroke-miterlimit="10" id="path94"/><path d="M522.292 789.694q.241 0 0 0c2.743 0 4.841 2.098 4.841 4.842s-2.098 4.841-4.841 4.841" fill="#fff" id="path95"/><path d="M522.292 789.694q.241 0 0 0c2.743 0 4.841 2.098 4.841 4.842s-2.098 4.841-4.841 4.841" stroke="#fff" stroke-width="3" stroke-miterlimit="10" id="path96"/><path d="M439.662 758.869c-1.937-1.129-3.874-2.42-5.81-3.55-.162.161-.162.323-.323.646v9.521c0 .162.161.484.161.646 1.937-1.13 3.874-2.098 5.81-3.228.162-1.452.162-2.743.162-4.035Z" stroke="#fff" stroke-width="3" stroke-miterlimit="10" id="path97"/><path d="M515.352 712.229c0-12.266-9.845-22.11-21.949-22.11s-22.11 9.844-22.11 22.11" stroke="#fff" stroke-width="3" stroke-miterlimit="10" id="path98"/><path d="M464.058 805.716h58.26v-72.301h-58.26z" stroke="#fff" stroke-width="3" stroke-miterlimit="10" id="path99"/><path d="M459.512 814.171h67.46v-8.554h-67.46z" stroke="#fff" stroke-width="3" stroke-miterlimit="10" id="path100"/><path d="M464.165 749.502h58.26v-16.139h-58.26z" stroke="#fff" stroke-width="3" stroke-miterlimit="10" id="path101"/><path d="M515.352 733.37v16.139" stroke="#fff" stroke-width="3" stroke-miterlimit="10" id="path102"/><path d="M509.058 733.37v16.139" stroke="#fff" stroke-width="3" stroke-miterlimit="10" id="path103"/><path d="M502.764 733.37v16.139" stroke="#fff" stroke-width="3" stroke-miterlimit="10" id="path104"/><path d="M496.47 733.37v16.139" stroke="#fff" stroke-width="3" stroke-miterlimit="10" id="path105"/><path d="M490.176 733.37v16.139" stroke="#fff" stroke-width="3" stroke-miterlimit="10" id="path106"/><path d="M483.882 733.37v16.139" stroke="#fff" stroke-width="3" stroke-miterlimit="10" id="path107"/><path d="M477.588 733.37v16.139" stroke="#fff" stroke-width="3" stroke-miterlimit="10" id="path108"/><path d="M471.293 733.37v16.139" stroke="#fff" stroke-width="3" stroke-miterlimit="10" id="path109"/><path d="M471.266 733.433h44.058v-20.98h-44.058z" stroke="#fff" stroke-width="3" stroke-miterlimit="10" id="path110"/><path d="M522.453 719.007h-58.26" stroke="#fff" stroke-width="3" stroke-miterlimit="10" id="path111"/><path d="M522.453 726.108h-58.26" stroke="#fff" stroke-width="3" stroke-miterlimit="10" id="path112"/><path d="m475.651 691.571 3.066 3.39" stroke="#fff" stroke-width="3" stroke-miterlimit="10" id="path113"/><path d="m512.124 691.571-3.066 3.39" stroke="#fff" stroke-width="3" stroke-miterlimit="10" id="path114"/><path d="M457.669 707.611h5.81v-9.844h-5.81z" stroke="#fff" stroke-width="3" stroke-miterlimit="10" id="path115"/><path d="M510.672 799.377a4.841 4.841 0 1 0 0-9.683 4.841 4.841 0 0 0 0 9.683Z" fill="#fff" stroke="#fff" stroke-width="3" stroke-miterlimit="10" id="path116"/><path d="M510.672 782.432a4.841 4.841 0 1 0 0-9.683 4.841 4.841 0 0 0 0 9.683Z" fill="#fff" stroke="#fff" stroke-width="3" stroke-miterlimit="10" id="path117"/><path d="M510.672 765.97a4.841 4.841 0 1 0 0-9.683 4.841 4.841 0 0 0 0 9.683Z" fill="#fff" stroke="#fff" stroke-width="3" stroke-miterlimit="10" id="path118"/><path d="M493.242 799.377a4.841 4.841 0 1 0-4.842-4.841 4.84 4.84 0 0 0 4.842 4.841Z" fill="#fff" stroke="#fff" stroke-width="3" stroke-miterlimit="10" id="path119"/><path d="M493.242 782.432a4.842 4.842 0 1 0 0-9.684 4.842 4.842 0 0 0 0 9.684Z" fill="#fff" stroke="#fff" stroke-width="3" stroke-miterlimit="10" id="path120"/><path d="M493.242 765.97a4.841 4.841 0 1 0-4.842-4.841 4.84 4.84 0 0 0 4.842 4.841Z" fill="#fff" stroke="#fff" stroke-width="3" stroke-miterlimit="10" id="path121"/><path d="M476.296 799.377a4.841 4.841 0 1 0 .001-9.683 4.841 4.841 0 0 0-.001 9.683Z" fill="#fff" stroke="#fff" stroke-width="3" stroke-miterlimit="10" id="path122"/><path d="M476.296 782.432a4.842 4.842 0 1 0 0-9.684 4.842 4.842 0 0 0 0 9.684Z" fill="#fff" stroke="#fff" stroke-width="3" stroke-miterlimit="10" id="path123"/><path d="M493.242 702.707h-29.049" stroke="#fff" stroke-width="3" stroke-miterlimit="10" id="path124"/><path d="M464.192 743.376h-19.366" stroke="#fff" stroke-width="3" stroke-miterlimit="10" id="path125"/><path d="M478.717 760.645h-37.926" stroke="#fff" stroke-width="3" stroke-miterlimit="10" id="path126"/></g><g id="g192"><title>Robot</title><desc>Robot or mechanical character</desc><path d="M187.475 743.906c0-15.688 12.836-28.523 28.523-28.523 15.688 0 28.523 12.835 28.523 28.523" stroke="#fff" stroke-width="3" stroke-miterlimit="10" id="path127"/><path d="M235.014 697.635c-.793 9.983-9.191 17.748-19.016 17.748-10.141 0-18.856-8.399-19.015-19.016" stroke="#fff" stroke-width="3" stroke-miterlimit="10" id="path128"/><path d="M197.141 697.635c-.475-4.278-.95-9.983-1.267-16.955-.634-13.627.317-15.846 1.584-17.431 4.12-5.546 12.519-5.546 18.54-5.546 6.022 0 14.42 0 18.698 5.546.793 1.11 2.377 3.645 1.902 17.114-.317 7.289-.951 13.311-1.426 17.431" stroke="#fff" stroke-width="3" stroke-miterlimit="10" id="path129"/><path d="M209.818 704.29c.634 2.694 3.169 4.754 6.18 4.754s5.388-2.06 6.18-4.754" stroke="#fff" stroke-width="3" stroke-miterlimit="10" id="path130"/><path d="M187.475 743.906v36.445" stroke="#6cf" stroke-width="3" stroke-miterlimit="10" id="path131"/><path d="M244.521 743.906v36.445" stroke="#6cf" stroke-width="3" stroke-miterlimit="10" id="path132"/><path d="M196.191 687.335c1.743-3.486 3.486-6.972 5.387-10.458 1.744 0 3.487 0 5.23.159 1.109-1.585 2.06-3.17 3.169-4.596l3.803 4.754c1.109-1.426 2.218-3.011 3.328-4.437a58 58 0 0 1 2.218 4.437l4.754-4.754c.792 1.585 1.743 3.169 2.535 4.754h4.279l5.229 10.934" stroke="#fff" stroke-width="3" stroke-miterlimit="10" id="path133"/><path d="M228.675 710.471h7.923" stroke="#fff" stroke-width="3" stroke-miterlimit="10" id="path134"/><path d="M238.183 706.509v7.923" stroke="#fff" stroke-width="3" stroke-miterlimit="10" id="path135"/><path d="M203.321 710.471h-7.923" stroke="#fff" stroke-width="3" stroke-miterlimit="10" id="path136"/><path d="M193.814 706.509v7.923" stroke="#fff" stroke-width="3" stroke-miterlimit="10" id="path137"/><path d="M227.091 718.394c-3.645 7.447-7.448 14.736-11.093 22.184a1437 1437 0 0 0-11.092-22.184" stroke="#fff" stroke-width="3" stroke-miterlimit="10" id="path138"/><path d="M196.983 723.306c6.339 5.704 12.677 11.567 19.015 17.272" stroke="#fff" stroke-width="3" stroke-miterlimit="10" id="path139"/><path d="M235.014 723.306c-6.339 5.704-12.677 11.567-19.016 17.272" stroke="#fff" stroke-width="3" stroke-miterlimit="10" id="path140"/><path d="M215.998 741.054v27.255" stroke="#fff" stroke-width="3" stroke-miterlimit="10" id="path141"/><path d="M201.737 769.259h28.047" stroke="#fff" stroke-width="3" stroke-miterlimit="10" id="path142"/><path d="M187 778.767h57.521" stroke="#fff" stroke-width="3" stroke-miterlimit="10" id="path143"/><path d="M187.475 743.272v37.08" stroke="#fff" stroke-width="3" stroke-miterlimit="10" id="path144"/><path d="M244.521 743.272v37.08" stroke="#fff" stroke-width="3" stroke-miterlimit="10" id="path145"/><path d="M201.737 738.201v40.249" stroke="#fff" stroke-width="3" stroke-miterlimit="10" id="path146"/><path d="M230.26 738.201v40.249" stroke="#fff" stroke-width="3" stroke-miterlimit="10" id="path147"/><path d="M201.737 747.075v45.953m28.523 1.585v-50.707z" stroke="#fff" stroke-width="3" stroke-miterlimit="10" id="path148"/><path d="M231.844 794.613h-12.676v17.43l1.584 3.17h14.262c.95 0 1.584-.634 1.584-1.585v-4.754c0-2.218-1.584-4.278-3.803-4.595l-.951-.159z" stroke="#fff" stroke-width="3" stroke-miterlimit="10" id="path149"/><path d="M233.429 804.12h-10.3c-2.218 0-3.961.951-3.961 3.17v1.584" fill="#fff" id="path150"/><path d="M233.429 804.12h-10.3c-2.218 0-3.961.951-3.961 3.17v1.584" stroke="#fff" stroke-width="3" stroke-miterlimit="10" id="path151"/><path d="M200.152 794.613h12.677v19.015c0 .951-.634 1.585-1.585 1.585h-17.43c-.951 0-1.585-.634-1.585-1.585v-4.754c0-2.218 1.585-4.278 3.803-4.595l4.12-.159z" stroke="#fff" stroke-width="3" stroke-miterlimit="10" id="path152"/><path d="M244.521 778.767v5.863l-3.961 3.961c-3.011 0-6.022-.158-9.033-.158.634-1.426.476-.634 1.11-2.694h-2.377v-6.972z" stroke="#fff" stroke-width="3" stroke-miterlimit="10" id="path153"/><path d="M187.475 778.767v5.863l3.962 3.961c3.011 0 6.021-.158 9.032-.158-.634-1.426-.475-.634-1.109-2.694h2.377v-6.972z" stroke="#fff" stroke-width="3" stroke-miterlimit="10" id="path154"/><path d="M204.431 684.958h22.659" stroke="#fff" stroke-width="3" stroke-miterlimit="10" id="path155"/><path d="M197.3 696.367h9.824" stroke="#fff" stroke-width="3" stroke-miterlimit="10" id="path156"/><path d="M202.846 692.881v7.448" stroke="#fff" stroke-width="3" stroke-miterlimit="10" id="path157"/><path d="M212.829 794.613v-15.529" stroke="#fff" stroke-width="3" stroke-miterlimit="10" id="path158"/><path d="M219.168 794.613v-15.529" stroke="#fff" stroke-width="3" stroke-miterlimit="10" id="path159"/></g><g id="g196"><title>Snowman</title><desc>Snowman with hat and scarf</desc><path d="m796.17 789.161-2.975-9.037m0 0-4.238-12.876v-22.412c0-15.688-12.836-28.523-28.523-28.523-15.688 0-28.523 12.835-28.523 28.523v19.873l-1.537.787-9.372-12.868m72.193 27.496 8.105 3.09m-8.105-3.09 6.823-4.839m-85.963-31.969 6.947 9.312m0-12.568v12.568m0 0-10.854-1.931" stroke="#fff" stroke-width="3" stroke-miterlimit="10" id="path160"/><path d="M754.783 705.613c.7 2.6 3 4.5 5.8 4.5s5.1-1.9 5.8-4.5" stroke="#fff" stroke-width="3" stroke-miterlimit="10" id="path161"/><path d="M778.383 698.513q.003.178 0 .355m0 0c-.098 9.542-8.121 17.445-17.9 17.445-9.9 0-18-8.1-18-18v-15.911h35.9z" stroke="#fff" stroke-width="3" stroke-miterlimit="10" id="path162"/><path stroke="#fff" stroke-width="3" id="rect162" d="M742.483 653.045h35.901v29.358h-35.901z"/><path d="M763.432 697.204v2.154l9.277-.932z" stroke="#fff" stroke-width="3" id="path163"/><path d="M760.289 731.429c.548 0 .9.353.9.9a.9.9 0 1 1-.9-.9Z" stroke="#fff" stroke-width="2" id="path164"/><path d="M760.289 740.387c.548 0 .9.353.9.9a.9.9 0 1 1-.9-.9Z" stroke="#fff" stroke-width="2" id="path165"/><path d="M760.289 749.345c.548 0 .9.353.9.9a.9.9 0 1 1-.9-.9Z" stroke="#fff" stroke-width="2" id="path166"/><path stroke="#fff" stroke-width="3" id="line166" d="M732.537 681.836h55.692"/><path d="m736.943 754.524 5.228 11.054c-12.134 19.656-13.301 30.676 0 50.332h17.204" stroke="#fff" stroke-width="3" id="path167"/><path d="m783.987 754.524-5.228 11.054c12.134 19.656 13.301 30.676 0 50.332h-22.868" stroke="#fff" stroke-width="3" id="path168"/></g><g id="g198"><title>Elf</title><desc>Christmas elf character</desc><path d="M1058.35 708.213c0 9.9-8.1 18-18 18s-18-8.1-18-18v-5.5" stroke="#fff" stroke-width="3" stroke-miterlimit="10" id="path169"/><path d="M1022.35 702.713c0-9.9 8.1-18 18-18s18 8.1 18 18v6.9" stroke="#fff" stroke-width="3" stroke-miterlimit="10" id="path170"/><path d="M1030.75 786.113v23.5h-.81l-5.95-6.206h-1.64v11.806h14.4v-29.1" stroke="#fff" stroke-width="3" stroke-miterlimit="10" id="path171"/><path d="M1050.32 786.113v23.5h.81l5.95-6.206h1.64v11.806h-14.4v-29.1" stroke="#fff" stroke-width="3" stroke-miterlimit="10" id="path172"/><path d="M1046.35 709.013c.66 0 1.2.537 1.2 1.2s-.54 1.2-1.2 1.2-1.2-.537-1.2-1.2.54-1.2 1.2-1.2Z" fill="#fff" stroke="#fff" stroke-width="2" id="path173"/><path d="M1040.35 740.513c.66 0 1.2.537 1.2 1.2s-.54 1.2-1.2 1.2-1.2-.537-1.2-1.2.54-1.2 1.2-1.2Z" stroke="#fff" stroke-width="2" id="path174"/><path d="M1040.35 749.563c.66 0 1.2.537 1.2 1.2s-.54 1.2-1.2 1.2-1.2-.538-1.2-1.2c0-.663.54-1.2 1.2-1.2Z" stroke="#fff" stroke-width="2" id="path175"/><path d="M1032.75 709.013c.66 0 1.2.537 1.2 1.2s-.54 1.2-1.2 1.2-1.2-.537-1.2-1.2.54-1.2 1.2-1.2Z" fill="#fff" stroke="#fff" stroke-width="2" id="path176"/><path d="M1058.35 706.838h-1.5c-4.2-3-6.8-8.1-8.2-13.5h-.8c-5.1 7.9-14 14.2-23.4 14.2h-1.3" stroke="#fff" stroke-width="3" stroke-miterlimit="10" id="path177"/><path d="M1029.75 792.013h6.8" stroke="#fff" stroke-width="3" stroke-miterlimit="10" id="path178"/><path d="M1051.32 792.013h-6.8" stroke="#fff" stroke-width="3" stroke-miterlimit="10" id="path179"/><path d="m1033.35 770.813-8 6.2v9l30.97.307v-21.883" stroke="#fff" stroke-width="3" stroke-miterlimit="10" id="path180"/><path d="M1016.35 750.713c0-13.3 10.7-24 24-24s24 10.7 24 24v23.2" stroke="#fff" stroke-width="3" stroke-miterlimit="10" id="path181"/><path d="M1016.35 750.713v14.3l9.7 12.7" stroke="#fff" stroke-width="3" stroke-miterlimit="10" id="path182"/><path d="M1020.05 738.013c3.3 2.9 5.2 7 5.2 11.4v1.3h-1.5l-1.5 12.8 4.5 6.8c1.8 0 3.5 1 4.3 2.7l.2.3" stroke="#fff" stroke-width="3" stroke-miterlimit="10" id="path183"/><path d="M1060.55 738.013c-3.3 2.9-5.2 7-5.2 11.4v1.3h1.5l1.5 12.8v8.2" stroke="#fff" stroke-width="3" stroke-miterlimit="10" id="path184"/><path stroke="#fff" stroke-width="3" id="line184" d="M1022.35 764.314h35.6"/><path stroke="#fff" stroke-width="3" id="line185" d="M1026.53 770.213h30.66"/><path d="M1057.51 697.163s-7.24-6.676-17.38-6.676-17.38 6.676-17.38 6.676c0-14.686 11.59-31.152 17.38-31.152 6.47 0 17.38 16.466 17.38 31.152Z" fill="#000" stroke="#fff" stroke-width="3" stroke-miterlimit="10" id="path185" style="fill:var(--fill-color)"/><circle cx="1040.35" cy="661.027" r="3.972" fill="#fff" id="circle185" style="stroke:var(--stroke-color)"/><path d="m1055.43 683.679-2.63 4.29-.56-.177-2.93-4.856-3.43 2.381-1.03-.176-4.02-5.857h-1.26l-3.61 5.857h-.89l-3.58-2.686-2.55 5.229-.81.358-3-4.515" stroke="#fff" stroke-width="3" id="path186"/><path d="m1023.51 733.647 8.11-1.59.95.186-.95 5.952h1.94l6.14-6.138h1.3l6.14 6.138h1.94l-1.11-5.656 1.11-.482 8.06 1.59" stroke="#fff" stroke-width="3" id="path187"/><path d="M1056.32 773.913v4.343h1.88v3.032h4.02l2.13-3.196v-4.179" stroke="#fff" stroke-width="3" stroke-miterlimit="10" id="path188"/></g><g clip-path="url(#clip0_19_1434)" id="g190"><path d="M189.693 116.297q-1.899.984-4.723.984-3.656 0-5.859-2.308-2.203-2.309-2.203-6.059 0-4.03 2.472-6.516 2.485-2.484 6.27-2.484 2.438 0 4.043.691v2.766q-1.7-1.008-3.75-1.008-2.73 0-4.43 1.746-1.687 1.746-1.687 4.664 0 2.778 1.582 4.43 1.581 1.641 4.16 1.641 2.379 0 4.125-1.125zm13.547.703h-2.719v-6.562q0-3.564-2.379-3.563-1.195 0-2.016 1.031-.82 1.032-.82 2.637V117h-2.73V99.234h2.73v7.758h.047q1.359-2.273 3.891-2.273 3.996 0 3.996 4.886zm12.515 0h-2.636v-1.875h-.047q-1.242 2.156-3.645 2.156-1.769 0-2.777-.961-.996-.96-.996-2.543 0-3.398 3.914-3.961l3.562-.504q0-2.565-2.437-2.566-2.145 0-3.867 1.477v-2.379q1.898-1.125 4.382-1.125 4.548 0 4.547 4.476zm-2.625-5.895-2.519.352q-1.172.153-1.77.574-.585.41-.586 1.453 0 .762.539 1.254.552.481 1.465.481 1.242 0 2.051-.867.82-.88.82-2.204zm12.914-3.515q-.492-.387-1.418-.387-1.206 0-2.015 1.09t-.809 2.965V117h-2.719v-12h2.719v2.473h.047q.399-1.266 1.219-1.969.833-.715 1.851-.715.74 0 1.125.223zm11.133 9.41h-2.636v-1.875h-.047q-1.242 2.156-3.645 2.156-1.77 0-2.777-.961-.996-.96-.996-2.543 0-3.398 3.914-3.961l3.562-.504q0-2.565-2.437-2.566-2.145 0-3.867 1.477v-2.379q1.898-1.125 4.382-1.125 4.547 0 4.547 4.476zm-2.625-5.895-2.519.352q-1.172.153-1.77.574-.586.41-.586 1.453 0 .762.539 1.254.551.481 1.465.481 1.242 0 2.051-.867.82-.88.82-2.204zm14.543 5.344q-1.441.832-3.41.832-2.672 0-4.312-1.664-1.641-1.675-1.641-4.336 0-2.964 1.758-4.758 1.77-1.804 4.722-1.804 1.641 0 2.895.574v2.531q-1.254-.937-2.672-.937-1.723 0-2.824 1.172-1.102 1.16-1.102 3.046 0 1.864 1.032 2.942 1.043 1.078 2.789 1.078 1.464 0 2.765-1.043zm9.035.422q-.797.399-2.097.399-3.492 0-3.492-3.352v-6.785h-2.004V105h2.004v-2.777l2.718-.774V105h2.871v2.133h-2.871v6q0 1.067.387 1.523.386.457 1.289.457.691 0 1.195-.398zm12.364-5.133h-8.18q.047 1.665 1.019 2.567.985.902 2.696.902 1.922 0 3.527-1.148v2.191q-1.64 1.032-4.336 1.031-2.648 0-4.16-1.629-1.5-1.64-1.5-4.605 0-2.8 1.652-4.559 1.665-1.769 4.125-1.769 2.462 0 3.809 1.582 1.348 1.581 1.348 4.394zm-2.625-1.922q-.012-1.464-.692-2.273-.68-.82-1.875-.82-1.171 0-1.992.855-.808.856-.996 2.238zm12.175-2.226q-.491-.387-1.418-.387-1.206 0-2.015 1.09t-.809 2.965V117h-2.719v-12h2.719v2.473h.047q.399-1.266 1.219-1.969.832-.715 1.851-.715.74 0 1.125.223zm1.336 9.035v-2.52q1.524 1.161 3.364 1.161 2.46 0 2.461-1.454 0-.41-.211-.691a2 2 0 0 0-.575-.516 4.3 4.3 0 0 0-.843-.398q-.481-.176-1.078-.398a12 12 0 0 1-1.336-.621 4.3 4.3 0 0 1-.985-.739 2.9 2.9 0 0 1-.586-.949q-.2-.528-.199-1.23 0-.868.41-1.524a3.5 3.5 0 0 1 1.102-1.113 5.1 5.1 0 0 1 1.57-.68 7 7 0 0 1 1.817-.234q1.663 0 2.976.504v2.379q-1.266-.868-2.906-.868-.515 0-.938.106-.41.105-.703.293a1.4 1.4 0 0 0-.457.457 1.05 1.05 0 0 0-.164.574q0 .387.164.656.165.27.481.481.327.2.773.375.457.164 1.043.363.774.317 1.383.645a4.5 4.5 0 0 1 1.055.75q.433.41.668.961.234.539.234 1.289 0 .913-.422 1.593a3.5 3.5 0 0 1-1.125 1.125 5.2 5.2 0 0 1-1.629.657 8.2 8.2 0 0 1-1.933.222q-1.97 0-3.411-.656Z" fill="#fff" fill-opacity=".896" id="path189"/><path d="M180.236 218.773v-9.57q1.289 1.172 3.047 2.109a26 26 0 0 0 3.789 1.602q1.992.625 3.984.977 1.992.351 3.672.351 5.86 0 8.711-1.953 2.89-1.953 2.891-5.664 0-1.992-.977-3.437-.937-1.485-2.656-2.696-1.719-1.21-4.063-2.304a185 185 0 0 0-4.961-2.344 82 82 0 0 1-5.312-3.086q-2.461-1.563-4.297-3.438a15.3 15.3 0 0 1-2.852-4.297q-1.015-2.382-1.015-5.585 0-3.946 1.758-6.836a15 15 0 0 1 4.687-4.805q2.93-1.914 6.641-2.813 3.711-.937 7.578-.937 8.789 0 12.812 1.992v9.18q-4.765-3.438-12.265-3.438-2.07 0-4.141.391-2.031.39-3.672 1.289-1.601.898-2.617 2.305-1.016 1.406-1.016 3.398 0 1.875.782 3.242.78 1.368 2.265 2.5 1.524 1.133 3.672 2.227 2.187 1.054 5.039 2.305a65 65 0 0 1 5.508 3.203q2.617 1.679 4.57 3.711a15.7 15.7 0 0 1 3.125 4.531q1.172 2.46 1.172 5.625 0 4.257-1.719 7.187-1.718 2.93-4.648 4.766-2.89 1.836-6.68 2.656t-8.007.821q-1.407 0-3.477-.235a42 42 0 0 1-4.18-.625 36 36 0 0 1-4.062-.976q-1.914-.587-3.086-1.329Zm79.023-15.312h-27.265q.156 5.547 3.398 8.555 3.281 3.007 8.984 3.007 6.407 0 11.758-3.828v7.305q-5.469 3.438-14.453 3.438-8.828 0-13.867-5.43-5-5.469-5-15.352 0-9.336 5.508-15.195 5.547-5.898 13.75-5.899 8.203 0 12.695 5.274 4.492 5.273 4.492 14.648zm-8.75-6.406q-.039-4.884-2.304-7.578-2.266-2.735-6.25-2.735-3.907 0-6.641 2.852-2.696 2.852-3.32 7.461zM298.595 221h-8.789v-6.25h-.156q-4.141 7.188-12.149 7.188-5.898 0-9.257-3.204-3.321-3.203-3.321-8.476 0-11.328 13.047-13.203l11.875-1.68q0-8.555-8.125-8.555-7.148 0-12.89 4.922v-7.93q6.327-3.75 14.609-3.75 15.156 0 15.156 14.922zm-8.75-19.648-8.398 1.171q-3.907.508-5.899 1.915-1.953 1.367-1.953 4.843 0 2.54 1.797 4.18 1.836 1.602 4.883 1.601 4.14 0 6.836-2.89 2.734-2.93 2.734-7.344zm17.344 18.398v-8.398q5.077 3.867 11.211 3.867 8.203 0 8.203-4.844 0-1.367-.703-2.305-.704-.977-1.914-1.718-1.172-.742-2.813-1.329-1.6-.585-3.593-1.328a40 40 0 0 1-4.454-2.07q-1.952-1.093-3.281-2.461a9.7 9.7 0 0 1-1.953-3.164q-.664-1.758-.664-4.102 0-2.89 1.367-5.078 1.368-2.226 3.672-3.711 2.305-1.523 5.234-2.265a23.4 23.4 0 0 1 6.055-.782q5.547 0 9.922 1.68v7.93q-4.219-2.89-9.687-2.891-1.72 0-3.125.352-1.368.352-2.344.976-.976.625-1.524 1.524a3.5 3.5 0 0 0-.547 1.914q0 1.288.547 2.187.548.899 1.602 1.602 1.093.664 2.578 1.25 1.524.547 3.477 1.211a49 49 0 0 1 4.609 2.148q2.07 1.094 3.516 2.5a9.5 9.5 0 0 1 2.226 3.203q.781 1.797.781 4.297 0 3.047-1.406 5.313t-3.75 3.75-5.43 2.187q-3.046.743-6.445.743-6.563 0-11.367-2.188Zm54.766 2.188q-9.258 0-14.805-5.586-5.508-5.625-5.508-14.883 0-10.078 5.742-15.742 5.781-5.665 15.547-5.665 9.375 0 14.61 5.508t5.234 15.274q0 9.57-5.664 15.351-5.625 5.743-15.156 5.743Zm.429-34.649q-5.312 0-8.398 3.711t-3.086 10.234q0 6.29 3.125 9.922 3.125 3.594 8.359 3.594 5.352 0 8.203-3.555 2.89-3.554 2.891-10.117 0-6.601-2.891-10.195-2.851-3.594-8.203-3.594ZM427.658 221h-9.063v-22.539q0-11.211-7.929-11.211-4.142 0-6.836 3.125-2.696 3.085-2.696 7.813V221h-9.101v-40h9.101v6.641h.157q4.491-7.578 12.968-7.579 6.524 0 9.961 4.258 3.438 4.219 3.438 12.227zm41.797 0h-8.789v-6.25h-.157q-4.14 7.188-12.148 7.188-5.898 0-9.258-3.204-3.32-3.203-3.32-8.476 0-11.328 13.047-13.203l11.875-1.68q0-8.555-8.125-8.555-7.149 0-12.891 4.922v-7.93q6.329-3.75 14.609-3.75 15.157 0 15.157 14.922zm-8.75-19.648-8.399 1.171q-3.906.508-5.898 1.915-1.953 1.367-1.953 4.843 0 2.54 1.796 4.18 1.836 1.602 4.883 1.601 4.141 0 6.836-2.89 2.735-2.93 2.735-7.344zM489.65 221h-9.102v-59.219h9.102z" fill="#fff" fill-opacity=".896" id="path190"/></g><defs id="defs190"><clipPath id="clip0_19_1434"><path fill="#fff" transform="translate(175.9 96)" id="rect190" d="M0 0h943v171H0z"/></clipPath></defs></svg>