<svg width="1253" height="2525" viewBox="0 0 1253 2525" fill="none" xmlns="http://www.w3.org/2000/svg"><title>Elderly Person</title><desc>Elderly person with walking aid</desc><path d="M401.419 1656.79c14.911 0 27-12.09 27-27s-12.089-27-27-27c-14.912 0-27 12.09-27 27s12.088 27 27 27Z" stroke="#000" stroke-width="3" stroke-miterlimit="10"/><path d="M401.419 1647.79c9.941 0 18-8.06 18-18s-8.059-18-18-18-18 8.06-18 18 8.059 18 18 18Z" stroke="#000" stroke-width="3" stroke-miterlimit="10"/><path d="M401.419 1634.29c2.485 0 4.5-2.02 4.5-4.5 0-2.49-2.015-4.5-4.5-4.5-2.486 0-4.5 2.01-4.5 4.5 0 2.48 2.014 4.5 4.5 4.5Zm1.4-31.5h22.3c5.4 0 9.7 4.3 9.7 9.7v17.3h-2.8v3l7.5 4.5v3.8h-13.5" stroke="#000" stroke-width="3" stroke-miterlimit="10"/><path d="M411.819 1602.79h22.3c5.4 0 9.7 4.3 9.7 9.7v17.3h-2.8v3l7.5 4.5v3.8h-13.5m-33.6-45.3v7m-34.6-43.5h25.6m31.4 86.3h27.8m-50.2-33v13.5m0 7.5v13.5m-10.2-31.3 7.9 11m4.5 6 7.9 11m-26.6-19.3 12.9 4.1m7.1 2.4 12.9 4.1m-32.9 0 12.9-4.1m7.1-2.4 12.9-4.1m-26.6 19.3 7.9-11m4.5-6 7.9-11" stroke="#000" stroke-width="3" stroke-miterlimit="10"/><path d="M410.419 1556.79c-8 7.1-14.5 15.8-19.1 25.5l-3.8 8.1c-1.7 5.1-2.6 9.1-1.1 15.9m53.6-26.5v-6.8l-2.7-4.4c0-2.6 2.6-4.4 5-3.4l8.5 3.4v4.1l-1.4 1.3v3.5l1.4 1.4v2.3m-33.7-9.5h22.9" stroke="#000" stroke-width="2.7" stroke-miterlimit="10"/><path d="M441.419 1583.79h1.3c2.2 0 2.7-1.9 2.7-4h-5c-1.1 0-2.1.5-2.8 1.4l-3 4h-12.2l-10.8-12.2v-2.7m28.4-5.4c2.2 0 2.7-1.9 2.7-4.1h-5c-1.1 0-2.1.5-2.8 1.4l-3 4h-14.8c-4.5 0-8.1-3.6-8.1-8.1" stroke="#000" stroke-width="2.7" stroke-miterlimit="10"/><path d="m442.819 1583.79 8-2.7v4.1l-6.7 5.4h-27l-13.5-13.5h-3.8m-12 13.4 29.3.1m0-31.1v20.3m0 10.8v10.8" stroke="#000" stroke-width="2.7" stroke-miterlimit="10"/><path d="M413.419 1596.59h-27.8l-8.801-37.1h-5.299l8.7 39.6v6m43.6-56.3c.9 2.5 3.3 4.3 6.1 4.3h1.4" stroke="#000" stroke-width="3" stroke-miterlimit="10"/><path d="M399.819 1541.09c0 9.9 8.1 18 18 18s18-8.1 18-18" stroke="#000" stroke-width="3" stroke-miterlimit="10"/><path d="M413.019 1535.79c-2.9 0-5.4 2.3-5.5 5.2-.1 3 2.3 5.4 5.2 5.4" stroke="#000" stroke-width="3" stroke-miterlimit="10"/><path d="M414.519 1542.59a1.5 1.5 0 1 0 .001-2.999 1.5 1.5 0 0 0-.001 2.999Z" stroke="#000" stroke-width="1.5" stroke-miterlimit="10"/><path d="M399.819 1541.59v-7.3c-.1-9.7 8-16.5 17.9-16.5" stroke="#000" stroke-width="3" stroke-miterlimit="10"/><path d="M416.319 1517.79h10.9c1.7 0 3-1.3 3-3 3.2 0 5.7 2.8 5.7 6v20.2" stroke="#000" stroke-width="3" stroke-miterlimit="10"/><path d="M412.419 1535.79h2.1c5.7-5.4 13-8.9 20.8-9.5" stroke="#000" stroke-width="3" stroke-miterlimit="10"/><title>Person in Traditional Dress</title><desc>Person in traditional cultural dress</desc><path d="M207.713 1656.44v-14.2h-10.4l-.1 6h-2.7c-4.4.3-7.8 3.9-7.8 8.3h21zm24-124.5v3.8c0 9.9-12.8 18-18 18s-18-8.1-18-18v-3.8" stroke="#000" stroke-width="3" stroke-miterlimit="10"/><path d="M199.513 1531.14h7.4c1.8 0 3.4 1.29 3.8 3.59-.4 2.3-2 3.2-3.8 3.2-2.8 0-5.4-.9-7.2-3.7l-.2-.39zm28.5 0h-7.4c-1.8 0-3.4 1.29-3.8 3.59.4 2.3 2 3.2 3.8 3.2 2.8 0 5.4-.9 7.2-3.7l.2-.39zm-17.3 2.3h6m-16.4 108.7v-30m27 35.29v-35.29m-7.6 31.6-3.7-24.8m-8.3 24.79 3-25.59m-3.7-73.4c1.5 1 3.2 1.5 5 1.5h2.8c1.8 0 3.5-.5 5-1.5m-20.3-11.3h-4.5m33 0h3.7m-12.7-24.7c2.1 0 3.8.9 3.8 3l1.4.4c2.2.6 3.1 1.9 3.1 4.9s-3.7 5.2-6.8 5.2h-9c-10.6 0-13.6 1.6-15.8 7.5h-1.5v-8.2h-1.5c0-10.1 7.6-12.8 26.3-12.8Zm-.7 147c0-4.1 3.4-7.5 7.5-7.5s7.5 3.4 7.5 7.5" stroke="#000" stroke-width="3" stroke-miterlimit="10"/><path d="M226.513 1642.14h-9.8v14.29h18m-47.2-2.99h19.5m12 0h14.3m.7-62.3v-11.21c0-5.4-3.5-10.2-8.6-11.9-7.3-2.4-15.3-1.09-21.4 3.61h-2.2v-7.5l-3.8 2.2h-8.2l-3.8-2.2v10.5c0 2.4 1.1 4.6 3 6v3c-2.5 0-4.5 2-4.5 4.5v.79h5.2" stroke="#000" stroke-width="3" stroke-miterlimit="10"/><path d="M235.513 1591.14h-11.2l-3.8-2.5h-3.8v1.7h-6v3.8l3 3.7h27.8v-17.5c0-8.4-3.8-16-9.7-21.1m-31.5 25.9 1.4 4.59-2.2 5.2h-7.5l-2.2-2.7-.1-3.3h2.3l1.5-3.79z" stroke="#000" stroke-width="3" stroke-miterlimit="10"/><path d="M195.713 1594.14v6.7c0 4 1.3 7.8 3.7 11l.8 1.09h27.8m-21.7-61.49v3.8c0 4.1 3.4 7.5 7.5 7.5s7.5-3.4 7.5-7.5v-3.8" stroke="#000" stroke-width="3" stroke-miterlimit="10"/><path d="m222.013 1550.74 7.6 1.3c3.4.6 5.9 3.5 5.9 7v.8h-7.3c-5.1.5-10 2-14.4 4.5m-8.3-13.6-7.6 1.3c-3.4.6-5.9 3.5-5.9 7v.8h7.3c5.1.5 10 2 14.4 4.5m-13.4 53.8h26.2" stroke="#000" stroke-width="3" stroke-miterlimit="10"/><path d="M198.713 1573.14c0-.8-.7-1.5-1.5-1.5s-1.5.7-1.5 1.5m-3 0c0-.8-.7-1.5-1.5-1.5s-1.5.7-1.5 1.5" stroke="#000" stroke-width="1.5" stroke-miterlimit="10"/><path d="M235.513 1558.94v4.5m-1.5 34.5v13.5c0 2.5 2 4.5 4.5 4.5 0 3.7-3 6.8-6.8 6.8-2.5 0-4.5-2-4.5-4.5v-20.3m6.1-18h7.4m-7.4 4.5h7.4m-27-21v3.7m9.8 8.3c-4.5 0-8.5 3.2-9.8 7.5v3m0 12v20.2m0-33.7h-1.5c-2.5 0-4.5 2-4.5 4.5h-6" stroke="#000" stroke-width="3" stroke-miterlimit="10"/><path d="m227.313 1608.43-9.8-5.29h-8.2l-9 6v3m31.5-79 .1-5.5c0-5-2-9.6-5.3-12.9" stroke="#000" stroke-width="3" stroke-miterlimit="10"/><title>Parent with Child</title><desc>Parent holding child&apos;s hand</desc><path d="M397.619 1854.06h12v21c0 .8-.7 1.5-1.5 1.5h-16.5c-.8 0-1.5-.7-1.5-1.5v-4.5c0-2.1 1.5-4 3.6-4.4l3.9-.1zm6 12h-7.5m3-4.5h4.5m24-7.5h-12v21c0 .8.7 1.5 1.5 1.5h16.5c.8 0 1.5-.7 1.5-1.5v-4.5c0-2.1-1.5-4-3.6-4.4l-3.9-.1zm-6 12h7.5m-3-4.5h-4.5m-36-52.5c0-14.9 12.1-27 27-27s27 12.1 27 27m-9-45c0 9.9-8.1 18-18 18s-18-8.1-18-18" stroke="#000" stroke-width="3" stroke-miterlimit="10"/><path d="M430.619 1765.56h3s6-6 0-12c0 0 1.5-21-21-21s-21 21-21 21c-6 6 0 12 0 12h3m12.2 6c.7 2.6 3 4.5 5.8 4.5s5.1-1.9 5.8-4.5" stroke="#000" stroke-width="3" stroke-miterlimit="10"/><path d="M396.119 1752.06s6-3 16.5-3 16.5 3 16.5 3m-24 31.5 7.5 9 7.5-9" stroke="#000" stroke-width="3" stroke-miterlimit="10"/><path d="M396.119 1788.06h7.4v4.5l9.1 3 9-3v-4.5h7.5m-30 13.5v51.7m27-48.7v48m-13.5-57v17.5m-27-4v31.5m13.5-7.5 27 .2m-24-30.1h7.5m-24 29.1h6m-6-4.4h9m-9 11.2h54v-30m-9-45c0-3.3-2.7-6-6-6h-24c-3.3 0-6 2.7-6 6m34.5 24-30 45m34.5-40.5-27 40.5m-7.5 6.8v5.2h-2.3v3.8h-4.8l-2.6-4v-5m37.4 0v5.2h2.3v3.8h4.9l2.6-4v-5m3-7.6h-6m6-4.4h-9m-19.5 11.2-1.5 15m4.5-15 1.5 15" stroke="#000" stroke-width="3" stroke-miterlimit="10"/><title>Teacher</title><desc>Teacher with pointer</desc><path d="M187.95 2191.29v4.5c0 9.9 8 17.8 17.9 18 10.1.2 18.1-8 18.1-18v-4.5c0-9.9-7.4-5.8-17.3-6-10.1-.2-18.7-4.1-18.7 6Z" stroke="#000" stroke-width="3" stroke-miterlimit="10"/><path d="M199.95 2203.29c.9 2.5 3.1 4.3 5.9 4.3s5.2-1.8 6.1-4.3" stroke="#000" stroke-width="3" stroke-miterlimit="10"/><path d="M232.95 2188.99c0 13.7-11.3 24.8-27 24.8s-27-11.1-27-24.8 10.5-21 26.2-21 27.8 7.3 27.8 21Zm-12 70.5v48h-4.5v8.2h-11.3v-4.5c.5-1.7 2.7-3 4.5-3l-.4-30.2h-3.4l-3 29.5h-4.5v8.2h-16.7l.2-2.6c.8-2.2 2.9-3.4 5.3-3.4h5.2v-36.2" stroke="#000" stroke-width="3" stroke-miterlimit="10"/><path d="M185.95 2244.99v8.3l8.7 6.7h7.5v.8l-1.5 1.5 5.3 4.5-3 3h-5.3l-6-5.3-13.5-8.9v-10.6h13.5" stroke="#000" stroke-width="2.876" stroke-miterlimit="10"/><path d="M226.95 2253.99h-8.2c-1.7-2.3-4.7-3.8-7.5-3.8v1.5h-4.5v4.1l4.5 4.1h22.5v-18m-34-25.9c.9 2.5 3.3 4.3 6.1 4.3s5.2-1.8 6.1-4.3" stroke="#000" stroke-width="3" stroke-miterlimit="10"/><path d="M233.65 2242.29c0-15.3-12.4-27.8-27.8-27.8s-27.8 12.4-27.8 27.8v3" stroke="#000" stroke-width="3" stroke-miterlimit="10"/><path d="M222.25 2247.59c5.688 0 10.3-4.61 10.3-10.3s-4.612-10.3-10.3-10.3-10.3 4.61-10.3 10.3 4.611 10.3 10.3 10.3Zm-7.3-17.6-25.6 24.8m25.1 4.9-10.8 10.8m27.7-27.7-10.8 10.8m-34.6 7.2c-.2.7-.2 1.5-.2 2.3 0 5.8 4.7 10.5 10.5 10.5 2.9 0 5.5-1.2 7.4-3.1m3-33v12.8" stroke="#000" stroke-width="3" stroke-miterlimit="10"/><path d="M217.15 2229.99c3.5 3.5 3.5 9.2 0 12.8l-1.5 1.5h-9m-18.7-11.3 1.3 2.3c2.1 3.9 3.2 8.2 3.2 12.7v3.8" stroke="#000" stroke-width="3" stroke-miterlimit="10"/><title>Person with Camera</title><desc>Person holding camera</desc><path d="M1028.35 2021.86c0-14.9 12.1-27 27-27s27 12.1 27 27" stroke="#000" stroke-width="3" stroke-miterlimit="10"/><path d="m1041.85 2036.86-5.2-4.5v-13.5h1.5c2.8 4.6 3.8 10.3 3.8 15.7v2.3m26.9 0v-2.3c0-5.4 1-11.1 3.8-15.7h1.5v13.5zm-7.5 28.5.8 24.8-5.2 3.8v3h12.8v-3l-2.2-2.3v-7.5h3v-20.3" stroke="#000" stroke-width="3" stroke-miterlimit="10"/><path d="M1062.85 2062.36h9l-3-24h-27l-3 24h15v34.5h-16.5v-3l6-2.2 4.5-.8v-6.8h-3v-20.2" stroke="#000" stroke-width="3" stroke-miterlimit="10"/><path d="M1082.35 2021.86v13.5l-9 14.3h-3.8m-32.2-74.3v1.5c0 9.9 8.1 18 18 18s18-8.1 18-18v-1.5m0-4.5v-1.5c0-9.9-8.1-18-18-18s-18 8.1-18 18v1.5" stroke="#000" stroke-width="3" stroke-miterlimit="10"/><path d="M1049.55 1984.36c.7 2.6 3 4.5 5.8 4.5s5.1-1.9 5.8-4.5m-5.8-13.5c-10.5 0-18 4.5-18 4.5v-7.5s7.5-4.5 18-4.5m0 7.5c10.5 0 18 4.5 18 4.5v-7.5s-7.5-4.5-18-4.5m-13.5 75 21-43.5m-15 1.5 7.5 15m-15 33h16.5m0-6v27h6.7v-27m-6.7 18h-6v-10.5m11.8-1.5h7.7m-42-22.5v13.5l8.2 14.3h5.3m-4.5-72.8v10.5c0 2.5-2 4.5-4.5 4.5 0 2.1 1.7 3.8 3.8 3.8h11.2m25.5-18.8v10.5c0 2.5 2 4.5 4.5 4.5 0 2.1-1.7 3.8-3.8 3.8h-11.2" stroke="#000" stroke-width="3" stroke-miterlimit="10"/><title>Musician</title><desc>Musician with instrument</desc><path d="M811.588 2025.26h-13.5c0-14.9 12.1-27 27-27s27 12.1 27 27h-13.5m-40.5 0v32.3l1.5 3.7h7.5v-6l-3-2.2 2.2-21.8m8.3 56.3v-13.5h-3v-16.5m40.5-32.3v6m-31.5-15v12" stroke="#000" stroke-width="3" stroke-miterlimit="10"/><path d="M823.588 2017.76h6v4.5h-4.5v4.5h6m7.5 3.8v-5.3s3-4.5 3-12m-33 0c0 7.5 3 12 3 12v30.8h29.2" stroke="#000" stroke-width="3" stroke-miterlimit="10"/><path d="M840.088 2045.96c-5.3-1.9-9-5.7-9-8 0-3 6.7-9 15-9s15 6 15 9c0 2.2-3.7 6.1-9 8" stroke="#000" stroke-width="3" stroke-miterlimit="10"/><path d="M806.988 1980.26c0 9.9 8.1 18 18 18s18-8.1 18-18l.1-10.5s-6-3-18-3-18 3-18 3z" stroke="#000" stroke-width="3" stroke-miterlimit="10" stroke-linejoin="round"/><path d="M811.588 1992.26c-6-6-9-9-9-13.5v-13.5c0-9 12-16.5 22.5-16.5s22.5 7.5 22.5 16.5v13.5c0 4.5-3 7.5-9 13.5" stroke="#000" stroke-width="3" stroke-miterlimit="10"/><path d="M807.088 1977.26s7.5 3 18 3 18-3 18-3m-36 6s7.5 3 18 3 18-3 18-3m-34.5 4.5s6 4.5 16.5 4.5 16.5-4.5 16.5-4.5m-25.5-9v12m18-12v12m-19.5 9 10.5 6 10.5-5.3m-38.3 29.3h14.3m21 8.3h27m-39.7 49.5.7 6.7v3h-16.5l1.5-6 8.3-1.5.7-2.5h5.3l5.2-25.2h1.5l.7 12h1.6l3 12.7m4.4.8v-13.5h3v-16.5m-12 39.7v-1.5l4.8-8.3 4.2.1 2.3 3.7 1.5 1.5-.1 4.5zm-21.7.8v1.5m4.5-1.5v1.5m4.5-1.5v1.5m4.5-1.5v1.5m9.8-1.5v1.5m4.4-1.5v1.5m4.6-1.5v1.5m3-57v6.7l8 3 3.9-3.4.1-3.3h-2.4l-1.4-3z" stroke="#000" stroke-width="3" stroke-miterlimit="10"/><title>Person in Wheelchair with Service Dog</title><desc>Person in wheelchair with service dog</desc><path d="M612.625 1985.82c.7 2.6 2.999 4.5 5.799 4.5s5.1-1.9 5.8-4.5m9.001 15.1c-4.3-2.9-9.4-4.5-15-4.5-14.9 0-27 12.7-27 27.6v29.2c0 2.6.8 5.2 2.3 7.3l1.4 2h1.5v-3h2.2v-6c0-1.2-1-2.2-2.2-2.2l1.5-26.2" stroke="#000" stroke-width="3" stroke-miterlimit="10"/><path d="M600.325 1978.52c0 9.9 8.1 18 18 18s18-8.1 17.9-17.8v-22.2c0-.4-.1-.7-.3-1l-1.2-1.8c-.7-1.1-2.3-1.1-3 0s-2.3 1.1-3 0-2.3-1.1-3 0-2.3 1.1-3 0-2.3-1.1-3 0-2.3 1.1-3 0-2.3-1.1-3 0-2.3 1.1-3 0-2.3-1.1-3 0-2.3 1.1-3 0-2.3-1.1-3 0l-1.2 1.8c-.2.3-.3.6-.3 1zm-8.9 46.4h13.6m20.7-27c0 4.1-3.4 7.5-7.5 7.5s-7.5-3.4-7.5-7.5m-6 73.5s32.5-7.7 32.5-34.7v34.9l-5.5 4.2" stroke="#000" stroke-width="3" stroke-miterlimit="10"/><path d="M627.225 1998.72c0 12-4 21.8-9 21.8s-9-9.7-9-21.8" stroke="#000" stroke-width="3" stroke-miterlimit="10" stroke-linecap="round" stroke-linejoin="round" stroke-dasharray="0.15 0.15"/><path d="M604.725 2018.92v19m6.6 35.8v11.2h20.4" stroke="#000" stroke-width="3" stroke-miterlimit="10"/><path d="M604.725 2036.92h-3v22.5h3v8.3l1.5 3.7 25.5 12m-31.5-116.1c0-4 3.5-7.2 7.5-6.9 0 0 4.5 2.2 10.5 2.2s10.5-2.2 10.5-2.2c4-.3 7.5 2.8 7.5 6.9m-31.5 65.1-3 1.5v3m37.5-30.5c3.8 4.6 6 10.5 6 17v21h-1.5l-10.9-11.5-9.4-5v-3.8l3-4.5 3 .8 1.5-2.2 5.2 6.8-.8 2.2 3 2.2" stroke="#000" stroke-width="3" stroke-miterlimit="10"/><path d="M636.025 2026.42c1.9-5.6 3-12.1 3.2-19.5v-4.5l-3.8-2.2h-2.2v2.2m-28.5 57s18.6-5.9 28.5-26.1m3.8-8.4h7.4m-18.8 60 .1 3.8-5.3 3.7v3h12.8v-3l-2.2-2.3v-35.2m-13.6 31.5v9h-16.4v-3l6-2.3 4.4-.7v-3" stroke="#000" stroke-width="3" stroke-miterlimit="10"/><path d="M629.525 2019.82c3.9-9.3 3.7-18.9 3.7-18.9m-28.5 36c9.1 0 15.3-3.6 19.5-8.4" stroke="#000" stroke-width="3" stroke-miterlimit="10"/><title>Doctor</title><desc>Doctor in medical attire</desc><path d="M428.419 2056.91h11.2v-32.8c0-14.9-12.1-27-27-27s-27 12.1-27 27v32.4h13.5m-4.5-87.9v10.5c0 9.9 8.1 18 18 18s18-8.1 18-18v-10.5" stroke="#000" stroke-width="3" stroke-miterlimit="10"/><path d="M394.619 1979.11v-9c0-9.9 8.1-18 18-18h3.8c2.1 0 3.8 1.7 3.8 3.8v.8c5.8 0 10.5 4.7 10.5 10.5v1.5m-36 50.9c2.9 4.9 4.4 10.5 4.4 16.2v54.1h-7.3c-2.4 0-4.5 1.5-5.3 3.7l-.9 2.6h19.5v-8.2h4.5v-25.5m22.4-43.1c-2.9 4.9-4.4 10.5-4.4 16.2v20.9m-21.9-56.4v9l5.8-3v-3zm14.4 8.8v-9l-5.6 3.2v3zm-6 45.4v3m0-9.8v3" stroke="#000" stroke-width="3" stroke-miterlimit="10"/><path d="m407.019 2012.11 11.4 25.2c1.4 3.1 2.1 6.5 2.1 10v15.8" stroke="#000" stroke-width="3" stroke-miterlimit="10" stroke-linejoin="round"/><path d="M396.519 2003.11s5.7 31.9 24 39m-1.5-30-6 12m16.5-21s-.4 16.5-13.5 30.3" stroke="#000" stroke-width="3" stroke-miterlimit="10" stroke-linejoin="round"/><path d="M399.519 2063.11h27m4.1-88.5c0-5-4-9-9-9h-1.5c0 4.1-3.4 7.5-7.5 7.5h-13.5c-2.5 0-4.5 2-4.5 4.5m-2.6 78.9v2.3l1.5 4.5h4.1m36.8-6.8v2.3l-1.6 4.5h-4.1m-1.1-11.3v36h-4.5v8.2h-12l1.3-4.6c.5-1.7 2.1-2.9 3.9-2.9v-25.5m-9.3-78.6a3.4 3.4 0 1 0 0-6.8c-1.878 0-3.4 1.52-3.4 3.4 0 1.87 1.522 3.4 3.4 3.4Zm11.2 0a3.4 3.4 0 1 0 0-6.8c-1.878 0-3.4 1.52-3.4 3.4 0 1.87 1.522 3.4 3.4 3.4Zm6.4 1.4c-1.4 1.9-3.6 3-6 3h-.3c-.8 0-1.6-.1-2.4-.4l-3.3-1.1-3.3 1.1c-.8.3-1.6.4-2.4.4h-.3c-2.4 0-4.6-1.1-6-3m-4.5-5.2h6.7m19.6 0h6.7m-18.7 0h4.4" stroke="#000" stroke-width="3" stroke-miterlimit="10"/><title>Person with Shopping Bags</title><desc>Person carrying shopping bags</desc><path d="M206.5 1997.41c0 4.2 3.4 7.6 7.6 7.6s7.6-3.4 7.6-7.6m-9.2 23.3-5-6c-1.2-1.3-2.9-2.1-4.7-2.1h-7.4l-1.1 4.3h9.7l5.5 6m-11.4-6.6v4.3" stroke="#000" stroke-width="3" stroke-miterlimit="10"/><path d="M241.8 2033.61v-10.2c0-14.9-11.8-27.4-26.7-27.5h-1.2c-9.3.3-17.2 7.2-19.2 16.3l-3.2 14.4H190l-12.8-5.1v-3l-2.2-1.8-.8-4.2H172m-.7 14.2v-19.5c0-1.8-.8-3.5-2.1-4.7l-5.6-4.9-3.6 2.5 6.9 6.2v10.6m-3.8-14.7-2.9 3.3" stroke="#000" stroke-width="3" stroke-miterlimit="10"/><path d="M169.8 2016.91H166l-1.5 1.5 1.4 5.1c.5 1.7 2 3.1 3.8 3.1h3m24.9-42c2.8 6.4 9.1 10.8 16.5 10.8 9.9 0 18-8.1 18-18" stroke="#000" stroke-width="3" stroke-miterlimit="10"/><path d="M195.5 1971.11c1.1-9.1 8.8-16.2 18.2-16.2 10.1 0 18.4 8.2 18.4 18.4l-.1 2.6" stroke="#000" stroke-width="3.015" stroke-miterlimit="10"/><path d="M190 1972.81v3.6c.5 4.1 4 7.4 8.2 7.4h15.5c4.2 0 7.9-3.4 8.4-7.4v-3.6c0-1.3-1-2.3-2.3-2.4h-27.5c-1.2.1-2.3 1.2-2.3 2.4Z" stroke="#000" stroke-width="3" stroke-miterlimit="10"/><path d="M216.2 1970.41v6.1c-.5 4.1-3.9 7.4-8.1 7.4m9.1-8h16.4m-16.4-5.5H232m0 63v9.8h-3l12.8 40.5v1.5h-1.5v8.2h-12v-4.6c.5-1.7 2-2.9 3.8-2.9h2.2l-16.5-34.5h-5.2l.8 33.8h-3.8v8.2h-16.5l.2-2.6c.8-2.2 2.9-3.7 5.3-3.7h5v-43.9h-1.5v-18.8h-.8l-9.8 10.5h-1.6l-14.1-8.2H172m59.3-56.3.8 4.8c3.3.6 5.4 2.6 4.8 5.8l-3.4 17.5c-.6 3.2 2.4 9.5 9.3 9.4 8.1-.1 9-9.1 9-9.1l-3.1-.6c-3.2-.6-5.2-3.7-4.6-6.8l1.1-5.7c1.6-8.1-4.9-13.7-13-15.2H230" stroke="#000" stroke-width="3" stroke-miterlimit="10"/><path d="M241.8 2028.91v6.8h-.8l-21.7-8.3-5.3 2.3-6-4.6v-3l4.5-2.2-1.5-3h4.5l3 2.2 1.5 3 13.5 3.8v-6m-28.9 23.2h23.7m-7.5.8v2.2l6.7 3.8h3m-16.5-20.2 3 3.7m-49.5-7.5v5.2" stroke="#000" stroke-width="3" stroke-miterlimit="10"/><title>Scientist</title><desc>Scientist in lab coat</desc><path d="m1027.3 1856.97 16.3 23.3h8.5v-3.4c0-2.1-1.7-3.8-3.8-3.8h-3.4l-9.1-19m29 5.7-5.1 12.9c-1 2.5-.7 5.4.8 7.7h9.3v-3.4c0-2.1-1.7-3.8-3.8-3.8l4.8-13" stroke="#000" stroke-width="3" stroke-miterlimit="10"/><path d="M1017.7 1846.57v7.5l-6.2 18.4c-.7 2.7-.2 5.5 1.4 7.9h9.4v-3.4c0-2.1-1.7-3.8-3.8-3.8h-.7l6-13 12.8-6.8 14.7 5.1c1.8.5 3.7.8 5.5.8h13.5l17.5 21.1h8.5v-3.4c0-2.1-1.7-3.8-3.8-3.8h-3.4l-9-17.2 7.5-12.3 9 .1c3 0 5.8-1.7 7.1-4.5l2.6-5.7-1.2-2.7h-7.9l-.8-1.9c-1.9-4.2-6-6.9-10.6-6.9h-6.4l-7.5 11.1h-48c-6.3 3.9-13.2 9.9-15.4 16.9l-4.1 13.1h1.5l3.2-4.1c2.9-3.7 5.1-7.9 6.6-12.4h2z" stroke="#000" stroke-width="3" stroke-miterlimit="10"/><path d="M1083.8 1821.97v11.5c4.2.2 7.7-3.3 7.6-7.6l-.1-3.3m-44.9-50.3c.9 2.5 3.3 4.3 6.1 4.3s5.2-1.8 6.1-4.3" stroke="#000" stroke-width="3" stroke-miterlimit="10"/><path d="M1079.2 1822.57v-24.8c0-15.1-12.4-27.8-27.5-27.5-14.7.3-26.5 12.3-26.5 27l-.2 16.6c0 4.8 1.7 9.5 5 13l5 5.5h1.5l5.2-7.5" stroke="#000" stroke-width="3" stroke-miterlimit="10"/><path d="M1032.7 1751.97c5.8 0 10.5-4.7 10.5-10.5 0-2.5 2-4.5 4.5-4.5 0 3.3 2.7 6 6 6h8.1c4.7 0 8.4 3.8 8.4 8.4 0 8.4-5.5 16-13.6 18-11.8 2.9-22.5-6.4-22.4-17.5m36 24.9s-12.8 18.8-35.2 21h-9.8m24-43.9h6m-15 0h-6m36 0h-6" stroke="#000" stroke-width="3" stroke-miterlimit="10"/><path d="M1044.7 1757.37c2.87 0 5.2-1.7 5.2-3.8s-2.33-3.8-5.2-3.8-5.2 1.7-5.2 3.8 2.33 3.8 5.2 3.8Zm14.3 0c2.87 0 5.2-1.7 5.2-3.8s-2.33-3.8-5.2-3.8-5.2 1.7-5.2 3.8 2.33 3.8 5.2 3.8Zm3.7 67.4 8.3 7.5 9 24-10.5 3" stroke="#000" stroke-width="3" stroke-miterlimit="10"/><path d="M1056 1831.57c0-2.2 1.5-4.1 3.7-4.6l3.1-.7v-2.2l9-7.5v-8.2m-23.3 23.2c0-2.2-1.5-4.1-3.7-4.6l-3.1-.7v-2.2l-9-7.5v-6.8m24-20.2c0 4.6 3.7 8.2 8.2 8.2h15m-23.2-7.5v24.7m-6-5.2v5.2m-6.7-5.2v5.2m-6-5.2v5.2m-12.8-6h31.5m13.6-56.2c3.3 0 6 2.7 6 6s-2.7 6-6 6c-1.3 0-2.6-.4-3.6-1.2m-32.5-12.3v-9c0-9.9 8.1-18 18-18s18 8.1 18 18v9m-21.7 81.7v24.8m24-24 15 9.8m-16.5-9.8-27.8 14.2h-3v-15m24 11.3v4.5h4.5m-4.5 4.5v-4.5h-4.5" stroke="#000" stroke-width="3" stroke-miterlimit="10"/><title>Person with Umbrella</title><desc>Person holding umbrella</desc><path d="m841.887 1774.07 1.6 8.3c-2.4 1.8-7.9 3.7-13.5 3.7s-11.899-2-14.299-3.7l2.199-8.3" stroke="#000" stroke-width="3" stroke-miterlimit="10"/><path d="M842.287 1781.47c8.1 4.7 13.5 13.4 13.5 23.4v22.5l-2.199 4.1h-37.9m17.9-79.9 5.899-4.5c4.5 0 8.201 6.3 8.201 10.8v1.9c0 10-8.201 18.2-18.301 18-9.9-.2-17.699-8.4-17.699-18.3v-1.6c0-4.5 3.699-10.8 8.199-10.8l5.9 4.5c1.1.9 2.501 1.3 3.901 1.3s2.7-.5 3.9-1.3Z" stroke="#000" stroke-width="3" stroke-miterlimit="10"/><path d="M823.788 1767.37c.7 2.6 3 4.5 5.8 4.5s5.1-1.9 5.8-4.5m17.8 63.7v1.1c0 4.1-1.6 8-4.5 10.9h-2.6m-3.4-28.9h-37.5l-2.3-8.2c-.2-.8-.3-1.7-.3-2.6.5-9.4 5.8-17.5 13.5-22m28.799 25h1.801c3.5 0 7.199 6 7.199 6v1.9h-11.199m-25.9 20.6c0-3-.3-6-.9-8.9l-2.4-11.3m35.2.7-2.5 12.6c-.301 1.6-.5 3.2-.5 4.8" stroke="#000" stroke-width="3" stroke-miterlimit="10"/><path d="M855.588 1751.87c0-14.3-11.6-24.3-26-24.3-14.3 0-26 10-26 24.3s11.6 26 26 26c14.4-.1 26-11.7 26-26Z" stroke="#000" stroke-width="2.988" stroke-miterlimit="10"/><path d="M843.388 1782.37v31.4m.8-18h-39.8m42 31.6h-31.5m15-51v9.7m-4.5-9.7v9.7m-4.5-9.7v8.2m13.5-8.2v9.7m4.5-9.7v8.2m6.2 46.5v37.8h-4.5v8.2h-11.2v-4.5c.5-1.7 2.7-3 4.5-3l-.4-37.6h-3.4l-3 36.8h-4.5v8.2h-16.7l.2-2.6c.8-2.2 2.9-3.4 5.3-3.4h5.2v-40.8" stroke="#000" stroke-width="3" stroke-miterlimit="10"/><title>Chef</title><desc>Chef in uniform with hat</desc><path d="M590.825 1875.87v1.5m4.5-1.5v1.5m4.5-1.5v1.5m4.5-1.5v1.5m4.5-1.5v1.5m9-1.5v1.5m4.5-1.5v1.5m4.5-1.5v1.5m-10.5-5.3h12.8m3-117.7v3c0 9.9-8.1 18-18 18s-18-8.1-18-18v-3.8m-.8 54.1-2.2 23.2 3 2.2v6h-7.6l-1.4-3.7v-33m16.4 63v-12h-3v-18.7m-3-44.3c0 7.5 3 12 3 12v30.8h29.2m-43.4-26.3h14.2m9 58.5.8 6.8v2.9h-21v-3.7l11.2-3 3.8-3zm0 0v-12h3v-14.3h2.3l2.3 14.3h2.2v12m6 0v-12h3v-18.7m-12 40.4v-3l3-6.7h6l3.8 6.7-.2 3zm14.2-50.2c-5.7-1.9-9.8-7.2-9.8-13.5 0-7.9 6.4-14.2 14.2-14.2 7.9 0 14.2 6.4 14.2 14.2 0 5.4-3 10.1-7.5 12.5" stroke="#000" stroke-width="3" stroke-miterlimit="10"/><path d="m630.625 1819.67-.1 6.7 8.1 3 3.9-3.4v-3.3h-2.3l-1.4-3zm-30.1 48.7 3.8 6m-7.5-4.5 3 5.2" stroke="#000" stroke-width="3" stroke-miterlimit="10"/><path d="m639.634 1810.37-1.771 5.4h-5.676l-1.772-5.4 4.61-3.28zm-.022-11.9-4.491 3.29-4.435-3.16 1.656-1.73 5.941-.09zm-14.108 12.17-2.602 5.99-1.649-1.08-1.4-4.85 1.295-3.16zm24.112.06-.73 5.47h-1.448l-2.681-5.54 4.149-3.01z" stroke="#000"/><path d="M635.125 1808.37v-10.5m12.7 12.8h-25.5m10.5 4.4-3 3v2.3" stroke="#000" stroke-width="1.5" stroke-miterlimit="10"/><path d="M607.325 1762.57h-3.8c-1.6 0-2.5-1.4-2.9-3l-.8-4.5h-3.8v-1.5h13.5l2.2 1.5-.8 4.6c-.3 1.6-2 2.9-3.6 2.9Zm13.5 0h3.8c1.6 0 2.5-1.4 2.9-3l.8-4.5h3.8v-1.5h-13.5l-2.2 1.5.8 4.6c.3 1.6 2 2.9 3.6 2.9Zm-10.5-6.7h6.8m-21-3.8v-6.9c0-5.1 2.5-9.8 6.8-12.6v2.2l5.2-5.2v2.2l6-4.5v4.5h2.2" stroke="#000" stroke-width="3" stroke-miterlimit="10"/><path d="M612.525 1731.87h3l2.2-3 6 5.8v-2.2l1.1.7c4.3 2.8 7 7.6 7.1 12.8v4.7m-9.6 26.2-7.5 5.2h-1.5l-7.5-5.2" stroke="#000" stroke-width="3" stroke-miterlimit="10"/><path d="M633.525 1750.67h-.3c-2.8 0-5.3-1.6-6.8-4-1.3-2.1-3.7-3.5-6.4-3.5h-12c-2.7 0-5.1 1.4-6.4 3.5-1.5 2.4-4 4-6.8 4h-.3m9 107.2h5.3m11.4 0h5.2m14.9-59.2c-1.7-13.2-12.9-23.3-26.5-23.3-14.8 0-26.7 12-26.7 26.7v.3h13.5m-4.5-55.5v6m36-6v6" stroke="#000" stroke-width="3" stroke-miterlimit="10"/><path d="m614.825 1798.87-.7.5-.7-.5c-1-.7-1.5-1.8-1.5-2.9v-3.3h4.5v3.3c-.1 1.1-.7 2.2-1.6 2.9Zm-3-3.2h4.5" stroke="#000" stroke-width="1.5" stroke-miterlimit="10"/><path d="M614.125 1801.67c3.313 0 6-2.68 6-6 0-3.31-2.687-6-6-6s-6 2.69-6 6c0 3.32 2.686 6 6 6Z" stroke="#000" stroke-width="2" stroke-miterlimit="10"/><title>Person in Casual Wear</title><desc>Person in casual clothing</desc><path d="m212 1784.62-1.6-9.1m-24 0-1.6 9c2.4 1.8 7.6 3 13.6 3m-18-25.4s.5-13.9 18.8-13.9" stroke="#000" stroke-width="3" stroke-miterlimit="10"/><path d="M216.4 1762.12s-.5-13.9-18.8-13.9m14.3 35.5c8.1 4.7 13.5 13.4 13.5 23.4v22.5l-2.2 3.7h-9.8m-28.5-49.6c-8.1 4.7-13.5 13.4-13.5 23.4v21.8l2.2 4.5h9.8" stroke="#000" stroke-width="3" stroke-miterlimit="10"/><path d="m181.9 1801.82 3 22.5v34m27 0v-64.8zm-27-19h26.3m-13.2-107.3c1.436 0 2.6-1.16 2.6-2.6 0-1.43-1.164-2.6-2.6-2.6s-2.6 1.17-2.6 2.6c0 1.44 1.164 2.6 2.6 2.6Zm18.4 30.1c0 9.9-8.1 18-18 18s-18-8.1-18-18m0 0v-9c0-9.9 8.1-21 18-21s18 11.1 18 21v9" stroke="#000" stroke-width="3" stroke-miterlimit="10"/><path d="M192.6 1769.52c.7 2.6 3 4.5 5.8 4.5s5.1-1.9 5.8-4.5m7.7 78.1v-64.5m-13.3-3v33.7m25.3-65.5c5.8 0 10.5 4.7 10.5 10.5v119" stroke="#000" stroke-width="3" stroke-miterlimit="10"/><path d="M229.9 1742.32c5.8 0 10.5 4.7 10.5 10.5v125" stroke="#000" stroke-width="3" stroke-miterlimit="10"/><path d="M207.4 1807.82v6m-4.5-6v6" stroke="#000" stroke-width="3" stroke-miterlimit="10" stroke-linejoin="round"/><path d="M183.4 1755.92v4.7h.1c.4 3.4 3.2 6 6.7 6s6.3-2.6 6.7-6h3.2c.4 3.4 3.2 6 6.7 6s6.3-2.6 6.7-6h.1v-4.7zm-9 77.4v1.1c0 4.1 1.6 8 4.5 10.9h6m37.5-12v1.1c0 4.1-1.6 8-4.5 10.9h-6m-30-11.2v5.2h3.7m29.3-5.2v5.2h-3.7" stroke="#000" stroke-width="3" stroke-miterlimit="10"/><path d="m207.4 1858.32-6.8-18.2" stroke="#000" stroke-width="3" stroke-miterlimit="10" stroke-linejoin="round"/><path d="M171.4 1828.82h12.8m28.4 0h12.8m-53.2-20.3h3.7m-3.7 5.3h3.7m30.7 56.5v-12h8.3v12" stroke="#000" stroke-width="3" stroke-miterlimit="10"/><path d="M217.9 1876.32v-1.5c0-3.3-2.7-6-6-6h-1.5c-3.3 0-6 2.7-6 6v1.5zm-10.5-14.2h7.9m-19.1-15.3H185v20.5h-3.8c-2.4 0-4.4 2-4.4 4.4s2 4.6 4.4 4.6h15.1v-29.5zm-11.3 5.3 11.3 7.5m-11.3 2.5 11.3 2.2m-11.3 3.6 11.3 7.5m-11.7-7.9-3.3 8" stroke="#000" stroke-width="3" stroke-miterlimit="10"/><path d="M196.2 1839.32v6.8m-12-13.6h27" stroke="#000" stroke-width="3" stroke-miterlimit="10" stroke-linejoin="round"/><title>Person with Briefcase</title><desc>Person carrying briefcase</desc><path d="M1076.1 1557.24c9 4.3 15.8 14.3 15.8 25.5v13.6c0 1.2-1 2.2-2.2 2.2h-21.4v-7.1h17.2v-7.9m-30.4.8c1.8-6.8 4.2-15.6 8.2-23.3m5.7 78.7v14.3h-3.7v-3l-5.3 3h-8.6v-1.9l3.4-1.8 7.5-4.9v-5.7z" stroke="#000" stroke-width="3" stroke-miterlimit="10"/><path d="M1068.7 1595.14h-15c-.7 0-1.4-.3-1.8-.9l-2-2.8v-2.2h5.2v-.8h2.6l2 3h8.5m-28.4-3 .1 2.6c1 1.4 2.7 2.3 4.4 2.3h6.8m17.9 35.6v10.8m-4.2-10.8v10.8m20 0v14.3h-3.8v-3l-5.2 3h-8.7v-1.9l3.4-1.8 7.5-4.9v-5.7zm0-26.6v26.6m-3.8-10.8v10.8m3.8-41.2v26.1h-20.7v-16.4l-3.8-1.9c-4.1-2.1-6.7-6.3-6.7-10.9m.2-7H1029l-10.2-26.4h27l7.9 22.6h14.1c.3 0 .6.3.6.6v3.2m-5.1 40.9h22.2m-1.2-87.1c0 9.9-8.1 18-18 18s-18-8.1-18-18" stroke="#000" stroke-width="3" stroke-miterlimit="10"/><path d="M1060.5 1549.74c.7 2.6 3 4.5 5.8 4.5s5.1-1.9 5.8-4.5" stroke="#000" stroke-width="3" stroke-miterlimit="10"/><path d="M1055.8 1557.24h-10.5c-1.4-4.6-1.5-12-1.5-12v-3c0-7.5 1.5-31.5 22.5-31.5 19.7 0 22.5 24 22.5 30 0 3.9 0 10.8-1.6 16.5h-10.4" stroke="#000" stroke-width="3" stroke-miterlimit="10"/><path d="M1063.6 1540.74c0 3-3.3 4.5-8.2 4.5-3.4 0-5.5-2.3-5.5-6 0-4.7 6.2-3.6 9.6-3 3.3.7 4.1 2 4.1 4.5Zm5.5 0c0 3 3.3 4.5 8.2 4.5 3.4 0 5.5-2.3 5.5-6 0-4.7-6.2-3.6-9.6-3-3.4.7-4.1 2-4.1 4.5Z" stroke="#000" stroke-width="3" stroke-miterlimit="10"/><path d="M1062.2 1539.24s4.1-4.5 8.2 0m3.4-3c-8.6-.4-13.5-12-13.5-12h-1.5s-1.1 7.1-7.5 12m24.9 21.8c0 4.1-3.4 7.5-7.5 7.5h-6.9" stroke="#000" stroke-width="3" stroke-miterlimit="10"/><title>Athlete</title><desc>Athlete in sportswear</desc><path d="M827.038 1633.39v21h-3v-4.5l-6.7 4.5h-9.2v-2.2c0-2.1 1.7-3.8 3.8-3.8h4.5v-7.5h9.7m12.2-7.5v15h-2.2c-2.1 0-3.8 1.7-3.8 3.8v2.2h12l3-4.5v-18m-24-72.7c.9 2.5 3.3 4.3 6.1 4.3s5.2-1.8 6.1-4.3m-31.1 26.2v30l3 3h1.6v-5.7h3.7" stroke="#000" stroke-width="3" stroke-miterlimit="10"/><path d="m844.238 1616.89 12-18.5v-14.4c0-14.9-12.1-27-27-27s-27 12.1-27 27v1.4" stroke="#000" stroke-width="3" stroke-miterlimit="10"/><path d="M809.738 1538.89c5.8 0 10.5-4.7 10.5-10.5 0-2.5 2-4.5 4.5-4.5 0 3.3 2.7 6 6 6h8.1c4.7 0 8.4 3.8 8.4 8.4 0 8.4-5.5 16-13.6 18-11.8 2.9-22.5-6.4-22.4-17.5" stroke="#000" stroke-width="3" stroke-miterlimit="10"/><path d="M814.238 1548.59c-10.8 0-12-7.8-12-10.5 2.5 0 4.5-2 4.5-4.5 0-12.9 9.9-24 22.8-24.7 0 1.6 1.3 3 3 3h2.7c2.2 0 4.5.7 6.3 2 6.2 4.4 10.2 11.5 10.2 19.7 0 2.5 2 4.5 4.5 4.5 0 2.7-1.2 10.5-12 10.5m3 63.8v19.7l-30 .1-6-19.8v-28.5m27.1 64.5h4.4m4.5 1.5v6" stroke="#000" stroke-width="3" stroke-miterlimit="10"/><path d="m838.238 1609.39 3-3 3 1.5 3-10.5v-13.5m-13.5 22.5 13.5 12m-28.5 15v7.5m19.5 0h9m-36-43.5h36m-36-4.5h36m-1.5-28.5-4.3 5c-7.7 9-17.6 15.2-29.5 15.2h-9.8v5.2" stroke="#000" stroke-width="3" stroke-miterlimit="10"/><path d="M836.738 1573.39c1.9 4.8 6 10.5 10.5 11.2s6.9 2 8.6 5.2l.4.8m-30-49.8h6m-15 0h-6m36 0h-6m-19.5 3.3c2.871 0 5.2-1.66 5.2-3.7 0-2.05-2.329-3.7-5.2-3.7s-5.2 1.65-5.2 3.7c0 2.04 2.328 3.7 5.2 3.7Zm14.3 0c2.872 0 5.2-1.66 5.2-3.7 0-2.05-2.328-3.7-5.2-3.7s-5.2 1.65-5.2 3.7c0 2.04 2.328 3.7 5.2 3.7Zm20.2 54.3v12.5m-4.5-6v11.3" stroke="#000" stroke-width="3" stroke-miterlimit="10"/><title>Person with Headphones</title><desc>Person wearing headphones</desc><path d="M600.225 1532.04v10.5c0 9.9 8.1 18 18 18s18-8.1 18-18v-10.5" stroke="#000" stroke-width="3" stroke-miterlimit="10"/><path d="M612.425 1550.04c.7 2.6 3 4.5 5.8 4.5s5.1-1.9 5.8-4.5m-13.3 12 7.5 9 7.5-9" stroke="#000" stroke-width="3" stroke-miterlimit="10"/><path d="m633.225 1565.04-6 1.5 1.5 4.5-10.5 3-10.5-3 1.5-4.5-6-1.5m15 9v34m-18-76s6 4.5 18 4.5 18-4.5 18-4.5v-4.5h-36zm0-4.5-3-4.5 3-9 18-4.5 18 4.5 3 7.5-3 6m-45 61.7h6m11.2 0h6m-23.2 4.5h6" stroke="#000" stroke-width="3" stroke-miterlimit="10"/><path d="M622.725 1517.04s0 6-4.5 6-4.5-6-4.5-6l4.5-3zm-19.5 115.7h11.2v21c0 .8-.7 1.5-1.5 1.5h-16.1c-.8 0-1.5-.7-1.5-1.5v-4.5c0-2.1 1.5-4 3.6-4.4l4.3-.1zm5.2 12h-7.1m3-4.5h4.1m24.8-7.5h-11.2v21c0 .8.7 1.5 1.5 1.5h16.1c.8 0 1.5-.7 1.5-1.5v-4.5c0-2.1-1.5-4-3.6-4.4l-4.3-.1zm-6 12h7.1m-1.5-4.5h-5.6m-36-52.5c0-14.9 12.1-27 27-27s27 12.1 27 27m-40.5-7.5v51m27-51v51.7m-40.5-44.9v30.7" stroke="#000" stroke-width="3" stroke-miterlimit="10"/><path d="M631.725 1616.24h13.5v-29.2m-54 29.2h13.5m0 1.5v5.3h-2.3v3.7h-4.8l-2.6-3.9v-5.1m37.4 0v5.3h2.3v3.7h4.9l2.6-3.9v-5.1m-36.8-9.7h3.8m4.5 0h18.7m-18 25.5 1.6-10.5h4.4l1.6 10.5m-18.8-18h5.2m5.3 0h18.7m-18.7-11.3h-4.5v13.5h4.5z" stroke="#000" stroke-width="3" stroke-miterlimit="10"/><title>Construction Worker</title><desc>Construction worker in hard hat</desc><path d="m1063.55 1382.16 5.2.2v18.9c0 2.1 1.5 3.8 3.6 3.8s3.9-1.7 3.9-3.9c0-1.6-1.3-2.9-2.9-2.9h-.9v-16.6l2.2-6.8m-26.8-32.4c0 4.1 3.4 7.5 7.5 7.5s7.5-3.4 7.5-7.5" stroke="#000" stroke-width="3" stroke-miterlimit="10"/><path d="M1028.35 1366.36v17.5l1.5 1.5h30.7l3.1-3v-3.7h-6v-2.2c-2.8 0-5.5 1.3-7.3 3.5l-.2.2h-17.2s0-4.5 3-4.5h3v-.8s-3.8-2.5-3.8-5.2v-9.8l4.8 3.7h3.5l4.5-3.8v6h2.2l3.2-2.5c2.3-1.8 3.6-2.7 6.6-2.7m4.5-17.9c10.5 3.7 17.9 13.7 17.9 25.4v15.8h-3.8l-7.5-16.2h-6.7l-3.1-3v-4h6v-1.5c2.8 0 5.5 1.3 7.1 3.6l4.1 9.2m-42.6 41.2h12v19.5l-1.5 3h-16.5c-.8 0-1.5-.7-1.5-1.5v-4.5c0-2.1 1.5-4 3.6-4.4l3.9-.1zm6 12h-7.5m3-4.5h4.5m30-7.5h-12v19.5l1.5 3h13.5c.8 0 1.5-.7 1.5-1.5v-4.5c0-2.1-1.5-4-3.6-4.4l-.9-.1z" stroke="#000" stroke-width="3" stroke-miterlimit="10"/><path d="M1073.35 1425.16h-9.8c-2.1 0-3.8 1.7-3.8 3.8m10.6-8.3h-4.5m-18-8.1v-9.9m-7.7-17.2v17.2h28m-8.3 10.5v-10.5m4.5.8v9m-21-9.8v10.5m-10.5-59.6c-2.8 4.4-4.5 9.6-4.5 15.1m38.2-26.4h3.8c4.3 0 7.9-3.5 7.9-7.9v-12.8c0-12.2-9.9-22.9-22.1-23.2-12.8-.3-23.3 9.9-23.3 22.7v24.6c0 2.5-2 4.5-4.5 4.5" stroke="#000" stroke-width="3" stroke-miterlimit="10"/><path d="M1073.35 1326.86c0 9.9-8.1 18-18 18s-18-8.1-18-18v-3h13.5c3.3 0 6-2.7 6-6 2.5 0 4.5 2 4.5 4.5v1.5h12zm-25.5 17.3c0 4.9-4 8.9-8.9 8.9h-10.6" stroke="#000" stroke-width="3" stroke-miterlimit="10"/><path d="M1049.75 1334.26c.7 2.6 3 4.5 5.8 4.5s5.1-1.9 5.8-4.5" stroke="#000" stroke-width="3" stroke-miterlimit="10"/><title>Person with Cat</title><desc>Person holding cat</desc><path d="M842.038 1325.25c0 9.9-8.1 18-18 18s-18-8.1-18-18v-5.5" stroke="#000" stroke-width="3" stroke-miterlimit="10"/><path d="M806.038 1319.75c0-9.9 8.1-18 18-18s18 8.1 18 18v6.9m-27.6 76.5v23.5l-8.4 3.4v2.2h14.4v-29.1m17.8 27.6v1.5h-10.5v-29.1" stroke="#000" stroke-width="3" stroke-miterlimit="10"/><path d="M833.738 1403.15v23.5l3.7 2.2" stroke="#000" stroke-width="3" stroke-miterlimit="10"/><path d="M830.039 1329.05c.662 0 1.2.54 1.2 1.2 0 .67-.538 1.2-1.2 1.2-.663 0-1.201-.53-1.201-1.2 0-.66.538-1.2 1.201-1.2Zm-15 28.5c.662 0 1.2.54 1.2 1.2 0 .67-.538 1.2-1.2 1.2-.663 0-1.201-.53-1.201-1.2 0-.66.538-1.2 1.201-1.2Zm0 21c.662 0 1.2.54 1.2 1.2 0 .67-.538 1.2-1.2 1.2-.663 0-1.201-.53-1.201-1.2 0-.66.538-1.2 1.201-1.2Zm17.2-13.5c.662 0 1.2.54 1.2 1.2 0 .67-.538 1.2-1.2 1.2-.663 0-1.201-.53-1.201-1.2 0-.66.538-1.2 1.201-1.2Zm-10.5 5.2c.662 0 1.2.54 1.2 1.2 0 .67-.538 1.2-1.2 1.2-.663 0-1.201-.53-1.201-1.2 0-.66.538-1.2 1.201-1.2Zm9.699 10.6c.663 0 1.201.54 1.201 1.2 0 .67-.538 1.2-1.201 1.2-.662 0-1.2-.53-1.2-1.2 0-.66.538-1.2 1.2-1.2Zm-4.799 12.5c.662 0 1.2.54 1.2 1.2 0 .67-.538 1.2-1.2 1.2-.663 0-1.2-.53-1.201-1.2 0-.66.538-1.2 1.201-1.2Zm-10.201-64.3c.663 0 1.201.54 1.201 1.2 0 .67-.538 1.2-1.201 1.2-.662 0-1.2-.53-1.2-1.2 0-.66.538-1.2 1.2-1.2Z" stroke="#000" stroke-width="2"/><path d="M842.038 1331.05h.8c13.2-.2 12.8 10.6 12.8 10.6s-13.5 1.9-13.5-9.1h-.9m-34.5-1.5h-.8c-13.2-.2-12.8 10.6-12.8 10.6s13.5 1.9 13.5-9.1h.8m34.6-2.3h-1.5c-4.2-3-6.8-8.1-8.2-13.5h-.8c-5.1 7.9-14 14.2-23.4 14.2h-1.3m8.2 14.3c0 5 4 9 9 9s9-4 9-9m-19.6 63.8h6.8m7.5 0h6.7m-17.4-21.2-8 6.2v9h30" stroke="#000" stroke-width="3" stroke-miterlimit="10"/><path d="M800.038 1367.75c0-13.3 10.7-24 24-24s24 10.7 24 24v23.2" stroke="#000" stroke-width="3" stroke-miterlimit="10"/><path d="M850.638 1405.75c.718 0 1.3-.58 1.3-1.3 0-.71-.582-1.3-1.3-1.3s-1.3.59-1.3 1.3c0 .72.582 1.3 1.3 1.3Z" fill="#000" stroke="#000" stroke-width=".75" stroke-miterlimit="10"/><path d="M845.938 1400.45c.718 0 1.3-.58 1.3-1.3 0-.71-.582-1.3-1.3-1.3s-1.3.59-1.3 1.3c0 .72.582 1.3 1.3 1.3Zm9.4 0c.718 0 1.3-.58 1.3-1.3 0-.71-.582-1.3-1.3-1.3s-1.3.59-1.3 1.3c0 .72.582 1.3 1.3 1.3Z" stroke="#000" stroke-width="2" stroke-miterlimit="10"/><path d="M850.638 1409.85c2.486 0 4.5-2.01 4.5-4.5 0-2.48-2.014-4.5-4.5-4.5-2.485 0-4.5 2.02-4.5 4.5 0 2.49 2.015 4.5 4.5 4.5Z" stroke="#000" stroke-width="3" stroke-miterlimit="10"/><path d="M865.238 1392.25c0-2.7-2.2-4.9-4.9-4.9s-4.8 2.1-4.9 4.8q-2.25-1.2-5.1-1.2c-1.7 0-3.3.4-4.7 1-.1-2.6-2.3-4.6-4.9-4.6-2.7 0-4.9 2.2-4.9 4.9 0 2.5 1.9 4.6 4.4 4.9-.8 1.5-1.2 3.3-1.2 5.1 0 6.2 5 11.2 11.2 11.2s11.2-5 11.2-11.2q0-2.7-1.2-5.1c2.9-.1 5-2.3 5-4.9Z" stroke="#000" stroke-width="3" stroke-miterlimit="10"/><path d="M847.238 1412.45s-2.7 2.9-3.9 6.3m9.9-6.3s2.7 2.9 3.9 6.3m-12.5-6.7-.3.1c-2.1.4-3.8 2-4.4 4.1l-1 4.8m17.3-9 .3.1c2.1.4 3.8 2 4.4 4.1l.5 4.8" stroke="#000" stroke-width="3" stroke-miterlimit="10"/><path d="M848.738 1426.15c0 3.2-2.8 6.1-6 6.1s-5.6-2.9-5.6-6.1 2.6-6.9 5.8-6.9 5.8 3.7 5.8 6.9Zm15 0c0 3.2-2.8 6.1-6 6.1s-5.6-2.9-5.6-6.1 2.6-6.9 5.8-6.9 5.8 3.7 5.8 6.9Zm-27.7 6.1h22.4m-58.4-64.5v14.3l9.7 12.7m-6-39.7c3.3 2.9 5.2 7 5.2 11.4v1.3h-1.5l-1.5 12.8 4.5 6.8c1.8 0 3.5 1 4.3 2.7l.2.3m29.3-35.3c-3.3 2.9-5.2 7-5.2 11.4v1.3h1.5l1.5 12.8v8.2" stroke="#000" stroke-width="3" stroke-miterlimit="10"/><title>Woman with Purse</title><desc>Woman carrying purse</desc><path d="M615.225 1332.5c.7 2.6 3 4.5 5.8 4.5s5.1-1.9 5.8-4.5m7.699 14.1c8.1 4.7 13.5 13.4 13.5 23.4v6m-40.5-29.4c-8.1 4.7-13.5 13.4-13.5 23.4v2.2m28.5-21.7v13.5h12v-15.8m-12 15.8v4.5m6-4.5v4.5m10.5-52.5s-7.5-4.5-18-4.5-18 4.5-18 4.5c0-9.9 12-21 18-21 6.7 0 18 11.1 18 21Z" stroke="#000" stroke-width="3" stroke-miterlimit="10"/><path d="M606.024 1308.5c-.6.2-1.1.5-1.5.7m31.5-.7c-3.1-1.3-8.5-3-15-3s-11.9 1.7-15 3m31.5.7c-.4-.2-.9-.4-1.5-.7m-12 63h-6v12.2h6zm-6 6h6m10.5-40.5c1 2.9 1.1 6.1.4 9.1l-.3 1.4c-2.4 1.8-7.6 3-13.6 3s-11.1-1.2-13.6-3l-.7-2.7c-.5-2.1-.3-4.3.7-6.3m40.6-10.5c-2.5 0-4.5-2-4.5-4.5v-1.5c-2.5 0-4.5-2-4.5-4.5v-1.5m-25.5-4.5v1.8c0 3.1-2.6 5.7-5.7 5.7v.3c0 3.1-3.2 5.7-6.3 5.7 0 3.3-2.7 6-6 6" stroke="#000" stroke-width="3" stroke-miterlimit="10"/><path d="M630.024 1313v1.9c0 2.3 1.8 4.1 4.1 4.1h.4v1.5c0 2.5 2 4.5 4.5 4.5 0 9.9-8.1 18-18 18s-18-8.1-18-18m39 4.5c0 3.3 2.7 6 6 6m-45-21c0 2.5-2 4.5-4.5 4.5h-1.5l-2.2 2.2" stroke="#000" stroke-width="3" stroke-miterlimit="10"/><path d="M619.524 1316v1.5c0 2.5-2 4.5-4.5 4.5 0 2.5-2 4.5-4.5 4.5h-1.5m25.5 52.5v50.2h-2.8v8.2h-10.7v-1.3c0-2.6 2.1-4.7 4.7-4.7l-3-34.3h-3.8l-3 32.1h-1.4v8.2h-16.7l.2-2.6c.8-2.2 2.9-3.4 5.3-3.4h4.3v-61.5h-1.5l-6 14.2h-1.6l-14.2-11.6h-6.7l-3.1-3v-4h6v-1.5c2.8 0 5.5 1.3 7.1 3.6l8.6 6.9m11.3 17.2h27m19.701-9.2 6.3.2 3-8.2-3-4h-3v2.3l-3.3 1.5zm2.799-36.8v27m0 10v56.3" stroke="#000" stroke-width="3" stroke-miterlimit="10"/><path d="m654.524 1382.5-12.5 1.8h-2.3l-2.2-14.3h-3v16.5m-54.799-22.4c3.755 0 6.8-3.04 6.8-6.8 0-3.75-3.045-6.8-6.8-6.8s-6.8 3.05-6.8 6.8c0 3.76 3.044 6.8 6.8 6.8Zm73.599 12.6h-6.8m-12-12v3.8m14.2 8.2h-4.4" stroke="#000" stroke-width="3" stroke-miterlimit="10"/><title>Person in Sweater</title><desc>Person wearing sweater</desc><path d="m399.819 1398.5-3-6v-14.2m30.8 20.2 3-6V1379m-36-60.2v-7.3c0-9.9 8.1-18 18-18h3c2.5 0 4.5 2 4.5 4.5 5.8 0 10.5 4.7 10.5 10.5v11.8m-30 13.5-1.2 9c2.4 1.8 7.6 3 13.6 3" stroke="#000" stroke-width="3" stroke-miterlimit="10"/><path d="m424.919 1333.8 1.2 9c-2.4 1.8-7.6 3-13.6 3m-5.4-18c.7 2.6 3 4.5 5.8 4.5s5.1-1.9 5.8-4.5m-24.9 19.5 5.3 10.5 4.5-6 4.5 6 4.5-6 4.5 6 4.5-6 4.5 6 6-10.5" stroke="#000" stroke-width="3" stroke-miterlimit="10"/><path d="M430.619 1320.3c0 10.9-9.7 19.6-21 17.8-8.8-1.4-15-8.9-15-17.8v-5.8" stroke="#000" stroke-width="3" stroke-miterlimit="10"/><path d="M430.919 1313c-7.5 0-9-6-9-6h-1.5s-1.2 7.8-7.5 9c-10.8 2-9 10.5-9 10.5-4.3 0-9.3-1.4-9.3-7.5m6 22.3c-8.5 4.6-15 13.7-15 24l1.5 14.3h1.5l28.5-3v-.8" stroke="#000" stroke-width="3" stroke-miterlimit="10"/><path d="M421.619 1369.8h-12.8l-10.4-5.8h-2.3l-1.5 6.6v3" stroke="#000" stroke-width="3" stroke-miterlimit="10"/><path d="M421.619 1370.6v-4.5l2.1-2.1 1.7 1.3 3.5-3.2 4.7.2v4.5l-2.2 3h-12" stroke="#000" stroke-width="3" stroke-miterlimit="10"/><path d="M393.119 1372.8h6.8l36.7 6.8h1.5l1.5-14.3c0-10.3-5.8-19.3-14.2-23.8m-29.3 51h35.3m-32.3 6h28.5m0-.7v34.5h-3.8v8.2h-12v-3.8c.5-1.7 2.7-2.2 4.5-2.2v-30h-3.7l-2.8 27.8h-4.5v8.2h-14.5l.2-2.6c.8-2.2 2.9-3.4 5.3-3.4h3.5v-36.8" stroke="#000" stroke-width="3" stroke-miterlimit="10"/><title>Man with Cane</title><desc>Man holding cane</desc><path d="M184.15 1401.85c-7.5 0-13.5 6-13.5 13.5v24.8h27v-24.8c0-7.5-6-13.5-13.5-13.5Zm25.3-58.5c0 4.2 3.4 7.6 7.6 7.6s7.6-3.4 7.6-7.6m10.5-18c0 9.9-8.1 18-18 18s-18-8.1-18-18" stroke="#000" stroke-width="3" stroke-miterlimit="10"/><path d="M211.35 1332.85c.7 2.6 3 4.5 5.8 4.5s5.1-1.9 5.8-4.5" stroke="#000" stroke-width="3" stroke-miterlimit="10"/><path d="M206.65 1340.35h-10.5c-1.4-4.6-1.5-12-1.5-12v-3c0-7.5 1.5-31.5 22.5-31.5 19.7 0 22.5 24 22.5 30 0 3.9 0 10.8-1.6 16.5h-10.4" stroke="#000" stroke-width="3" stroke-miterlimit="10"/><path d="M214.45 1323.85c0 3-3.3 4.5-8.2 4.5-3.4 0-5.5-2.3-5.5-6 0-4.7 6.2-3.6 9.6-3 3.3.6 4.1 1.9 4.1 4.5Zm5.4 0c0 3 3.3 4.5 8.2 4.5 3.4 0 5.5-2.3 5.5-6 0-4.7-6.2-3.6-9.6-3-3.3.6-4.1 1.9-4.1 4.5Z" stroke="#000" stroke-width="3" stroke-miterlimit="10"/><path d="M213.05 1322.35s4.1-4.5 8.2 0m-4.1 45c-.1-2.6-1.2-6-6-10.5-4.9-4.6-6-10.5-6-10.5m12 21c.1-2.6 1.2-6 6-10.5 4.9-4.6 6-10.5 6-10.5m6 27.7h-24v15h24z" stroke="#000" stroke-width="3" stroke-miterlimit="10"/><path d="M226.15 1384.55c1.657 0 3-1.34 3-3 0-1.65-1.343-3-3-3s-3 1.35-3 3c0 1.66 1.343 3 3 3Zm-7.5-6h-3v1.5h3zm-9-9.7c-.1-6.1-2.2-16.9-4.5-22.5m19.5 22.5c.1-6.1 2.2-15.4 4.5-21m-39 47.2h5.7c2.3 0 4.1-1.8 4.1-4.1l-.1-19.8c0-2.2 1.7-3.9 3.9-3.9v61.5m26.9-55.4v-7.5zm0 45v-23.3zm0-17.7h-27m21-81.3c-8.6-.4-13.5-12-13.5-12h-1.5s-1.1 7.1-7.5 12m15 51v2.2m18 62.3s-1.5-6-7.5-6-7.5 6-7.5 6v2.2h15zm-22.5 0s-1.5-6-7.5-6-7.5 6-7.5 6v2.2h15z" stroke="#000" stroke-width="3" stroke-miterlimit="10"/><path d="M235.15 1435.55v-17.2h-12v11.2m0-11.2-5.3-9h-3v8.2m29.3-47.2v20.7c0 2.2-1.8 4.1-4.1 4.1h-9.4v-1.5l-6 .1-5.9-1.5v-3.1h5.9" stroke="#000" stroke-width="3" stroke-miterlimit="10"/><path d="M244.15 1370.85c0-15.1-12.4-27.8-27.5-27.5-14.7.3-26.5 12.3-26.5 27v16.5m24.7 51.7v-20.2h-11m-29.4 3.9h19.4m-15 0v-12.1h5.9c2.6 0 4.6 2.1 4.6 4.6v7.5" stroke="#000" stroke-width="3" stroke-miterlimit="10"/><path d="M181.85 1420.75c0-1.2 1-2.2 2.2-2.2s2.2 1 2.2 2.2" stroke="#000" stroke-width=".75" stroke-miterlimit="10"/><path d="M181.85 1414.75h4.6m-6-19.7-.6-3.8 1.3-3.7h9l2 2.2.3 2.3h-2.3l-1.5 3zm-9 27.2h-3.8m71.2-37.7h-3.7m-44.6 9v9.8m-12.8-10.5v9.7" stroke="#000" stroke-width="3" stroke-miterlimit="10"/><title>Man with Mustache</title><desc>Man with prominent mustache</desc><path d="M1065.85 1222.73a9 9 0 1 0-.001-18.001 9 9 0 0 0 .001 18.001Zm-11.3-104.6c.9.5 2 .9 3.2.9 2.8 0 5.2-1.8 6.1-4.3m-25 31.5c1 2 1.5 4.1 1.5 6.4v1.1h20.2l9.8 3.8v6h-5.2l-4.5-3.8h-29.2l-.8-1.5v-5.2c0-9.5 4.9-18.2 12-23.2" stroke="#000" stroke-width="3" stroke-miterlimit="10"/><path d="M1076.35 1104.23v-6.5c-.1-11.8-11.3-21.6-23.8-18.7-8.9 2-15.1 10.2-15.1 19.3v23.9c0 6-3 6.7-3 6.7v.8h12.3c4.4 0 8-3.6 8-8v-7.3c0-5.7 4.6-10.3 10.3-10.3h11.3z" stroke="#000" stroke-width="3" stroke-miterlimit="10"/><path d="M1076.35 1100.43v21.8c0 6 3 6.7 3 6.7v.8h-12.7c-3.3 0-6-2.7-6-6" stroke="#000" stroke-width="3" stroke-miterlimit="10"/><path d="M1076.35 1106.53v.2c0 9.9-7.7 18.4-17.7 18.6h-4.1m6.8 42.6h15.8c2.5 0 4.7 1.8 5.1 4.3l3.8 20.4v1.5h-3v3l3.2 1c2.6.8 4.3 3.1 4.3 5.8h-12.8v-4.5h-3" stroke="#000" stroke-width="3" stroke-miterlimit="10"/><path d="M1071.85 1167.93h14.3c2.5 0 4.7 1.8 5.1 4.3l3.8 20.4v1.5h-3v3l3.2 1c2.6.8 4.3 3.1 4.3 5.8h-7.5m-30.7-44.2v13.5m-51.8-55.1 9.6.2 11.4 41.4 5.3 31.5m25.5-37.5h15.8v-6l-3.8-1.5-6.8 3h-5.2m-.8 4.5v-27.8" stroke="#000" stroke-width="3" stroke-miterlimit="10"/><path d="M1032.15 1172.43h33.7l8.3 6v21l-6.8 12m-42.8 11.2c9.5 0 17.2-7.7 17.2-17.2s-7.7-17.2-17.2-17.2-17.2 7.7-17.2 17.2 7.7 17.2 17.2 17.2Zm9-62.9c-5.3 0-10-3.6-11.4-8.7l-5.3-20c-.7-2.6 1.3-5.1 3.9-5.1" stroke="#000" stroke-width="3" stroke-miterlimit="10"/><path d="M1024.55 1215.93c5.8 0 10.5-4.7 10.5-10.5s-4.7-10.5-10.5-10.5-10.5 4.7-10.5 10.5 4.7 10.5 10.5 10.5Zm41.1 0c1.21 0 2.2-.99 2.2-2.2a2.2 2.2 0 0 0-2.2-2.2c-1.22 0-2.2.98-2.2 2.2 0 1.21.98 2.2 2.2 2.2Z" stroke="#000" stroke-width="3" stroke-miterlimit="10"/><path d="M1024.55 1207.63c1.21 0 2.2-.99 2.2-2.2a2.2 2.2 0 0 0-2.2-2.2c-1.22 0-2.2.98-2.2 2.2 0 1.21.98 2.2 2.2 2.2Zm24.8-77.9 4.8 4.8c1.7 1.7 4 2.7 6.4 2.7m12.8 42h-12.8l-21 15.8m21.8-22.6-25.5 18.8m4.5 3.8h34.5m-.7 4.4h-13.6m-26.2-20.2h-10.5v5.2m53.3-30.7h5.2l6-9m-69.2-26.4c.9.2 18.2 0 18.2 0m39 90.1h27" stroke="#000" stroke-width="3" stroke-miterlimit="10"/><title>Person with Glasses</title><desc>Person wearing glasses</desc><path d="M844.188 1165.93v48h-4.5v8.2h-11.3v-4.4c.5-1.7 2.7-3 4.5-3l-.4-30.2h-3.4l-3 29.5h-4.5v8.2h-16.7l.2-2.6c.8-2.2 2.9-3.4 5.3-3.4h5.2v-36.2m27-96.9c2.5 0 4.5 2 4.5 4.5v15c0 9.8-7.9 17.8-17.7 18-10.1.2-18.3-8.3-18.3-18.4v-11.6c-3.3 0-6-4.9-6-8.2h9s21.1-3.2 24-3.4c2.5-.2 4.5 1.7 4.5 4.1Z" stroke="#000" stroke-width="3" stroke-miterlimit="10"/><path d="M814.888 1104.93h6c.8 0 1.5-.7 1.5-1.5v-2.2c0-.8-.7-1.5-1.5-1.5h-6l-1.5 1.5zm21 0h-6c-.8 0-1.5-.7-1.5-1.5v-2.2c0-.8.7-1.5 1.5-1.5h6l1.5 1.5zm-15-4.5h7.5m-13.5.7h-4.5m36 0h-10.5m-24.7-10.5h14.9c4.1 0 8.1-.7 11.9-2.2l.2-.1h2.2l.8 6.8c.4 3.4 3.3 6 6.7 6" stroke="#000" stroke-width="3" stroke-miterlimit="10"/><path d="M808.888 1151.43v8.3l9 7h7.5v.5l-1.5 1.5 5.3 4.5-3 3h-5.3l-6-5.3-13.5-8.9v-10.3h13.5" stroke="#000" stroke-width="2.876" stroke-miterlimit="10"/><path d="M850.188 1160.73h-8.2c-1.7-2.5-4.7-4-7.5-4v1.5h-4.5v4.1l4.5 4.4h22.5v-18.2m-34-26.1c.9 2.5 3.3 4.3 6.1 4.3s5.2-1.8 6.1-4.3" stroke="#000" stroke-width="3" stroke-miterlimit="10"/><path d="M856.888 1148.73c0-15.3-12.4-27.8-27.8-27.8s-27.7 12.4-27.7 27.8v3" stroke="#000" stroke-width="3" stroke-miterlimit="10"/><path d="M845.488 1154.03c5.688 0 10.3-4.61 10.3-10.3s-4.612-10.3-10.3-10.3-10.3 4.61-10.3 10.3 4.611 10.3 10.3 10.3Zm-7.3-17.6-25.6 24.8m25.1 4.9-10.8 10.8m27.7-27.7-10.8 10.9m-34.6 7.1c-.2.7-.2 1.5-.2 2.3 0 5.8 4.7 10.5 10.5 10.5 2.9 0 5.5-1.2 7.4-3.1m3-33v12.8" stroke="#000" stroke-width="3" stroke-miterlimit="10"/><path d="M840.388 1136.43c3.5 3.5 3.5 9.2 0 12.8l-1.5 1.5h-9m-18.7-11.3 1.3 2.3c2.1 3.9 3.2 8.2 3.2 12.7v3.8" stroke="#000" stroke-width="3" stroke-miterlimit="10"/><title>Woman in Dress</title><desc>Woman wearing dress</desc><path d="M586.126 1152.22c0-13.3 10.7-24 24-24h12c3.5.1 7 .5 10.4 1.3l18.1 10.1 2.2 15.8 3 4.5v4.5l-1.5 3h-3.8v-4.5h-2.2v-5.2m-20.2-47.5c0 9.9-8.1 18-18 18s-18-8.1-18-18" stroke="#000" stroke-width="3" stroke-miterlimit="10"/><path d="M616.126 1114.02c.663 0 1.201.54 1.201 1.2s-.538 1.2-1.201 1.2c-.662 0-1.2-.54-1.2-1.2s.538-1.2 1.2-1.2Zm-13.5 0c.663 0 1.201.54 1.201 1.2s-.538 1.2-1.201 1.2c-.662 0-1.2-.54-1.2-1.2s.538-1.2 1.2-1.2Z" stroke="#000" stroke-width="2"/><path d="M601.126 1128.92c0 5 4 9 9 9s9-4 9-9m-18.7 69.8v20.6l-8.3 3.4v2.2h14.3v-26.2m13.5 0v20.6l4.5 2.6v3l-12.1.2v-3.2l1.6-2.2v-21" stroke="#000" stroke-width="3" stroke-miterlimit="10"/><path d="M595.126 1184.62v14.7h11.3l1.5-15.5h2.2l3.8 15.6h11.2v-28.3m-39-19.9v22.9l-1.4 5.2 1.4 4.5h4.6v-4.5h2.2m31.5-41.2-2.3-9.2" stroke="#000" stroke-width="3" stroke-miterlimit="10"/><path d="M625.126 1183.82h-32.2v-33.8c1.3 0 2.4-.9 2.6-2.2l2.6-16.7m1.6 83.3h6m9 0h6m-35.3-44.1h6.7m52.444-4.72c6.158-7.3 5.228-18.22-2.077-24.37-7.306-6.16-18.22-5.23-24.378 2.07-6.158 7.31-5.227 18.22 2.078 24.38s18.219 5.23 24.377-2.08Z" stroke="#000" stroke-width="3" stroke-miterlimit="10"/><path d="M613.526 1154.62c4.7.2 9.4-1.5 12.9-5.1 3.6-3.6 5.2-8.3 5.1-12.9m17.6 17.6c-4.7-.2-9.4 1.5-12.9 5.1-3.6 3.6-5.2 8.3-5.1 12.9m-12-5.6 24.5-24.5m-45.5-17.9h-6c-3.1 0-5.6-1.8-6.6-4.3-.4-1-3.3-1.4-3.6-2.5-.3-1 1.9-2.5 1.7-3.6s-2.9-1.9-3-3 2.4-2.2 2.4-3.3-2.5-2.3-2.4-3.3c.1-1.1 2.8-1.9 3-3s-2-2.6-1.7-3.6c.3-1.1 3.2-1.5 3.6-2.5s-1.4-2.8-.9-3.8c.6-1 3.4-1 4.1-1.9s-.7-3 .1-3.9 3.6-.3 4.5-1.1.2-3.1 1.2-3.7c1-.7 3.6.5 4.7-.1 1.1-.5 1.3-2.9 2.5-3.3s3.2 1.4 4.5 1.2 2.3-2.4 3.7-2.4c1.3 0 2.4 2.2 3.7 2.4s3.2-1.6 4.4-1.2 1.3 2.7 2.5 3.3c1.1.5 3.6-.6 4.7.1 1 .7.3 3 1.2 3.7.9.8 3.7.2 4.5 1.1.8.8-.6 2.9.1 3.9.7.9 3.5.9 4.1 1.9.5 1-1.3 2.8-.9 3.8s3.3 1.4 3.6 2.5c.3 1-1.9 2.5-1.7 3.6s2.9 1.9 3 3-2.4 2.2-2.4 3.3 2.5 2.3 2.4 3.3c-.1 1.1-2.8 1.9-3 3s2 2.6 1.7 3.6c-.3 1.1-3.2 1.5-3.6 2.5-1.1 2.6-3.9 4.3-7.1 4.3h-5.5" stroke="#000" stroke-width="3" stroke-miterlimit="10"/><path d="M592.126 1111.72v-1.5c0-7.9 8.1-12 18-12s18 4.1 18 12v1.5" stroke="#000" stroke-width="3" stroke-miterlimit="10"/><path d="M592.126 1107.92v-3.7c0-7.9 8.1-12 18-12s18 4.1 18 12v3.8" stroke="#000" stroke-width="3" stroke-miterlimit="10"/><title>Farmer</title><desc>Farmer in overalls with pitchfork</desc><path d="M397.618 1116.52c-1.9-2.9-3-6.4-3-10.1v-1.6m36.001-2.9v5c0 3.4-.9 6.6-2.6 9.3m-27.401 9.6c-8.5 4.6-15 13.7-15 24l1.5 14.3h1.5l22.5-2.2m17.3 15h-28.5v39.8h-5.3c-2.4 0-4.5 1.1-5.3 3.4l-.2 2.6h16.7l3-19.5h-2.2v-9.8h10.1l.4 21.8c-1.8 0-4 1.3-4.5 3v4.5h13.2v-18h-2v-10.6h4.5v-18.8" stroke="#000" stroke-width="3" stroke-miterlimit="10"/><path d="M421.618 1154.32h-12.8l-9-3.7h-2.2l-3 4.5v3" stroke="#000" stroke-width="3" stroke-miterlimit="10"/><path d="M421.618 1155.12v-4.5l2.1-2.1 1.7 1.4 3.5-3.3 4.7.3v4.4l-2.2 3h-12" stroke="#000" stroke-width="3" stroke-miterlimit="10"/><path d="M393.118 1157.32h6.8l36.7 6.8h1.5l1.5-14.3c0-10.3-5.8-19.3-14.2-23.8m-12.8 1.3v26.3m-.8 6.7v17.3" stroke="#000" stroke-width="3" stroke-miterlimit="10"/><path d="m428.418 1126.62-20.3 2.3-11.3-2.3v-10.5l31.6-3z" stroke="#000" stroke-width="3" stroke-miterlimit="10"/><path d="M427.618 1122.92h-30.8v-1.6l31.6-4.4m-28.6 60c-2-2.9-3-6.4-3-9.9v-3.6m31.6 13.5c2-2.9 3-6.4 3-9.9v-3.6m-30.8 20.2h27m-34.599-78.2h10.5c5.8 0 10.5-4.7 10.5-10.5h3c0 4.1 3.4 7.5 7.5 7.5h7.5" stroke="#000" stroke-width="3" stroke-miterlimit="10"/><path d="M396.119 1122.92h-4.6v-23.4c0-11.6 9.4-21 21-21 1 0 1.5.3 1.5 3 0 0 19.4-3 19.5 18l.1 23.4h-5.2m-20.301 6v13.1h-11.3v-13.1m0 8.2h10.6m-10.6-4.8h10.6m-8 10.8v3.8h13.2m4.5 68.2h3.7" stroke="#000" stroke-width="3" stroke-miterlimit="10"/><title>Person with Ponytail</title><desc>Person with ponytail hairstyle</desc><path d="M198.4 1128.87c0 4.2 3.4 7.6 7.6 7.6s7.6-3.4 7.6-7.6m10.3-17.6.1-3.1c-9.2-3.5-19.5-16.5-19.5-16.5s-16.2 8.4-16.5 19.6m35.2 39.4v51.7h-8.3m-26.3-24.7v24.7h9m-7.4-55.5v21.8m4.4 33.7v5.3m3-28.6v28.6m-1.4 9.7v6h1.4v-14.3h-7.4l-4.6 8.3-9 4.5v1.5h13.6zm21-15v5.3m-3-51.8v51.8m1.4 9.7v6h-1.4v-14.3h7.4l4.6 8.3 9 4.5v1.5h-13.6z" stroke="#000" stroke-width="3" stroke-miterlimit="10"/><path d="m192.4 1133.37 9 9h1.5l2.9-4.5h.2l2.9 4.5h1.5l9-9m-36.8 10.1c-1.9 3.7-3 7.9-3 12.4v20.2l18 3v-4.5h5.8c3.5 0 6.3-2.8 6.3-6.3v-2h-6.5l-5.5 1.5v2.2h-9m35.2-59.1c0 9.9-8.1 18-18 18s-18-8.1-18-18" stroke="#000" stroke-width="3" stroke-miterlimit="10"/><path d="M200.1 1118.37c.7 2.6 3 4.5 5.8 4.5s5.1-1.9 5.8-4.5" stroke="#000" stroke-width="3" stroke-miterlimit="10"/><path d="M205.9 1077.87c18 0 23.2 21.3 22.7 28.5-.5 6.8-3.5 9.3 0 21 4.4 14.8-1.4 24-1.4 24l1.5 4.5h-1.5s-9.3-9-6.3-22.5l-1.5-.9c-4-2.3-8.6-3.6-13.5-3.6s-9.5 1.3-13.5 3.6l-1.5.9c3 13.5-6 22.5-6 22.5h-1.5l1.5-4.5s-5.9-9.2-1.5-24c3.5-11.7.5-14.2 0-21-.6-7.6 4.5-28.5 22.5-28.5Zm-3.7 90v-9.8h7.4v9.8" stroke="#000" stroke-width="3" stroke-miterlimit="10"/><path d="m222.4 1189.67 5.2-1.5v-4.5h4.5v-27.8c0-4.3-1-8.4-2.8-12m-36.1-8.2 3.1 9.9c.9 2.9 1.4 5.9 1.4 8.9v14.2m20.9-33-3.1 9.9c-.9 2.9-1.4 5.9-1.4 8.9v2.2m-16.5 42h16.6m-12-24 .7 5.2h6l.7-6v-4.5m-9.7-9.8 12 .1m-14.3 27.7h17.3" stroke="#000" stroke-width="3" stroke-miterlimit="10"/><title>Graduate</title><desc>Graduate in cap and gown</desc><path d="M1043.45 873.436v7.1c0 9.4 7 17.5 16.4 18.3 10.7.9 19.6-7.4 19.6-17.9v-7.5" stroke="#000" stroke-width="3" stroke-miterlimit="10"/><path d="M1043.45 873.436v-1.8c0-9.4 7-17.5 16.4-18.3 10.7-.9 19.6 7.4 19.6 17.9v2.2m-34.5 5.3v2.2h1.6c.4 3.4 3.2 6 6.7 6s6.3-2.6 6.7-6h3.2c.4 3.4 3.2 6 6.7 6s6.3-2.6 6.7-6h1.6v-2.2zm26.3 74.2h-27v-20.7c0-3.6-.8-7.2-2.5-10.5l-.5-1.1" stroke="#000" stroke-width="3" stroke-miterlimit="10"/><path d="M1049.45 901.936c-8.5 4.6-15 13.7-15 24v30h10.5m29.3-53.8c8.5 4.6 14.2 13.5 14.2 23.8m-17.2 28.5-49 53.304m20.5-129.004 4.5-2.2h6.6c5.8 0 11.4-2.4 15.3-6.7l2.1-2.3h.8l1.5 4.4c.9 2.5 3.3 4.3 6 4.3m-20.3 91.7v27h-1.5v6.004h-9v-1.504l2.2-3v-2.2h-3.7v-41.3m27 3v38.3h-2.3v2.2l6 3v1.504h-12.7v-6.704h-1.5v-31.5" stroke="#000" stroke-width="3" stroke-miterlimit="10"/><path d="M1044.25 953.736v10.5h-4.1l-1.5-4.5v-3.8m11.4-61.5v8.2l.2.1c7.8 2.4 16.2 2.4 24-.1v-9" stroke="#000" stroke-width="3" stroke-miterlimit="10"/><path d="M1062.25 905.736v24.7h12v-27.7m-12.8 16.5h12.8m-12.8 5.2h12.8m-10.5 6.8v4.5m4.5-4.5v4.5m4.5-4.5v4.5m15.7-9.8v18.8l-3.7 5.2h-5l-3 6h-7.8v-2.2l6.8-6.8 5.2-3" stroke="#000" stroke-width="3" stroke-miterlimit="10"/><title>Person in Hat</title><desc>Person wearing hat</desc><path d="M816.238 937.152v43.7m27 1.5v-48.2zm4.5-71.3c5.5 4.9 9 12.1 9 20.1m-54 0c0-8 3.4-15.2 9-20.2m-10.2-38.3h30c9.3 0 16.5.4 16.5 9.7" stroke="#000" stroke-width="3" stroke-miterlimit="10"/><path d="M812.038 889.152c1 1.2 3 2.5 4.5 3 .3-1.8 1.5-4.5 3-4.5h7.5c1.6 0 2.8 2.7 3 4.5 4.5-1.4 8.3-3.9 10.5-7.5v-10.7" stroke="#000" stroke-width="3" stroke-miterlimit="10"/><path d="M848.038 918.052c0 13.7-3.2 19.1-16.9 19.1h-17.6c-3.3 0-6-3.2-6-7.5 4 0 4.5-2.7 4.5-7.5v-36" stroke="#000" stroke-width="3" stroke-miterlimit="10"/><path d="m856.738 931.152.1 30.8c0 7.5-6.1 14.2-13.6 14.2h-27c-7.5 0-13.5-6.7-13.5-14.2v-30.8m13.6 34.4h26.4" stroke="#000" stroke-width="3" stroke-miterlimit="10"/><path d="M856.737 954.452c0 1-.8 1.9-1.9 1.9-1 0-1.899-.8-1.899-1.9s.799-1.9 1.899-1.9 1.9.8 1.9 1.9Zm-50.199 0c0 1-.8 1.9-1.9 1.9-1 0-1.9-.8-1.9-1.9s.8-1.9 1.9-1.9c1 0 1.9.8 1.9 1.9Zm28.1 4c0 1-.8 1.9-1.9 1.9-1 0-1.9-.8-1.9-1.9 0-1 .8-1.9 1.9-1.9 1.1.1 1.9.9 1.9 1.9Zm.3-17.1c0 1-.8 1.9-1.9 1.9-1 0-1.9-.8-1.9-1.9 0-1 .8-1.9 1.9-1.9s1.9.8 1.9 1.9Zm-.3 8.6c0 1-.8 1.9-1.9 1.9-1 0-1.9-.8-1.9-1.9 0-1 .8-1.9 1.9-1.9s1.9.8 1.9 1.9Z" stroke="#000" stroke-width="2" stroke-miterlimit="10"/><path d="M826.938 966.352v-28.7m21.1-56v-16.9c0-3.1-2.5-5.6-5.6-5.6h-24.8c-3.1 0-5.6 2.5-5.6 5.6v21.4m36-4.5v37.5m-31.8 42h-13.5m54 0h-13.5m1.5 21.2h-12v16.5l1.5 2.998h13.5c.8 0 1.5-.7 1.5-1.5v-4.498c0-2.1-1.5-4-3.6-4.4l-.9-.1z" stroke="#000" stroke-width="3" stroke-miterlimit="10"/><path d="M846.238 991.352h-9.8c-2.1 0-3.8 1.7-3.8 3.8m-17.9-12.8h12v17.998c0 .8-.7 1.5-1.5 1.5h-16.5c-.8 0-1.5-.7-1.5-1.5v-4.498c0-2.1 1.5-4 3.6-4.4l3.9-.1zm12-5.2v6.7m6-6.7v6.7" stroke="#000" stroke-width="3" stroke-miterlimit="10"/><title>Businesswoman</title><desc>Businesswoman in professional attire</desc><path d="M600.275 931.302v9.9l12.8-5.4-.8-4.5 3-6h3v14.2l-24.8 12h-.8l-1.5-17.6c0-14.9 12.1-27 27-27s27 12.1 27 27l-1.5 17.6h-.8l-24.8-12v-14.2h3l3 6-.8 4.5 12.8 4.7v-9.2" stroke="#000" stroke-width="3" stroke-miterlimit="10"/><path d="M600.274 888.902c0 9.9 8 17.8 17.9 18 10.1.2 18.1-8 18.1-18v-9c0-9.9-8-17.8-17.9-18-10.1-.2-18.1 8-18.1 18z" stroke="#000" stroke-width="3" stroke-miterlimit="10"/><path d="M610.774 908.402c0 4.1 3.4 7.5 7.5 7.5s7.5-3.4 7.5-7.5" stroke="#000" stroke-width="3" stroke-miterlimit="10" stroke-linecap="round" stroke-linejoin="round" stroke-dasharray="0.15 0.15"/><path d="M618.274 882.402a.5.5 0 1 1 0 1 .5.5 0 0 1 0-1Z" stroke="#000" stroke-width="2"/><path d="M633.475 947.802v55.498h-9.2v1.8h-24.3l4.5-58.098m34.799-29.8c-5.1 3.9-12.3 6.4-20.3 6.4-8.8 0-16.7-3-21.7-7.7m21 30v-1.5m6 4.9v52.498m-6-139.898c0 10-6 19-15.2 22.8l-2.8 1.2m18-24c0 10 6 19 15.2 22.8l2.8 1.2" stroke="#000" stroke-width="3" stroke-miterlimit="10"/><path d="M610.774 862.902c0-3.9 3.1-7 7-7s7 3.1 7 7" stroke="#000" stroke-width="3" stroke-miterlimit="10"/><path d="M600.274 888.902v18m36-18v18" stroke="#000" stroke-width="3" stroke-miterlimit="10" stroke-linecap="round" stroke-linejoin="round" stroke-dasharray="0.15 0.15"/><path d="M591.274 936.502h9m36 0h9m-40.5 12h28.5" stroke="#000" stroke-width="3" stroke-miterlimit="10"/><title>Woman with Afro</title><desc>Woman with afro hairstyle</desc><path d="M397.619 980.002h12V1001c0 .8-.7 1.5-1.5 1.5h-16.5c-.8 0-1.5-.7-1.5-1.5v-4.498c0-2.1 1.5-4 3.6-4.4l3.9-.1zm6 12h-7.5m3-4.5h4.5m24-7.5h-12V1001c0 .8.7 1.5 1.5 1.5h16.5c.8 0 1.5-.7 1.5-1.5v-4.498c0-2.1-1.5-4-3.6-4.4l-3.9-.1zm-6 12h7.5m-3-4.5h-4.5m18-52.5c0-14.9-12.1-27-27-27s-27 12.1-27 27v10.4h13.5m31.5-55.4c0 9.9-8.1 18-18 18s-18-8.1-18-18" stroke="#000" stroke-width="3" stroke-miterlimit="10"/><path d="M430.619 891.502h3s6-6 0-12c0 0 1.5-21-21-21s-21 21-21 21c-6 6 0 12 0 12h3m12.2 6c.7 2.6 3 4.5 5.8 4.5s5.1-1.9 5.8-4.5" stroke="#000" stroke-width="3" stroke-miterlimit="10"/><path d="M396.119 878.002s6-3 16.5-3 16.5 3 16.5 3m-24 31.5 7.5 9 7.5-9" stroke="#000" stroke-width="3" stroke-miterlimit="10"/><path d="M396.119 914.002h7.4v4.5l9.1 3 9-3v-4.5h7.5m-30 13.5v51.8m27-48.8v48m-13.5-57v17.3m-13.5 20.2 27 .2m-24-30.2h7.5m-10.5 36h40.5v-30m-9-45c0-3.3-2.7-6-6-6h-24c-3.3 0-6 2.7-6 6m34.5 24-30 45m34.5-40.5-27 40.5m20.2 6.8v5.2h2.3v3.8h4.9l2.6-4v-5m3-7.5h-6m6-4.5h-9m-19.5 11.2-1.5 15m4.5-15 1.5 15" stroke="#000" stroke-width="3" stroke-miterlimit="10"/><title>Person with Backpack</title><desc>Person wearing backpack</desc><path d="M198.4 907.102c0 4.2 3.4 7.6 7.6 7.6s7.6-3.4 7.6-7.6m7.9-36c1.5 2.6 2.4 5.7 2.4 9v9m-13.5-26.4c2.2.6 4.2 1.5 6 2.8m-21 0c1.8-1.3 3.8-2.2 6-2.8m-13.5 26.4v-9c0-3.7 1.1-7.1 3-10m9.3 26.7c.7 2.6 3 4.5 5.8 4.5s5.1-1.9 5.8-4.5" stroke="#000" stroke-width="3" stroke-miterlimit="10"/><path d="M232.9 946.302v-12c0-14.9-12.1-27-27-27s-27 12.1-27 27" stroke="#000" stroke-width="3" stroke-miterlimit="10"/><path d="M189.4 913.102s.1 0 0 0" stroke="#000" stroke-width="3" stroke-linecap="round" stroke-linejoin="round"/><path d="M190.9 915.702c2 2.7 6.3 6.4 15 6.4 10.2 0 14.4-5.1 15.8-7.6" stroke="#000" stroke-width="3" stroke-linecap="round" stroke-linejoin="round" stroke-dasharray="0.15 0.15"/><path d="M222.4 913.202q0-.15 0 0" stroke="#000" stroke-width="3" stroke-linecap="round" stroke-linejoin="round"/><path d="M188.3 956.102c-1.4 1.6-2.6 3.7-2.6 6.6v43.698h40.5v-43.698c0-2.5-.9-4.5-2.1-6m-30.2-73.6s3-3 6-3 6 3 6 3 3-3 6-3 6 3 6 3m-12-15-7.5-9 1.5-1.5 3 1.5 3-4.5 3 4.5 3-1.5 1.5 1.5zm16.9 1.9c-1.5 1.5-3.8 1.5-5.3 0s-1.5-3.8 0-5.3c.6-.6 1.9-2.6 1.9-2.6l1.5 1.5h3v3l1.5 1.5s-1.8 1.1-2.6 1.9Zm-33.8 0c1.5 1.5 3.8 1.5 5.3 0s1.5-3.8 0-5.3c-.6-.6-1.9-2.6-1.9-2.6l-1.5 1.5h-3v3l-1.5 1.5s1.9 1.1 2.6 1.9Zm25.9 60.4c0-1.2-1-2.2-2.2-2.2-2.2 0-2.2 3-2.2 3s0-3-2.2-3c-1.2 0-2.2 1-2.2 2.2 0 3.8 4.5 6.8 4.5 6.8s4.3-3.1 4.3-6.8Z" stroke="#000" stroke-width="3" stroke-miterlimit="10"/><path d="M190.2 1000.3h31.5" stroke="#000" stroke-width="3" stroke-miterlimit="10" stroke-linecap="round" stroke-linejoin="round" stroke-dasharray="0.15 0.15"/><path d="M223.9 881.602v7c0 9.9-7.8 18.4-17.7 18.6-10.1.2-18.3-7.9-18.3-18v-9.1s15-7.9 17.6-11.5l.4-.5 1 1.4c2.3 3 17 10.6 17 10.6m-37.5 55.7v12h17.3l2.2 1.5m27-15.2v18l-1.3 1.7-18.2 6v-6h-3.7l-4.5 6h-1.5l-6-3" stroke="#000" stroke-width="3" stroke-miterlimit="10"/><path d="M225.4 935.802v12h-17.2l-6.8 4.5-3.7 4.5v3.8l-17.4-6.8-1.4-1.7v-18" stroke="#000" stroke-width="3" stroke-miterlimit="10"/><title>Woman in Hijab</title><desc>Woman wearing hijab</desc><path d="M1028.25 761.184h12v21c0 .8-.7 1.5-1.5 1.5h-16.5c-.8 0-1.5-.7-1.5-1.5v-4.5c0-2.1 1.5-4 3.6-4.4l3.9-.1zm6 12h-7.5m3-4.5h4.5m-18-52.5c0-14.9 12.1-27 27-27s27 12.1 27 27v6.7m-9-51.7c0 9.9-8.1 18-18 18s-18-8.1-18-18" stroke="#000" stroke-width="3" stroke-miterlimit="10"/><path d="M1061.25 672.684h3s6-6 0-12c0 0 1.5-21-21-21s-21 21-21 21c-6 6 0 12 0 12h3m12.3 6c.7 2.6 3 4.5 5.8 4.5s5.1-1.9 5.8-4.5" stroke="#000" stroke-width="3" stroke-miterlimit="10"/><path d="M1026.75 659.184s6-3 16.5-3 16.5 3 16.5 3m-24 31.5 7.5 9 7.5-9" stroke="#000" stroke-width="3" stroke-miterlimit="10"/><path d="M1026.75 695.184h7.4v4.5l9.1 3 9-3v-4.5h7.5m-30 18v47.2m13.5-57.7v37.5m-27-24v30.7h35.3m-21.8-6.7 18.5.2m-15.5-25h7.5m-24 24h6m-6-4.5h9m36-63.7c0-3.3-2.7-6-6-6h-24c-3.3 0-6 2.7-6 6m4.5 75.7v5.3h-2.2v3.7h-4.9l-2.6-3.9v-5.1m21.7-.7-1.5 15" stroke="#000" stroke-width="3" stroke-miterlimit="10"/><path d="m1044.75 746.184 1.5 15h11m4.6 23.4s0-5.5 3.7-5.5h7.3c-1.1-1.8-1.8-4.2-1.8-6.4 0-4.2 2.2-7.9 5.5-10" stroke="#000" stroke-width="3" stroke-miterlimit="10"/><path d="M1046.05 784.584s0-5.5 3.7-5.5h7.9v-48h-.9l-4.4 6-1-1.5 3.2-9h21l3.2 9h-1l-4.4-4.5h-.9s7.3 18.9 9.4 33.6 2.1 19.9 2.1 19.9" stroke="#000" stroke-width="3" stroke-miterlimit="10"/><path d="M1094.45 775.284c0 4.6-3.8 8.4-8.4 8.4h-53.5m28-39h6m-3 1.5v4.5m-6 0h8.4c3.5 0 6.3-2.8 6.3-6.3m-26 16.8v21.7m11.3-57v-14.2" stroke="#000" stroke-width="3" stroke-miterlimit="10"/><title>Woman with Baby</title><desc>Woman holding baby</desc><path d="M844.888 745.084h11.2v-28.9c0-14.9-12.1-27-27-27s-27 12.1-27 27v28.5h13.6" stroke="#000" stroke-width="3" stroke-miterlimit="10"/><path d="M811.288 711.784c2.9 4.9 4.4 10.5 4.4 16.2v50.2h-7.3c-2.4 0-4.5 1.5-5.3 3.7l-.9 2.6h19.5v-8.2h4.5v-25.5m22.4-39.2c-2.9 4.9-4.4 10.5-4.4 16.2v17m-28.1 6.5h27" stroke="#000" stroke-width="3" stroke-miterlimit="10"/><path d="M808.588 744.784v2.2l1.5 4.5h4.1m36.7-6.7v2.2l-1.4 4.5h-4.2m-1.1-11.3v36h-4.5v8.2h-12l1.3-4.6c.5-1.7 2.1-2.9 3.9-2.9v-25.5m-21.6-84.6v4.5c0 9.9 8 17.8 17.9 18 10.1.2 18.1-8 18.1-18v-4.5c0-9.9-7.6-6.6-17.5-6.8-10.1-.2-18.5-3.3-18.5 6.8Z" stroke="#000" stroke-width="3" stroke-miterlimit="10"/><path d="M823.288 678.784c.9 2.5 3.1 4.3 5.9 4.3s5.2-1.8 6.1-4.3" stroke="#000" stroke-width="3" stroke-miterlimit="10"/><path d="M829.188 689.184c15.74 0 28.5-11.058 28.5-24.7s-12.76-24.7-28.5-24.7-28.5 11.059-28.5 24.7 12.76 24.7 28.5 24.7Zm10.5 1.6v11.2h-.8l-8.2-8.2h-1.5l-9 8.2h-.7v-11.2" stroke="#000" stroke-width="3" stroke-miterlimit="10"/><path d="M833.088 750.784v-18.8l-13.6-28.5v-2.3" stroke="#000" stroke-width="3" stroke-miterlimit="10"/><path d="M839.688 700.484v3l-9.8 21v1.5m-6-27 3.8 5.2v2.3l-2.2 9" stroke="#000" stroke-width="3" stroke-miterlimit="10"/><path d="m835.888 698.984-3.7 5.2v2.3l2.3 9m-6 17.3v3" stroke="#000" stroke-width="3" stroke-miterlimit="10"/><title>Man with Walking Stick</title><desc>Man using walking stick</desc><path d="m604.175 775.884-6.7 6h-11.3v-3.7c0-2.1 1.7-3.8 3.8-3.8h6.7v-7.5h7.5m12 9 6 6h12v-3.7c0-2.1-1.7-3.8-3.8-3.8h-6.7v-7.5h-7.5m-24-103.5v6c0 9.9 8.1 18 18 18s18-8.1 18-18v-6" stroke="#000" stroke-width="3" stroke-miterlimit="10"/><path d="M604.375 676.984c.7 2.6 3 4.5 5.8 4.5s5.1-1.9 5.8-4.5m-23.8-6.1v15c0 3.3-2.7 6-6 6 0 2.5 2 4.5 4.5 4.5m27-40.5c0 5.8-4.7 10.5-10.5 10.5-3.7 0-7.2 1.9-9.2 5.1l-4.3 6.9m24-22.5c0 5.6 4.5 10.1 10.1 10.1h.4" stroke="#000" stroke-width="3" stroke-miterlimit="10"/><path d="M592.175 669.384v-9c0-9.9 8.1-18 18-18h3.8c2.1 0 3.7 1.7 3.7 3.8v.8c5.8 0 10.5 4.7 10.5 10.5v7.5m-24 92.9v24h-1.8v-3.8m13.8-20.2v24h1.9v-2.2m7.1-88.5c-2.5 3.1-8 5.2-14.3 5.2s-11.7-2.1-14.2-5.2" stroke="#000" stroke-width="3" stroke-miterlimit="10"/><path d="M621.875 716.984c-5.2-3.5-12.4-2.9-17 1.7-1 1-1.8 2.1-2.4 3.2-1.1 2.1-3.1 3.6-5.4 4-4.4.8-8.6 3.3-11.3 7.7-3.6 5.6-3.4 12.9.4 18.4 6.2 9 18.6 9.8 25.9 2.5 2.6-2.6 4.1-5.8 4.7-9.1.4-2.2 1.9-4.1 3.9-5.2 2-1 3.8-2.6 5.1-4.6 2.9-4.4 2.9-10.4-.1-14.8" stroke="#000" stroke-width="3" stroke-miterlimit="10"/><path d="M607.175 757.884h18v-21m20.2-48-1.3 1.3m9.2 6.6-1.3 1.3m-10.5-5.3-1.3 1.3m9.5 6.9-1.3 1.3m-41.9 34.6c1.9 1.9 1.9 5 0 6.8-1.9 1.9-5 1.9-6.8 0m30.7-27.7-22.2 22.3m25.7-33.6 14.6-14.7 3.9 3.9-18.2 18.3m-29.5 21.8 22-22.1" stroke="#000" stroke-width="3" stroke-miterlimit="10"/><path d="m637.575 723.384-2.2 7.5h-5.3v-15l-3.7-3.8v-4.4l3-2.6v-2l1.5-1.4 3 3.7v7.5zm-54.4-6.7v-2.2c0-14.9 12.1-27 27-27 8 0 15.2 3.5 20.1 9 0 0 3.9-2 3.9-4.5-3.3 0-6-2.7-6-6v-15m-45 45.7v9.7l9.4 8.3 6.8 5.2 3.4-2.5 1.1 1 2.7-2.4-5-4.3h-4.5l-7.5-8.3v-9h3l4.5 11.6m2.3 34.1v6.8m21.7-9.8v9.8" stroke="#000" stroke-width="3" stroke-miterlimit="10"/><title>Child with Lollipop</title><desc>Child holding lollipop</desc><path d="M430.619 665.634v6.1c0 9.9-8.1 18-18 18s-18-8.1-18-18v-7.6" stroke="#000" stroke-width="3" stroke-miterlimit="10"/><path d="M406.819 679.334c.7 2.6 3 4.5 5.8 4.5s5.1-1.9 5.8-4.5m-23.8-19.7s7.5-3 18-3 18 4.5 18 4.5v7.5s-7.5-4.5-18-4.5-18 3-18 3z" stroke="#000" stroke-width="3" stroke-miterlimit="10"/><path d="m430.619 668.634 12-13.5v-1.5l-30-13.5-30 13.5v1.5l12 15m-12-1.5v-13.5m0 24v-7.5m24 19.5 6 9 6-9m16.5 10.5-22.5 18-22.5-18m9 7.5v75h21v-3h6v-36.7" stroke="#000" stroke-width="3" stroke-miterlimit="10"/><path d="m429.519 718.452-25.455 18.553 3.534 4.849 25.455-18.553zm-9.4 65.682v-19.5m-27-14.2v2.2l1.5 4.5h4.1" stroke="#000" stroke-width="3" stroke-miterlimit="10"/><path d="m413.419 737.834 3.8 2.2 3.7-2.4 5.2 7.5 13.5-13.5v-14.9c0-14.9-12.1-27-27-27s-27 12.1-27 27v34.4h13.1m13.9-52.5v27" stroke="#000" stroke-width="3" stroke-miterlimit="10"/><title>Person with Long Hair</title><desc>Person with long hair</desc><path d="M238.5 727.184v-12.8c0-14.9-12.1-27-27-27s-27 12.1-27 27v2.2" stroke="#000" stroke-width="3" stroke-miterlimit="10"/><path d="M193.5 666.384v3c0 9.9 8.1 17.8 18 18 10.1.2 18-8 18-18v-3m-18 27.8v28.1" stroke="#000" stroke-width="3" stroke-miterlimit="10"/><path d="M235.5 686.584v-24.1c0-2.9-.6-5.7-1.8-8.3 2.2-1.4 3.8-3.7 4.4-6.3l.6-2.7h-2.4c-.8 2.3-2.9 4-5.4 4.2-4.5-6-11.8-10-19.4-10s-14.9 4-19.4 10c-2.4-.3-4.4-2-5.2-4.2h-2.4l.6 2.7c.6 2.6 2.1 4.8 4.2 6.2-1.2 2.6-1.8 5.5-1.8 8.4v24.1m.7-20.2h47.3m-24-26.3v17.3m0 73.5a4.5 4.5 0 1 0 0-9 4.5 4.5 0 0 0 0 9Zm4.5-4.1h10.5m-27.7 0h8.2m33 8.6v49.5m-6-43.5h12" stroke="#000" stroke-width="3" stroke-miterlimit="10"/><path d="M205.5 677.784c.9 2.5 3.3 4.3 6.1 4.3s5.2-1.8 6.1-4.3m-13.7 10.2c0 4.2 3.4 7.6 7.6 7.6s7.6-3.4 7.6-7.6m-38.8 57.5c8.063 0 14.6-6.536 14.6-14.6s-6.537-14.6-14.6-14.6-14.6 6.537-14.6 14.6c0 8.064 6.537 14.6 14.6 14.6Z" stroke="#000" stroke-width="3" stroke-miterlimit="10"/><path d="M192.8 722.584v-11.1l3-.1 2.2 15-4.5 39h18.7" stroke="#000" stroke-width="3" stroke-miterlimit="10"/><path d="M231 729.384v-17.9l-3-.1-2.2 15 4.4 39h-18.7m7.5.8v10.5l-5.2 3.8v3h12.8v-3l-2.2-2.3v-12.8m-19.6 0v12l-4.6.8-6 2.2v3h16.6v-17.2m-18.8-99.8v20.2m39-20.2v20.2m-39.3 9.1c3.4 7.5 11 12.7 19.8 12.7 9.1 0 16.9-5.6 20.1-13.5m11.4 40.5v-6.7l-8.1-3.1-3.9 3.5v3.3h2.3l1.5 3z" stroke="#000" stroke-width="3" stroke-miterlimit="10"/><title>Person with Prosthetic Leg</title><desc>Person with prosthetic leg</desc><path d="M1073.85 449v4.3c0 9.8-7.7 18.1-17.5 18.4-10.2.3-18.5-7.9-18.4-17.7v-4.8h5.3c3.5 0 6.2-2.8 6.2-6.2h1.9c2.4 3.5 6.2 5.6 10.4 5.7z" stroke="#000" stroke-width="3" stroke-miterlimit="10"/><path d="M1031.95 459.8v-13.2c-.1-13.6 10.6-24.4 23.9-24.4 13.2 0 24 10.7 24 24v13.6m-29.9 1.4c.9 2.5 3.3 4.3 6.1 4.3s5.2-1.8 6.1-4.3m20.7-14.9v13.5m-54-13.5v13.5m42.8 39.7 10.4-.2m-53.2 0c0-15.1 12.4-27.8 27.5-27.5 14.7.3 26.5 12.3 26.5 27v13.3h-1.5l-15-9.6c-1.4-.9-2.6-2.3-3.2-3.9l-2-5.2v-3.6l6.6-.5 3.2 3.8v6.5l3.8 2.8h.8v-2.2" stroke="#000" stroke-width="3" stroke-miterlimit="10"/><path d="M1028.85 498.7V512h2.2l15.8-3h3.5c1.6 0 3.2-.3 4.7-.9l2.9-1.4v-6.2h-3.8v-1.9h-3.8l-4.5 5.8h-9v-5.2l-9 .2m25.3 1.1 8.2-8.3" stroke="#000" stroke-width="3" stroke-miterlimit="10"/><path d="m1068.15 502.6-19.2 19.1-7.7-7.8 4.8-4.8m21.6-19.9 4.1-4 4.3 4.4-5.2 5.2m-24.4-21.7v5.5h19.9v-4m-25.5 1v28.2" stroke="#000" stroke-width="3" stroke-miterlimit="10"/><path d="M1070.85 516.1v27.1h-28.1v-22.9" stroke="#000" stroke-width="3" stroke-miterlimit="10"/><path d="M1042.75 540.6v20.2h-4.5c-2.5 0-4.5 2-4.5 4.5v1.5h18v-24m10.1.3v17.7h-1.1c-2.5 0-4.5 2-4.5 4.5v1.5h14.6v-24m-27.4-9h27" stroke="#000" stroke-width="3" stroke-miterlimit="10"/><title>Person Using White Cane</title><desc>Person with white mobility cane</desc><path d="M830.438 557.43v-25.8m-11.3-33.8v33.8h27.7v-25.5m-21.6 25.5v17.2m18.6 0v-17.2m-4.5 0v17.2m-9.7 9.4-8.8 4.9h-9.2v-2.2c0-2.1 1.7-3.8 3.8-3.8h4.5v-8.2h10.5m4.6 8.2h4.4m4.4 1.5v6m-8.9-15.8h9v9.8l-2.9 4.5h-12v-2.2c0-2.1 1.7-3.8 3.8-3.8h2.1zm8.9-102.3c3.4 9.4-1.501 19.7-10.9 23-9.4 3.4-19.701-1.5-23-10.9l-1-2.8 12.7-4.6c3.1-1.1 4.7-4.6 3.6-7.7 2.3-.8 4.9.4 5.8 2.7l.5 1.4 11.3-4.1z" stroke="#000" stroke-width="3" stroke-miterlimit="10"/><path d="M824.138 461.43c1.5 2.2 4.3 3.2 7 2.3 2.6-.9 4.2-3.5 3.9-6.2" stroke="#000" stroke-width="3" stroke-miterlimit="10"/><path d="m842.638 463.33 3.5-1.3c4.1-1.5 6.2-6 4.7-10.1l-4.3-12.1c-4.1-11.4-17.1-18.2-28.6-14.4-8.5 2.8-14.1 10-15.4 18.2v35.3c0 2.5-2 4.5-4.5 4.5 0 2.9 2.4 5.2 5.2 5.2 7.5 0 13.5-6 13.5-13.5v-7.5m-1.4 22.7 4.5-5.5c1.9-1.6 4.7-3.5 7.5-3.5v1.5h7.5l-1.5 3-3.8 3.8h-4.4l-14.2 15.7h-.8v-12m0-6v10.5" stroke="#000" stroke-width="3" stroke-miterlimit="10"/><path d="m853.638 489.63-10.5 10.5h-10.9c-1.7-2.3-3.6-3.8-6.4-3.8v1.5h-6.7v4.1l4.5 4.1 23.3-.2 13.4-13.3v-3.7c0-12-7.9-22.2-18.7-25.7" stroke="#000" stroke-width="2.876" stroke-miterlimit="10"/><path d="M845.438 483.53a1.5 1.5 0 1 1 0 3 1.5 1.5 0 0 1 0-3Z" stroke="#000" stroke-width="2"/><path d="M839.338 482.13v17.2" stroke="#000" stroke-width="3" stroke-miterlimit="10"/><path d="M848.738 491.13a8.6 8.6 0 1 0-.002-17.202 8.6 8.6 0 0 0 .002 17.202Z" stroke="#000" stroke-width="2.876" stroke-miterlimit="10"/><path d="M840.838 478.63c1.2-.7 2.6-1 4.1-1 4.8 0 8.6 3.9 8.6 8.6 0 1.2-.2 2.3-.7 3.4m-11.2-12-9.7 9.7" stroke="#000" stroke-width="2.876" stroke-miterlimit="10"/><path d="m839.038 505.93-4.2 4.3c-3.6 3.6-9.4 3.6-13 0-2.1-2.1-2.6-4.8-2.6-7.8" stroke="#000" stroke-width="3" stroke-miterlimit="10"/><title>Woman in Wheelchair</title><desc>Woman using wheelchair</desc><path d="M619.125 489.5c.547 0 .899.353.899.9a.898.898 0 1 1-1.799 0c0-.482.386-.9.9-.9Z" stroke="#000" stroke-width="2"/><path d="M612.225 466c.7 2.6 3 4.5 5.8 4.5s5.1-1.9 5.8-4.5m12.2-6s-7.5-3-18-3-18 3-18 3m36-6s-7.5-3-18-3-18 3-18 3" stroke="#000" stroke-width="3" stroke-miterlimit="10"/><path d="M636.025 444.5c3.5-1.2 6-4.6 6-8.5 0-5-4-9-9-9-.8 0-1.5.1-2.2.3-1.8-5.4-6.8-9.3-12.8-9.3s-11 3.9-12.8 9.3c-.7-.2-1.4-.3-2.2-.3-5 0-9 4-9 9 0 3.9 2.5 7.3 6 8.5v.5l-.1 13.5c0 9.9 8.1 18 18 18s18-8.1 18-18l.1-13.5zm-18 5v-9m-10.5 12V445m21 7.5V445m5.3 78.3v36h-29.3v-31.8m21-21v-20.6l-17.2-7.6m1.5 21.4 15.7 15.8m-26.2-26.2 3.7 3.7m12 22.5-3-9 4.5-4.5 9 4.5 6 8.5" stroke="#000" stroke-width="3" stroke-miterlimit="10"/><path d="M636.825 515h-36.8c0 10.4 8.1 18.5 18 18.5" stroke="#000" stroke-width="3" stroke-miterlimit="10"/><path d="M633.125 525.3c-3.2 5-8.8 8.2-15.1 8.2m-13.5 18h29.3m-32.3-30h15m-12 37.8v5.7h-4.5c-2.5 0-4.5 2-4.5 4.5v1.5h18v-11.7m12.8 0v5.7h-1.5c-2.5 0-4.5 2-4.5 4.5v1.5h13.5v-12m-35.9-53.8 3.6-3.9-2.9-7.1 2.4-3 2.2 2.2 3.8-3 3.6 3.4v5.2l-17.2 18h-2.2v-15.7c0-12.7 12-24.7 26.9-24.7s27 12.1 27 27l.1 12-18 12.3h-6.8l-4.5-3.3v-3h5.2v-2.2c3.2 0 6 1.5 6 1.5h1.5l8.2-5.7v-10.9" stroke="#000" stroke-width="3" stroke-miterlimit="10"/><title>Judge</title><desc>Judge in robes holding gavel</desc><path d="M437.268 451.3c3.3 0 6 2.7 6 6s-2.7 6-6 6c-1.3 0-2.6-.4-3.6-1.2" stroke="#000" stroke-width="3" stroke-miterlimit="10"/><path d="M401.168 447.5v2.2c0 9.9 8.1 18 18 18s18-8.1 18-18v-3" stroke="#000" stroke-width="3" stroke-miterlimit="10"/><path d="M413.368 457.3c.7 2.6 3 4.5 5.8 4.5s5.1-1.9 5.8-4.5m-13.999-6c2.871 0 5.2-2.015 5.2-4.5s-2.329-4.5-5.2-4.5-5.2 2.015-5.2 4.5 2.328 4.5 5.2 4.5Zm16.5 0c2.871 0 5.2-2.015 5.2-4.5s-2.329-4.5-5.2-4.5-5.2 2.015-5.2 4.5 2.328 4.5 5.2 4.5Zm-11.2-4.5c0-1.7 1.3-3 3-3s3 1.3 3 3m-10.5 19.5c0 4.2 3.4 7.6 7.6 7.6s7.6-3.4 7.6-7.6m-25.7-19.2s.5-13.9 18.8-13.9" stroke="#000" stroke-width="3" stroke-miterlimit="10"/><path d="M437.269 447.1s-.5-13.9-18.8-13.9" stroke="#000" stroke-width="3" stroke-miterlimit="10"/><path d="M401.168 446.8v-6c0-9.9 8.1-18 18-18s18 8.1 18 18v6" stroke="#000" stroke-width="3" stroke-miterlimit="10" stroke-linecap="round" stroke-linejoin="round" stroke-dasharray="0.15 0.15"/><path d="M405.168 472.3c0 2.5 2 4.5 4.5 4.5q.75 0 1.5-.3c-.1 1.2.3 2.5 1.3 3.5 1.8 1.8 4.6 1.8 6.4 0l.7-.7c.2.2.4.5.6.7 1.8 1.8 4.6 1.8 6.4 0 1-1 1.4-2.2 1.3-3.5q.75.3 1.5.3c2.5 0 4.5-2 4.5-4.5m-27.5 15.1V566l18.8.2v-2.3h7.5v-76.5m-39 46.4s0 4.5-6 4.5-6-4.5-6-4.5" stroke="#000" stroke-width="3" stroke-miterlimit="10"/><path d="M420.668 533.8s0 4.5-6 4.5-6-4.5-6-4.5m-5.199-19.4h11.2l.1 4.2m-27.201.2.1-4.4h4.5m-10.5 19.4 6-15m6 15-6-15m21 15 6-15m6 15-6-15.6" stroke="#000" stroke-width="3" stroke-miterlimit="10"/><path d="m392.268 514.4-.1-19.7c0-14.9 12.1-27 27-27s27 12.1 27 27l.1 33.6h-12.8m-8.3 34.3v-12.2m-46.5-16.5h18m9 0h18m9.4-11.2h13.5" stroke="#000" stroke-width="3" stroke-miterlimit="10"/><path d="m415.068 481.3-3 10.5h3v3h4.5m4.5-13.5 3 10.5h-3v3h-4.5m-3 3h6m-28.1 19.6-2.3-2.2 1.5-6h8.2l2.3 2.2v3h-2.3v3z" stroke="#000" stroke-width="3" stroke-miterlimit="10"/><title>Artist</title><desc>Artist in beret with palette</desc><path d="M196.914 449.4v1c0 9.9 7.8 18.4 17.7 18.6 10.1.2 18.3-7.9 18.3-18 0-3.4-2.8-6.2-6.2-6.2h-1.3" stroke="#000" stroke-width="3" stroke-miterlimit="10"/><path d="M209.114 458.6c.7 2.6 3 4.5 5.8 4.5s5.1-1.9 5.8-4.5" stroke="#000" stroke-width="3" stroke-miterlimit="10"/><path d="M234.014 517.5a1.601 1.601 0 1 1 0 3.198 1.601 1.601 0 0 1 0-3.198Z" stroke="#000" stroke-width="2"/><path d="M241.914 515.9c0 9.7-7.9 17.6-17.6 17.6s-17.6-7.9-17.6-17.6 7.9-17.6 17.6-17.6c4.5 0-.6 8.8 8.8 11.8 4.6 1.4 8.8.6 8.8 5.8Zm-37.5-45.4v12h3l7.5-12m10.5 0v12h-3l-7.5-12m16.5-18c4.1 0 7.5-3.4 7.5-7.5 0-2.5-1.2-4.6-3-6q1.5-1.95 1.5-4.5c0-4.1-3.4-7.5-7.5-7.5 0-4.1-3.4-7.5-7.5-7.5-2.2 0-4.1.9-5.5 2.4-1.3-2.3-3.7-3.9-6.5-3.9-2.2 0-3.8 1.1-4.9 2.4q-1.5-.9-3.3-.9c-3.7 0-6.7 3-6.7 6.6-2.7 1.2-4.5 3.8-4.5 6.9 0 1.7.6 3.2 1.5 4.5-1.8 1.4-3 3.5-3 6 0 4.1 3.4 7.5 7.5 7.5" stroke="#000" stroke-width="3" stroke-miterlimit="10"/><path d="M225.414 443.4c0 4.6-2.6 8.2-7.1 8.2q-1.05 0-2.1-.3c-1.4 2-3.6 3.3-6.2 3.3-1.7 0-3.3-.6-4.5-1.6-1 1-2.3 1.6-3.7 1.6-2.2 0-4.1-1.4-4.9-3.3m18 20.7v28.5m13.6 7.2c0-5.7 1.5-11.3 4.4-16.2" stroke="#000" stroke-width="3" stroke-miterlimit="10"/><path d="M219.014 507a1 1 0 1 1 0 2 1 1 0 0 1 0-2Zm2.6 17a1 1 0 1 1 0 2 1 1 0 0 1 0-2Zm-5.2-7.8a2.3 2.3 0 1 1 0 4.6 2.3 2.3 0 0 1 0-4.6Z" stroke="#000" stroke-width="2"/><path d="M201.414 530.5h13.5m-38.9-57c.6 1.7-.3 3.5-1.9 4.1s-3.5-.3-4.1-1.9 1.1-6.3 1.1-6.3 4.3 2.5 4.9 4.1Zm-1.9 4.1 6.3 14.7m7.5 11.2h13.5m11.6 67.5h-19.1v-3.8l4.5-1.5 6-1.1v-4.1h-3V508c0-5.7-1.7-11.6-4.5-16.5" stroke="#000" stroke-width="3" stroke-miterlimit="10"/><path d="m199.114 504.3-10.5 13.5h-1.5l-10.4-23.3 4.5-3.8h3v6.8l-.8 2.2 3.8 8.2h.7v-12c0-14.9 12.1-27 27-27s27 12.1 27 27v19.6m-31.5 51.8v-6.8l3-25.5h3l1.5 25.5h3v4.1l-6 1.1zm0 0v3.7h16.4l.1-37.5" stroke="#000" stroke-width="3" stroke-miterlimit="10"/><g clip-path="url(#a)" fill="#000" fill-opacity=".896"><path d="M189.693 154.297q-1.899.984-4.723.984-3.656 0-5.859-2.308-2.203-2.309-2.203-6.059 0-4.03 2.472-6.516 2.485-2.484 6.27-2.484 2.438 0 4.043.691v2.766q-1.7-1.008-3.75-1.008-2.73 0-4.43 1.746-1.687 1.746-1.687 4.664 0 2.778 1.582 4.43 1.581 1.641 4.16 1.641 2.379 0 4.125-1.125zm13.547.703h-2.719v-6.562q0-3.564-2.379-3.563-1.195 0-2.016 1.031-.82 1.032-.82 2.637V155h-2.73v-17.766h2.73v7.758h.047q1.359-2.273 3.891-2.273 3.996 0 3.996 4.886zm12.515 0h-2.636v-1.875h-.047q-1.242 2.156-3.645 2.156-1.769 0-2.777-.961-.996-.96-.996-2.543 0-3.398 3.914-3.961l3.562-.504q0-2.565-2.437-2.566-2.145 0-3.867 1.477v-2.379q1.898-1.125 4.382-1.125 4.548 0 4.547 4.476zm-2.625-5.895-2.519.352q-1.172.153-1.77.574-.585.41-.586 1.453 0 .762.539 1.254.552.481 1.465.481 1.242 0 2.051-.867.82-.88.82-2.204zm12.914-3.515q-.492-.387-1.418-.387-1.206 0-2.015 1.09t-.809 2.965V155h-2.719v-12h2.719v2.473h.047q.399-1.266 1.219-1.969.833-.715 1.851-.715.74 0 1.125.223zm11.133 9.41h-2.636v-1.875h-.047q-1.242 2.156-3.645 2.156-1.77 0-2.777-.961-.996-.96-.996-2.543 0-3.398 3.914-3.961l3.562-.504q0-2.565-2.437-2.566-2.145 0-3.867 1.477v-2.379q1.898-1.125 4.382-1.125 4.547 0 4.547 4.476zm-2.625-5.895-2.519.352q-1.172.153-1.77.574-.586.41-.586 1.453 0 .762.539 1.254.551.481 1.465.481 1.242 0 2.051-.867.82-.88.82-2.204zm14.543 5.344q-1.441.832-3.41.832-2.672 0-4.312-1.664-1.641-1.675-1.641-4.336 0-2.964 1.758-4.758 1.77-1.804 4.722-1.804 1.641 0 2.895.574v2.531q-1.254-.937-2.672-.937-1.723 0-2.824 1.172-1.102 1.16-1.102 3.046 0 1.864 1.032 2.942 1.043 1.078 2.789 1.078 1.464 0 2.765-1.043zm9.035.422q-.797.399-2.097.399-3.492 0-3.492-3.352v-6.785h-2.004V143h2.004v-2.777l2.718-.774V143h2.871v2.133h-2.871v6q0 1.067.387 1.523.386.457 1.289.457.691 0 1.195-.398zm12.364-5.133h-8.18q.047 1.665 1.019 2.567.985.902 2.696.902 1.922 0 3.527-1.148v2.191q-1.64 1.031-4.336 1.031-2.648 0-4.16-1.629-1.5-1.64-1.5-4.605 0-2.8 1.652-4.559 1.665-1.769 4.125-1.769 2.462 0 3.809 1.582 1.348 1.581 1.348 4.394zm-2.625-1.922q-.012-1.464-.692-2.273-.68-.82-1.875-.82-1.171 0-1.992.855-.808.856-.996 2.238zm12.175-2.226q-.491-.387-1.418-.387-1.206 0-2.015 1.09t-.809 2.965V155h-2.719v-12h2.719v2.473h.047q.399-1.266 1.219-1.969.832-.715 1.851-.715.74 0 1.125.223zm1.336 9.035v-2.52q1.524 1.161 3.364 1.161 2.46 0 2.461-1.454 0-.41-.211-.691a2 2 0 0 0-.575-.516 4.3 4.3 0 0 0-.843-.398q-.481-.176-1.078-.398a12 12 0 0 1-1.336-.621 4.3 4.3 0 0 1-.985-.739 2.9 2.9 0 0 1-.586-.949q-.2-.528-.199-1.23 0-.868.41-1.524a3.5 3.5 0 0 1 1.102-1.113 5.1 5.1 0 0 1 1.57-.68 7 7 0 0 1 1.817-.234q1.663 0 2.976.504v2.379q-1.266-.868-2.906-.868-.515 0-.938.106-.41.105-.703.293a1.4 1.4 0 0 0-.457.457 1.05 1.05 0 0 0-.164.574q0 .387.164.656.165.27.481.481.327.2.773.375.457.163 1.043.363.774.316 1.383.645a4.5 4.5 0 0 1 1.055.75q.433.41.668.961.234.539.234 1.289 0 .914-.422 1.593a3.5 3.5 0 0 1-1.125 1.125 5.2 5.2 0 0 1-1.629.657 8.2 8.2 0 0 1-1.933.222q-1.97 0-3.411-.656M182.814 259v-56.016h16.172q30.976 0 30.976 27.305 0 12.969-8.593 20.859Q212.774 259 198.322 259zm9.258-48.125v40.273h7.422q9.804 0 15.234-5.39 5.469-5.39 5.469-15.235 0-19.648-20.352-19.648zM269.923 259h-8.789v-6.25h-.156q-4.14 7.188-12.148 7.188-5.9 0-9.258-3.204-3.321-3.203-3.321-8.476 0-11.328 13.047-13.203l11.875-1.68q0-8.555-8.125-8.555-7.148 0-12.89 4.922v-7.93q6.327-3.75 14.609-3.75 15.156 0 15.156 14.922zm-8.75-19.648-8.398 1.171q-3.906.508-5.899 1.915-1.953 1.367-1.953 4.843 0 2.54 1.797 4.18 1.836 1.602 4.883 1.601 4.14 0 6.836-2.89 2.734-2.93 2.734-7.344zm43.047-11.719q-1.64-1.29-4.726-1.289-4.024 0-6.719 3.633t-2.695 9.882V259h-9.063v-40h9.063v8.242h.156q1.327-4.218 4.062-6.562 2.774-2.383 6.172-2.383 2.462 0 3.75.742zM346.916 259h-11.485l-15.547-19.219h-.156V259h-9.102v-59.219h9.102v37.539h.156L334.572 219h10.898l-16.523 19.297zm25.273-1.25v-8.398q5.077 3.867 11.211 3.867 8.203 0 8.203-4.844 0-1.367-.703-2.305-.704-.977-1.914-1.718-1.172-.742-2.813-1.329-1.6-.585-3.593-1.328a40 40 0 0 1-4.454-2.07q-1.953-1.093-3.281-2.461a9.7 9.7 0 0 1-1.953-3.164q-.664-1.758-.664-4.102 0-2.89 1.367-5.078 1.368-2.226 3.672-3.711 2.305-1.523 5.234-2.265a23.4 23.4 0 0 1 6.055-.782q5.547 0 9.922 1.68v7.93q-4.219-2.89-9.687-2.891-1.72 0-3.125.352-1.368.352-2.344.976-.976.625-1.524 1.524a3.5 3.5 0 0 0-.547 1.914q0 1.288.547 2.187.548.899 1.602 1.602 1.093.664 2.578 1.25 1.524.547 3.477 1.211a49 49 0 0 1 4.609 2.148q2.07 1.094 3.516 2.5a9.5 9.5 0 0 1 2.226 3.203q.781 1.797.781 4.297 0 3.047-1.406 5.313t-3.75 3.75-5.43 2.187q-3.046.743-6.445.743-6.563 0-11.367-2.188m58.125.82q-2.657 1.329-6.992 1.328-11.641 0-11.641-11.171v-22.618h-6.68V219h6.68v-9.258l9.063-2.578V219h9.57v7.109h-9.57v20q0 3.555 1.289 5.079t4.297 1.523q2.304 0 3.984-1.328zm31.016-30.937q-1.641-1.29-4.727-1.289-4.023 0-6.719 3.633-2.695 3.632-2.695 9.882V259h-9.063v-40h9.063v8.242h.156q1.329-4.218 4.063-6.562 2.773-2.383 6.172-2.383 2.46 0 3.75.742zm23.437 32.305q-9.258 0-14.805-5.586-5.507-5.625-5.507-14.883 0-10.078 5.742-15.742 5.78-5.665 15.547-5.665 9.375 0 14.609 5.508t5.234 15.274q0 9.57-5.664 15.351-5.625 5.743-15.156 5.743m.43-34.649q-5.312 0-8.399 3.711t-3.086 10.234q0 6.29 3.125 9.922 3.125 3.594 8.36 3.594 5.351 0 8.203-3.555 2.89-3.554 2.891-10.117 0-6.601-2.891-10.195-2.852-3.594-8.203-3.594M551.134 259H539.65l-15.547-19.219h-.156V259h-9.102v-59.219h9.102v37.539h.156L538.791 219h10.898l-16.523 19.297zm38.203-17.539h-27.265q.156 5.547 3.398 8.555 3.282 3.007 8.985 3.007 6.406 0 11.757-3.828v7.305q-5.468 3.438-14.453 3.438-8.828 0-13.867-5.43-5-5.469-5-15.352 0-9.336 5.508-15.195 5.547-5.898 13.75-5.899 8.203 0 12.695 5.274 4.492 5.273 4.492 14.648zm-8.75-6.406q-.039-4.884-2.304-7.578-2.266-2.735-6.25-2.735-3.906 0-6.641 2.852-2.696 2.852-3.32 7.461z"/></g><defs><clipPath id="a"><path fill="#fff" d="M175.9 134h943v171h-943z"/></clipPath></defs></svg>