<svg width="1253" height="1013" viewBox="0 0 1253 1013" fill="none" xmlns="http://www.w3.org/2000/svg">
<rect width="1253" height="1013" fill="black"/>
<path d="M199.886 493.651H212.364V510.809L210.805 513.928H196.767C195.831 513.928 195.207 513.304 195.207 512.368V507.689C195.207 505.505 196.767 503.478 198.95 503.166L199.886 503.01V493.651Z" stroke="white" stroke-width="3" stroke-miterlimit="10"/>
<path d="M198.327 503.01H208.465C210.649 503.01 212.365 503.946 212.365 506.129V507.689" stroke="white" stroke-width="3" stroke-miterlimit="10"/>
<path d="M230.926 493.651H218.448V512.368C218.448 513.304 219.072 513.928 220.008 513.928H237.165C238.101 513.928 238.725 513.304 238.725 512.368V507.689C238.725 505.505 237.165 503.478 234.981 503.166L230.926 503.01V493.651Z" stroke="white" stroke-width="3" stroke-miterlimit="10"/>
<path d="M222.035 384.156C222.035 385.247 221.099 386.027 220.163 386.027C219.072 386.027 218.292 385.091 218.292 384.156C218.292 383.064 219.228 382.284 220.163 382.284C221.255 382.284 222.035 383.22 222.035 384.156Z" fill="white"/>
<path d="M230.146 384.156C230.146 385.247 229.21 386.027 228.274 386.027C227.182 386.027 226.402 385.091 226.402 384.156C226.402 383.064 227.338 382.284 228.274 382.284C229.21 382.284 230.146 383.22 230.146 384.156Z" fill="white"/>
<path d="M198.327 405.992V387.275C198.327 376.98 206.75 368.558 217.044 368.558C227.339 368.558 235.761 376.98 235.761 387.275V405.992C243.092 430.949 250.267 456.061 257.598 481.017C256.35 481.797 252.607 484.137 247.304 483.669C243.56 483.357 241.065 481.797 239.817 481.017C238.881 481.641 236.073 483.669 231.862 483.669C227.495 483.669 224.531 481.641 223.751 481.017C222.815 481.797 219.852 483.825 215.484 483.669C211.585 483.669 208.777 481.953 207.841 481.173C206.906 481.797 204.098 483.669 200.043 483.669C196.143 483.669 193.336 481.953 192.4 481.173C191.464 481.797 188.656 483.669 184.757 483.669C180.545 483.669 177.738 481.641 176.802 481.017C183.665 456.061 190.996 430.949 198.327 405.992Z" stroke="white" stroke-width="3" stroke-miterlimit="10"/>
<path d="M506.744 408.061C507.537 411.869 508.331 415.677 509.124 419.484C506.586 421.388 500.716 423.45 494.846 423.45C488.817 423.45 482.154 421.388 479.615 419.484C480.567 415.835 481.678 412.186 482.63 408.379" stroke="white" stroke-width="3" stroke-miterlimit="10"/>
<path d="M507.855 418.691C516.422 423.609 522.133 432.969 522.133 443.599V467.555L519.753 471.997H479.615" stroke="white" stroke-width="3" stroke-miterlimit="10"/>
<path d="M488.182 402.033C488.817 404.73 491.355 406.792 494.37 406.792C497.384 406.792 499.764 404.73 500.557 402.033" stroke="white" stroke-width="3" stroke-miterlimit="10"/>
<path d="M519.436 471.362V472.631C519.436 476.915 517.691 481.04 514.677 484.213H511.821" stroke="white" stroke-width="3" stroke-miterlimit="10"/>
<path d="M508.172 453.435H468.351L465.971 444.709C465.654 443.758 465.654 442.806 465.654 442.012C466.13 432.018 471.841 423.451 479.933 418.691" stroke="white" stroke-width="3" stroke-miterlimit="10"/>
<path d="M510.552 445.027H512.455C516.104 445.027 520.071 451.373 520.071 451.373V453.435H508.172" stroke="white" stroke-width="3" stroke-miterlimit="10"/>
<path d="M480.567 475.329C480.726 473.901 480.726 472.314 480.567 470.569C480.408 468.824 480.091 467.237 479.774 465.81C478.98 461.843 478.029 457.719 477.235 453.752" stroke="white" stroke-width="3" stroke-miterlimit="10"/>
<path d="M514.518 454.704L511.821 468.189C511.504 469.935 511.345 471.521 511.345 473.266" stroke="white" stroke-width="3" stroke-miterlimit="10"/>
<path d="M508.965 419.643V452.959" stroke="white" stroke-width="3" stroke-miterlimit="10"/>
<path d="M498.971 433.921H467.558" stroke="white" stroke-width="3" stroke-miterlimit="10"/>
<path d="M510.869 471.362V504.044H506.11V512.77H494.211V508.01C494.687 507.376 495.163 506.582 496.115 505.789C497.225 504.837 498.177 504.203 498.97 503.885C498.812 493.414 498.653 482.944 498.653 472.473H495.004L491.831 504.203H487.072V512.928H469.145L469.303 510.073C470.096 507.693 472.318 506.582 474.856 506.582H480.409C480.409 494.684 480.409 482.626 480.409 470.728" stroke="white" stroke-width="3" stroke-miterlimit="10"/>
<path d="M475.49 393.624V384.105C475.49 373.635 484.058 365.068 494.528 365.068C504.999 365.068 513.566 373.635 513.566 384.105V393.624" stroke="white" stroke-width="3" stroke-miterlimit="10"/>
<path d="M513.566 393.624C513.566 404.095 504.999 412.662 494.528 412.662C484.058 412.662 475.49 404.095 475.49 393.624" stroke="white" stroke-width="3" stroke-miterlimit="10"/>
<path d="M474.856 393.624L505.475 368.558" stroke="white" stroke-width="3" stroke-miterlimit="10"/>
<path d="M478.346 404.412L512.456 376.332" stroke="white" stroke-width="3" stroke-miterlimit="10"/>
<path d="M478.981 374.269H498.495" stroke="white" stroke-width="3" stroke-miterlimit="10"/>
<path d="M500.557 386.009H513.566" stroke="white" stroke-width="3" stroke-miterlimit="10"/>
<path d="M476.284 386.009H484.375" stroke="white" stroke-width="3" stroke-miterlimit="10"/>
<path d="M486.913 396.956H513.566" stroke="white" stroke-width="3" stroke-miterlimit="10"/>
<path d="M477.87 434.714V452.959" stroke="white" stroke-width="3" stroke-miterlimit="10"/>
<path d="M488.817 434.714V452.959" stroke="white" stroke-width="3" stroke-miterlimit="10"/>
<path d="M498.495 424.085V452.959" stroke="white" stroke-width="3" stroke-miterlimit="10"/>
<path d="M478.346 462.478H512.931" stroke="white" stroke-width="3" stroke-miterlimit="10"/>
<path d="M509.758 428.369H518.484" stroke="white" stroke-width="3" stroke-miterlimit="10"/>
<path d="M469.938 428.369H498.653" stroke="white" stroke-width="3" stroke-miterlimit="10"/>
<path d="M509.758 438.522H521.657" stroke="white" stroke-width="3" stroke-miterlimit="10"/>
<path d="M480.567 482.626H494.052" stroke="white" stroke-width="3" stroke-miterlimit="10"/>
<path d="M480.567 493.89H492.466" stroke="white" stroke-width="3" stroke-miterlimit="10"/>
<path d="M480.567 503.885H492.466" stroke="white" stroke-width="3" stroke-miterlimit="10"/>
<path d="M497.86 482.626H511.345" stroke="white" stroke-width="3" stroke-miterlimit="10"/>
<path d="M497.86 493.89H509.758" stroke="white" stroke-width="3" stroke-miterlimit="10"/>
<path d="M497.86 503.885H509.758" stroke="white" stroke-width="3" stroke-miterlimit="10"/>
<path d="M777.364 417.44C777.364 425.787 770.535 432.617 762.187 432.617C753.84 432.617 747.01 425.787 747.01 417.44" stroke="white" stroke-width="3" stroke-miterlimit="10"/>
<path d="M747.01 417.44V413.899C757.128 413.899 767.246 414.025 777.364 414.025V418.207" stroke="white" stroke-width="3" stroke-miterlimit="10"/>
<path d="M757.255 423.764C757.761 425.914 759.784 427.558 762.187 427.558C764.59 427.558 766.488 425.914 767.12 423.764" stroke="white" stroke-width="3" stroke-miterlimit="10"/>
<path d="M757.255 466.891C757.761 469.042 759.784 470.686 762.187 470.686C764.59 470.686 766.488 469.042 767.12 466.891" stroke="white" stroke-width="3" stroke-miterlimit="10"/>
<path d="M767.879 436.158C766.108 436.411 764.084 436.664 762.061 436.664C760.037 436.664 757.406 436.537 755.636 436.158M767.373 431.731C770.029 432.111 772.558 432.617 774.961 433.502C786.218 437.423 794.059 446.276 794.059 456.647C794.059 470.306 780.4 481.436 763.452 481.942C763.326 481.942 763.073 481.942 762.946 481.942C762.693 481.942 762.44 481.942 762.187 481.942C761.934 481.942 761.681 481.942 761.428 481.942C761.302 481.942 761.049 481.942 760.923 481.942C743.848 481.436 730.189 470.306 730.189 456.647C730.189 446.276 738.031 437.423 749.287 433.502C751.69 432.617 754.219 432.111 756.875 431.731" stroke="white" stroke-width="3" stroke-miterlimit="10"/>
<path d="M751.058 434.64C744.102 438.941 739.422 447.288 739.422 456.773C739.422 470.18 748.908 481.183 760.796 482.068C760.923 482.068 761.176 482.068 761.302 482.068C761.555 482.068 761.808 482.068 762.061 482.068C762.314 482.068 762.567 482.068 762.82 482.068C762.946 482.068 763.199 482.068 763.326 482.068C775.214 481.31 784.7 470.306 784.7 456.773C784.7 447.288 780.02 439.067 773.064 434.64" stroke="white" stroke-width="3" stroke-miterlimit="10"/>
<path d="M756.622 436.158C753.461 441.09 751.184 449.311 751.057 456.647C750.931 467.524 755.737 480.045 761.049 481.942C761.428 481.942 761.934 481.942 762.314 481.942C762.693 481.942 763.199 481.942 763.579 481.942C768.764 480.045 773.696 467.524 773.57 456.647C773.444 449.311 771.167 441.09 768.258 436.158" stroke="white" stroke-width="3" stroke-miterlimit="10"/>
<path d="M749.287 433.502C749.793 433.881 750.299 434.261 751.058 434.64C752.449 435.399 754.219 435.905 756.369 436.285" stroke="white" stroke-width="3" stroke-miterlimit="10"/>
<path d="M767.879 436.158C770.029 435.779 771.799 435.273 773.191 434.514C773.823 434.134 774.455 433.882 774.835 433.376" stroke="white" stroke-width="3" stroke-miterlimit="10"/>
<path d="M773.444 495.981V481.183M750.678 480.171V496.487V480.171Z" stroke="white" stroke-width="3" stroke-miterlimit="10"/>
<path d="M749.413 496.487H759.531V510.399L758.266 512.928H746.884C746.125 512.928 745.619 512.422 745.619 511.664V507.869C745.619 506.099 746.884 504.454 748.654 504.202L749.413 504.075V496.487Z" stroke="white" stroke-width="3" stroke-miterlimit="10"/>
<path d="M748.149 504.075H756.369C758.14 504.075 759.531 504.834 759.531 506.605V507.869" stroke="white" stroke-width="3" stroke-miterlimit="10"/>
<path d="M774.708 496.487H764.59V511.664C764.59 512.422 765.096 512.928 765.855 512.928H779.767C780.526 512.928 781.032 512.422 781.032 511.664V507.869C781.032 506.099 779.767 504.454 777.997 504.202L774.708 504.075V496.487Z" stroke="white" stroke-width="3" stroke-miterlimit="10"/>
<path d="M741.825 410.357C742.078 408.081 742.204 405.931 743.343 403.275C743.722 402.263 744.481 400.872 745.746 399.354C749.54 394.295 755.737 390.88 762.061 390.88C768.511 390.88 774.582 394.295 778.376 399.354C779.641 400.872 780.273 402.389 780.779 403.401C781.791 405.931 782.044 408.207 782.297 410.357C782.423 411.496 782.423 412.507 782.55 413.266C782.55 413.899 782.55 414.91 782.297 416.175C782.044 417.819 781.917 419.969 780.779 422.119C780.4 423.005 779.641 424.269 778.376 425.534C774.582 429.834 768.385 432.743 762.061 432.743C755.611 432.743 749.54 429.834 745.746 425.534C744.228 423.89 743.343 422.119 743.343 422.119C742.71 420.855 742.331 419.716 742.204 418.705C742.078 418.199 741.951 417.44 741.825 416.175C741.698 414.91 741.572 412.887 741.825 410.357Z" stroke="white" stroke-width="3" stroke-miterlimit="10"/>
<path d="M762.061 390.88C760.417 393.157 758.393 396.698 757.002 401.378C755.484 406.563 755.358 410.99 755.611 413.899" stroke="white" stroke-width="3" stroke-miterlimit="10"/>
<path d="M762.693 390.88C764.337 393.157 766.361 396.698 767.752 401.378C769.27 406.563 769.396 410.99 769.143 413.899" stroke="white" stroke-width="3" stroke-miterlimit="10"/>
<path d="M762.061 378.991V390.88" stroke="white" stroke-width="3" stroke-miterlimit="10"/>
<path d="M750.931 383.039C751.31 382.912 756.875 381.015 760.164 384.05C761.428 385.189 762.693 387.465 761.808 388.857C760.923 390.501 757.634 390.374 755.737 389.489C751.943 388.098 751.058 383.671 750.931 383.039Z" stroke="white" stroke-width="3" stroke-miterlimit="10"/>
<path d="M764.59 496.993V482.195" stroke="white" stroke-width="3" stroke-miterlimit="10"/>
<path d="M759.531 496.993V482.195" stroke="white" stroke-width="3" stroke-miterlimit="10"/>
<path d="M1032.73 419.134C1032.73 423.236 1036.1 426.459 1040.06 426.459C1044.01 426.459 1047.38 423.089 1047.38 419.134" stroke="white" stroke-width="3" stroke-miterlimit="10"/>
<path d="M1057.34 401.995V398.918C1048.41 395.549 1038.44 382.951 1038.44 382.951C1038.44 382.951 1022.77 391.008 1022.48 401.848" stroke="white" stroke-width="3" stroke-miterlimit="10"/>
<path d="M1059.69 444.038V490.329H1048.7" stroke="white" stroke-width="3" stroke-miterlimit="10"/>
<path d="M1023.21 439.789V490.328H1032" stroke="white" stroke-width="3" stroke-miterlimit="10"/>
<path d="M1029.07 490.328V495.309" stroke="white" stroke-width="3" stroke-miterlimit="10"/>
<path d="M1030.53 504.831V510.691H1032V496.774H1024.67L1020.28 504.831L1011.64 509.226V510.691H1024.67L1030.53 504.831Z" stroke="white" stroke-width="3" stroke-miterlimit="10"/>
<path d="M1050.9 490.328V495.309" stroke="white" stroke-width="3" stroke-miterlimit="10"/>
<path d="M1047.97 445.209V495.309" stroke="white" stroke-width="3" stroke-miterlimit="10"/>
<path d="M1049.43 504.831V510.691H1047.97V496.774H1055.14L1059.54 504.831L1068.33 509.226V510.691H1055.14L1049.43 504.831Z" stroke="white" stroke-width="3" stroke-miterlimit="10"/>
<path d="M1026.87 423.529L1035.66 432.172H1036.98L1039.91 427.777H1040.06L1042.84 432.172H1044.3L1053.09 423.529" stroke="white" stroke-width="3" stroke-miterlimit="10"/>
<path d="M1057.34 401.702C1057.34 411.37 1049.58 419.134 1039.91 419.134C1030.24 419.134 1022.48 411.37 1022.48 401.702" stroke="white" stroke-width="3" stroke-miterlimit="10"/>
<path d="M1034.34 408.88C1034.93 411.37 1037.27 413.275 1039.91 413.275C1042.55 413.275 1044.89 411.37 1045.48 408.88" stroke="white" stroke-width="3" stroke-miterlimit="10"/>
<path d="M1039.91 369.767C1050.9 369.767 1059.69 385.881 1061.88 397.307C1062.62 401.555 1062.18 403.166 1061.88 417.669C1061.74 427.484 1061.74 435.394 1061.74 440.522C1061.74 442.133 1061.88 443.598 1061.88 445.209H1060.42C1059.1 443.598 1057.64 441.693 1056.32 439.203C1053.24 433.343 1052.65 427.63 1052.65 424.261C1052.65 422.503 1052.65 420.892 1052.8 419.134C1048.55 419.134 1044.16 418.987 1039.91 418.987C1038.01 418.987 1035.22 419.134 1032.15 420.159C1029.95 420.892 1028.19 421.624 1026.87 422.503L1025.41 423.382C1028.34 436.42 1019.55 445.209 1019.55 445.209H1018.08C1018.23 443.744 1018.52 442.279 1018.67 440.668C1018.52 435.687 1018.38 427.484 1018.08 417.522C1017.64 402.141 1017.5 400.383 1018.08 397.16C1020.28 386.027 1028.92 369.767 1039.91 369.767Z" stroke="white" stroke-width="3" stroke-miterlimit="10"/>
<path d="M1023.65 480.807L1018.52 479.342V472.017H1014.13V445.209C1014.13 443.158 1014.42 440.522 1015.3 437.445C1016.18 434.369 1017.35 432.025 1018.38 430.414" stroke="white" stroke-width="3" stroke-miterlimit="10"/>
<path d="M1052.36 425.58L1049.28 435.101C1048.41 437.885 1047.97 440.815 1047.97 443.744V445.795" stroke="white" stroke-width="3" stroke-miterlimit="10"/>
<path d="M1032 445.209V495.309" stroke="white" stroke-width="3" stroke-miterlimit="10"/>
<path d="M1027.6 425.58L1030.68 435.101C1031.56 437.885 1032 440.815 1032 443.744V445.795" stroke="white" stroke-width="3" stroke-miterlimit="10"/>
<path d="M1032 486.666H1047.97" stroke="white" stroke-width="3" stroke-miterlimit="10"/>
<path d="M1032 475.826H1048.7" stroke="white" stroke-width="3" stroke-miterlimit="10"/>
<path d="M1077.85 393.791C1077.85 399.358 1060.86 403.899 1040.06 403.899C1019.25 403.899 1002.11 399.504 1002.11 393.791C1002.11 390.129 1009.29 386.906 1020.13 385.148C1026.87 366.397 1033.46 347.5 1040.2 328.603H1042.25C1048.41 347.5 1054.56 366.397 1060.71 385.295C1070.97 387.199 1077.85 390.275 1077.85 393.791Z" fill="#121212" stroke="white" stroke-width="3" stroke-miterlimit="10"/>
<path d="M1060.42 419.427C1065.4 419.427 1070.38 419.427 1075.36 419.427C1075.36 423.382 1075.36 428.509 1075.36 432.465C1070.38 432.465 1065.4 432.465 1060.42 432.611" stroke="white" stroke-width="3" stroke-miterlimit="10"/>
<path d="M1079.17 420.16L1075.8 422.21V429.681L1083.71 431.293L1086.35 428.949L1087.08 425.433L1084.15 424.994L1084.88 421.331L1079.17 420.16Z" fill="#121212" stroke="white" stroke-width="3" stroke-miterlimit="10"/>
<path d="M1081.37 399.504V419.427" stroke="white" stroke-width="3" stroke-miterlimit="10"/>
<path d="M1081.37 431.293V476.851" stroke="white" stroke-width="3" stroke-miterlimit="10"/>
<path d="M1081.37 476.851C1081.37 488.131 1081.37 499.264 1081.37 510.544C1084 510.544 1086.49 510.544 1089.13 510.544C1089.13 510.398 1089.13 510.251 1089.13 510.105C1086.49 498.971 1083.86 487.985 1081.37 476.851ZM1081.37 476.851C1078.88 487.838 1076.24 498.971 1073.75 509.958C1073.75 510.105 1073.75 510.251 1073.75 510.544C1076.24 510.544 1078.88 510.544 1081.37 510.544" stroke="white" stroke-width="3" stroke-miterlimit="10"/>
<path d="M1018.52 472.164H1023.06" stroke="white" stroke-width="3" stroke-miterlimit="10"/>
<path d="M522.292 741.44V778.559" stroke="#72C8F1" stroke-width="3" stroke-miterlimit="10"/>
<path d="M522.292 741.44V778.559" stroke="#72C8F1" stroke-width="3" stroke-miterlimit="10"/>
<path d="M464.192 782.432C461.449 782.432 459.351 780.334 459.351 777.59C459.351 774.847 461.449 772.749 464.192 772.749" fill="white"/>
<path d="M464.192 782.432C461.449 782.432 459.351 780.334 459.351 777.59C459.351 774.847 461.449 772.749 464.192 772.749" stroke="white" stroke-width="3" stroke-miterlimit="10"/>
<path d="M464.192 799.377C461.449 799.377 459.351 797.279 459.351 794.536C459.351 791.792 461.449 789.694 464.192 789.694" fill="white"/>
<path d="M464.192 799.377C461.449 799.377 459.351 797.279 459.351 794.536C459.351 791.792 461.449 789.694 464.192 789.694" stroke="white" stroke-width="3" stroke-miterlimit="10"/>
<path d="M522.292 756.287C522.453 756.287 522.453 756.287 522.292 756.287C525.035 756.287 527.133 758.385 527.133 761.129C527.133 763.872 525.035 765.97 522.292 765.97" fill="white"/>
<path d="M522.292 756.287C522.453 756.287 522.453 756.287 522.292 756.287C525.035 756.287 527.133 758.385 527.133 761.129C527.133 763.872 525.035 765.97 522.292 765.97" stroke="white" stroke-width="3" stroke-miterlimit="10"/>
<path d="M522.292 772.749C522.453 772.749 522.453 772.749 522.292 772.749C525.035 772.749 527.133 774.847 527.133 777.59C527.133 780.334 525.035 782.432 522.292 782.432" fill="white"/>
<path d="M522.292 772.749C522.453 772.749 522.453 772.749 522.292 772.749C525.035 772.749 527.133 774.847 527.133 777.59C527.133 780.334 525.035 782.432 522.292 782.432" stroke="white" stroke-width="3" stroke-miterlimit="10"/>
<path d="M522.292 789.694C522.453 789.694 522.453 789.694 522.292 789.694C525.035 789.694 527.133 791.792 527.133 794.536C527.133 797.279 525.035 799.377 522.292 799.377" fill="white"/>
<path d="M522.292 789.694C522.453 789.694 522.453 789.694 522.292 789.694C525.035 789.694 527.133 791.792 527.133 794.536C527.133 797.279 525.035 799.377 522.292 799.377" stroke="white" stroke-width="3" stroke-miterlimit="10"/>
<path d="M439.662 758.869C437.725 757.74 435.788 756.449 433.852 755.319C433.69 755.48 433.69 755.642 433.529 755.965C433.529 759.192 433.529 762.259 433.529 765.486C433.529 765.648 433.69 765.97 433.69 766.132C435.627 765.002 437.564 764.034 439.5 762.904C439.662 761.452 439.662 760.161 439.662 758.869Z" stroke="white" stroke-width="3" stroke-miterlimit="10"/>
<path d="M515.352 712.229C515.352 699.963 505.507 690.119 493.403 690.119C481.299 690.119 471.293 699.963 471.293 712.229" stroke="white" stroke-width="3" stroke-miterlimit="10"/>
<path d="M464.058 805.716L522.318 805.716L522.318 733.415L464.058 733.415L464.058 805.716Z" stroke="white" stroke-width="3" stroke-miterlimit="10"/>
<path d="M459.512 814.171L526.972 814.171L526.972 805.617L459.512 805.617L459.512 814.171Z" stroke="white" stroke-width="3" stroke-miterlimit="10"/>
<path d="M464.165 749.502L522.425 749.502L522.425 733.363L464.165 733.363L464.165 749.502Z" stroke="white" stroke-width="3" stroke-miterlimit="10"/>
<path d="M515.352 733.37V749.509" stroke="white" stroke-width="3" stroke-miterlimit="10"/>
<path d="M509.058 733.37V749.509" stroke="white" stroke-width="3" stroke-miterlimit="10"/>
<path d="M502.764 733.37V749.509" stroke="white" stroke-width="3" stroke-miterlimit="10"/>
<path d="M496.47 733.37V749.509" stroke="white" stroke-width="3" stroke-miterlimit="10"/>
<path d="M490.176 733.37V749.509" stroke="white" stroke-width="3" stroke-miterlimit="10"/>
<path d="M483.882 733.37V749.509" stroke="white" stroke-width="3" stroke-miterlimit="10"/>
<path d="M477.588 733.37V749.509" stroke="white" stroke-width="3" stroke-miterlimit="10"/>
<path d="M471.293 733.37V749.509" stroke="white" stroke-width="3" stroke-miterlimit="10"/>
<path d="M471.266 733.433L515.324 733.433L515.324 712.453L471.266 712.453L471.266 733.433Z" stroke="white" stroke-width="3" stroke-miterlimit="10"/>
<path d="M522.453 719.007H464.193" stroke="white" stroke-width="3" stroke-miterlimit="10"/>
<path d="M522.453 726.108H464.193" stroke="white" stroke-width="3" stroke-miterlimit="10"/>
<path d="M475.651 691.571L478.717 694.961" stroke="white" stroke-width="3" stroke-miterlimit="10"/>
<path d="M512.124 691.571L509.058 694.961" stroke="white" stroke-width="3" stroke-miterlimit="10"/>
<path d="M457.669 707.611L463.479 707.611L463.479 697.767L457.669 697.767L457.669 707.611Z" stroke="white" stroke-width="3" stroke-miterlimit="10"/>
<path d="M510.672 799.377C513.346 799.377 515.513 797.21 515.513 794.536C515.513 791.862 513.346 789.694 510.672 789.694C507.998 789.694 505.83 791.862 505.83 794.536C505.83 797.21 507.998 799.377 510.672 799.377Z" fill="white" stroke="white" stroke-width="3" stroke-miterlimit="10"/>
<path d="M510.672 782.432C513.346 782.432 515.513 780.264 515.513 777.59C515.513 774.916 513.346 772.749 510.672 772.749C507.998 772.749 505.83 774.916 505.83 777.59C505.83 780.264 507.998 782.432 510.672 782.432Z" fill="white" stroke="white" stroke-width="3" stroke-miterlimit="10"/>
<path d="M510.672 765.97C513.346 765.97 515.513 763.803 515.513 761.129C515.513 758.455 513.346 756.287 510.672 756.287C507.998 756.287 505.83 758.455 505.83 761.129C505.83 763.803 507.998 765.97 510.672 765.97Z" fill="white" stroke="white" stroke-width="3" stroke-miterlimit="10"/>
<path d="M493.242 799.377C495.916 799.377 498.084 797.21 498.084 794.536C498.084 791.862 495.916 789.694 493.242 789.694C490.568 789.694 488.4 791.862 488.4 794.536C488.4 797.21 490.568 799.377 493.242 799.377Z" fill="white" stroke="white" stroke-width="3" stroke-miterlimit="10"/>
<path d="M493.242 782.432C495.916 782.432 498.084 780.264 498.084 777.59C498.084 774.916 495.916 772.749 493.242 772.749C490.568 772.749 488.4 774.916 488.4 777.59C488.4 780.264 490.568 782.432 493.242 782.432Z" fill="white" stroke="white" stroke-width="3" stroke-miterlimit="10"/>
<path d="M493.242 765.97C495.916 765.97 498.084 763.803 498.084 761.129C498.084 758.455 495.916 756.287 493.242 756.287C490.568 756.287 488.4 758.455 488.4 761.129C488.4 763.803 490.568 765.97 493.242 765.97Z" fill="white" stroke="white" stroke-width="3" stroke-miterlimit="10"/>
<path d="M476.296 799.377C478.97 799.377 481.138 797.21 481.138 794.536C481.138 791.862 478.97 789.694 476.296 789.694C473.622 789.694 471.455 791.862 471.455 794.536C471.455 797.21 473.622 799.377 476.296 799.377Z" fill="white" stroke="white" stroke-width="3" stroke-miterlimit="10"/>
<path d="M476.296 782.432C478.97 782.432 481.138 780.264 481.138 777.59C481.138 774.916 478.97 772.749 476.296 772.749C473.622 772.749 471.455 774.916 471.455 777.59C471.455 780.264 473.622 782.432 476.296 782.432Z" fill="white" stroke="white" stroke-width="3" stroke-miterlimit="10"/>
<path d="M493.242 702.707H464.193" stroke="white" stroke-width="3" stroke-miterlimit="10"/>
<path d="M464.192 743.376H444.826" stroke="white" stroke-width="3" stroke-miterlimit="10"/>
<path d="M478.717 760.645H440.791" stroke="white" stroke-width="3" stroke-miterlimit="10"/>
<path d="M187.475 743.906C187.475 728.218 200.311 715.383 215.998 715.383C231.686 715.383 244.521 728.218 244.521 743.906" stroke="white" stroke-width="3" stroke-miterlimit="10"/>
<path d="M235.014 697.635C234.221 707.618 225.823 715.383 215.998 715.383C205.857 715.383 197.142 706.984 196.983 696.367" stroke="white" stroke-width="3" stroke-miterlimit="10"/>
<path d="M197.141 697.635C196.666 693.357 196.191 687.652 195.874 680.68C195.24 667.053 196.191 664.834 197.458 663.249C201.578 657.703 209.977 657.703 215.998 657.703C222.02 657.703 230.418 657.703 234.696 663.249C235.489 664.359 237.073 666.894 236.598 680.363C236.281 687.652 235.647 693.674 235.172 697.794" stroke="white" stroke-width="3" stroke-miterlimit="10"/>
<path d="M209.818 704.29C210.452 706.984 212.987 709.044 215.998 709.044C219.009 709.044 221.386 706.984 222.178 704.29" stroke="white" stroke-width="3" stroke-miterlimit="10"/>
<path d="M187.475 743.906V780.351" stroke="#66CCFF" stroke-width="3" stroke-miterlimit="10"/>
<path d="M244.521 743.906V780.351" stroke="#66CCFF" stroke-width="3" stroke-miterlimit="10"/>
<path d="M196.191 687.335C197.934 683.849 199.677 680.363 201.578 676.877C203.322 676.877 205.065 676.877 206.808 677.036C207.917 675.451 208.868 673.866 209.977 672.44C211.245 674.025 212.512 675.609 213.78 677.194C214.889 675.768 215.998 674.183 217.108 672.757C217.9 674.183 218.692 675.768 219.326 677.194C220.911 675.609 222.495 674.025 224.08 672.44C224.872 674.025 225.823 675.609 226.615 677.194C228.041 677.194 229.467 677.194 230.894 677.194C232.637 680.839 234.38 684.483 236.123 688.128" stroke="white" stroke-width="3" stroke-miterlimit="10"/>
<path d="M228.675 710.471H236.598" stroke="white" stroke-width="3" stroke-miterlimit="10"/>
<path d="M238.183 706.509V714.432" stroke="white" stroke-width="3" stroke-miterlimit="10"/>
<path d="M203.321 710.471H195.398" stroke="white" stroke-width="3" stroke-miterlimit="10"/>
<path d="M193.814 706.509V714.432" stroke="white" stroke-width="3" stroke-miterlimit="10"/>
<path d="M227.091 718.394C223.446 725.841 219.643 733.13 215.998 740.578C212.354 733.13 208.709 725.841 204.906 718.394" stroke="white" stroke-width="3" stroke-miterlimit="10"/>
<path d="M196.983 723.306C203.322 729.01 209.66 734.873 215.998 740.578" stroke="white" stroke-width="3" stroke-miterlimit="10"/>
<path d="M235.014 723.306C228.675 729.01 222.337 734.873 215.998 740.578" stroke="white" stroke-width="3" stroke-miterlimit="10"/>
<path d="M215.998 741.054V768.309" stroke="white" stroke-width="3" stroke-miterlimit="10"/>
<path d="M201.737 769.259H229.784" stroke="white" stroke-width="3" stroke-miterlimit="10"/>
<path d="M187 778.767H244.521" stroke="white" stroke-width="3" stroke-miterlimit="10"/>
<path d="M187.475 743.272V780.352" stroke="white" stroke-width="3" stroke-miterlimit="10"/>
<path d="M244.521 743.272V780.352" stroke="white" stroke-width="3" stroke-miterlimit="10"/>
<path d="M201.737 738.201V778.45" stroke="white" stroke-width="3" stroke-miterlimit="10"/>
<path d="M230.26 738.201V778.45" stroke="white" stroke-width="3" stroke-miterlimit="10"/>
<path d="M201.737 747.075V793.028M230.26 794.613V743.906V794.613Z" stroke="white" stroke-width="3" stroke-miterlimit="10"/>
<path d="M231.844 794.613H219.168V812.043L220.752 815.213H235.014C235.964 815.213 236.598 814.579 236.598 813.628V808.874C236.598 806.656 235.014 804.596 232.795 804.279L231.844 804.12V794.613Z" stroke="white" stroke-width="3" stroke-miterlimit="10"/>
<path d="M233.429 804.12H223.129C220.911 804.12 219.168 805.071 219.168 807.29V808.874" fill="white"/>
<path d="M233.429 804.12H223.129C220.911 804.12 219.168 805.071 219.168 807.29V808.874" stroke="white" stroke-width="3" stroke-miterlimit="10"/>
<path d="M200.152 794.613H212.829V813.628C212.829 814.579 212.195 815.213 211.244 815.213H193.814C192.863 815.213 192.229 814.579 192.229 813.628V808.874C192.229 806.656 193.814 804.596 196.032 804.279L200.152 804.12V794.613Z" stroke="white" stroke-width="3" stroke-miterlimit="10"/>
<path d="M244.521 778.767C244.521 780.668 244.521 782.728 244.521 784.63C243.253 785.897 241.827 787.324 240.56 788.591C237.549 788.591 234.538 788.433 231.527 788.433C232.161 787.007 232.003 787.799 232.637 785.739C231.686 785.739 231.21 785.739 230.26 785.739C230.26 784.471 230.26 780.034 230.26 778.767C235.013 778.767 239.767 778.767 244.521 778.767Z" stroke="white" stroke-width="3" stroke-miterlimit="10"/>
<path d="M187.475 778.767C187.475 780.668 187.475 782.728 187.475 784.63C188.743 785.897 190.169 787.324 191.437 788.591C194.448 788.591 197.458 788.433 200.469 788.433C199.835 787.007 199.994 787.799 199.36 785.739C200.311 785.739 200.786 785.739 201.737 785.739C201.737 784.471 201.737 780.034 201.737 778.767C196.983 778.767 192.229 778.767 187.475 778.767Z" stroke="white" stroke-width="3" stroke-miterlimit="10"/>
<path d="M204.431 684.958H227.09" stroke="white" stroke-width="3" stroke-miterlimit="10"/>
<path d="M197.3 696.367H207.124" stroke="white" stroke-width="3" stroke-miterlimit="10"/>
<path d="M202.846 692.881V700.329" stroke="white" stroke-width="3" stroke-miterlimit="10"/>
<path d="M212.829 794.613V779.084" stroke="white" stroke-width="3" stroke-miterlimit="10"/>
<path d="M219.168 794.613V779.084" stroke="white" stroke-width="3" stroke-miterlimit="10"/>
<path d="M796.17 789.161L793.195 780.124M793.195 780.124L788.957 767.248V744.836C788.957 729.148 776.121 716.313 760.434 716.313C744.746 716.313 731.911 729.148 731.911 744.836V764.709L730.374 765.496L721.002 752.628M793.195 780.124L801.3 783.214M793.195 780.124L800.018 775.285M714.055 743.316L721.002 752.628M721.002 740.06V752.628M721.002 752.628L710.148 750.697" stroke="white" stroke-width="3" stroke-miterlimit="10"/>
<path d="M754.783 705.613C755.483 708.213 757.783 710.113 760.583 710.113C763.383 710.113 765.683 708.213 766.383 705.613" stroke="white" stroke-width="3" stroke-miterlimit="10"/>
<path d="M778.383 698.513C778.385 698.631 778.385 698.75 778.383 698.868M778.383 698.868C778.285 708.41 770.262 716.313 760.483 716.313C750.583 716.313 742.483 708.213 742.483 698.313V682.402H778.383V698.868Z" stroke="white" stroke-width="3" stroke-miterlimit="10"/>
<rect x="742.483" y="653.045" width="35.9009" height="29.3577" stroke="white" stroke-width="3"/>
<path d="M763.432 697.204V699.358L772.709 698.426L763.432 697.204Z" stroke="white" stroke-width="3"/>
<path d="M760.289 731.429C760.837 731.429 761.189 731.782 761.189 732.329C761.189 732.811 760.803 733.228 760.289 733.229C759.807 733.229 759.389 732.843 759.389 732.329C759.389 731.847 759.776 731.429 760.289 731.429Z" stroke="white" stroke-width="2"/>
<path d="M760.289 740.387C760.837 740.387 761.189 740.74 761.189 741.287C761.189 741.769 760.803 742.186 760.289 742.187C759.807 742.187 759.389 741.801 759.389 741.287C759.389 740.805 759.776 740.387 760.289 740.387Z" stroke="white" stroke-width="2"/>
<path d="M760.289 749.345C760.837 749.345 761.189 749.698 761.189 750.245C761.189 750.727 760.803 751.144 760.289 751.145C759.807 751.145 759.389 750.759 759.389 750.245C759.389 749.763 759.776 749.345 760.289 749.345Z" stroke="white" stroke-width="2"/>
<line x1="732.537" y1="681.836" x2="788.229" y2="681.836" stroke="white" stroke-width="3"/>
<path d="M736.943 754.524L742.171 765.578C730.037 785.234 728.87 796.254 742.171 815.91L759.375 815.91" stroke="white" stroke-width="3"/>
<path d="M783.987 754.524L778.759 765.578C790.893 785.234 792.06 796.254 778.759 815.91L755.891 815.91" stroke="white" stroke-width="3"/>
<path d="M1058.35 708.213C1058.35 718.113 1050.25 726.213 1040.35 726.213C1030.45 726.213 1022.35 718.113 1022.35 708.213V702.713" stroke="white" stroke-width="3" stroke-miterlimit="10"/>
<path d="M1022.35 702.713C1022.35 692.813 1030.45 684.713 1040.35 684.713C1050.25 684.713 1058.35 692.813 1058.35 702.713V709.613" stroke="white" stroke-width="3" stroke-miterlimit="10"/>
<path d="M1030.75 786.113V809.613H1029.94L1023.99 803.407H1022.35L1022.35 815.213H1036.75V786.113" stroke="white" stroke-width="3" stroke-miterlimit="10"/>
<path d="M1050.32 786.113V809.613H1051.13L1057.08 803.407H1058.72L1058.72 815.213H1044.32V786.113" stroke="white" stroke-width="3" stroke-miterlimit="10"/>
<path d="M1046.35 709.013C1047.01 709.013 1047.55 709.55 1047.55 710.213C1047.55 710.875 1047.01 711.413 1046.35 711.413C1045.69 711.413 1045.15 710.876 1045.15 710.213C1045.15 709.55 1045.69 709.013 1046.35 709.013Z" fill="white" stroke="white" stroke-width="2"/>
<path d="M1040.35 740.513C1041.01 740.513 1041.55 741.05 1041.55 741.713C1041.55 742.375 1041.01 742.913 1040.35 742.913C1039.69 742.913 1039.15 742.376 1039.15 741.713C1039.15 741.05 1039.69 740.513 1040.35 740.513Z" stroke="white" stroke-width="2"/>
<path d="M1040.35 749.563C1041.01 749.563 1041.55 750.1 1041.55 750.763C1041.55 751.425 1041.01 751.963 1040.35 751.963C1039.69 751.963 1039.15 751.425 1039.15 750.763C1039.15 750.1 1039.69 749.563 1040.35 749.563Z" stroke="white" stroke-width="2"/>
<path d="M1032.75 709.013C1033.41 709.013 1033.95 709.55 1033.95 710.213C1033.95 710.876 1033.41 711.413 1032.75 711.413C1032.09 711.413 1031.55 710.876 1031.55 710.213C1031.55 709.55 1032.09 709.013 1032.75 709.013Z" fill="white" stroke="white" stroke-width="2"/>
<path d="M1058.35 706.838H1056.85C1052.65 703.838 1050.05 698.738 1048.65 693.338H1047.85C1042.75 701.238 1033.85 707.538 1024.45 707.538H1023.15" stroke="white" stroke-width="3" stroke-miterlimit="10"/>
<path d="M1029.75 792.013H1036.55" stroke="white" stroke-width="3" stroke-miterlimit="10"/>
<path d="M1051.32 792.013H1044.52" stroke="white" stroke-width="3" stroke-miterlimit="10"/>
<path d="M1033.35 770.813L1025.35 777.013V786.013L1056.32 786.32V764.437" stroke="white" stroke-width="3" stroke-miterlimit="10"/>
<path d="M1016.35 750.713C1016.35 737.413 1027.05 726.713 1040.35 726.713C1053.65 726.713 1064.35 737.413 1064.35 750.713V773.913" stroke="white" stroke-width="3" stroke-miterlimit="10"/>
<path d="M1016.35 750.713V765.013L1026.05 777.713" stroke="white" stroke-width="3" stroke-miterlimit="10"/>
<path d="M1020.05 738.013C1023.35 740.913 1025.25 745.013 1025.25 749.413V750.713H1023.75L1022.25 763.513L1026.75 770.313C1028.55 770.313 1030.25 771.313 1031.05 773.013L1031.25 773.313" stroke="white" stroke-width="3" stroke-miterlimit="10"/>
<path d="M1060.55 738.013C1057.25 740.913 1055.35 745.013 1055.35 749.413V750.713H1056.85L1058.35 763.513V771.713" stroke="white" stroke-width="3" stroke-miterlimit="10"/>
<line x1="1022.35" y1="764.314" x2="1057.95" y2="764.314" stroke="white" stroke-width="3"/>
<line x1="1026.53" y1="770.213" x2="1057.19" y2="770.213" stroke="white" stroke-width="3"/>
<path d="M1057.51 697.163C1057.51 697.163 1050.27 690.487 1040.13 690.487C1029.99 690.487 1022.75 697.163 1022.75 697.163C1022.75 682.477 1034.34 666.011 1040.13 666.011C1046.6 666.011 1057.51 682.477 1057.51 697.163Z" fill="black" stroke="white" stroke-width="3" stroke-miterlimit="10"/>
<circle cx="1040.35" cy="661.027" r="3.97228" fill="white"/>
<path d="M1055.43 683.679L1052.8 687.969L1052.24 687.792L1049.31 682.936L1045.88 685.317L1044.85 685.141L1040.83 679.284H1039.57L1035.96 685.141H1035.07L1031.49 682.455L1028.94 687.684L1028.13 688.042L1025.13 683.527" stroke="white" stroke-width="3"/>
<path d="M1023.51 733.647L1031.62 732.057L1032.57 732.243L1031.62 738.195H1033.56L1039.7 732.057L1041 732.057L1047.14 738.195H1049.08L1047.97 732.539L1049.08 732.057L1057.14 733.647" stroke="white" stroke-width="3"/>
<path d="M1056.32 773.913V778.256H1058.2V781.288H1062.22L1064.35 778.092V773.913" stroke="white" stroke-width="3" stroke-miterlimit="10"/>
<g clip-path="url(#clip0_19_1434)">
<path d="M189.693 116.297C188.427 116.953 186.853 117.281 184.97 117.281C182.533 117.281 180.58 116.512 179.111 114.973C177.642 113.434 176.908 111.414 176.908 108.914C176.908 106.227 177.732 104.055 179.38 102.398C181.037 100.742 183.126 99.9141 185.65 99.9141C187.275 99.9141 188.623 100.145 189.693 100.605V103.371C188.56 102.699 187.31 102.363 185.943 102.363C184.123 102.363 182.646 102.945 181.513 104.109C180.388 105.273 179.826 106.828 179.826 108.773C179.826 110.625 180.353 112.102 181.408 113.203C182.462 114.297 183.849 114.844 185.568 114.844C187.154 114.844 188.529 114.469 189.693 113.719V116.297ZM203.24 117H200.521V110.438C200.521 108.062 199.728 106.875 198.142 106.875C197.345 106.875 196.673 107.219 196.126 107.906C195.58 108.594 195.306 109.473 195.306 110.543V117H192.576V99.2344H195.306V106.992H195.353C196.259 105.477 197.556 104.719 199.244 104.719C201.908 104.719 203.24 106.348 203.24 109.605V117ZM215.755 117H213.119V115.125H213.072C212.244 116.562 211.029 117.281 209.427 117.281C208.248 117.281 207.322 116.961 206.65 116.32C205.986 115.68 205.654 114.832 205.654 113.777C205.654 111.512 206.958 110.191 209.568 109.816L213.13 109.312C213.13 107.602 212.318 106.746 210.693 106.746C209.263 106.746 207.974 107.238 206.826 108.223V105.844C208.091 105.094 209.552 104.719 211.208 104.719C214.24 104.719 215.755 106.211 215.755 109.195V117ZM213.13 111.105L210.611 111.457C209.83 111.559 209.24 111.75 208.841 112.031C208.451 112.305 208.255 112.789 208.255 113.484C208.255 113.992 208.435 114.41 208.794 114.738C209.162 115.059 209.65 115.219 210.259 115.219C211.087 115.219 211.771 114.93 212.31 114.352C212.857 113.766 213.13 113.031 213.13 112.148V111.105ZM226.044 107.59C225.716 107.332 225.244 107.203 224.626 107.203C223.822 107.203 223.15 107.566 222.611 108.293C222.072 109.02 221.802 110.008 221.802 111.258V117H219.083V105H221.802V107.473H221.849C222.115 106.629 222.521 105.973 223.068 105.504C223.623 105.027 224.24 104.789 224.919 104.789C225.412 104.789 225.787 104.863 226.044 105.012V107.59ZM237.177 117H234.541V115.125H234.494C233.666 116.562 232.451 117.281 230.849 117.281C229.669 117.281 228.744 116.961 228.072 116.32C227.408 115.68 227.076 114.832 227.076 113.777C227.076 111.512 228.38 110.191 230.99 109.816L234.552 109.312C234.552 107.602 233.74 106.746 232.115 106.746C230.685 106.746 229.396 107.238 228.248 108.223V105.844C229.513 105.094 230.974 104.719 232.63 104.719C235.662 104.719 237.177 106.211 237.177 109.195V117ZM234.552 111.105L232.033 111.457C231.251 111.559 230.662 111.75 230.263 112.031C229.873 112.305 229.677 112.789 229.677 113.484C229.677 113.992 229.857 114.41 230.216 114.738C230.583 115.059 231.072 115.219 231.681 115.219C232.509 115.219 233.193 114.93 233.732 114.352C234.279 113.766 234.552 113.031 234.552 112.148V111.105ZM249.095 116.449C248.134 117.004 246.998 117.281 245.685 117.281C243.904 117.281 242.466 116.727 241.373 115.617C240.279 114.5 239.732 113.055 239.732 111.281C239.732 109.305 240.318 107.719 241.49 106.523C242.669 105.32 244.244 104.719 246.212 104.719C247.306 104.719 248.271 104.91 249.107 105.293V107.824C248.271 107.199 247.38 106.887 246.435 106.887C245.287 106.887 244.345 107.277 243.611 108.059C242.876 108.832 242.509 109.848 242.509 111.105C242.509 112.348 242.853 113.328 243.541 114.047C244.236 114.766 245.166 115.125 246.33 115.125C247.306 115.125 248.228 114.777 249.095 114.082V116.449ZM258.13 116.871C257.599 117.137 256.9 117.27 256.033 117.27C253.705 117.27 252.541 116.152 252.541 113.918V107.133H250.537V105H252.541V102.223L255.259 101.449V105H258.13V107.133H255.259V113.133C255.259 113.844 255.388 114.352 255.646 114.656C255.904 114.961 256.333 115.113 256.935 115.113C257.396 115.113 257.794 114.98 258.13 114.715V116.871ZM270.494 111.738H262.314C262.345 112.848 262.685 113.703 263.333 114.305C263.99 114.906 264.888 115.207 266.029 115.207C267.31 115.207 268.486 114.824 269.556 114.059V116.25C268.462 116.938 267.017 117.281 265.22 117.281C263.455 117.281 262.068 116.738 261.06 115.652C260.06 114.559 259.56 113.023 259.56 111.047C259.56 109.18 260.111 107.66 261.212 106.488C262.322 105.309 263.697 104.719 265.337 104.719C266.978 104.719 268.248 105.246 269.146 106.301C270.044 107.355 270.494 108.82 270.494 110.695V111.738ZM267.869 109.816C267.861 108.84 267.63 108.082 267.177 107.543C266.724 106.996 266.099 106.723 265.302 106.723C264.521 106.723 263.857 107.008 263.31 107.578C262.771 108.148 262.439 108.895 262.314 109.816H267.869ZM280.044 107.59C279.716 107.332 279.244 107.203 278.626 107.203C277.822 107.203 277.15 107.566 276.611 108.293C276.072 109.02 275.802 110.008 275.802 111.258V117H273.083V105H275.802V107.473H275.849C276.115 106.629 276.521 105.973 277.068 105.504C277.623 105.027 278.24 104.789 278.919 104.789C279.412 104.789 279.787 104.863 280.044 105.012V107.59ZM281.38 116.625V114.105C282.396 114.879 283.517 115.266 284.744 115.266C286.384 115.266 287.205 114.781 287.205 113.812C287.205 113.539 287.134 113.309 286.994 113.121C286.853 112.926 286.662 112.754 286.419 112.605C286.185 112.457 285.904 112.324 285.576 112.207C285.255 112.09 284.896 111.957 284.498 111.809C284.005 111.613 283.56 111.406 283.162 111.188C282.771 110.969 282.443 110.723 282.177 110.449C281.919 110.168 281.724 109.852 281.591 109.5C281.458 109.148 281.392 108.738 281.392 108.27C281.392 107.691 281.529 107.184 281.802 106.746C282.076 106.301 282.443 105.93 282.904 105.633C283.365 105.328 283.888 105.102 284.474 104.953C285.06 104.797 285.666 104.719 286.291 104.719C287.4 104.719 288.392 104.887 289.267 105.223V107.602C288.423 107.023 287.455 106.734 286.361 106.734C286.017 106.734 285.705 106.77 285.423 106.84C285.15 106.91 284.916 107.008 284.72 107.133C284.525 107.258 284.373 107.41 284.263 107.59C284.154 107.762 284.099 107.953 284.099 108.164C284.099 108.422 284.154 108.641 284.263 108.82C284.373 109 284.533 109.16 284.744 109.301C284.962 109.434 285.22 109.559 285.517 109.676C285.822 109.785 286.169 109.906 286.56 110.039C287.076 110.25 287.537 110.465 287.943 110.684C288.357 110.902 288.708 111.152 288.998 111.434C289.287 111.707 289.509 112.027 289.666 112.395C289.822 112.754 289.9 113.184 289.9 113.684C289.9 114.293 289.759 114.824 289.478 115.277C289.197 115.73 288.822 116.105 288.353 116.402C287.884 116.699 287.341 116.918 286.724 117.059C286.115 117.207 285.47 117.281 284.791 117.281C283.478 117.281 282.341 117.062 281.38 116.625Z" fill="white" fill-opacity="0.8956"/>
<path d="M180.236 218.773V209.203C181.095 209.984 182.111 210.688 183.283 211.312C184.481 211.938 185.744 212.471 187.072 212.914C188.4 213.331 189.728 213.656 191.056 213.891C192.384 214.125 193.608 214.242 194.728 214.242C198.634 214.242 201.538 213.591 203.439 212.289C205.366 210.987 206.33 209.099 206.33 206.625C206.33 205.297 206.004 204.151 205.353 203.188C204.728 202.198 203.843 201.299 202.697 200.492C201.551 199.685 200.197 198.917 198.634 198.188C197.098 197.432 195.444 196.651 193.673 195.844C191.772 194.828 190.001 193.799 188.361 192.758C186.72 191.716 185.288 190.57 184.064 189.32C182.866 188.044 181.916 186.612 181.212 185.023C180.535 183.435 180.197 181.573 180.197 179.438C180.197 176.807 180.783 174.529 181.955 172.602C183.153 170.648 184.715 169.047 186.642 167.797C188.595 166.521 190.809 165.583 193.283 164.984C195.757 164.359 198.283 164.047 200.861 164.047C206.72 164.047 210.991 164.711 213.673 166.039V175.219C210.496 172.927 206.408 171.781 201.408 171.781C200.028 171.781 198.647 171.911 197.267 172.172C195.913 172.432 194.689 172.862 193.595 173.461C192.528 174.06 191.655 174.828 190.978 175.766C190.301 176.703 189.962 177.836 189.962 179.164C189.962 180.414 190.223 181.495 190.744 182.406C191.264 183.318 192.02 184.151 193.009 184.906C194.025 185.661 195.249 186.404 196.681 187.133C198.139 187.836 199.819 188.604 201.72 189.438C203.673 190.453 205.509 191.521 207.228 192.641C208.973 193.76 210.496 194.997 211.798 196.352C213.126 197.706 214.168 199.216 214.923 200.883C215.705 202.523 216.095 204.398 216.095 206.508C216.095 209.346 215.522 211.742 214.376 213.695C213.231 215.648 211.681 217.237 209.728 218.461C207.801 219.685 205.574 220.57 203.048 221.117C200.522 221.664 197.853 221.938 195.041 221.938C194.103 221.938 192.944 221.859 191.564 221.703C190.21 221.573 188.817 221.365 187.384 221.078C185.952 220.818 184.598 220.492 183.322 220.102C182.046 219.711 181.017 219.268 180.236 218.773ZM259.259 203.461H231.994C232.098 207.159 233.231 210.01 235.392 212.016C237.58 214.021 240.574 215.023 244.376 215.023C248.647 215.023 252.567 213.747 256.134 211.195V218.5C252.488 220.792 247.671 221.938 241.681 221.938C235.796 221.938 231.173 220.128 227.814 216.508C224.481 212.862 222.814 207.745 222.814 201.156C222.814 194.932 224.65 189.867 228.322 185.961C232.02 182.029 236.603 180.062 242.072 180.062C247.541 180.062 251.772 181.82 254.767 185.336C257.762 188.852 259.259 193.734 259.259 199.984V203.461ZM250.509 197.055C250.483 193.799 249.715 191.273 248.205 189.477C246.694 187.654 244.611 186.742 241.955 186.742C239.35 186.742 237.137 187.693 235.314 189.594C233.517 191.495 232.41 193.982 231.994 197.055H250.509ZM298.595 221H289.806V214.75H289.65C286.889 219.542 282.84 221.938 277.501 221.938C273.569 221.938 270.483 220.87 268.244 218.734C266.03 216.599 264.923 213.773 264.923 210.258C264.923 202.706 269.272 198.305 277.97 197.055L289.845 195.375C289.845 189.672 287.137 186.82 281.72 186.82C276.955 186.82 272.658 188.461 268.83 191.742V183.812C273.048 181.312 277.918 180.062 283.439 180.062C293.543 180.062 298.595 185.036 298.595 194.984V221ZM289.845 201.352L281.447 202.523C278.843 202.862 276.876 203.5 275.548 204.438C274.246 205.349 273.595 206.964 273.595 209.281C273.595 210.974 274.194 212.367 275.392 213.461C276.616 214.529 278.244 215.062 280.275 215.062C283.035 215.062 285.314 214.099 287.111 212.172C288.934 210.219 289.845 207.771 289.845 204.828V201.352ZM307.189 219.75V211.352C310.574 213.93 314.311 215.219 318.4 215.219C323.869 215.219 326.603 213.604 326.603 210.375C326.603 209.464 326.369 208.695 325.9 208.07C325.431 207.419 324.793 206.846 323.986 206.352C323.205 205.857 322.267 205.414 321.173 205.023C320.106 204.633 318.908 204.19 317.58 203.695C315.939 203.044 314.455 202.354 313.126 201.625C311.824 200.896 310.731 200.076 309.845 199.164C308.986 198.227 308.335 197.172 307.892 196C307.449 194.828 307.228 193.461 307.228 191.898C307.228 189.971 307.684 188.279 308.595 186.82C309.507 185.336 310.731 184.099 312.267 183.109C313.804 182.094 315.548 181.339 317.501 180.844C319.455 180.323 321.473 180.062 323.556 180.062C327.254 180.062 330.561 180.622 333.478 181.742V189.672C330.666 187.745 327.436 186.781 323.791 186.781C322.645 186.781 321.603 186.898 320.666 187.133C319.754 187.367 318.973 187.693 318.322 188.109C317.671 188.526 317.163 189.034 316.798 189.633C316.434 190.206 316.251 190.844 316.251 191.547C316.251 192.406 316.434 193.135 316.798 193.734C317.163 194.333 317.697 194.867 318.4 195.336C319.129 195.779 319.988 196.195 320.978 196.586C321.994 196.951 323.153 197.354 324.455 197.797C326.173 198.5 327.71 199.216 329.064 199.945C330.444 200.674 331.616 201.508 332.58 202.445C333.543 203.357 334.285 204.424 334.806 205.648C335.327 206.846 335.587 208.279 335.587 209.945C335.587 211.977 335.119 213.747 334.181 215.258C333.244 216.768 331.994 218.018 330.431 219.008C328.869 219.997 327.059 220.727 325.001 221.195C322.97 221.69 320.822 221.938 318.556 221.938C314.181 221.938 310.392 221.208 307.189 219.75ZM361.955 221.938C355.783 221.938 350.848 220.076 347.15 216.352C343.478 212.602 341.642 207.641 341.642 201.469C341.642 194.75 343.556 189.503 347.384 185.727C351.238 181.951 356.421 180.062 362.931 180.062C369.181 180.062 374.051 181.898 377.541 185.57C381.03 189.242 382.775 194.333 382.775 200.844C382.775 207.224 380.887 212.341 377.111 216.195C373.361 220.023 368.309 221.938 361.955 221.938ZM362.384 187.289C358.843 187.289 356.043 188.526 353.986 191C351.929 193.474 350.9 196.885 350.9 201.234C350.9 205.427 351.942 208.734 354.025 211.156C356.108 213.552 358.895 214.75 362.384 214.75C365.952 214.75 368.686 213.565 370.587 211.195C372.514 208.826 373.478 205.453 373.478 201.078C373.478 196.677 372.514 193.279 370.587 190.883C368.686 188.487 365.952 187.289 362.384 187.289ZM427.658 221H418.595V198.461C418.595 190.987 415.952 187.25 410.666 187.25C407.905 187.25 405.626 188.292 403.83 190.375C402.033 192.432 401.134 195.036 401.134 198.188V221H392.033V181H401.134V187.641H401.291C404.285 182.589 408.608 180.062 414.259 180.062C418.608 180.062 421.929 181.482 424.22 184.32C426.512 187.133 427.658 191.208 427.658 196.547V221ZM469.455 221H460.666V214.75H460.509C457.749 219.542 453.699 221.938 448.361 221.938C444.429 221.938 441.343 220.87 439.103 218.734C436.889 216.599 435.783 213.773 435.783 210.258C435.783 202.706 440.132 198.305 448.83 197.055L460.705 195.375C460.705 189.672 457.996 186.82 452.58 186.82C447.814 186.82 443.517 188.461 439.689 191.742V183.812C443.908 181.312 448.778 180.062 454.298 180.062C464.403 180.062 469.455 185.036 469.455 194.984V221ZM460.705 201.352L452.306 202.523C449.702 202.862 447.736 203.5 446.408 204.438C445.106 205.349 444.455 206.964 444.455 209.281C444.455 210.974 445.054 212.367 446.251 213.461C447.475 214.529 449.103 215.062 451.134 215.062C453.895 215.062 456.173 214.099 457.97 212.172C459.793 210.219 460.705 207.771 460.705 204.828V201.352ZM489.65 221H480.548V161.781H489.65V221Z" fill="white" fill-opacity="0.8956"/>
</g>
<defs>
<clipPath id="clip0_19_1434">
<rect width="943" height="171" fill="white" transform="translate(175.9 96)"/>
</clipPath>
</defs>
</svg>
