<svg width="1253" height="2010" viewBox="0 0 1253 2010" fill="none" version="1.1" id="svg386" xmlns="http://www.w3.org/2000/svg" style="--stroke-color:#000000;--fill-color:#000000;--bg-color:transparent;fill:none" xmlns:xlink="http://www.w3.org/1999/xlink"><title>Socially Distanced Characters Collection</title><desc>A collection of diverse character illustrations showing people maintaining social distance, depicted in various poses and activities in a minimalist line art style.</desc><style>path{stroke:var(--stroke-color)}[fill=black]{fill:var(--fill-color)}[stroke=none]{stroke:none}@media (prefers-color-scheme:dark){svg{--stroke-color:#FFFFFF;--fill-color:#FFFFFF;--bg-color:transparent}}path[stroke-width=&quot;3&quot;]{stroke-width:3}</style><g id="g397"><g id="character-1"><title id="title1">Face Masks</title><desc>Three protective face masks representing personal protective equipment and COVID-19 safety measures.</desc><path d="M220.15 1385.65v6.1c0 9.9-8.1 18-18 18s-18-8.1-18-18v-7.6" stroke="#000" stroke-width="3" stroke-miterlimit="10" id="path1"/><path d="M184.15 1379.65s7.5-3 18-3 18 4.5 18 4.5v7.5s-7.5-4.5-18-4.5-18 3-18 3z" stroke="#000" stroke-width="3" stroke-miterlimit="10" id="path2"/><path d="m220.15 1388.65 12-13.5v-1.5l-30-13.5-30 13.5v1.5l12 15" stroke="#000" stroke-width="3" stroke-miterlimit="10" id="path3"/><path d="M172.15 1388.65v-13.5" stroke="#000" stroke-width="3" stroke-miterlimit="10" id="path4"/><path d="M172.15 1399.15v-7.5" stroke="#000" stroke-width="3" stroke-miterlimit="10" id="path5"/><path d="m196.15 1411.15 6 9 6-9" stroke="#000" stroke-width="3" stroke-miterlimit="10" id="path6"/><path d="m224.65 1421.65-22.5 18-22.5-18" stroke="#000" stroke-width="3" stroke-miterlimit="10" id="path7"/><path d="M188.65 1429.15v75h21v-3h6v-36.7" stroke="#000" stroke-width="3" stroke-miterlimit="10" id="path8"/><path d="m219.05 1438.47-25.455 18.55 3.534 4.85 25.455-18.56z" stroke="#000" stroke-width="3" stroke-miterlimit="10" id="path9"/><path d="M209.65 1504.15v-19.5" stroke="#000" stroke-width="3" stroke-miterlimit="10" id="path10"/><path d="M182.65 1470.45v2.2l1.5 4.5h4.1" stroke="#000" stroke-width="3" stroke-miterlimit="10" id="path11"/><path d="m202.95 1457.85 3.8 2.2 3.7-2.4 5.2 7.5 13.5-13.5v-14.9c0-14.9-12.1-27-27-27s-27 12.1-27 27v34.4h13.1" stroke="#000" stroke-width="3" stroke-miterlimit="10" id="path12"/><path d="M202.15 1418.65v27" stroke="#000" stroke-width="3" stroke-miterlimit="10" id="path13"/><path d="M202.15 1390.81c1.769 0 4.086.5 6.048 1.05.945.26 1.776.52 2.375.72v10.77c-.599.19-1.418.42-2.347.66-1.966.5-4.296.96-6.076.96-1.781 0-4.111-.46-6.077-.96-.929-.24-1.747-.47-2.346-.66v-10.77c.599-.2 1.429-.46 2.374-.72 1.962-.55 4.279-1.05 6.049-1.05Z" stroke="#000" stroke-width="3" id="path14"/><path stroke="#000" stroke-width="2" id="line14" d="M196.405 1396.05h11.49"/><path stroke="#000" stroke-width="2" id="line15" d="M211.164 1396.89h7.301"/><path stroke="#000" stroke-width="2" id="line16" d="M184.999 1396.89h7.302"/><path stroke="#000" stroke-width="2" id="line17" d="M211.164 1400.65h5.887"/><path stroke="#000" stroke-width="2" id="line18" d="M186.562 1400.65h6.575"/><path stroke="#000" stroke-width="2" id="line19" d="M196.405 1399.81h11.49"/></g></g><g id="g389"><path d="M209.084 384.596c1.77 0 4.087.503 6.049 1.048.945.262 1.775.525 2.375.725v10.774a53 53 0 0 1-2.348.653c-1.965.498-4.295.961-6.076.961s-4.11-.463-6.076-.961a54 54 0 0 1-2.347-.653v-10.774c.6-.2 1.43-.463 2.374-.725 1.963-.545 4.279-1.048 6.049-1.048Z" stroke="#000" stroke-width="3" id="path19"/><path stroke="#000" stroke-width="2" id="line20" d="M203.34 389.837h11.49"/><path stroke="#000" stroke-width="2" id="line21" d="M218.098 390.677h7.302"/><path stroke="#000" stroke-width="2" id="line22" d="M191.934 390.677h7.301"/><path stroke="#000" stroke-width="2" id="line23" d="M218.098 394.435h5.888"/><path stroke="#000" stroke-width="2" id="line24" d="M193.496 394.435h6.575"/><path stroke="#000" stroke-width="2" id="line25" d="M203.34 393.595h11.49"/></g><g id="g391"><path d="M209.084 462.161c1.77 0 4.087.503 6.049 1.048.945.263 1.775.525 2.375.725v10.774c-.599.181-1.418.418-2.348.654-1.965.497-4.295.961-6.076.961-1.78-.001-4.11-.464-6.076-.961a55 55 0 0 1-2.347-.654v-10.774c.6-.2 1.43-.462 2.374-.725 1.963-.545 4.279-1.048 6.049-1.048Z" stroke="#000" stroke-width="3" id="path25"/><path stroke="#000" stroke-width="2" id="line26" d="M203.34 467.402h11.49"/><path stroke="#000" stroke-width="2" id="line27" d="M218.098 468.242h7.302"/><path stroke="#000" stroke-width="2" id="line28" d="M191.934 468.242h7.301"/><path stroke="#000" stroke-width="2" id="line29" d="M218.098 472h5.888"/><path stroke="#000" stroke-width="2" id="line30" d="M193.496 472h6.575"/><path stroke="#000" stroke-width="2" id="line31" d="M203.34 471.16h11.49"/></g><g id="g392"><path d="M198.4 736.564c0 4.2 3.4 7.6 7.6 7.6s7.6-3.4 7.6-7.6" stroke="#000" stroke-width="3" stroke-miterlimit="10" id="path31"/><path d="M221.5 700.564c1.5 2.6 2.4 5.7 2.4 9v9" stroke="#000" stroke-width="3" stroke-miterlimit="10" id="path32"/><path d="M210.4 692.164c2.2.6 4.2 1.5 6 2.8" stroke="#000" stroke-width="3" stroke-miterlimit="10" id="path33"/><path d="M195.4 694.964c1.8-1.3 3.8-2.2 6-2.8" stroke="#000" stroke-width="3" stroke-miterlimit="10" id="path34"/><path d="M187.9 718.564v-9c0-3.7 1.1-7.1 3-10" stroke="#000" stroke-width="3" stroke-miterlimit="10" id="path35"/><path d="M232.9 775.764v-12c0-14.9-12.1-27-27-27s-27 12.1-27 27" stroke="#000" stroke-width="3" stroke-miterlimit="10" id="path36"/><path d="M189.4 742.564s.1 0 0 0" stroke="#000" stroke-width="3" stroke-linecap="round" stroke-linejoin="round" id="path37"/><path d="M190.9 745.164c2 2.7 6.3 6.4 15 6.4 10.2 0 14.4-5.1 15.8-7.6" stroke="#000" stroke-width="3" stroke-linecap="round" stroke-linejoin="round" stroke-dasharray=".15 .15" id="path38"/><path d="M222.4 742.664q0-.15 0 0" stroke="#000" stroke-width="3" stroke-linecap="round" stroke-linejoin="round" id="path39"/><path d="M188.3 785.564c-1.4 1.6-2.6 3.7-2.6 6.6v43.7h40.5v-43.7c0-2.5-.9-4.5-2.1-6" stroke="#000" stroke-width="3" stroke-miterlimit="10" id="path40"/><path d="M193.9 712.564s3-3 6-3 6 3 6 3 3-3 6-3 6 3 6 3" stroke="#000" stroke-width="3" stroke-miterlimit="10" id="path41"/><path d="m205.9 697.564-7.5-9 1.5-1.5 3 1.5 3-4.5 3 4.5 3-1.5 1.5 1.5z" stroke="#000" stroke-width="3" stroke-miterlimit="10" id="path42"/><path d="M222.8 699.464c-1.5 1.5-3.8 1.5-5.3 0s-1.5-3.8 0-5.3c.6-.6 1.9-2.6 1.9-2.6l1.5 1.5h3v3l1.5 1.5s-1.8 1.1-2.6 1.9Z" stroke="#000" stroke-width="3" stroke-miterlimit="10" id="path43"/><path d="M189 699.464c1.5 1.5 3.8 1.5 5.3 0s1.5-3.8 0-5.3c-.6-.6-1.9-2.6-1.9-2.6l-1.5 1.5h-3v3l-1.5 1.5s1.9 1.1 2.6 1.9Z" stroke="#000" stroke-width="3" stroke-miterlimit="10" id="path44"/><path d="M214.9 759.864c0-1.2-1-2.2-2.2-2.2-2.2 0-2.2 3-2.2 3s0-3-2.2-3c-1.2 0-2.2 1-2.2 2.2 0 3.8 4.5 6.8 4.5 6.8s4.3-3.1 4.3-6.8Z" stroke="#000" stroke-width="3" stroke-miterlimit="10" id="path45"/><path d="M190.2 829.764h31.5" stroke="#000" stroke-width="3" stroke-miterlimit="10" stroke-linecap="round" stroke-linejoin="round" stroke-dasharray=".15 .15" id="path46"/><path d="M223.9 711.064v7c0 9.9-7.8 18.4-17.7 18.6-10.1.2-18.3-7.9-18.3-18v-9.1s15-7.9 17.6-11.5l.4-.5 1 1.4c2.3 3 17 10.6 17 10.6" stroke="#000" stroke-width="3" stroke-miterlimit="10" id="path47"/><path d="M186.4 765.264v12h17.3l2.2 1.5" stroke="#000" stroke-width="3" stroke-miterlimit="10" id="path48"/><path d="M232.9 763.564v18l-1.3 1.7-18.2 6v-6h-3.7l-4.5 6h-1.5l-6-3" stroke="#000" stroke-width="3" stroke-miterlimit="10" id="path49"/><path d="M225.4 765.264v12h-17.2l-6.8 4.5-3.7 4.5v3.8l-17.4-6.8-1.4-1.7v-18" stroke="#000" stroke-width="3" stroke-miterlimit="10" id="path50"/><path d="M206.264 716.393c1.924 0 4.427.509 6.53 1.055 1.034.268 1.94.537 2.587.738l.008.002v10.731c-.648.184-1.547.427-2.57.669-2.107.499-4.622.966-6.555.966s-4.448-.467-6.555-.966a61 61 0 0 1-2.57-.669v-10.731l.009-.002c.647-.201 1.553-.47 2.587-.738 2.103-.546 4.605-1.055 6.529-1.055Z" stroke="#000" stroke-width="3" id="path51"/><path stroke="#000" stroke-width="2" id="line51" d="M200.113 721.633h12.302"/><g id="character-2"><title id="title51">Woman in Karate Outfit</title><desc>Woman wearing a karate gi or martial arts uniform with face mask, representing fitness and sports activities.</desc><path stroke="#000" stroke-width="2" id="line52" d="M215.915 722.473h7.818"/><path stroke="#000" stroke-width="2" id="line53" d="M187.9 722.473h7.818"/><path stroke="#000" stroke-width="2" id="line54" d="M215.915 726.232h6.304"/><path stroke="#000" stroke-width="2" id="line55" d="M189.573 726.232h7.04"/><path stroke="#000" stroke-width="2" id="line56" d="M200.113 725.392h12.302"/></g></g><g id="g395"><g id="character-3"><title id="title56">Person with Dog</title><desc>Person with face mask walking with a dog, representing pet care and outdoor activities.</desc><path d="M1068.15 1458.16h11.2v-28.9c0-14.9-12.1-27-27-27s-27 12.1-27 27v28.5h13.6" stroke="#000" stroke-width="3" stroke-miterlimit="10" id="path56"/><path d="M1034.55 1424.86c2.9 4.9 4.4 10.5 4.4 16.2v50.2h-7.3c-2.4 0-4.5 1.5-5.3 3.7l-.9 2.6h19.5v-8.2h4.5v-25.5" stroke="#000" stroke-width="3" stroke-miterlimit="10" id="path57"/><path d="M1071.85 1424.66c-2.9 4.9-4.4 10.5-4.4 16.2v17" stroke="#000" stroke-width="3" stroke-miterlimit="10" id="path58"/><path d="M1039.35 1464.36h27" stroke="#000" stroke-width="3" stroke-miterlimit="10" id="path59"/><path d="M1031.85 1457.86v2.2l1.5 4.5h4.1" stroke="#000" stroke-width="3" stroke-miterlimit="10" id="path60"/><path d="M1074.15 1457.86v2.2l-1.4 4.5h-4.2" stroke="#000" stroke-width="3" stroke-miterlimit="10" id="path61"/><path d="M1067.45 1453.26v36h-4.5v8.2h-12l1.3-4.6c.5-1.7 2.1-2.9 3.9-2.9v-25.5" stroke="#000" stroke-width="3" stroke-miterlimit="10" id="path62"/><path d="M1034.55 1379.86v4.5c0 9.9 8 17.8 17.9 18 10.1.2 18.1-8 18.1-18v-4.5c0-9.9-7.6-6.6-17.5-6.8-10.1-.2-18.5-3.3-18.5 6.8Z" stroke="#000" stroke-width="3" stroke-miterlimit="10" id="path63"/><path d="M1052.45 1402.26c15.74 0 28.5-11.06 28.5-24.7s-12.76-24.7-28.5-24.7-28.5 11.06-28.5 24.7 12.76 24.7 28.5 24.7Z" stroke="#000" stroke-width="3" stroke-miterlimit="10" id="path64"/><path d="M1062.95 1403.86v11.2h-.8l-8.2-8.2h-1.5l-9 8.2h-.7v-11.2" stroke="#000" stroke-width="3" stroke-miterlimit="10" id="path65"/><path d="M1056.35 1463.86v-18.8l-13.6-28.5v-2.3" stroke="#000" stroke-width="3" stroke-miterlimit="10" id="path66"/><path d="M1062.95 1413.56v3l-9.8 21v1.5" stroke="#000" stroke-width="3" stroke-miterlimit="10" id="path67"/><path d="m1047.15 1412.06 3.8 5.2v2.3l-2.2 9" stroke="#000" stroke-width="3" stroke-miterlimit="10" id="path68"/><path d="m1059.15 1412.06-3.7 5.2v2.3l2.3 9" stroke="#000" stroke-width="3" stroke-miterlimit="10" id="path69"/><path d="M1051.75 1445.86v3" stroke="#000" stroke-width="3" stroke-miterlimit="10" id="path70"/><path d="M1052.87 1382.77c1.77 0 4.08.5 6.04 1.05.95.26 1.78.53 2.38.72v10.78c-.6.18-1.42.42-2.35.65-1.96.5-4.29.96-6.07.96-1.79 0-4.12-.46-6.08-.96-.93-.23-1.75-.47-2.35-.65v-10.78c.6-.19 1.43-.46 2.38-.72 1.96-.55 4.28-1.05 6.05-1.05Z" stroke="#000" stroke-width="3" id="path71"/><path stroke="#000" stroke-width="2" id="line71" d="M1047.12 1388.01h11.49"/><path stroke="#000" stroke-width="2" id="line72" d="M1061.88 1388.85h7.3"/><path stroke="#000" stroke-width="2" id="line73" d="M1035.71 1388.85h7.31"/><path stroke="#000" stroke-width="2" id="line74" d="M1061.88 1392.61h5.89"/><path stroke="#000" stroke-width="2" id="line75" d="M1037.28 1392.61h6.57"/><path stroke="#000" stroke-width="2" id="line76" d="M1047.12 1391.77h11.49"/></g></g><g id="g393"><path d="M600.275 763.776v9.9l12.8-5.4-.8-4.5 3-6h3v14.2l-24.8 12h-.8l-1.5-17.6c0-14.9 12.1-27 27-27s27 12.1 27 27l-1.5 17.6h-.8l-24.8-12v-14.2h3l3 6-.8 4.5 12.8 4.7v-9.2" stroke="#000" stroke-width="3" stroke-miterlimit="10" id="path76"/><path d="M600.274 721.376c0 9.9 8 17.8 17.9 18 10.1.2 18.1-8 18.1-18v-9c0-9.9-8-17.8-17.9-18-10.1-.2-18.1 8-18.1 18z" stroke="#000" stroke-width="3" stroke-miterlimit="10" id="path77"/><path d="M610.774 740.876c0 4.1 3.4 7.5 7.5 7.5s7.5-3.4 7.5-7.5" stroke="#000" stroke-width="3" stroke-miterlimit="10" stroke-linecap="round" stroke-linejoin="round" stroke-dasharray=".15 .15" id="path78"/><path d="M618.274 714.876a.5.5 0 1 1 0 1 .5.5 0 0 1 0-1Z" stroke="#000" stroke-width="2" id="path79"/><path d="M633.475 780.276v55.5h-9.2v1.8h-24.3l4.5-58.1" stroke="#000" stroke-width="3" stroke-miterlimit="10" id="path80"/><path d="M639.274 749.676c-5.1 3.9-12.3 6.4-20.3 6.4-8.8 0-16.7-3-21.7-7.7" stroke="#000" stroke-width="3" stroke-miterlimit="10" id="path81"/><path d="M618.274 778.376v-1.5" stroke="#000" stroke-width="3" stroke-miterlimit="10" id="path82"/><path d="M624.274 781.776v52.5" stroke="#000" stroke-width="3" stroke-miterlimit="10" id="path83"/><path d="M618.274 694.376c0 10-6 19-15.2 22.8l-2.8 1.2" stroke="#000" stroke-width="3" stroke-miterlimit="10" id="path84"/><path d="M618.274 694.376c0 10 6 19 15.2 22.8l2.8 1.2" stroke="#000" stroke-width="3" stroke-miterlimit="10" id="path85"/><path d="M610.774 695.376c0-3.9 3.1-7 7-7s7 3.1 7 7" stroke="#000" stroke-width="3" stroke-miterlimit="10" id="path86"/><path d="M600.274 721.376v18" stroke="#000" stroke-width="3" stroke-miterlimit="10" stroke-linecap="round" stroke-linejoin="round" stroke-dasharray=".15 .15" id="path87"/><path d="M636.274 721.376v18" stroke="#000" stroke-width="3" stroke-miterlimit="10" stroke-linecap="round" stroke-linejoin="round" stroke-dasharray=".15 .15" id="path88"/><path d="M591.274 768.976h9" stroke="#000" stroke-width="3" stroke-miterlimit="10" id="path89"/><path d="M636.274 768.976h9" stroke="#000" stroke-width="3" stroke-miterlimit="10" id="path90"/><path d="M604.774 780.976h28.5" stroke="#000" stroke-width="3" stroke-miterlimit="10" id="path91"/><path d="M618.15 719.876c1.77 0 4.087.503 6.049 1.048.945.263 1.775.525 2.375.725v10.774a54 54 0 0 1-2.347.653c-1.966.498-4.296.961-6.077.961s-4.11-.463-6.076-.961a54 54 0 0 1-2.346-.653v-10.774c.599-.2 1.429-.463 2.374-.725 1.962-.545 4.279-1.048 6.048-1.048Z" stroke="#000" stroke-width="3" id="path92"/><path stroke="#000" stroke-width="2" id="line92" d="M612.406 725.117h11.49"/><path stroke="#000" stroke-width="2" id="line93" d="M627.165 725.957h7.301"/><path stroke="#000" stroke-width="2" id="line94" d="M601 725.957h7.302"/><path stroke="#000" stroke-width="2" id="line95" d="M627.165 729.715h5.887"/><path stroke="#000" stroke-width="2" id="line96" d="M602.562 729.715h6.575"/><path stroke="#000" stroke-width="2" id="line97" d="M612.406 728.875h11.49"/></g><g id="g396"><path d="M613.049 1476.96h12v21c0 .8-.7 1.5-1.5 1.5h-16.5c-.8 0-1.5-.7-1.5-1.5v-4.5c0-2.1 1.5-4 3.6-4.4l3.9-.1z" stroke="#000" stroke-width="3" stroke-miterlimit="10" id="path97"/><path d="M619.049 1488.96h-7.5" stroke="#000" stroke-width="3" stroke-miterlimit="10" id="path98"/><path d="M614.549 1484.46h4.5" stroke="#000" stroke-width="3" stroke-miterlimit="10" id="path99"/><path d="M643.049 1476.96h-12v21c0 .8.7 1.5 1.5 1.5h16.5c.8 0 1.5-.7 1.5-1.5v-4.5c0-2.1-1.5-4-3.6-4.4l-3.9-.1z" stroke="#000" stroke-width="3" stroke-miterlimit="10" id="path100"/><path d="M637.049 1488.96h7.5" stroke="#000" stroke-width="3" stroke-miterlimit="10" id="path101"/><path d="M641.549 1484.46h-4.5" stroke="#000" stroke-width="3" stroke-miterlimit="10" id="path102"/><path d="M601.049 1431.96c0-14.9 12.1-27 27-27s27 12.1 27 27" stroke="#000" stroke-width="3" stroke-miterlimit="10" id="path103"/><path d="M646.049 1386.96c0 9.9-8.1 18-18 18s-18-8.1-18-18" stroke="#000" stroke-width="3" stroke-miterlimit="10" id="path104"/><path d="M646.049 1388.46h3s6-6 0-12c0 0 1.5-21-21-21s-21 21-21 21c-6 6 0 12 0 12h3" stroke="#000" stroke-width="3" stroke-miterlimit="10" id="path105"/><path d="M611.549 1374.96s6-3 16.5-3 16.5 3 16.5 3" stroke="#000" stroke-width="3" stroke-miterlimit="10" id="path106"/><path d="m620.549 1406.46 7.5 9 7.5-9" stroke="#000" stroke-width="3" stroke-miterlimit="10" id="path107"/><path d="M611.549 1410.96h7.4v4.5l9.1 3 9-3v-4.5h7.5" stroke="#000" stroke-width="3" stroke-miterlimit="10" id="path108"/><path d="M614.549 1424.46v51.7" stroke="#000" stroke-width="3" stroke-miterlimit="10" id="path109"/><path d="M641.549 1427.46v48" stroke="#000" stroke-width="3" stroke-miterlimit="10" id="path110"/><path d="M628.049 1418.46v17.5" stroke="#000" stroke-width="3" stroke-miterlimit="10" id="path111"/><path d="M601.049 1431.96v31.5" stroke="#000" stroke-width="3" stroke-miterlimit="10" id="path112"/><path d="m614.549 1455.96 27 .2" stroke="#000" stroke-width="3" stroke-miterlimit="10" id="path113"/><path d="M617.549 1426.06h7.5" stroke="#000" stroke-width="3" stroke-miterlimit="10" id="path114"/><path d="M601.049 1455.16h6" stroke="#000" stroke-width="3" stroke-miterlimit="10" id="path115"/><path d="M601.049 1450.76h9" stroke="#000" stroke-width="3" stroke-miterlimit="10" id="path116"/><path d="M601.049 1461.96h54v-30" stroke="#000" stroke-width="3" stroke-miterlimit="10" id="path117"/><path d="M646.049 1386.96c0-3.3-2.7-6-6-6h-24c-3.3 0-6 2.7-6 6" stroke="#000" stroke-width="3" stroke-miterlimit="10" id="path118"/><path d="m644.549 1410.96-30 45" stroke="#000" stroke-width="3" stroke-miterlimit="10" id="path119"/><path d="m649.049 1415.46-27 40.5" stroke="#000" stroke-width="3" stroke-miterlimit="10" id="path120"/><path d="M614.549 1462.76v5.2h-2.3v3.8h-4.8l-2.6-4v-5" stroke="#000" stroke-width="3" stroke-miterlimit="10" id="path121"/><path d="M642.249 1462.76v5.2h2.3v3.8h4.9l2.6-4v-5" stroke="#000" stroke-width="3" stroke-miterlimit="10" id="path122"/><path d="M655.049 1455.16h-6" stroke="#000" stroke-width="3" stroke-miterlimit="10" id="path123"/><path d="M655.049 1450.76h-9" stroke="#000" stroke-width="3" stroke-miterlimit="10" id="path124"/><path d="m626.549 1461.96-1.5 15" stroke="#000" stroke-width="3" stroke-miterlimit="10" id="path125"/><path d="m629.549 1461.96 1.5 15" stroke="#000" stroke-width="3" stroke-miterlimit="10" id="path126"/><path d="M628.233 1385.46c1.77 0 4.087.5 6.049 1.05.945.26 1.775.53 2.375.72v10.78c-.599.18-1.418.42-2.347.65-1.966.5-4.296.96-6.077.96s-4.11-.46-6.076-.96c-.929-.23-1.747-.47-2.346-.65v-10.78c.599-.19 1.429-.46 2.374-.72 1.962-.55 4.279-1.05 6.048-1.05Z" stroke="#000" stroke-width="3" id="path127"/><path stroke="#000" stroke-width="2" id="line127" d="M622.489 1390.7h11.49"/><path stroke="#000" stroke-width="2" id="line128" d="M637.248 1391.54h7.301"/><path stroke="#000" stroke-width="2" id="line129" d="M611.083 1391.54h7.302"/><path stroke="#000" stroke-width="2" id="line130" d="M637.248 1395.3h5.887"/><path stroke="#000" stroke-width="2" id="line131" d="M612.645 1395.3h6.575"/><path stroke="#000" stroke-width="2" id="line132" d="M622.489 1394.46h11.49"/></g><g id="g403"><path d="M187.95 1045.46v4.5c0 9.9 8 17.8 17.9 18 10.1.2 18.1-8 18.1-18v-4.5c0-9.9-7.4-5.8-17.3-6-10.1-.2-18.7-4.1-18.7 6Z" stroke="#000" stroke-width="3" stroke-miterlimit="10" id="path132"/><path d="M232.95 1043.16c0 13.7-11.3 24.8-27 24.8s-27-11.1-27-24.8 10.5-21 26.2-21 27.8 7.3 27.8 21Z" stroke="#000" stroke-width="3" stroke-miterlimit="10" id="path133"/><path d="M220.95 1113.66v48h-4.5v8.2h-11.3v-4.5c.5-1.7 2.7-3 4.5-3l-.4-30.2h-3.4l-3 29.5h-4.5v8.2h-16.7l.2-2.6c.8-2.2 2.9-3.4 5.3-3.4h5.2v-36.2" stroke="#000" stroke-width="3" stroke-miterlimit="10" id="path134"/><path d="M185.95 1099.16v8.3l8.7 6.7h7.5v.8l-1.5 1.5 5.3 4.5-3 3h-5.3l-6-5.3-13.5-8.9v-10.6h13.5" stroke="#000" stroke-width="2.876" stroke-miterlimit="10" id="path135"/><path d="M226.95 1108.16h-8.2c-1.7-2.3-4.7-3.8-7.5-3.8v1.5h-4.5v4.1l4.5 4.1h22.5v-18" stroke="#000" stroke-width="3" stroke-miterlimit="10" id="path136"/><path d="M199.75 1070.16c.9 2.5 3.3 4.3 6.1 4.3s5.2-1.8 6.1-4.3" stroke="#000" stroke-width="3" stroke-miterlimit="10" id="path137"/><path d="M233.65 1096.46c0-15.3-12.4-27.8-27.8-27.8s-27.8 12.4-27.8 27.8v3" stroke="#000" stroke-width="3" stroke-miterlimit="10" id="path138"/><path d="M222.25 1101.76c5.688 0 10.3-4.62 10.3-10.3 0-5.69-4.612-10.3-10.3-10.3s-10.3 4.61-10.3 10.3c0 5.68 4.611 10.3 10.3 10.3Z" stroke="#000" stroke-width="3" stroke-miterlimit="10" id="path139"/><path d="m214.95 1084.16-25.6 24.8" stroke="#000" stroke-width="3" stroke-miterlimit="10" id="path140"/><path d="m214.45 1113.86-10.8 10.8" stroke="#000" stroke-width="3" stroke-miterlimit="10" id="path141"/><path d="m231.35 1096.96-10.8 10.8" stroke="#000" stroke-width="3" stroke-miterlimit="10" id="path142"/><path d="M185.95 1114.96c-.2.7-.2 1.5-.2 2.3 0 5.8 4.7 10.5 10.5 10.5 2.9 0 5.5-1.2 7.4-3.1" stroke="#000" stroke-width="3" stroke-miterlimit="10" id="path143"/><path d="M206.65 1091.66v12.8" stroke="#000" stroke-width="3" stroke-miterlimit="10" id="path144"/><path d="M217.15 1084.16c3.5 3.5 3.5 9.2 0 12.8l-1.5 1.5h-9" stroke="#000" stroke-width="3" stroke-miterlimit="10" id="path145"/><path d="m187.95 1087.16 1.3 2.3c2.1 3.9 3.2 8.2 3.2 12.7v3.8" stroke="#000" stroke-width="3" stroke-miterlimit="10" id="path146"/><path d="M205.934 1047.37c1.77 0 4.086.5 6.049 1.04.945.27 1.775.53 2.375.73v10.77c-.599.18-1.418.42-2.348.66-1.966.49-4.295.96-6.076.96s-4.11-.47-6.076-.96c-.929-.24-1.748-.48-2.347-.66v-10.77c.6-.2 1.43-.46 2.374-.73 1.963-.54 4.279-1.04 6.049-1.04Z" stroke="#000" stroke-width="3" id="path147"/><path stroke="#000" stroke-width="2" id="line147" d="M200.189 1052.61h11.491"/><path stroke="#000" stroke-width="2" id="line148" d="M214.948 1053.45h7.302"/><path stroke="#000" stroke-width="2" id="line149" d="M188.784 1053.45h7.301"/><path stroke="#000" stroke-width="2" id="line150" d="M214.948 1057.21h7.302"/><path stroke="#000" stroke-width="2" id="line151" d="M190.346 1057.21h6.575"/><path stroke="#000" stroke-width="2" id="line152" d="M200.189 1056.37h11.491"/></g><g id="g387"><path d="M608.843 425.596c0-14.9 12.1-27 27-27s27 12.1 27 27" stroke="#000" stroke-width="3" stroke-miterlimit="10" id="path152"/><path d="m622.343 440.596-5.2-4.5v-13.5h1.5c2.8 4.6 3.8 10.3 3.8 15.7v2.3" stroke="#000" stroke-width="3" stroke-miterlimit="10" id="path153"/><path d="M649.343 440.596v-2.3c0-5.4 1-11.1 3.8-15.7h1.5v13.5z" stroke="#000" stroke-width="3" stroke-miterlimit="10" id="path154"/><path d="m641.843 469.096.8 24.8-5.2 3.8v3h12.8v-3l-2.2-2.3v-7.5h3v-20.3" stroke="#000" stroke-width="3" stroke-miterlimit="10" id="path155"/><path d="M643.343 466.096h9l-3-24h-27l-3 24h15v34.5h-16.5v-3l6-2.2 4.5-.8v-6.8h-3v-20.2" stroke="#000" stroke-width="3" stroke-miterlimit="10" id="path156"/><path d="M662.843 425.596v13.5l-9 14.3h-3.8" stroke="#000" stroke-width="3" stroke-miterlimit="10" id="path157"/><path d="M617.843 379.096v1.5c0 9.9 8.1 18 18 18s18-8.1 18-18v-1.5" stroke="#000" stroke-width="3" stroke-miterlimit="10" id="path158"/><path d="M653.843 374.596v-1.5c0-9.9-8.1-18-18-18s-18 8.1-18 18v1.5" stroke="#000" stroke-width="3" stroke-miterlimit="10" id="path159"/><path d="M635.843 374.596c-10.5 0-18 4.5-18 4.5v-7.5s7.5-4.5 18-4.5" stroke="#000" stroke-width="3" stroke-miterlimit="10" id="path160"/><path d="M635.843 374.596c10.5 0 18 4.5 18 4.5v-7.5s-7.5-4.5-18-4.5" stroke="#000" stroke-width="3" stroke-miterlimit="10" id="path161"/><path d="m622.343 442.096 21-43.5" stroke="#000" stroke-width="3" stroke-miterlimit="10" id="path162"/><path d="m628.343 400.096 7.5 15" stroke="#000" stroke-width="3" stroke-miterlimit="10" id="path163"/><path d="M620.843 448.096h16.5" stroke="#000" stroke-width="3" stroke-miterlimit="10" id="path164"/><path d="M637.343 442.096v27h6.7v-27" stroke="#000" stroke-width="3" stroke-miterlimit="10" id="path165"/><path d="M637.343 460.096h-6v-10.5" stroke="#000" stroke-width="3" stroke-miterlimit="10" id="path166"/><path d="M643.143 448.096h7.7" stroke="#000" stroke-width="3" stroke-miterlimit="10" id="path167"/><path d="M608.843 425.596v13.5l8.2 14.3h5.3" stroke="#000" stroke-width="3" stroke-miterlimit="10" id="path168"/><path d="M617.843 380.596v10.5c0 2.5-2 4.5-4.5 4.5 0 2.1 1.7 3.8 3.8 3.8h11.2" stroke="#000" stroke-width="3" stroke-miterlimit="10" id="path169"/><path d="M653.843 380.596v10.5c0 2.5 2 4.5 4.5 4.5 0 2.1-1.7 3.8-3.8 3.8h-11.2" stroke="#000" stroke-width="3" stroke-miterlimit="10" id="path170"/><path d="M635.677 379.596c1.77 0 4.087.503 6.049 1.048.945.262 1.776.525 2.375.725v10.774a54 54 0 0 1-2.347.653c-1.966.498-4.296.961-6.077.961s-4.11-.463-6.076-.961a54 54 0 0 1-2.346-.653v-10.774c.599-.2 1.429-.463 2.374-.725 1.962-.545 4.279-1.048 6.048-1.048Z" stroke="#000" stroke-width="3" id="path171"/><path stroke="#000" stroke-width="2" id="line171" d="M629.933 384.837h11.49"/><path stroke="#000" stroke-width="2" id="line172" d="M644.692 385.677h7.301"/><path stroke="#000" stroke-width="2" id="line173" d="M618.527 385.677h7.302"/><path stroke="#000" stroke-width="2" id="line174" d="M644.692 389.435h5.887"/><path stroke="#000" stroke-width="2" id="line175" d="M620.089 389.435h6.575"/><path stroke="#000" stroke-width="2" id="line176" d="M629.933 388.595h11.49"/></g><g id="g402"><path d="M633.225 1073.28c-4.3-2.9-9.4-4.5-15-4.5-14.9 0-27 12.7-27 27.6v29.2c0 2.6.8 5.2 2.3 7.3l1.4 2h1.5v-3h2.2v-6c0-1.2-1-2.2-2.2-2.2l1.5-26.2" stroke="#000" stroke-width="3" stroke-miterlimit="10" id="path176"/><path d="M600.325 1050.88c0 9.9 8.1 18 18 18s18-8.1 17.9-17.8v-22.2c0-.4-.1-.7-.3-1l-1.2-1.8c-.7-1.1-2.3-1.1-3 0s-2.3 1.1-3 0-2.3-1.1-3 0-2.3 1.1-3 0-2.3-1.1-3 0-2.3 1.1-3 0-2.3-1.1-3 0-2.3 1.1-3 0-2.3-1.1-3 0-2.3 1.1-3 0-2.3-1.1-3 0l-1.2 1.8c-.2.3-.3.6-.3 1z" stroke="#000" stroke-width="3" stroke-miterlimit="10" id="path177"/><path d="M591.425 1097.28h13.6" stroke="#000" stroke-width="3" stroke-miterlimit="10" id="path178"/><path d="M625.725 1070.28c0 4.1-3.4 7.5-7.5 7.5s-7.5-3.4-7.5-7.5" stroke="#000" stroke-width="3" stroke-miterlimit="10" id="path179"/><path d="M604.725 1143.78s32.5-7.7 32.5-34.7v34.9l-5.5 4.2" stroke="#000" stroke-width="3" stroke-miterlimit="10" id="path180"/><path d="M627.225 1071.08c0 12-4 21.8-9 21.8s-9-9.7-9-21.8" stroke="#000" stroke-width="3" stroke-miterlimit="10" stroke-linecap="round" stroke-linejoin="round" stroke-dasharray=".15 .15" id="path181"/><path d="M604.725 1091.28v19" stroke="#000" stroke-width="3" stroke-miterlimit="10" id="path182"/><path d="M611.325 1146.08v11.2h20.4" stroke="#000" stroke-width="3" stroke-miterlimit="10" id="path183"/><path d="M604.725 1109.28h-3v22.5h3v8.3l1.5 3.7 25.5 12" stroke="#000" stroke-width="3" stroke-miterlimit="10" id="path184"/><path d="M600.225 1039.68c0-4 3.5-7.2 7.5-6.9 0 0 4.5 2.2 10.5 2.2s10.5-2.2 10.5-2.2c4-.3 7.5 2.8 7.5 6.9" stroke="#000" stroke-width="3" stroke-miterlimit="10" id="path185"/><path d="m604.725 1104.78-3 1.5v3" stroke="#000" stroke-width="3" stroke-miterlimit="10" id="path186"/><path d="M639.225 1078.78c3.8 4.6 6 10.5 6 17v21h-1.5l-10.9-11.5-9.4-5v-3.8l3-4.5 3 .8 1.5-2.2 5.2 6.8-.8 2.2 3 2.2" stroke="#000" stroke-width="3" stroke-miterlimit="10" id="path187"/><path d="M636.025 1098.78c1.9-5.6 3-12.1 3.2-19.5v-4.5l-3.8-2.2h-2.2v2.2" stroke="#000" stroke-width="3" stroke-miterlimit="10" id="path188"/><path d="M604.725 1131.78s18.6-5.9 28.5-26.1" stroke="#000" stroke-width="3" stroke-miterlimit="10" id="path189"/><path d="M637.025 1097.28h7.4" stroke="#000" stroke-width="3" stroke-miterlimit="10" id="path190"/><path d="m625.625 1157.28.1 3.8-5.3 3.7v3h12.8v-3l-2.2-2.3v-35.2" stroke="#000" stroke-width="3" stroke-miterlimit="10" id="path191"/><path d="M617.425 1158.78v9h-16.4v-3l6-2.3 4.4-.7v-3" stroke="#000" stroke-width="3" stroke-miterlimit="10" id="path192"/><path d="M629.525 1092.18c3.9-9.3 3.7-18.9 3.7-18.9" stroke="#000" stroke-width="3" stroke-miterlimit="10" id="path193"/><path d="M604.725 1109.28c9.1 0 15.3-3.6 19.5-8.4" stroke="#000" stroke-width="3" stroke-miterlimit="10" id="path194"/><path d="M618.642 1048.96c1.77 0 4.086.5 6.049 1.05.945.26 1.775.52 2.375.72v10.78c-.599.18-1.418.41-2.348.65-1.966.5-4.295.96-6.076.96s-4.11-.46-6.076-.96a65 65 0 0 1-2.347-.65v-10.78c.6-.2 1.43-.46 2.374-.72 1.963-.55 4.279-1.05 6.049-1.05Z" stroke="#000" stroke-width="3" id="path195"/><path stroke="#000" stroke-width="2" id="line195" d="M612.897 1054.2h11.491"/><path stroke="#000" stroke-width="2" id="line196" d="M627.656 1055.04h7.302"/><path stroke="#000" stroke-width="2" id="line197" d="M601.492 1055.04h7.301"/><path stroke="#000" stroke-width="2" id="line198" d="M627.656 1058.8h5.888"/><path stroke="#000" stroke-width="2" id="line199" d="M603.054 1058.8h6.575"/><path stroke="#000" stroke-width="2" id="line200" d="M612.897 1057.96h11.491"/></g><g id="g400"><path d="m1065.15 1727.44 1.6 8.3c-2.4 1.8-7.9 3.7-13.5 3.7s-11.9-2-14.3-3.7l2.2-8.3" stroke="#000" stroke-width="3" stroke-miterlimit="10" id="path200"/><path d="M1065.55 1734.84c8.1 4.7 13.5 13.4 13.5 23.4v22.5l-2.2 4.1h-37.9" stroke="#000" stroke-width="3" stroke-miterlimit="10" id="path201"/><path d="m1056.85 1704.94 5.9-4.5c4.5 0 8.2 6.3 8.2 10.8v1.9c0 10-8.2 18.2-18.3 18-9.9-.2-17.7-8.4-17.7-18.3v-1.6c0-4.5 3.7-10.8 8.2-10.8l5.9 4.5c1.1.9 2.5 1.3 3.9 1.3s2.7-.5 3.9-1.3Z" stroke="#000" stroke-width="3" stroke-miterlimit="10" id="path202"/><path d="M1076.45 1784.44v1.1c0 4.1-1.6 8-4.5 10.9h-2.6" stroke="#000" stroke-width="3" stroke-miterlimit="10" id="path203"/><path d="M1065.95 1767.54h-37.5l-2.3-8.2c-.2-.8-.3-1.7-.3-2.6.5-9.4 5.8-17.5 13.5-22" stroke="#000" stroke-width="3" stroke-miterlimit="10" id="path204"/><path d="M1068.15 1759.74h1.8c3.5 0 7.2 6 7.2 6v1.9h-11.2" stroke="#000" stroke-width="3" stroke-miterlimit="10" id="path205"/><path d="M1040.05 1788.24c0-3-.3-6-.9-8.9l-2.4-11.3" stroke="#000" stroke-width="3" stroke-miterlimit="10" id="path206"/><path d="m1071.95 1768.74-2.5 12.6c-.3 1.6-.5 3.2-.5 4.8" stroke="#000" stroke-width="3" stroke-miterlimit="10" id="path207"/><path d="M1078.85 1705.24c0-14.3-11.6-24.3-26-24.3-14.3 0-26 10-26 24.3s11.6 26 26 26c14.4-.1 26-11.7 26-26Z" stroke="#000" stroke-width="2.988" stroke-miterlimit="10" id="path208"/><path d="M1066.65 1735.74v31.4" stroke="#000" stroke-width="3" stroke-miterlimit="10" id="path209"/><path d="M1067.45 1749.14h-39.8" stroke="#000" stroke-width="3" stroke-miterlimit="10" id="path210"/><path d="M1069.65 1780.74h-31.5" stroke="#000" stroke-width="3" stroke-miterlimit="10" id="path211"/><path d="M1053.15 1729.74v9.7" stroke="#000" stroke-width="3" stroke-miterlimit="10" id="path212"/><path d="M1048.65 1729.74v9.7" stroke="#000" stroke-width="3" stroke-miterlimit="10" id="path213"/><path d="M1044.15 1729.74v8.2" stroke="#000" stroke-width="3" stroke-miterlimit="10" id="path214"/><path d="M1057.65 1729.74v9.7" stroke="#000" stroke-width="3" stroke-miterlimit="10" id="path215"/><path d="M1062.15 1729.74v8.2" stroke="#000" stroke-width="3" stroke-miterlimit="10" id="path216"/><path d="M1068.35 1784.44v37.8h-4.5v8.2h-11.2v-4.5c.5-1.7 2.7-3 4.5-3l-.4-37.6h-3.4l-3 36.8h-4.5v8.2h-16.7l.2-2.6c.8-2.2 2.9-3.4 5.3-3.4h5.2v-40.8" stroke="#000" stroke-width="3" stroke-miterlimit="10" id="path217"/><path d="M1053.03 1711.78c1.77 0 4.09.5 6.05 1.05.95.26 1.78.52 2.38.72v10.78c-.6.18-1.42.41-2.35.65-1.97.5-4.3.96-6.08.96s-4.11-.46-6.07-.96c-.93-.24-1.75-.47-2.35-.65v-10.78c.6-.2 1.43-.46 2.37-.72 1.97-.55 4.28-1.05 6.05-1.05Z" stroke="#000" stroke-width="3" id="path218"/><path stroke="#000" stroke-width="2" id="line218" d="M1047.29 1717.02h11.49"/><path stroke="#000" stroke-width="2" id="line219" d="M1062.05 1717.86h7.3"/><path stroke="#000" stroke-width="2" id="line220" d="M1035.88 1717.86h7.3"/><path stroke="#000" stroke-width="2" id="line221" d="M1062.05 1721.62h5.88"/><path stroke="#000" stroke-width="2" id="line222" d="M1037.44 1721.62h6.58"/><path stroke="#000" stroke-width="2" id="line223" d="M1047.29 1720.78h11.49"/></g><g id="g398"><path d="M187.15 1807.94h12v21c0 .8-.7 1.5-1.5 1.5h-16.5c-.8 0-1.5-.7-1.5-1.5v-4.5c0-2.1 1.5-4 3.6-4.4l3.9-.1z" stroke="#000" stroke-width="3" stroke-miterlimit="10" id="path223"/><path d="M193.15 1819.94h-7.5" stroke="#000" stroke-width="3" stroke-miterlimit="10" id="path224"/><path d="M188.65 1815.44h4.5" stroke="#000" stroke-width="3" stroke-miterlimit="10" id="path225"/><path d="M217.15 1807.94h-12v21c0 .8.7 1.5 1.5 1.5h16.5c.8 0 1.5-.7 1.5-1.5v-4.5c0-2.1-1.5-4-3.6-4.4l-3.9-.1z" stroke="#000" stroke-width="3" stroke-miterlimit="10" id="path226"/><path d="M211.15 1819.94h7.5" stroke="#000" stroke-width="3" stroke-miterlimit="10" id="path227"/><path d="M215.65 1815.44h-4.5" stroke="#000" stroke-width="3" stroke-miterlimit="10" id="path228"/><path d="M229.15 1762.94c0-14.9-12.1-27-27-27s-27 12.1-27 27v10.4h13.5" stroke="#000" stroke-width="3" stroke-miterlimit="10" id="path229"/><path d="M220.15 1717.94c0 9.9-8.1 18-18 18s-18-8.1-18-18" stroke="#000" stroke-width="3" stroke-miterlimit="10" id="path230"/><path d="M220.15 1719.44h3s6-6 0-12c0 0 1.5-21-21-21s-21 21-21 21c-6 6 0 12 0 12h3" stroke="#000" stroke-width="3" stroke-miterlimit="10" id="path231"/><path d="M185.65 1705.94s6-3 16.5-3 16.5 3 16.5 3" stroke="#000" stroke-width="3" stroke-miterlimit="10" id="path232"/><path d="m194.65 1737.44 7.5 9 7.5-9" stroke="#000" stroke-width="3" stroke-miterlimit="10" id="path233"/><path d="M185.65 1741.94h7.4v4.5l9.1 3 9-3v-4.5h7.5" stroke="#000" stroke-width="3" stroke-miterlimit="10" id="path234"/><path d="M188.65 1755.44v51.8" stroke="#000" stroke-width="3" stroke-miterlimit="10" id="path235"/><path d="M215.65 1758.44v48" stroke="#000" stroke-width="3" stroke-miterlimit="10" id="path236"/><path d="M202.15 1749.44v17.3" stroke="#000" stroke-width="3" stroke-miterlimit="10" id="path237"/><path d="m188.65 1786.94 27 .2" stroke="#000" stroke-width="3" stroke-miterlimit="10" id="path238"/><path d="M191.65 1756.94h7.5" stroke="#000" stroke-width="3" stroke-miterlimit="10" id="path239"/><path d="M188.65 1792.94h40.5v-30" stroke="#000" stroke-width="3" stroke-miterlimit="10" id="path240"/><path d="M220.15 1717.94c0-3.3-2.7-6-6-6h-24c-3.3 0-6 2.7-6 6" stroke="#000" stroke-width="3" stroke-miterlimit="10" id="path241"/><path d="m218.65 1741.94-30 45" stroke="#000" stroke-width="3" stroke-miterlimit="10" id="path242"/><path d="m223.15 1746.44-27 40.5" stroke="#000" stroke-width="3" stroke-miterlimit="10" id="path243"/><path d="M216.35 1793.74v5.2h2.3v3.8h4.9l2.6-4v-5" stroke="#000" stroke-width="3" stroke-miterlimit="10" id="path244"/><path d="M229.15 1786.24h-6" stroke="#000" stroke-width="3" stroke-miterlimit="10" id="path245"/><path d="M229.15 1781.74h-9" stroke="#000" stroke-width="3" stroke-miterlimit="10" id="path246"/><path d="m200.65 1792.94-1.5 15" stroke="#000" stroke-width="3" stroke-miterlimit="10" id="path247"/><path d="m203.65 1792.94 1.5 15" stroke="#000" stroke-width="3" stroke-miterlimit="10" id="path248"/><path d="M202.334 1716.44c1.77 0 4.087.5 6.049 1.05.945.26 1.776.52 2.375.72v10.78c-.599.18-1.418.41-2.347.65-1.966.5-4.296.96-6.077.96s-4.11-.46-6.076-.96a65 65 0 0 1-2.346-.65v-10.78c.599-.2 1.429-.46 2.374-.72 1.962-.55 4.279-1.05 6.048-1.05Z" stroke="#000" stroke-width="3" id="path249"/><path stroke="#000" stroke-width="2" id="line249" d="M196.59 1721.68h11.49"/><path stroke="#000" stroke-width="2" id="line250" d="M211.349 1722.52h7.301"/><path stroke="#000" stroke-width="2" id="line251" d="M185.184 1722.52h7.302"/><path stroke="#000" stroke-width="2" id="line252" d="M211.349 1726.28h5.887"/><path stroke="#000" stroke-width="2" id="line253" d="M186.746 1726.28h6.575"/><path stroke="#000" stroke-width="2" id="line254" d="M196.59 1725.44h11.49"/></g><g id="g399"><path d="M642.693 1774.06v48h-4.5v8.2h-11.3v-4.4c.5-1.7 2.7-3 4.5-3l-.4-30.2h-3.4l-3 29.5h-4.5v8.2h-16.7l.2-2.6c.8-2.2 2.9-3.4 5.3-3.4h5.2v-36.2" stroke="#000" stroke-width="3" stroke-miterlimit="10" id="path254"/><path d="M641.093 1691.26c2.5 0 4.5 2 4.5 4.5v15c0 9.8-7.9 17.8-17.7 18-10.1.2-18.3-8.3-18.3-18.4v-11.6c-3.3 0-6-4.9-6-8.2h9s21.1-3.2 24-3.4c2.5-.2 4.5 1.7 4.5 4.1Z" stroke="#000" stroke-width="3" stroke-miterlimit="10" id="path255"/><path d="M613.393 1713.06h6c.8 0 1.5-.7 1.5-1.5v-2.2c0-.8-.7-1.5-1.5-1.5h-6l-1.5 1.5z" stroke="#000" stroke-width="3" stroke-miterlimit="10" id="path256"/><path d="M634.393 1713.06h-6c-.8 0-1.5-.7-1.5-1.5v-2.2c0-.8.7-1.5 1.5-1.5h6l1.5 1.5z" stroke="#000" stroke-width="3" stroke-miterlimit="10" id="path257"/><path d="M619.393 1708.56h7.5" stroke="#000" stroke-width="3" stroke-miterlimit="10" id="path258"/><path d="M613.393 1709.26h-4.5" stroke="#000" stroke-width="3" stroke-miterlimit="10" id="path259"/><path d="M644.893 1709.26h-10.5" stroke="#000" stroke-width="3" stroke-miterlimit="10" id="path260"/><path d="M609.693 1698.76h14.9c4.1 0 8.1-.7 11.9-2.2l.2-.1h2.2l.8 6.8c.4 3.4 3.3 6 6.7 6" stroke="#000" stroke-width="3" stroke-miterlimit="10" id="path261"/><path d="M607.393 1759.56v8.3l9 7h7.5v.5l-1.5 1.5 5.3 4.5-3 3h-5.3l-6-5.3-13.5-8.9v-10.3h13.5" stroke="#000" stroke-width="2.876" stroke-miterlimit="10" id="path262"/><path d="M648.693 1768.86h-8.2c-1.7-2.5-4.7-4-7.5-4v1.5h-4.5v4.1l4.5 4.4h22.5v-18.2" stroke="#000" stroke-width="3" stroke-miterlimit="10" id="path263"/><path d="M621.493 1730.56c.9 2.5 3.3 4.3 6.1 4.3s5.2-1.8 6.1-4.3" stroke="#000" stroke-width="3" stroke-miterlimit="10" id="path264"/><path d="M655.393 1756.86c0-15.3-12.4-27.8-27.8-27.8s-27.7 12.4-27.7 27.8v3" stroke="#000" stroke-width="3" stroke-miterlimit="10" id="path265"/><path d="M643.993 1762.16c5.689 0 10.3-4.61 10.3-10.3s-4.611-10.3-10.3-10.3c-5.688 0-10.3 4.61-10.3 10.3s4.612 10.3 10.3 10.3Z" stroke="#000" stroke-width="3" stroke-miterlimit="10" id="path266"/><path d="m636.693 1744.56-25.6 24.8" stroke="#000" stroke-width="3" stroke-miterlimit="10" id="path267"/><path d="m636.193 1774.26-10.8 10.8" stroke="#000" stroke-width="3" stroke-miterlimit="10" id="path268"/><path d="m653.093 1757.36-10.8 10.9" stroke="#000" stroke-width="3" stroke-miterlimit="10" id="path269"/><path d="M607.693 1775.36c-.2.7-.2 1.5-.2 2.3 0 5.8 4.7 10.5 10.5 10.5 2.9 0 5.5-1.2 7.4-3.1" stroke="#000" stroke-width="3" stroke-miterlimit="10" id="path270"/><path d="M628.393 1752.06v12.8" stroke="#000" stroke-width="3" stroke-miterlimit="10" id="path271"/><path d="M638.893 1744.56c3.5 3.5 3.5 9.2 0 12.8l-1.5 1.5h-9" stroke="#000" stroke-width="3" stroke-miterlimit="10" id="path272"/><path d="m609.693 1747.56 1.3 2.3c2.1 3.9 3.2 8.2 3.2 12.7v3.8" stroke="#000" stroke-width="3" stroke-miterlimit="10" id="path273"/><path d="M642.305 1774.14v48h-4.5v8.2h-11.3v-4.4c.5-1.7 2.7-3 4.5-3l-.4-30.2h-3.4l-3 29.5h-4.5v8.2h-16.7l.2-2.6c.8-2.2 2.9-3.4 5.3-3.4h5.2v-36.2" stroke="#000" stroke-width="3" stroke-miterlimit="10" id="path274"/><path d="M640.705 1691.34c2.5 0 4.5 2 4.5 4.5v15c0 9.8-7.9 17.8-17.7 18-10.1.2-18.3-8.3-18.3-18.4v-11.6c-3.3 0-6-4.9-6-8.2h9s21.1-3.2 24-3.4c2.5-.2 4.5 1.7 4.5 4.1Z" stroke="#000" stroke-width="3" stroke-miterlimit="10" id="path275"/><path d="M613.005 1713.14h6c.8 0 1.5-.7 1.5-1.5v-2.2c0-.8-.7-1.5-1.5-1.5h-6l-1.5 1.5z" stroke="#000" stroke-width="3" stroke-miterlimit="10" id="path276"/><path d="M634.005 1713.14h-6c-.8 0-1.5-.7-1.5-1.5v-2.2c0-.8.7-1.5 1.5-1.5h6l1.5 1.5z" stroke="#000" stroke-width="3" stroke-miterlimit="10" id="path277"/><path d="M619.005 1708.64h7.5" stroke="#000" stroke-width="3" stroke-miterlimit="10" id="path278"/><path d="M613.005 1709.34h-4.5" stroke="#000" stroke-width="3" stroke-miterlimit="10" id="path279"/><path d="M644.505 1709.34h-10.5" stroke="#000" stroke-width="3" stroke-miterlimit="10" id="path280"/><path d="M609.305 1698.84h14.9c4.1 0 8.1-.7 11.9-2.2l.2-.1h2.2l.8 6.8c.4 3.4 3.3 6 6.7 6" stroke="#000" stroke-width="3" stroke-miterlimit="10" id="path281"/><path d="M607.005 1759.64v8.3l9 7h7.5v.5l-1.5 1.5 5.3 4.5-3 3h-5.3l-6-5.3-13.5-8.9v-10.3h13.5" stroke="#000" stroke-width="2.876" stroke-miterlimit="10" id="path282"/><path d="M648.305 1768.94h-8.2c-1.7-2.5-4.7-4-7.5-4v1.5h-4.5v4.1l4.5 4.4h22.5v-18.2" stroke="#000" stroke-width="3" stroke-miterlimit="10" id="path283"/><path d="M621.105 1730.64c.9 2.5 3.3 4.3 6.1 4.3s5.2-1.8 6.1-4.3" stroke="#000" stroke-width="3" stroke-miterlimit="10" id="path284"/><path d="M655.005 1756.94c0-15.3-12.4-27.8-27.8-27.8s-27.7 12.4-27.7 27.8v3" stroke="#000" stroke-width="3" stroke-miterlimit="10" id="path285"/><path d="M643.605 1762.24c5.689 0 10.3-4.61 10.3-10.3s-4.611-10.3-10.3-10.3c-5.688 0-10.3 4.61-10.3 10.3s4.612 10.3 10.3 10.3Z" stroke="#000" stroke-width="3" stroke-miterlimit="10" id="path286"/><path d="m636.305 1744.64-25.6 24.8" stroke="#000" stroke-width="3" stroke-miterlimit="10" id="path287"/><path d="m635.805 1774.34-10.8 10.8" stroke="#000" stroke-width="3" stroke-miterlimit="10" id="path288"/><path d="m652.705 1757.44-10.8 10.9" stroke="#000" stroke-width="3" stroke-miterlimit="10" id="path289"/><path d="M607.305 1775.44c-.2.7-.2 1.5-.2 2.3 0 5.8 4.7 10.5 10.5 10.5 2.9 0 5.5-1.2 7.4-3.1" stroke="#000" stroke-width="3" stroke-miterlimit="10" id="path290"/><path d="M628.005 1752.14v12.8" stroke="#000" stroke-width="3" stroke-miterlimit="10" id="path291"/><path d="M638.505 1744.64c3.5 3.5 3.5 9.2 0 12.8l-1.5 1.5h-9" stroke="#000" stroke-width="3" stroke-miterlimit="10" id="path292"/><path d="m609.305 1747.64 1.3 2.3c2.1 3.9 3.2 8.2 3.2 12.7v3.8" stroke="#000" stroke-width="3" stroke-miterlimit="10" id="path293"/><path d="M611.077 1718.73h22.975v8.76" stroke="#000" stroke-width="3" id="path294"/><path stroke="#000" stroke-width="2" id="line294" d="M634.393 1719.83h9.268"/><path stroke="#000" stroke-width="2" id="line295" d="M613.005 1722.11h15.268"/><path stroke="#000" stroke-width="2" id="line296" d="M616.792 1725.27h11.481"/></g><g id="g401"><path d="M1065.85 1169.47a9 9 0 1 0-.001-18.001 9 9 0 0 0 .001 18.001Z" stroke="#000" stroke-width="3" stroke-miterlimit="10" id="path296"/><path d="M1038.85 1092.97c1 2 1.5 4.1 1.5 6.4v1.1h20.2l9.8 3.8v6h-5.2l-4.5-3.8h-29.2l-.8-1.5v-5.2c0-9.5 4.9-18.2 12-23.2" stroke="#000" stroke-width="3" stroke-miterlimit="10" id="path297"/><path d="M1076.35 1050.97v-6.5c-.1-11.8-11.3-21.6-23.8-18.7-8.9 2-15.1 10.2-15.1 19.3v23.9c0 6-3 6.7-3 6.7v.8h12.3c4.4 0 8-3.6 8-8v-7.3c0-5.7 4.6-10.3 10.3-10.3h11.3z" stroke="#000" stroke-width="3" stroke-miterlimit="10" id="path298"/><path d="M1076.35 1047.17v21.8c0 6 3 6.7 3 6.7v.8h-12.7c-3.3 0-6-2.7-6-6" stroke="#000" stroke-width="3" stroke-miterlimit="10" id="path299"/><path d="M1076.35 1053.27v.2c0 9.9-7.7 18.4-17.7 18.6h-4.1" stroke="#000" stroke-width="3" stroke-miterlimit="10" id="path300"/><path d="M1061.35 1114.67h15.8c2.5 0 4.7 1.8 5.1 4.3l3.8 20.4v1.5h-3v3l3.2 1c2.6.8 4.3 3.1 4.3 5.8h-12.8v-4.5h-3" stroke="#000" stroke-width="3" stroke-miterlimit="10" id="path301"/><path d="M1071.85 1114.67h14.3c2.5 0 4.7 1.8 5.1 4.3l3.8 20.4v1.5h-3v3l3.2 1c2.6.8 4.3 3.1 4.3 5.8h-7.5" stroke="#000" stroke-width="3" stroke-miterlimit="10" id="path302"/><path d="M1061.35 1106.47v13.5" stroke="#000" stroke-width="3" stroke-miterlimit="10" id="path303"/><path d="m1009.55 1064.87 9.6.2 11.4 41.4 5.3 31.5" stroke="#000" stroke-width="3" stroke-miterlimit="10" id="path304"/><path d="M1061.35 1100.47h15.8v-6l-3.8-1.5-6.8 3h-5.2" stroke="#000" stroke-width="3" stroke-miterlimit="10" id="path305"/><path d="M1060.55 1100.47v-27.8" stroke="#000" stroke-width="3" stroke-miterlimit="10" id="path306"/><path d="M1032.15 1119.17h33.7l8.3 6v21l-6.8 12" stroke="#000" stroke-width="3" stroke-miterlimit="10" id="path307"/><path d="M1024.55 1169.37c9.5 0 17.2-7.7 17.2-17.2 0-9.49-7.7-17.2-17.2-17.2s-17.2 7.71-17.2 17.2c0 9.5 7.7 17.2 17.2 17.2Z" stroke="#000" stroke-width="3" stroke-miterlimit="10" id="path308"/><path d="M1033.55 1106.47c-5.3 0-10-3.6-11.4-8.7l-5.3-20c-.7-2.6 1.3-5.1 3.9-5.1" stroke="#000" stroke-width="3" stroke-miterlimit="10" id="path309"/><path d="M1024.55 1162.67c5.8 0 10.5-4.7 10.5-10.5 0-5.79-4.7-10.5-10.5-10.5s-10.5 4.71-10.5 10.5c0 5.8 4.7 10.5 10.5 10.5Z" stroke="#000" stroke-width="3" stroke-miterlimit="10" id="path310"/><path d="M1065.65 1162.67a2.2 2.2 0 0 0 2.2-2.2c0-1.21-.99-2.2-2.2-2.2a2.2 2.2 0 0 0-2.2 2.2c0 1.22.98 2.2 2.2 2.2Z" stroke="#000" stroke-width="3" stroke-miterlimit="10" id="path311"/><path d="M1024.55 1154.37a2.2 2.2 0 0 0 2.2-2.2c0-1.21-.99-2.2-2.2-2.2a2.2 2.2 0 0 0-2.2 2.2c0 1.22.98 2.2 2.2 2.2Z" stroke="#000" stroke-width="3" stroke-miterlimit="10" id="path312"/><path d="m1049.35 1076.47 4.8 4.8c1.7 1.7 4 2.7 6.4 2.7" stroke="#000" stroke-width="3" stroke-miterlimit="10" id="path313"/><path d="M1073.35 1125.97h-12.8l-21 15.8" stroke="#000" stroke-width="3" stroke-miterlimit="10" id="path314"/><path d="m1061.35 1119.17-25.5 18.8" stroke="#000" stroke-width="3" stroke-miterlimit="10" id="path315"/><path d="M1040.35 1141.77h34.5" stroke="#000" stroke-width="3" stroke-miterlimit="10" id="path316"/><path d="M1074.15 1146.17h-13.6" stroke="#000" stroke-width="3" stroke-miterlimit="10" id="path317"/><path d="M1034.35 1125.97h-10.5v5.2" stroke="#000" stroke-width="3" stroke-miterlimit="10" id="path318"/><path d="M1077.15 1100.47h5.2l6-9" stroke="#000" stroke-width="3" stroke-miterlimit="10" id="path319"/><path d="M1019.15 1065.07c.9.2 18.2 0 18.2 0" stroke="#000" stroke-width="3" stroke-miterlimit="10" id="path320"/><path d="M1076.35 1155.17h27" stroke="#000" stroke-width="3" stroke-miterlimit="10" id="path321"/><path d="M1074.85 1058.29h-19.9" stroke="#000" stroke-width="3" id="path322"/><path transform="matrix(-1 0 0 1 1072.92 1064.87)" stroke="#000" stroke-width="2" id="line322" d="M0-1h15.268"/><path stroke="#000" stroke-width="2" id="line323" d="M1070.87 1067.16h-13.22"/></g><g id="g394"><path d="m1027.3 818.479 16.3 23.3h8.5v-3.401c0-2.1-1.7-3.8-3.8-3.8h-3.4l-9.1-19" stroke="#000" stroke-width="3" stroke-miterlimit="10" id="path323"/><path d="m1064.8 821.279-5.1 12.9c-1 2.5-.7 5.4.8 7.7h9.3v-3.4c0-2.1-1.7-3.8-3.8-3.8l4.8-13" stroke="#000" stroke-width="3" stroke-miterlimit="10" id="path324"/><path d="M1017.7 808.078v7.5l-6.2 18.401c-.7 2.7-.2 5.499 1.4 7.899h9.4v-3.399c0-2.1-1.7-3.8-3.8-3.8h-.7l6-13 12.8-6.801 14.7 5.101c1.8.5 3.7.8 5.5.8h13.5l17.5 21.099h8.5v-3.399c0-2.1-1.7-3.8-3.8-3.8h-3.4l-9-17.2 7.5-12.3 9 .1c3 0 5.8-1.7 7.1-4.5l2.6-5.701-1.2-2.7h-7.9l-.8-1.899c-1.9-4.2-6-6.901-10.6-6.901h-6.4l-7.5 11.101h-48c-6.3 3.9-13.2 9.899-15.4 16.899l-4.1 13.101h1.5l3.2-4.101c2.9-3.7 5.1-7.899 6.6-12.399h2z" stroke="#000" stroke-width="3" stroke-miterlimit="10" id="path325"/><path d="M1083.8 783.479v11.5c4.2.2 7.7-3.301 7.6-7.601l-.1-3.3" stroke="#000" stroke-width="3" stroke-miterlimit="10" id="path326"/><path d="M1046.4 733.779c.9 2.5 3.3 4.3 6.1 4.3s5.2-1.8 6.1-4.3" stroke="#000" stroke-width="3" stroke-miterlimit="10" id="path327"/><path d="M1079.2 784.079v-24.8c0-15.1-12.4-27.8-27.5-27.5-14.7.3-26.5 12.3-26.5 27l-.2 16.6c0 4.8 1.7 9.5 5 13l5 5.5h1.5l5.2-7.5" stroke="#000" stroke-width="3" stroke-miterlimit="10" id="path328"/><path d="M1032.7 713.479c5.8 0 10.5-4.7 10.5-10.5 0-2.5 2-4.5 4.5-4.5 0 3.3 2.7 6 6 6h8.1c4.7 0 8.4 3.799 8.4 8.399 0 8.4-5.5 16-13.6 18-11.8 2.9-22.5-6.4-22.4-17.5" stroke="#000" stroke-width="3" stroke-miterlimit="10" id="path329"/><path d="M1070.2 738.279s-12.8 18.8-35.2 21h-9.8" stroke="#000" stroke-width="3" stroke-miterlimit="10" id="path330"/><path d="M1049.2 715.379h6" stroke="#000" stroke-width="3" stroke-miterlimit="10" id="path331"/><path d="M1040.2 715.379h-6" stroke="#000" stroke-width="3" stroke-miterlimit="10" id="path332"/><path d="M1070.2 715.379h-6" stroke="#000" stroke-width="3" stroke-miterlimit="10" id="path333"/><path d="M1044.7 718.879c2.87 0 5.2-1.702 5.2-3.8 0-2.099-2.33-3.8-5.2-3.8s-5.2 1.701-5.2 3.8 2.33 3.8 5.2 3.8Z" stroke="#000" stroke-width="3" stroke-miterlimit="10" id="path334"/><path d="M1059 718.879c2.87 0 5.2-1.702 5.2-3.8 0-2.099-2.33-3.8-5.2-3.8s-5.2 1.701-5.2 3.8 2.33 3.8 5.2 3.8Z" stroke="#000" stroke-width="3" stroke-miterlimit="10" id="path335"/><path d="m1062.7 786.279 8.3 7.5 9 24-10.5 3" stroke="#000" stroke-width="3" stroke-miterlimit="10" id="path336"/><path d="M1056 793.079c0-2.2 1.5-4.1 3.7-4.6l3.1-.7v-2.2l9-7.5v-8.2" stroke="#000" stroke-width="3" stroke-miterlimit="10" id="path337"/><path d="M1048.5 793.079c0-2.2-1.5-4.1-3.7-4.6l-3.1-.7v-2.2l-9-7.5v-6.8" stroke="#000" stroke-width="3" stroke-miterlimit="10" id="path338"/><path d="M1056.7 751.079c0 4.6 3.7 8.2 8.2 8.2h15" stroke="#000" stroke-width="3" stroke-miterlimit="10" id="path339"/><path d="M1056.7 751.779v24.7" stroke="#000" stroke-width="3" stroke-miterlimit="10" id="path340"/><path d="M1050.7 771.279v5.2" stroke="#000" stroke-width="3" stroke-miterlimit="10" id="path341"/><path d="M1044 771.279v5.2" stroke="#000" stroke-width="3" stroke-miterlimit="10" id="path342"/><path d="M1038 771.279v5.2" stroke="#000" stroke-width="3" stroke-miterlimit="10" id="path343"/><path d="M1025.2 770.479h31.5" stroke="#000" stroke-width="3" stroke-miterlimit="10" id="path344"/><path d="M1070.3 714.279c3.3 0 6 2.7 6 6s-2.7 6-6 6c-1.3 0-2.6-.4-3.6-1.2" stroke="#000" stroke-width="3" stroke-miterlimit="10" id="path345"/><path d="M1034.2 712.779v-9c0-9.9 8.1-18 18-18s18 8.1 18 18v9" stroke="#000" stroke-width="3" stroke-miterlimit="10" id="path346"/><path d="M1048.5 794.479v24.8" stroke="#000" stroke-width="3" stroke-miterlimit="10" id="path347"/><path d="m1072.5 795.279 15 9.8" stroke="#000" stroke-width="3" stroke-miterlimit="10" id="path348"/><path d="m1071 795.279-27.8 14.2h-3v-15" stroke="#000" stroke-width="3" stroke-miterlimit="10" id="path349"/><path d="M1064.2 805.779v4.5h4.5" stroke="#000" stroke-width="3" stroke-miterlimit="10" id="path350"/><path d="M1064.2 814.779v-4.5h-4.5" stroke="#000" stroke-width="3" stroke-miterlimit="10" id="path351"/><path stroke="#000" stroke-width="3" id="line351" style="stroke-width:3" d="M1036.51 722.5h30.19"/></g><g id="g388"><path d="M1028.25 478.996h12v21c0 .8-.7 1.5-1.5 1.5h-16.5c-.8 0-1.5-.7-1.5-1.5v-4.5c0-2.1 1.5-4 3.6-4.4l3.9-.1z" stroke="#000" stroke-width="3" stroke-miterlimit="10" id="path352"/><path d="M1034.25 490.996h-7.5" stroke="#000" stroke-width="3" stroke-miterlimit="10" id="path353"/><path d="M1029.75 486.496h4.5" stroke="#000" stroke-width="3" stroke-miterlimit="10" id="path354"/><path d="M1016.25 433.996c0-14.9 12.1-27 27-27s27 12.1 27 27v6.7" stroke="#000" stroke-width="3" stroke-miterlimit="10" id="path355"/><path d="M1061.25 388.996c0 9.9-8.1 18-18 18s-18-8.1-18-18" stroke="#000" stroke-width="3" stroke-miterlimit="10" id="path356"/><path d="M1061.25 390.496h3s6-6 0-12c0 0 1.5-21-21-21s-21 21-21 21c-6 6 0 12 0 12h3" stroke="#000" stroke-width="3" stroke-miterlimit="10" id="path357"/><path d="M1026.75 376.996s6-3 16.5-3 16.5 3 16.5 3" stroke="#000" stroke-width="3" stroke-miterlimit="10" id="path358"/><path d="m1035.75 408.496 7.5 9 7.5-9" stroke="#000" stroke-width="3" stroke-miterlimit="10" id="path359"/><path d="M1026.75 412.996h7.4v4.5l9.1 3 9-3v-4.5h7.5" stroke="#000" stroke-width="3" stroke-miterlimit="10" id="path360"/><path d="M1029.75 430.996v47.2" stroke="#000" stroke-width="3" stroke-miterlimit="10" id="path361"/><path d="M1043.25 420.496v37.5" stroke="#000" stroke-width="3" stroke-miterlimit="10" id="path362"/><path d="M1016.25 433.996v30.7h35.3" stroke="#000" stroke-width="3" stroke-miterlimit="10" id="path363"/><path d="m1029.75 457.996 18.5.2" stroke="#000" stroke-width="3" stroke-miterlimit="10" id="path364"/><path d="M1032.75 433.196h7.5" stroke="#000" stroke-width="3" stroke-miterlimit="10" id="path365"/><path d="M1016.25 457.196h6" stroke="#000" stroke-width="3" stroke-miterlimit="10" id="path366"/><path d="M1016.25 452.696h9" stroke="#000" stroke-width="3" stroke-miterlimit="10" id="path367"/><path d="M1061.25 388.996c0-3.3-2.7-6-6-6h-24c-3.3 0-6 2.7-6 6" stroke="#000" stroke-width="3" stroke-miterlimit="10" id="path368"/><path d="M1029.75 464.696v5.3h-2.2v3.7h-4.9l-2.6-3.9v-5.1" stroke="#000" stroke-width="3" stroke-miterlimit="10" id="path369"/><path d="m1041.75 463.996-1.5 15" stroke="#000" stroke-width="3" stroke-miterlimit="10" id="path370"/><path d="m1044.75 463.996 1.5 15h11" stroke="#000" stroke-width="3" stroke-miterlimit="10" id="path371"/><path d="M1061.85 502.396s0-5.5 3.7-5.5h7.3c-1.1-1.8-1.8-4.2-1.8-6.4 0-4.2 2.2-7.9 5.5-10" stroke="#000" stroke-width="3" stroke-miterlimit="10" id="path372"/><path d="M1046.05 502.396s0-5.5 3.7-5.5h7.9v-48h-.9l-4.4 6-1-1.5 3.2-9h21l3.2 9h-1l-4.4-4.5h-.9s7.3 18.9 9.4 33.6 2.1 19.9 2.1 19.9" stroke="#000" stroke-width="3" stroke-miterlimit="10" id="path373"/><path d="M1094.45 493.096c0 4.6-3.8 8.4-8.4 8.4h-53.5" stroke="#000" stroke-width="3" stroke-miterlimit="10" id="path374"/><path d="M1060.55 462.496h6" stroke="#000" stroke-width="3" stroke-miterlimit="10" id="path375"/><path d="M1063.55 463.996v4.5" stroke="#000" stroke-width="3" stroke-miterlimit="10" id="path376"/><path d="M1057.55 468.496h8.4c3.5 0 6.3-2.8 6.3-6.3" stroke="#000" stroke-width="3" stroke-miterlimit="10" id="path377"/><path d="M1046.25 478.996v21.7" stroke="#000" stroke-width="3" stroke-miterlimit="10" id="path378"/><path d="M1057.55 443.696v-14.2" stroke="#000" stroke-width="3" stroke-miterlimit="10" id="path379"/><path stroke="#000" stroke-width="2" id="line379" d="M1026.28 388.585h34.97"/><path d="M1052.69 401.496v3.054a9 9 0 0 1-9 9h-1.5a9 9 0 0 1-9-9v-3.054z" stroke="#000" stroke-width="2" id="path380"/><path d="M1037.14 405.746c.7 2.6 3 4.5 5.8 4.5s5.1-1.9 5.8-4.5" stroke="#000" stroke-width="3" stroke-miterlimit="10" id="path381"/></g><g id="g390"><path d="M227.055 425.44c0 9.9-8.1 18-18 18s-18-8.1-18-18" stroke="#000" stroke-width="3" stroke-miterlimit="10" id="path382"/><path stroke="#000" stroke-width="2" id="line382" d="M189.551 425.029h39.068"/><path d="M218.494 427.94v3.054a9 9 0 0 1-9 9h-1.501a9 9 0 0 1-9-9v-3.054z" stroke="#000" stroke-width="2" id="path383"/><path d="M202.944 432.19c.7 2.6 3 4.5 5.8 4.5s5.1-1.9 5.8-4.5" stroke="#000" stroke-width="3" stroke-miterlimit="10" id="path384"/></g><g id="g404"><g clip-path="url(#clip0_11_67199)" id="g386"><path d="M189.693 124.297q-1.899.984-4.723.984-3.656 0-5.859-2.308-2.203-2.309-2.203-6.059 0-4.03 2.472-6.516 2.485-2.484 6.27-2.484 2.438 0 4.043.691v2.766q-1.7-1.008-3.75-1.008-2.73 0-4.43 1.746-1.687 1.746-1.687 4.664 0 2.778 1.582 4.43 1.581 1.641 4.16 1.641 2.379 0 4.125-1.125zm13.547.703h-2.719v-6.562q0-3.564-2.379-3.563-1.195 0-2.016 1.031-.82 1.032-.82 2.637V125h-2.73v-17.766h2.73v7.758h.047q1.359-2.273 3.891-2.273 3.996 0 3.996 4.886zm12.515 0h-2.636v-1.875h-.047q-1.242 2.156-3.645 2.156-1.769 0-2.777-.961-.996-.96-.996-2.543 0-3.398 3.914-3.961l3.562-.504q0-2.565-2.437-2.566-2.145 0-3.867 1.477v-2.379q1.898-1.125 4.382-1.125 4.548 0 4.547 4.476zm-2.625-5.895-2.519.352q-1.172.153-1.77.574-.585.41-.586 1.453 0 .762.539 1.254.552.481 1.465.481 1.242 0 2.051-.867.82-.88.82-2.204zm12.914-3.515q-.492-.387-1.418-.387-1.206 0-2.015 1.09t-.809 2.965V125h-2.719v-12h2.719v2.473h.047q.399-1.266 1.219-1.969.833-.715 1.851-.715.74 0 1.125.223zm11.133 9.41h-2.636v-1.875h-.047q-1.242 2.156-3.645 2.156-1.77 0-2.777-.961-.996-.96-.996-2.543 0-3.398 3.914-3.961l3.562-.504q0-2.565-2.437-2.566-2.145 0-3.867 1.477v-2.379q1.898-1.125 4.382-1.125 4.547 0 4.547 4.476zm-2.625-5.895-2.519.352q-1.172.153-1.77.574-.586.41-.586 1.453 0 .762.539 1.254.551.481 1.465.481 1.242 0 2.051-.867.82-.88.82-2.204zm14.543 5.344q-1.441.832-3.41.832-2.672 0-4.312-1.664-1.641-1.675-1.641-4.336 0-2.964 1.758-4.758 1.77-1.804 4.722-1.804 1.641 0 2.895.574v2.531q-1.254-.937-2.672-.937-1.723 0-2.824 1.172-1.102 1.16-1.102 3.046 0 1.864 1.032 2.942 1.043 1.078 2.789 1.078 1.464 0 2.765-1.043zm9.035.422q-.797.399-2.097.399-3.492 0-3.492-3.352v-6.785h-2.004V113h2.004v-2.777l2.718-.774V113h2.871v2.133h-2.871v6q0 1.067.387 1.523.386.457 1.289.457.691 0 1.195-.398zm12.364-5.133h-8.18q.047 1.665 1.019 2.567.985.902 2.696.902 1.922 0 3.527-1.148v2.191q-1.64 1.032-4.336 1.031-2.648 0-4.16-1.629-1.5-1.64-1.5-4.605 0-2.8 1.652-4.559 1.665-1.769 4.125-1.769 2.462 0 3.809 1.582 1.348 1.581 1.348 4.394zm-2.625-1.922q-.012-1.464-.692-2.273-.68-.82-1.875-.82-1.171 0-1.992.855-.808.856-.996 2.238zm12.175-2.226q-.491-.387-1.418-.387-1.206 0-2.015 1.09t-.809 2.965V125h-2.719v-12h2.719v2.473h.047q.399-1.266 1.219-1.969.832-.715 1.851-.715.74 0 1.125.223zm1.336 9.035v-2.52q1.524 1.161 3.364 1.161 2.46 0 2.461-1.454 0-.41-.211-.691a2 2 0 0 0-.575-.516 4.3 4.3 0 0 0-.843-.398q-.481-.176-1.078-.398a12 12 0 0 1-1.336-.621 4.3 4.3 0 0 1-.985-.739 2.9 2.9 0 0 1-.586-.949q-.2-.528-.199-1.23 0-.868.41-1.524a3.5 3.5 0 0 1 1.102-1.113 5.1 5.1 0 0 1 1.57-.68 7 7 0 0 1 1.817-.234q1.663 0 2.976.504v2.379q-1.266-.868-2.906-.868-.515 0-.938.106-.41.105-.703.293a1.4 1.4 0 0 0-.457.457 1.05 1.05 0 0 0-.164.574q0 .387.164.656.165.27.481.481.327.2.773.375.457.164 1.043.363.774.317 1.383.645a4.5 4.5 0 0 1 1.055.75q.433.41.668.961.234.539.234 1.289 0 .913-.422 1.593a3.5 3.5 0 0 1-1.125 1.125 5.2 5.2 0 0 1-1.629.657 8.2 8.2 0 0 1-1.933.222q-1.97 0-3.411-.656Z" fill="#000" fill-opacity=".896" id="path385"/><path d="M180.236 226.773v-9.57q1.289 1.172 3.047 2.109a26 26 0 0 0 3.789 1.602q1.992.625 3.984.977 1.992.351 3.672.351 5.86 0 8.711-1.953 2.89-1.953 2.891-5.664 0-1.992-.977-3.437-.937-1.485-2.656-2.696-1.719-1.21-4.063-2.304a185 185 0 0 0-4.961-2.344 82 82 0 0 1-5.312-3.086q-2.461-1.563-4.297-3.438a15.3 15.3 0 0 1-2.852-4.297q-1.015-2.382-1.015-5.585 0-3.946 1.758-6.836a15 15 0 0 1 4.687-4.805q2.93-1.914 6.641-2.813 3.711-.937 7.578-.937 8.789 0 12.812 1.992v9.18q-4.765-3.438-12.265-3.438-2.07 0-4.141.391-2.031.39-3.672 1.289-1.601.898-2.617 2.305-1.016 1.406-1.016 3.398 0 1.875.782 3.242.78 1.368 2.265 2.5 1.524 1.133 3.672 2.227 2.187 1.054 5.039 2.305a65 65 0 0 1 5.508 3.203q2.617 1.679 4.57 3.711a15.7 15.7 0 0 1 3.125 4.531q1.172 2.46 1.172 5.625 0 4.257-1.719 7.187-1.718 2.93-4.648 4.766-2.89 1.836-6.68 2.656t-8.007.821q-1.407 0-3.477-.235a42 42 0 0 1-4.18-.625 36 36 0 0 1-4.062-.976q-1.914-.587-3.086-1.329Zm62.89 3.165q-9.257 0-14.804-5.586-5.508-5.625-5.508-14.883 0-10.078 5.742-15.742 5.781-5.665 15.547-5.665 9.375 0 14.609 5.508 5.235 5.508 5.235 15.274 0 9.57-5.664 15.351-5.625 5.743-15.157 5.743Zm.43-34.649q-5.313 0-8.398 3.711-3.087 3.71-3.086 10.234 0 6.29 3.125 9.922 3.125 3.594 8.359 3.594 5.352 0 8.203-3.555 2.89-3.554 2.891-10.117 0-6.601-2.891-10.195-2.851-3.594-8.203-3.594Zm58.281 31.875q-4.805 2.774-11.367 2.774-8.906 0-14.375-5.547-5.469-5.586-5.469-14.453 0-9.884 5.86-15.86 5.899-6.015 15.742-6.016 5.469 0 9.648 1.915v8.437q-4.18-3.125-8.906-3.125-5.742 0-9.414 3.906-3.672 3.867-3.672 10.157 0 6.21 3.438 9.804 3.476 3.594 9.297 3.594 4.883 0 9.218-3.477zm13.594-46.562q-2.226 0-3.828-1.446-1.562-1.445-1.562-3.672 0-2.226 1.562-3.711 1.602-1.484 3.828-1.484 2.305 0 3.906 1.484 1.602 1.485 1.602 3.711 0 2.11-1.602 3.633-1.6 1.485-3.906 1.485ZM319.923 229h-9.062v-40h9.062zm42.578 0h-8.789v-6.25h-.156q-4.14 7.188-12.148 7.188-5.9 0-9.258-3.204-3.32-3.203-3.32-8.476 0-11.328 13.046-13.203l11.875-1.68q0-8.555-8.125-8.555-7.148 0-12.89 4.922v-7.93q6.328-3.75 14.609-3.75 15.156 0 15.156 14.922zm-8.75-19.648-8.398 1.171q-3.906.508-5.898 1.915-1.954 1.367-1.954 4.843 0 2.54 1.797 4.18 1.836 1.602 4.883 1.601 4.141 0 6.836-2.89 2.734-2.93 2.734-7.344zM382.697 229h-9.102v-59.219h9.102zm20.937 0h-9.101v-59.219h9.101zm46.485-40-18.047 46.406q-5.625 12.423-15.781 12.422-2.853 0-4.766-.508v-7.539q2.148.703 3.906.703 5.079 0 7.578-5l2.696-6.562L409.806 189h10.039l9.531 29.062q.157.548.704 2.891h.195q.195-.898.703-2.812l10-29.141zm64.453 40h-9.063v-6.797h-.156q-4.375 7.735-13.477 7.735-7.382 0-11.835-5.352-4.415-5.391-4.415-14.648 0-9.923 4.883-15.899 4.923-5.977 13.086-5.977 8.086 0 11.758 6.485h.156v-24.766h9.063zm-8.946-18.281v-5.235q0-4.257-2.773-7.226t-7.07-2.969q-5.079 0-8.008 3.789-2.89 3.79-2.891 10.508 0 6.094 2.774 9.648 2.813 3.516 7.539 3.516 4.649 0 7.539-3.398 2.89-3.438 2.89-8.633Zm25.352-30.117q-2.226 0-3.828-1.446-1.563-1.445-1.563-3.672 0-2.226 1.563-3.711 1.602-1.484 3.828-1.484 2.305 0 3.906 1.484 1.602 1.485 1.602 3.711 0 2.11-1.602 3.633-1.601 1.485-3.906 1.485ZM535.47 229h-9.062v-40h9.062zm9.375-1.25v-8.398q5.079 3.867 11.211 3.867 8.203 0 8.203-4.844 0-1.367-.703-2.305-.704-.977-1.914-1.718-1.172-.742-2.812-1.329-1.602-.585-3.594-1.328a40 40 0 0 1-4.453-2.07q-1.953-1.093-3.282-2.461a9.7 9.7 0 0 1-1.953-3.164q-.663-1.758-.664-4.102 0-2.89 1.367-5.078 1.368-2.226 3.672-3.711 2.306-1.523 5.235-2.265a23.4 23.4 0 0 1 6.054-.782q5.548 0 9.922 1.68v7.93q-4.218-2.89-9.687-2.891-1.72 0-3.125.352-1.368.352-2.344.976-.977.625-1.523 1.524a3.5 3.5 0 0 0-.547 1.914q0 1.288.547 2.187.546.899 1.601 1.602 1.094.664 2.578 1.25 1.524.547 3.477 1.211a48 48 0 0 1 4.609 2.148q2.07 1.094 3.516 2.5a9.5 9.5 0 0 1 2.226 3.203q.782 1.797.782 4.297 0 3.047-1.407 5.313-1.406 2.265-3.75 3.75-2.343 1.484-5.429 2.187-3.048.743-6.446.743-6.562 0-11.367-2.188Zm58.125.82q-2.656 1.328-6.992 1.328-11.64 0-11.641-11.171v-22.618h-6.679V189h6.679v-9.258l9.063-2.578V189h9.57v7.109h-9.57v20q0 3.555 1.289 5.079t4.297 1.523q2.304 0 3.984-1.328zm38.516.43h-8.789v-6.25h-.156q-4.141 7.188-12.149 7.188-5.898 0-9.258-3.204-3.32-3.203-3.32-8.476 0-11.328 13.047-13.203l11.875-1.68q0-8.555-8.125-8.555-7.149 0-12.891 4.922v-7.93q6.329-3.75 14.61-3.75 15.156 0 15.156 14.922zm-8.75-19.648-8.399 1.171q-3.906.508-5.898 1.915-1.953 1.367-1.953 4.843 0 2.54 1.797 4.18 1.836 1.602 4.883 1.601 4.14 0 6.835-2.89 2.735-2.93 2.735-7.344zM688.205 229h-9.063v-22.539q0-11.211-7.93-11.211-4.14 0-6.836 3.125-2.695 3.085-2.695 7.813V229h-9.101v-40h9.101v6.641h.156q4.493-7.578 12.969-7.579 6.523 0 9.961 4.258 3.438 4.219 3.438 12.227zm39.726-1.836q-4.804 2.774-11.367 2.774-8.907 0-14.375-5.547-5.469-5.586-5.469-14.453 0-9.884 5.86-15.86 5.898-6.015 15.742-6.016 5.469 0 9.648 1.915v8.437q-4.18-3.125-8.906-3.125-5.742 0-9.414 3.906-3.672 3.867-3.672 10.157 0 6.21 3.438 9.804 3.476 3.594 9.296 3.594 4.884 0 9.219-3.477zm42.891-15.703h-27.266q.156 5.547 3.399 8.555 3.28 3.007 8.984 3.007 6.406 0 11.758-3.828v7.305q-5.47 3.438-14.453 3.438-8.828 0-13.868-5.43-5-5.469-5-15.352 0-9.336 5.508-15.195 5.548-5.898 13.75-5.899 8.204 0 12.696 5.274 4.491 5.273 4.492 14.648zm-8.75-6.406q-.039-4.884-2.305-7.578-2.265-2.735-6.25-2.735-3.906 0-6.641 2.852-2.694 2.852-3.32 7.461zM815.822 229h-9.063v-6.797h-.156q-4.375 7.735-13.477 7.735-7.382 0-11.835-5.352-4.415-5.391-4.415-14.648 0-9.923 4.883-15.899 4.923-5.977 13.086-5.977 8.086 0 11.758 6.485h.156v-24.766h9.063zm-8.946-18.281v-5.235q0-4.257-2.773-7.226t-7.07-2.969q-5.079 0-8.008 3.789-2.89 3.79-2.891 10.508 0 6.094 2.774 9.648 2.813 3.516 7.539 3.516 4.648 0 7.539-3.398 2.89-3.438 2.89-8.633Z" fill="#000" fill-opacity=".896" id="path386"/></g></g><defs id="defs386"><clipPath id="clip0_11_67199"><path fill="#fff" transform="translate(175.9 104)" id="rect386" style="stroke:var(--stroke-color)" d="M0 0h943v171H0z"/></clipPath></defs></svg>